<?xml version="1.0" standalone="no"?>
<!DOCTYPE svg PUBLIC "-//W3C//DTD SVG 20010904//EN"
 "http://www.w3.org/TR/2001/REC-SVG-20010904/DTD/svg10.dtd">
<svg version="1.0" xmlns="http://www.w3.org/2000/svg"
 width="1024.000000pt" height="1024.000000pt" viewBox="0 0 1024.000000 1024.000000"
 preserveAspectRatio="xMidYMid meet">
<metadata>
Created by potrace 1.16, written by Peter Selinger 2001-2019
</metadata>
<g transform="translate(0.000000,1024.000000) scale(0.100000,-0.100000)"
fill="#000000" stroke="none">
<path d="M4790 10232 c0 -4 5 -13 12 -20 7 -7 10 -12 8 -13 -26 -4 -68 -8
-135 -13 -44 -4 -98 -9 -120 -12 -22 -3 -63 -7 -91 -8 -29 -2 -58 -7 -65 -12
-8 -4 -32 -9 -54 -11 -45 -4 -159 -20 -190 -28 -50 -11 -163 -36 -190 -41 -32
-5 -100 -23 -125 -32 -8 -3 -19 -6 -25 -7 -14 -4 -119 -38 -123 -40 -1 -1 -7
-28 -13 -61 -17 -96 -83 -151 -167 -139 -48 6 -58 11 -105 54 -15 14 -39 27
-53 29 -26 3 -140 -39 -281 -104 -40 -19 -77 -34 -82 -34 -4 0 -19 -8 -32 -19
-13 -10 -35 -22 -49 -26 -27 -8 -112 -47 -120 -55 -3 -3 -36 -21 -75 -40 -38
-19 -72 -37 -75 -40 -14 -15 -91 -47 -95 -40 -11 18 -45 6 -45 -16 0 -32 -75
-78 -122 -75 -34 2 -38 -1 -38 -23 0 -18 -12 -33 -44 -55 -72 -50 -78 -58 -69
-99 32 -159 -93 -258 -232 -183 -20 10 -45 17 -55 14 -18 -5 -136 -101 -235
-192 -27 -24 -48 -35 -62 -33 -19 3 -23 -1 -23 -21 0 -15 -17 -40 -47 -69 -27
-25 -85 -84 -130 -130 -58 -60 -89 -84 -105 -84 -18 1 -23 -4 -23 -25 0 -33
-50 -99 -76 -99 -13 0 -19 -7 -19 -23 0 -14 -17 -42 -41 -68 -72 -77 -88 -107
-78 -141 4 -17 15 -38 24 -48 8 -9 15 -24 15 -33 0 -9 4 -18 8 -21 14 -9 -3
-95 -25 -124 -39 -53 -135 -80 -183 -50 -27 17 -68 0 -88 -37 -25 -43 -39 -56
-55 -49 -19 7 -33 -14 -19 -28 12 -12 -2 -51 -29 -83 -17 -20 -103 -183 -126
-240 -7 -16 -23 -46 -35 -65 -12 -19 -23 -41 -24 -47 -1 -7 -15 -34 -31 -60
-17 -27 -42 -79 -57 -118 -14 -38 -42 -103 -61 -143 -19 -40 -35 -77 -35 -83
0 -5 -9 -30 -20 -54 -22 -49 -16 -86 19 -104 46 -25 80 -162 43 -176 -7 -3
-11 -8 -9 -13 16 -24 -69 -82 -121 -82 -43 0 -61 -14 -77 -64 -6 -18 -18 -32
-30 -34 -31 -6 -45 -22 -45 -53 0 -18 7 -32 19 -38 17 -9 18 -16 10 -53 -5
-24 -14 -65 -20 -93 -17 -80 -19 -84 -42 -87 -28 -4 -37 -54 -12 -72 14 -10
16 -22 11 -57 -4 -24 -11 -75 -17 -114 -5 -38 -11 -79 -14 -90 -2 -11 -4 -25
-4 -31 -1 -7 -12 -15 -25 -18 -34 -8 -40 -43 -11 -62 18 -12 23 -23 20 -43 -2
-16 -6 -84 -10 -152 -3 -68 -8 -134 -11 -146 -7 -37 12 -67 57 -90 53 -26 73
-48 89 -97 18 -56 4 -115 -37 -153 -19 -18 -40 -33 -46 -33 -7 0 -23 -9 -36
-19 -21 -16 -23 -24 -21 -92 1 -41 2 -83 2 -94 0 -11 4 -33 8 -50 5 -16 11
-84 15 -149 3 -66 8 -123 10 -127 3 -3 7 -21 9 -40 20 -143 40 -244 77 -404
11 -49 22 -99 24 -110 2 -11 13 -54 25 -95 12 -41 22 -79 24 -85 6 -30 27 -45
81 -59 42 -11 67 -24 83 -43 30 -37 46 -93 38 -135 -8 -46 -76 -134 -98 -130
-12 2 -18 -3 -18 -16 0 -27 23 -45 38 -30 8 8 14 4 23 -18 6 -16 15 -36 19
-45 5 -9 23 -54 41 -100 19 -46 37 -85 41 -87 4 -2 8 -8 8 -13 0 -11 101 -221
110 -229 3 -3 29 -53 58 -112 30 -59 58 -110 63 -113 5 -4 9 -17 9 -31 0 -13
5 -24 10 -24 6 0 48 -58 95 -130 52 -80 91 -131 102 -132 20 -1 32 -1 83 6 34
4 80 -14 123 -48 29 -23 48 -98 35 -143 -5 -21 -14 -42 -19 -47 -18 -20 -9
-73 19 -112 65 -88 271 -312 426 -461 47 -46 81 -83 76 -83 -10 0 -8 -19 4
-38 5 -8 19 -12 33 -9 20 4 39 -7 87 -50 170 -150 187 -163 223 -163 16 0 39
9 50 19 59 55 157 49 212 -14 37 -42 47 -92 31 -149 -15 -55 -8 -77 32 -100
48 -27 77 -56 72 -70 -3 -7 2 -18 10 -25 11 -10 19 -9 35 1 17 10 23 9 43 -9
13 -12 35 -26 49 -32 21 -7 26 -15 24 -35 -4 -35 24 -51 53 -30 20 14 25 13
54 -3 18 -10 35 -21 38 -24 9 -12 150 -79 165 -79 8 0 15 -4 15 -10 0 -5 4
-10 10 -10 5 0 43 -15 82 -34 63 -29 144 -64 213 -91 11 -5 23 -7 28 -7 4 1 7
-2 7 -8 0 -5 8 -10 18 -10 9 0 37 -10 62 -21 52 -24 103 -27 124 -8 46 45 64
53 116 57 42 2 62 -2 88 -17 35 -22 72 -75 72 -103 0 -38 23 -68 59 -77 91
-21 350 -82 386 -90 22 -5 100 -17 173 -27 126 -17 134 -20 149 -45 23 -39 50
-43 70 -12 16 24 21 25 72 19 30 -4 121 -9 203 -13 161 -6 166 -5 194 51 30
62 59 86 116 96 56 11 109 -11 148 -60 17 -21 30 -42 30 -47 0 -27 37 -42 90
-38 140 9 227 17 250 21 14 3 63 9 110 14 47 5 96 12 110 14 14 2 63 10 110
16 47 7 94 16 105 21 11 4 36 10 55 13 19 3 82 17 140 32 58 14 113 27 124 30
10 2 43 10 72 19 58 17 64 26 68 103 2 26 6 57 10 69 7 21 67 73 89 77 7 1 17
5 24 9 23 15 93 -2 138 -33 25 -17 43 -35 41 -39 -3 -5 5 -18 18 -30 l24 -23
89 37 c48 21 106 44 128 52 22 8 60 25 85 38 25 13 81 40 125 61 44 20 83 41
86 46 3 6 8 9 10 8 8 -3 63 22 90 41 16 11 29 17 29 13 0 -3 7 -1 15 6 8 7 15
8 15 2 0 -16 49 -21 61 -6 6 8 9 22 6 33 -3 12 4 23 24 35 16 10 29 13 29 8 0
-5 9 -12 20 -15 21 -5 43 20 38 44 -2 7 8 18 22 25 14 7 48 29 75 49 28 19 71
49 97 65 67 41 79 64 67 123 -15 65 10 125 65 161 48 31 83 32 164 5 l61 -21
43 31 c24 16 59 45 80 63 20 18 66 60 103 93 37 33 77 70 88 83 14 14 32 22
55 22 31 0 34 2 29 25 -3 21 6 37 47 79 28 30 83 88 121 131 39 43 85 92 103
110 17 18 32 38 32 44 0 6 5 11 10 11 6 0 10 6 10 13 0 7 12 21 27 32 32 24
83 102 83 127 0 9 -10 36 -22 59 -40 77 -19 163 49 208 33 21 43 23 109 17 67
-6 74 -5 93 16 12 12 21 26 21 31 0 5 9 22 21 38 16 23 26 28 44 23 31 -8 49
23 29 50 -11 16 -11 23 3 47 10 16 21 29 25 29 4 0 8 9 8 21 0 15 4 19 16 15
35 -14 75 40 44 59 -10 6 -4 45 9 55 3 3 30 54 60 113 34 70 58 107 66 103 22
-8 57 23 50 45 -4 12 -1 21 10 25 8 4 20 15 26 26 9 16 6 25 -13 46 -12 14
-17 22 -10 18 18 -11 50 2 63 25 8 16 7 26 -5 44 -22 34 -20 42 14 60 31 16
43 59 19 67 -8 3 -5 22 10 61 28 75 27 82 -11 118 -18 17 -45 42 -60 56 -15
14 -30 41 -34 59 -7 40 3 104 16 104 6 0 10 5 10 11 0 12 15 28 50 52 16 11
44 17 80 17 31 0 63 7 73 15 13 9 31 65 60 184 23 94 47 171 52 171 21 1 38
19 40 44 3 20 -2 27 -20 32 -20 5 -22 10 -16 27 5 12 11 45 15 72 4 28 9 66
12 85 3 19 8 54 11 78 4 27 11 42 20 42 40 0 53 51 18 74 -14 9 -23 21 -21 25
5 8 10 62 21 261 6 105 6 106 -21 133 -15 15 -36 27 -46 27 -46 0 -113 104
-103 157 2 10 4 25 4 33 2 28 48 70 104 94 60 27 68 40 63 101 -2 22 -7 83
-11 135 -8 110 -9 122 -24 210 -6 36 -12 88 -15 115 -2 28 -9 77 -16 110 -6
33 -18 96 -27 140 -8 44 -19 94 -23 110 -8 25 -46 184 -53 220 -2 6 -5 15 -8
20 -4 6 -9 26 -13 45 -8 44 -31 59 -98 61 -49 2 -57 5 -95 46 -24 24 -43 49
-44 56 -2 21 -2 61 0 84 0 13 23 48 51 78 27 30 50 64 50 74 0 17 -69 198
-107 280 -10 23 -13 40 -6 50 14 24 4 49 -19 53 -14 2 -31 21 -49 58 -16 30
-33 61 -39 68 -6 6 -8 12 -4 12 3 0 2 6 -4 13 -25 30 -58 105 -55 123 11 49
-4 79 -32 68 -17 -7 -49 44 -37 59 19 24 10 47 -19 47 -32 0 -43 20 -20 37 22
16 2 48 -30 48 -24 0 -45 24 -112 130 l-32 50 -70 1 c-115 1 -150 18 -181 91
-19 45 -17 82 6 128 20 38 21 105 2 105 -4 0 -16 13 -25 30 -10 16 -30 42 -45
57 -98 101 -143 156 -132 163 23 14 6 45 -24 45 -22 -1 -49 20 -131 100 -57
55 -133 127 -170 160 -37 33 -82 74 -99 90 -17 17 -52 45 -78 63 -27 18 -48
37 -48 42 0 12 -90 65 -110 65 -8 0 -28 -8 -44 -19 -62 -41 -158 -26 -202 32
-26 33 -29 46 -30 112 -1 103 0 99 -36 115 -18 7 -46 25 -62 38 -16 14 -53 38
-83 53 -29 16 -53 31 -53 35 0 4 -11 10 -24 13 -18 4 -23 11 -19 26 10 39 -36
60 -58 27 -5 -7 -58 17 -114 51 -5 4 -12 7 -15 7 -3 0 -57 26 -120 57 -162 79
-246 116 -370 163 -41 16 -80 32 -85 36 -6 5 -29 11 -52 15 -39 6 -42 4 -95
-48 -50 -50 -58 -54 -105 -57 -42 -2 -59 3 -91 26 -47 33 -61 59 -69 128 -3
27 -11 55 -19 61 -7 6 -18 23 -23 37 -6 15 -22 32 -36 39 -22 10 -29 8 -48
-10 -23 -22 -48 -29 -46 -14 5 32 -4 50 -27 56 -33 9 -64 -1 -64 -20 0 -8 -4
-14 -10 -14 -5 0 -10 9 -10 19 0 26 -26 34 -45 14 -17 -16 -19 -16 -175 10
-39 6 -171 26 -210 31 -14 2 -25 8 -25 14 0 6 -9 21 -19 33 l-19 23 -24 -28
c-22 -26 -28 -28 -71 -22 -26 4 -116 9 -201 12 -134 4 -156 2 -172 -12 -11
-10 -19 -25 -19 -36 0 -10 -9 -27 -19 -37 -11 -11 -24 -29 -30 -40 -16 -29
-95 -50 -143 -38 -48 12 -92 56 -107 108 -7 24 -21 44 -34 50 -17 7 -11 9 25
5 35 -2 51 1 63 14 8 9 15 20 15 23 0 4 -43 7 -95 7 -52 0 -95 -4 -95 -8z
m734 -127 c38 -3 87 -8 110 -10 22 -3 64 -7 91 -11 221 -25 654 -116 660 -139
1 -5 8 -32 14 -59 40 -165 251 -226 381 -109 48 43 48 43 83 28 19 -8 37 -11
41 -8 3 4 6 1 6 -5 0 -7 8 -12 18 -12 10 0 22 -4 28 -9 5 -4 52 -25 104 -46
95 -38 288 -125 325 -147 11 -6 38 -21 60 -33 22 -12 67 -37 100 -55 33 -18
75 -40 93 -49 17 -8 32 -19 32 -23 0 -4 4 -8 10 -8 5 0 42 -21 82 -46 l73 -46
0 -62 c0 -40 6 -74 19 -99 19 -39 91 -118 104 -115 4 1 19 -4 33 -10 31 -12
116 -21 125 -13 3 3 9 6 12 7 4 0 20 6 36 13 32 13 54 9 82 -17 10 -9 42 -35
69 -57 28 -22 62 -51 76 -65 15 -14 58 -53 95 -87 144 -128 313 -304 462 -478
42 -49 41 -48 22 -105 -55 -157 58 -310 227 -310 46 0 62 -4 76 -20 9 -11 17
-24 17 -29 0 -4 9 -16 20 -26 11 -10 17 -21 15 -25 -2 -4 4 -15 15 -25 11 -10
20 -21 20 -26 0 -11 82 -144 91 -147 5 -2 9 -12 9 -22 0 -10 6 -25 13 -32 17
-18 124 -226 181 -350 14 -32 38 -83 52 -115 14 -31 37 -85 50 -121 l25 -65
-31 -25 c-16 -14 -30 -31 -30 -38 0 -8 -4 -14 -9 -14 -17 0 -33 -98 -26 -152
8 -59 47 -131 82 -149 13 -7 23 -16 23 -21 0 -4 8 -8 18 -8 10 0 22 -3 26 -7
7 -8 40 -15 73 -17 16 -1 24 -9 29 -28 3 -15 5 -29 5 -30 0 -2 8 -32 19 -68
11 -36 20 -75 20 -87 0 -13 5 -23 11 -23 5 0 8 -3 6 -8 -3 -4 3 -48 14 -97 46
-215 81 -473 94 -682 l5 -73 -34 -14 c-81 -34 -141 -140 -135 -239 3 -42 31
-105 53 -119 6 -4 7 -8 1 -8 -20 0 61 -61 89 -67 l28 -6 -6 -121 c-4 -67 -9
-136 -11 -154 -1 -18 -6 -66 -10 -105 -10 -97 -13 -124 -19 -155 -3 -15 -8
-40 -10 -57 -3 -16 -10 -61 -16 -99 -6 -38 -13 -72 -15 -75 -2 -4 -6 -27 -10
-51 -7 -47 -62 -271 -69 -277 -2 -2 -24 -5 -48 -7 -52 -5 -100 -27 -142 -65
l-28 -26 8 35 c14 54 8 153 -11 203 -16 43 -14 74 5 62 14 -9 87 71 93 102 17
87 -44 192 -136 233 -40 18 -113 21 -167 7 -22 -6 -28 -1 -50 33 -15 24 -35
43 -50 47 -14 3 -29 9 -35 13 -25 17 -106 32 -144 25 -37 -6 -44 -4 -62 19
-19 25 -73 54 -109 59 -8 2 -19 5 -25 8 -99 58 -252 -82 -233 -212 4 -27 1
-33 -27 -46 -44 -21 -76 -78 -129 -229 -67 -188 -78 -249 -60 -324 19 -81 35
-110 97 -174 56 -58 81 -71 202 -112 44 -15 85 -30 90 -34 6 -4 35 -15 65 -24
30 -10 62 -20 70 -23 46 -18 208 -36 266 -30 77 8 155 49 213 113 28 31 51 61
51 67 0 7 10 23 21 37 12 14 19 18 16 9 -7 -22 11 -113 23 -117 6 -2 10 -10
10 -17 0 -7 18 -28 40 -46 33 -28 40 -39 38 -64 -2 -16 -9 -36 -15 -43 -7 -7
-16 -25 -19 -40 -4 -15 -18 -52 -31 -82 -13 -30 -36 -82 -50 -115 -31 -71
-146 -308 -153 -315 -3 -3 -16 -27 -29 -55 -14 -27 -40 -73 -58 -102 -18 -29
-33 -57 -33 -63 0 -5 -4 -10 -10 -10 -5 0 -10 -5 -10 -11 0 -6 -18 -39 -40
-72 l-41 -62 -62 2 c-34 1 -66 -2 -72 -7 -5 -5 -13 -8 -17 -7 -4 1 -17 -6 -28
-16 -11 -9 -23 -17 -26 -17 -25 0 -82 -112 -87 -172 -2 -27 -1 -50 2 -53 2 -3
6 -15 8 -27 2 -12 8 -27 14 -34 13 -15 5 -43 -19 -70 -20 -23 -110 -129 -138
-162 -83 -101 -329 -347 -471 -472 -122 -108 -109 -101 -155 -84 -167 59 -336
-63 -324 -235 3 -43 1 -50 -20 -62 -13 -7 -24 -16 -24 -21 0 -4 -5 -8 -10 -8
-6 0 -21 -9 -32 -20 -12 -11 -41 -29 -64 -41 -24 -11 -53 -28 -66 -38 -13 -10
-32 -21 -44 -25 -11 -3 -29 -14 -40 -24 -54 -48 -646 -331 -720 -344 -13 -2
-20 3 -22 19 -7 50 -103 88 -196 80 l-61 -6 53 16 c28 8 52 19 52 24 0 5 6 6
13 3 7 -2 22 5 34 16 12 11 25 20 28 20 4 0 20 14 37 31 21 20 36 28 47 23 9
-4 42 -9 74 -12 114 -9 183 52 180 159 -1 66 -38 188 -59 196 -8 3 -11 9 -8
14 3 5 -1 12 -8 14 -11 4 -14 27 -14 89 1 46 -4 89 -10 97 -6 8 -17 33 -24 57
-8 24 -24 52 -37 62 -20 16 -22 21 -12 50 15 41 6 103 -27 184 -31 77 -58 100
-132 114 -80 14 -141 -1 -179 -46 -10 -12 -20 -13 -57 -3 -25 6 -56 11 -69 11
-21 0 -23 4 -21 43 3 53 -22 78 -79 83 -23 1 -45 3 -49 3 -4 1 -13 19 -19 41
l-12 41 43 38 44 39 -25 78 c-19 58 -32 82 -50 91 -17 9 -27 9 -36 1 -24 -20
-25 0 -2 33 28 39 30 91 5 118 -12 14 -16 28 -12 45 3 13 2 26 -4 28 -5 2 -17
30 -25 63 -16 60 -51 109 -87 121 -21 6 -23 25 -6 42 22 22 20 94 -4 132 -12
19 -21 43 -19 53 4 28 -26 67 -52 67 -14 0 -18 3 -10 8 20 13 33 58 20 71 -6
6 -7 11 -2 11 5 0 -1 7 -13 16 -22 15 -60 14 -107 -5 -23 -9 -213 -72 -229
-76 -73 -17 -100 -52 -77 -101 17 -38 37 -39 130 -9 114 37 121 39 85 19 -64
-34 -80 -104 -43 -181 20 -41 61 -83 81 -83 6 0 22 13 37 29 22 23 30 27 43
17 13 -9 13 -13 2 -24 -7 -6 -16 -12 -19 -12 -14 0 -66 -60 -60 -69 3 -5 1
-12 -5 -16 -15 -9 -12 -78 5 -102 14 -20 14 -23 -2 -31 -10 -5 -30 -12 -45
-16 -33 -7 -46 -45 -30 -81 15 -32 48 -39 98 -21 41 14 41 14 36 -10 -5 -30
21 -72 54 -84 37 -14 29 -27 -24 -41 -27 -6 -57 -18 -66 -25 -22 -16 -24 -70
-3 -91 22 -22 58 -19 160 16 48 16 87 27 87 24 0 -3 6 -1 13 4 6 6 21 13 32
16 23 8 22 7 -157 -137 -62 -50 -73 -71 -59 -108 13 -36 30 -45 91 -47 30 -2
66 -4 80 -6 14 -1 60 -3 103 -4 47 0 76 -5 72 -11 -3 -5 -12 -7 -20 -3 -8 3
-15 0 -15 -7 0 -6 -4 -9 -8 -6 -7 4 -123 -30 -172 -51 -8 -3 -17 -7 -20 -7
-20 -5 -100 -50 -100 -57 0 -5 -7 -9 -15 -9 -8 0 -15 -5 -15 -10 0 -6 -9 -21
-20 -32 -50 -54 -82 -165 -74 -257 7 -72 107 -395 152 -488 25 -52 84 -121
136 -158 26 -18 69 -37 121 -52 31 -10 175 -11 209 -3 93 24 95 23 51 -6 -22
-15 -43 -33 -48 -40 -4 -7 -13 -19 -20 -26 -17 -19 -37 -79 -37 -116 0 -28 -4
-32 -42 -43 -24 -6 -54 -13 -68 -15 -14 -3 -40 -9 -58 -15 -18 -6 -41 -12 -50
-14 -9 -2 -17 -4 -17 -5 0 -1 -9 -3 -20 -5 -11 -2 -67 -13 -125 -25 -58 -11
-116 -23 -130 -25 -14 -2 -63 -10 -110 -19 -79 -14 -173 -26 -245 -31 -231
-18 -235 -18 -235 -2 0 22 -86 107 -109 107 -11 0 -21 5 -23 11 -2 7 -32 12
-74 12 -91 1 -154 -31 -201 -103 l-32 -48 -73 4 c-202 10 -312 20 -443 40 -55
9 -129 20 -164 25 -35 5 -66 11 -70 13 -3 3 -27 7 -51 11 -25 3 -79 15 -121
25 -42 11 -87 22 -100 24 -13 3 -25 5 -26 7 -3 2 -7 3 -55 12 -21 5 -39 13
-39 20 -2 21 -5 32 -14 52 -8 18 -15 27 -56 76 -29 34 -99 59 -169 59 -58 0
-71 -4 -115 -33 -47 -32 -58 -34 -95 -20 -8 4 -17 7 -20 8 -3 1 -16 7 -30 12
-14 6 -74 32 -135 58 -60 26 -126 54 -145 63 -19 9 -37 16 -40 17 -11 1 -176
87 -185 96 -5 5 -17 9 -26 9 -10 0 -19 3 -21 8 -1 4 -23 17 -48 30 -25 12 -58
30 -75 40 -16 10 -52 31 -78 45 -26 15 -60 36 -75 46 -15 10 -39 25 -54 34
-25 15 -26 19 -21 76 3 32 1 73 -5 91 l-11 31 24 -20 c35 -27 117 -45 170 -36
39 5 45 4 45 -12 0 -20 31 -74 58 -102 21 -22 75 -41 116 -41 38 0 100 31 144
73 36 35 82 120 82 153 0 15 8 24 24 28 33 8 110 85 134 133 11 21 22 55 26
75 5 28 15 42 35 53 36 18 100 91 107 122 4 13 10 23 14 23 7 0 21 32 24 55 1
6 4 15 7 20 3 6 7 30 8 55 4 83 -84 175 -165 172 -29 -1 -36 4 -55 38 -13 22
-26 40 -31 40 -4 0 -8 6 -8 13 0 27 -125 157 -150 157 -6 0 -10 5 -10 10 0 6
-5 10 -10 10 -6 0 -23 11 -37 24 -53 50 -162 92 -265 102 -50 6 -63 3 -102
-20 -69 -40 -198 -172 -244 -248 -9 -16 -20 -28 -24 -28 -4 0 -8 -6 -8 -14 0
-8 -3 -16 -7 -18 -5 -2 -26 -28 -48 -58 -22 -30 -50 -68 -63 -85 -12 -16 -38
-61 -57 -100 -38 -76 -48 -137 -34 -213 10 -52 65 -172 80 -172 5 0 9 -7 9
-15 0 -8 4 -15 9 -15 5 0 11 -6 14 -12 3 -10 -7 -12 -37 -10 -29 2 -56 -4 -90
-22 -45 -23 -76 -25 -76 -5 0 5 -6 9 -14 9 -8 0 -16 3 -18 8 -2 4 -37 36 -78
72 -41 36 -93 81 -115 100 -75 66 -361 355 -414 420 -30 36 -57 67 -60 70 -4
3 -20 22 -36 43 l-29 39 17 61 c9 34 14 79 11 100 -14 120 -133 216 -251 205
-48 -5 -48 -4 -77 41 -87 138 -156 253 -156 261 0 4 -3 10 -7 12 -12 5 -145
262 -201 388 -19 41 -40 89 -48 105 -7 17 -27 63 -44 103 l-31 72 20 21 c74
80 66 231 -16 313 -24 25 -43 35 -114 64 -15 6 -29 21 -32 34 -3 13 -19 77
-37 143 -17 66 -33 133 -36 149 -2 16 -8 43 -13 60 -5 17 -12 47 -14 66 -3 19
-16 105 -30 190 -23 139 -34 241 -52 452 -5 58 -3 67 12 72 21 7 83 58 83 69
0 4 8 16 17 27 42 49 48 139 13 216 -20 46 -78 109 -111 119 -19 6 -20 12 -14
108 6 105 39 412 51 471 2 11 6 38 9 61 3 22 8 48 11 58 3 10 7 30 9 45 2 15
11 56 19 92 8 36 17 76 20 90 17 84 48 195 58 208 6 6 22 12 35 12 14 0 39 8
56 18 29 15 43 28 91 82 19 22 32 68 35 123 3 74 -19 128 -71 175 -9 9 -14 20
-10 26 4 6 7 13 8 16 0 3 3 12 7 20 3 8 13 38 23 65 10 28 21 52 24 55 3 3 12
21 20 40 7 19 23 58 36 85 12 28 32 73 44 100 35 82 64 139 77 153 7 7 13 18
13 23 0 18 2 24 10 34 4 6 17 27 29 48 55 98 65 114 82 139 11 14 19 29 19 32
0 3 21 37 46 76 38 60 49 70 67 64 40 -13 109 -4 162 20 66 30 109 86 125 163
12 55 3 100 -34 184 -4 10 -1 23 8 32 9 9 16 20 16 25 0 6 3 12 8 14 4 2 32
32 62 67 30 36 75 88 100 115 75 86 361 368 429 425 35 29 71 60 79 68 39 39
57 44 95 28 55 -23 133 -19 193 9 83 39 142 142 131 233 l-5 44 57 36 c117 76
262 163 271 163 4 0 10 3 12 8 2 4 21 16 43 27 22 10 69 35 105 55 36 20 68
37 72 39 4 1 59 26 122 56 63 30 126 57 140 61 14 3 26 10 26 14 0 4 12 11 27
15 15 3 50 17 79 31 28 13 56 24 62 24 7 0 34 -16 61 -35 136 -98 331 -26 366
134 10 45 11 46 70 62 70 19 150 39 185 45 21 5 132 28 185 40 11 2 52 9 90
14 39 6 77 12 85 15 30 8 257 34 357 41 l101 6 17 -36 c50 -105 181 -158 293
-118 50 18 132 94 132 122 0 41 18 43 254 25z m3596 -5868 c94 -23 343 -107
350 -117 3 -4 15 -11 28 -14 64 -20 155 -159 154 -234 -2 -147 -105 -338 -199
-370 -20 -6 -33 -7 -33 -1 0 5 5 9 12 9 16 0 108 98 108 115 0 7 4 15 8 17 16
6 52 154 51 208 -1 63 -12 98 -53 161 -33 53 -72 81 -151 114 -60 24 -92 23
-103 -5 -6 -15 -12 -15 -74 4 -62 19 -68 23 -68 48 0 15 -5 30 -11 33 -16 11
-139 13 -145 3 -3 -4 -9 -6 -14 -3 -12 8 -89 -24 -128 -52 -49 -37 -79 -89
-108 -188 -42 -145 -38 -205 17 -288 21 -32 21 -32 -11 3 -18 19 -39 50 -46
68 -17 39 -25 130 -13 138 5 3 9 16 9 29 0 20 30 133 47 175 3 8 8 24 10 34 2
11 7 24 12 30 5 6 12 22 16 35 4 13 19 35 34 48 24 22 33 23 126 21 59 -1 131
-9 175 -21z m47 -184 c18 -7 36 -14 40 -14 5 0 23 -7 42 -15 18 -8 36 -14 38
-14 10 0 79 -35 97 -50 43 -35 71 -74 73 -103 5 -52 -7 -61 -58 -44 -24 8 -65
18 -91 21 -56 8 -69 22 -34 35 27 11 37 44 23 77 -14 33 -64 57 -103 51 -46
-8 -69 -32 -69 -77 l0 -36 -30 15 c-16 9 -31 19 -33 24 -2 4 -9 7 -16 7 -6 0
-29 9 -51 20 -22 11 -48 20 -58 20 -14 0 -18 6 -15 27 5 44 67 74 148 72 36
-2 80 -8 97 -16z m-6374 -1942 c121 -47 321 -259 313 -331 -2 -27 -86 -203
-98 -208 -4 -2 -8 -12 -8 -23 0 -10 -4 -19 -10 -19 -5 0 -10 -6 -10 -14 0 -8
-4 -16 -8 -18 -4 -2 -30 -32 -57 -68 -123 -162 -298 -298 -365 -285 -34 7 -47
23 -16 20 30 -4 96 15 96 27 0 4 4 8 10 8 13 0 37 20 138 115 97 91 213 256
237 337 31 104 10 215 -49 265 -59 50 -72 60 -150 112 -86 59 -145 73 -212 51
-44 -14 -124 -90 -174 -165 -19 -27 -36 -52 -39 -55 -3 -3 -12 -14 -18 -25 -7
-11 -34 -54 -60 -95 -53 -83 -83 -179 -77 -250 3 -41 10 -81 14 -87 3 -3 4 -8
15 -40 4 -13 12 -23 18 -23 6 0 7 -3 4 -7 -8 -7 -47 30 -47 44 0 5 -12 26 -26
47 -22 31 -25 46 -21 84 7 62 16 104 26 117 5 5 12 20 15 32 19 61 220 331
304 408 64 58 102 73 168 64 32 -4 72 -12 87 -18z m-130 -128 c-28 -5 -63 -49
-63 -77 0 -39 24 -70 57 -77 46 -9 97 36 97 85 0 42 10 39 89 -34 61 -55 89
-105 89 -156 0 -36 -31 -108 -60 -140 -10 -10 -33 -40 -51 -67 -18 -26 -76
-92 -130 -146 l-98 -99 -49 2 c-68 4 -125 41 -163 106 -8 14 -23 39 -33 57
l-19 32 30 -9 c32 -9 85 -4 113 11 12 7 18 4 23 -9 17 -56 116 -42 128 17 7
35 -3 71 -27 90 -28 23 -1 41 64 41 85 0 160 33 160 70 0 5 5 10 10 10 6 0 10
7 10 15 0 8 4 15 9 15 14 0 22 49 12 69 -6 10 -19 21 -29 23 -19 5 -62 -23
-62 -40 0 -18 -25 -20 -86 -5 -93 23 -118 6 -221 -145 -30 -43 -56 -68 -68
-67 -21 2 -55 17 -55 23 0 13 52 105 91 163 22 31 39 62 39 68 0 6 3 11 8 11
4 0 19 20 35 44 42 67 111 126 144 125 24 -2 24 -2 6 -6z m3920 -442 c31 -15
57 -37 73 -62 26 -42 33 -67 9 -33 -38 56 -196 95 -293 73 -21 -4 -52 -11 -71
-14 -44 -8 -118 -41 -159 -72 -46 -34 -74 -103 -74 -178 0 -98 82 -379 115
-393 4 -2 7 -8 7 -13 0 -5 16 -35 36 -67 52 -82 88 -97 229 -97 61 0 121 3
135 7 83 22 160 63 160 86 0 6 4 12 8 12 5 0 15 19 22 43 19 58 25 62 28 18 2
-40 -31 -113 -65 -143 -27 -24 -205 -77 -270 -81 -126 -8 -261 65 -300 162 -7
20 -18 45 -23 56 -14 30 -51 146 -57 175 -2 14 -8 29 -14 34 -5 6 -9 18 -9 28
0 10 -4 26 -9 36 -28 54 -41 151 -30 222 5 34 98 127 146 146 21 8 47 19 58
25 127 60 261 72 348 30z m-46 -133 c15 -7 38 -22 49 -33 24 -22 91 -222 99
-295 3 -25 9 -68 13 -95 5 -28 4 -65 0 -83 l-9 -34 -24 26 c-14 15 -35 26 -49
26 l-25 0 24 25 c14 13 25 33 25 44 0 23 -43 56 -60 46 -5 -3 -10 -3 -10 2 0
4 14 14 30 21 17 8 30 20 30 28 0 8 4 14 10 14 21 0 1 74 -26 97 -15 13 -31
23 -36 23 -4 0 -8 11 -8 25 0 15 -11 36 -25 50 -16 14 -22 26 -15 30 17 11 11
47 -12 72 -24 26 -21 28 19 11z"/>
<path d="M4871 9918 c-56 -10 -128 -36 -163 -60 -26 -18 -27 -18 -60 1 -37 22
-105 34 -113 21 -3 -5 -12 -7 -20 -3 -8 3 -15 0 -15 -6 0 -6 -7 -11 -15 -11
-8 0 -15 -7 -15 -15 0 -8 -3 -15 -8 -15 -4 0 -15 -18 -24 -40 -31 -70 -15
-242 25 -271 5 -3 -2 -25 -14 -48 -19 -38 -21 -52 -15 -125 3 -45 12 -100 19
-122 13 -35 12 -43 -7 -79 -25 -48 -27 -151 -4 -206 21 -49 71 -103 112 -123
28 -13 44 -14 79 -6 37 8 56 6 118 -14 136 -44 162 -49 289 -47 130 1 171 6
230 23 38 11 129 68 130 81 0 4 10 18 21 30 40 41 74 125 89 222 13 82 8 494
-6 542 -14 46 -62 122 -105 165 -25 25 -120 77 -151 82 -7 1 -17 4 -23 8 -35
21 -267 32 -354 16z m314 -112 c84 -22 116 -37 151 -74 35 -37 72 -119 76
-173 1 -24 7 -47 12 -50 4 -4 3 -10 -3 -13 -6 -4 -14 1 -17 11 -47 140 -141
235 -259 258 -22 5 -42 9 -45 10 -40 11 -81 19 -105 20 -41 4 -125 -14 -125
-26 0 -6 -4 -8 -9 -4 -5 3 -34 -19 -65 -47 -58 -56 -102 -137 -110 -205 -2
-21 -5 -40 -6 -43 -8 -25 5 -316 15 -350 1 -3 5 -14 10 -25 4 -11 13 -33 20
-50 28 -69 100 -129 192 -159 115 -38 45 -35 -127 6 -68 16 -106 68 -126 175
-11 63 -11 319 0 448 7 68 50 206 68 213 4 2 8 9 8 15 0 7 18 24 40 40 30 21
56 29 112 35 114 11 217 7 293 -12z m-146 -121 c30 -4 63 -10 74 -14 20 -7 20
-8 0 -27 -12 -10 -30 -34 -41 -52 -15 -26 -22 -31 -28 -20 -11 19 -67 38 -91
31 -34 -10 -66 -61 -65 -107 1 -34 -2 -42 -18 -43 -30 -2 -66 -31 -85 -66 -16
-32 -16 -31 -10 48 3 44 7 86 7 93 1 6 5 12 9 12 4 0 10 14 14 30 4 17 10 30
14 30 4 0 14 12 21 26 8 14 28 33 45 42 28 16 84 31 95 26 3 -1 29 -5 59 -9z
m222 -265 c10 0 25 10 33 22 l15 21 11 -28 c11 -28 15 -279 6 -322 -10 -47
-23 -59 -60 -55 -32 4 -76 33 -76 51 0 4 13 6 29 3 43 -6 73 14 69 46 -3 22
-11 29 -53 40 -55 16 -95 54 -95 90 0 26 3 27 34 7 30 -20 95 -23 107 -4 21
34 -8 79 -52 79 -23 0 -100 86 -93 104 5 12 16 8 56 -19 28 -19 58 -35 69 -35z
m-401 -180 c24 0 32 -7 50 -45 18 -37 28 -46 62 -55 33 -9 44 -8 65 5 13 9 26
15 27 13 1 -2 13 -34 25 -72 12 -38 31 -82 41 -97 24 -32 19 -35 -67 -38 -53
-2 -72 3 -136 34 -95 45 -128 95 -142 213 -3 26 -7 62 -10 81 l-4 34 30 -36
c22 -27 38 -37 59 -37z"/>
<path d="M5981 9799 c-38 -15 -70 -50 -103 -114 -27 -52 -31 -69 -30 -135 1
-68 -1 -79 -23 -103 -14 -14 -25 -30 -25 -36 0 -5 -4 -11 -8 -13 -17 -7 -53
-161 -51 -214 2 -45 -1 -59 -22 -82 -50 -56 -71 -115 -74 -207 -4 -112 61
-198 158 -210 32 -4 97 20 97 37 0 8 66 -36 80 -53 10 -12 125 -68 155 -75 17
-4 32 -11 35 -15 3 -4 17 -10 30 -12 14 -2 37 -9 52 -15 46 -19 151 -34 193
-27 51 8 105 27 105 37 0 4 7 8 15 8 8 0 15 4 15 8 0 5 11 15 25 22 14 7 25
16 25 20 0 4 17 25 38 46 43 46 70 98 107 204 15 41 30 84 35 95 4 11 13 40
20 65 7 25 22 72 32 105 44 132 24 281 -50 377 -23 29 -50 61 -61 70 -30 26
-119 74 -171 93 -25 9 -54 20 -65 25 -21 8 -97 25 -157 35 -20 3 -67 1 -104
-5 l-67 -11 -29 35 c-40 49 -118 69 -177 45z m449 -182 c8 -2 55 -16 104 -31
80 -25 96 -34 146 -85 54 -55 86 -103 96 -146 10 -40 12 -121 4 -155 l-8 -35
-2 30 c-2 40 -15 120 -20 120 -1 0 -3 11 -5 25 -4 30 -43 100 -56 100 -5 0 -9
5 -9 11 0 10 -23 34 -67 69 -7 6 -17 10 -23 10 -5 0 -10 5 -10 10 0 6 -8 10
-17 10 -10 0 -31 7 -47 15 -56 29 -159 38 -224 19 -23 -7 -62 -27 -87 -44 -51
-35 -122 -119 -131 -156 -3 -13 -9 -24 -13 -24 -4 0 -15 -28 -26 -62 -10 -35
-21 -67 -25 -73 -15 -22 -33 -135 -32 -207 1 -106 26 -184 69 -222 19 -17 38
-31 41 -32 12 -1 47 -17 52 -24 11 -14 180 -62 237 -67 75 -7 149 14 208 60
32 25 36 27 20 7 -72 -87 -146 -125 -224 -115 -59 7 -291 84 -291 96 0 5 -4 9
-10 9 -20 0 -129 102 -131 123 -1 7 -3 23 -6 37 -13 82 -2 206 28 308 31 108
66 203 101 279 23 50 103 125 150 141 30 10 170 10 208 -1z"/>
<path d="M3808 9724 c-2 -1 -27 -4 -55 -7 -57 -6 -214 -54 -224 -69 -3 -5 -8
-9 -10 -8 -2 1 -22 -6 -44 -15 -22 -10 -42 -19 -45 -19 -22 -4 -100 -65 -118
-92 -20 -31 -26 -34 -73 -34 -106 0 -161 -69 -143 -178 4 -26 8 -49 9 -52 8
-24 28 -66 48 -97 14 -21 25 -56 26 -78 2 -61 41 -166 72 -197 24 -24 27 -34
23 -71 -8 -67 49 -207 84 -207 6 0 12 -4 12 -9 0 -5 16 -15 36 -21 51 -17 115
2 138 41 20 34 16 33 82 15 112 -30 393 21 541 98 66 34 145 145 161 228 8 40
8 143 -1 181 -17 79 -89 302 -99 308 -5 3 -9 9 -9 13 5 35 -115 186 -148 186
-6 0 -11 4 -11 8 0 8 -41 28 -104 52 -28 10 -143 29 -148 24z m134 -120 c55
-18 122 -78 171 -155 74 -116 143 -406 118 -496 -7 -24 -16 -43 -21 -43 -6 0
-10 -5 -10 -10 0 -6 -19 -27 -41 -47 -34 -31 -69 -47 -188 -85 -121 -40 -159
-48 -221 -48 -98 0 -162 23 -221 80 -44 43 -50 55 -105 220 -54 165 -58 181
-58 275 -1 90 1 104 23 135 36 52 60 72 116 98 44 19 235 82 290 95 29 7 93
-2 147 -19z"/>
<path d="M3652 9555 c-181 -40 -257 -133 -251 -306 3 -82 36 -210 78 -302 31
-67 94 -147 116 -147 7 0 15 -7 19 -15 3 -8 9 -14 13 -13 4 0 22 -4 38 -11 92
-39 326 9 429 89 76 59 106 117 106 207 0 45 -83 312 -112 363 -12 19 -36 50
-55 68 -37 35 -118 76 -133 67 -5 -3 -11 -1 -14 3 -9 15 -165 12 -234 -3z
m228 -89 c20 -4 51 -21 69 -37 33 -28 33 -30 15 -44 -10 -8 -21 -15 -24 -15
-11 0 -40 -58 -40 -79 0 -11 10 -30 23 -41 18 -18 32 -21 80 -18 33 2 57 -1
57 -7 0 -6 -20 -21 -45 -34 -35 -19 -46 -30 -51 -56 -12 -67 20 -98 101 -98
35 0 45 -4 40 -14 -3 -8 -5 -18 -5 -23 0 -13 -65 -80 -78 -80 -7 0 -12 -4 -12
-8 0 -4 -23 -16 -52 -27 -50 -18 -51 -18 -65 0 -12 17 -17 40 -10 48 1 2 -3
10 -9 18 -7 8 -15 30 -20 49 -11 49 -11 50 -13 53 -2 1 -5 13 -7 27 -3 14 -22
79 -43 145 -22 66 -44 140 -51 165 -6 25 -13 53 -16 62 -4 13 3 17 28 20 48 4
88 3 128 -6z m-236 -70 c20 -68 20 -72 -1 -79 -10 -3 -45 -15 -77 -27 -45 -16
-61 -18 -67 -9 -8 14 13 92 31 114 9 10 87 55 97 55 1 0 9 -24 17 -54z"/>
<path d="M7325 9301 c-84 -38 -145 -130 -145 -219 l0 -51 -41 -13 c-72 -21
-178 -152 -179 -220 -1 -27 -21 -66 -35 -69 -31 -6 -95 -55 -95 -74 0 -3 -9
-15 -19 -26 -18 -19 -36 -72 -45 -129 -2 -14 3 -46 10 -71 12 -39 21 -49 64
-73 54 -29 97 -35 142 -17 26 10 28 8 52 -42 25 -55 143 -182 196 -214 17 -9
30 -21 30 -25 0 -4 7 -8 15 -8 8 0 15 -4 15 -10 0 -5 7 -10 15 -10 8 0 15 -4
15 -9 0 -5 25 -20 55 -35 105 -50 249 -23 336 63 9 9 29 28 45 42 16 14 55 61
86 105 32 43 80 110 107 147 28 38 56 81 63 98 7 16 16 29 20 29 5 0 8 6 8 13
0 6 7 26 16 42 51 98 20 285 -63 382 -45 53 -53 64 -53 73 0 6 -3 10 -8 10 -4
0 -19 11 -34 24 -14 14 -29 22 -32 19 -3 -4 -6 -1 -6 4 0 6 -30 31 -67 55 -66
42 -70 43 -145 41 l-77 -1 -7 31 c-4 18 -8 35 -8 40 -2 20 -64 81 -100 98 -50
23 -79 23 -131 0z m383 -281 c12 -11 25 -20 31 -20 5 0 11 -4 13 -8 2 -5 28
-25 58 -45 81 -55 82 -55 128 -148 45 -93 63 -171 42 -184 -8 -5 -11 -4 -7 2
8 13 -23 123 -35 123 -5 0 -6 4 -3 10 9 14 -109 129 -183 179 -111 75 -143 81
-237 44 -34 -12 -5 17 33 34 81 37 130 41 160 13z m-51 -133 c2 -3 -1 -17 -7
-33 -14 -37 -6 -82 31 -159 16 -34 29 -72 29 -84 0 -17 -96 -171 -120 -191 -3
-3 -16 -20 -29 -37 -12 -18 -26 -33 -30 -33 -4 0 -21 20 -39 45 -40 57 -67 70
-127 61 -39 -6 -50 -14 -73 -46 -15 -22 -30 -39 -33 -40 -4 0 -15 16 -24 36
-21 46 -14 115 15 146 11 12 20 25 20 30 0 9 49 23 70 20 8 -1 41 -15 74 -30
l58 -27 18 23 c17 20 17 27 5 60 -7 20 -21 52 -30 71 -10 18 -20 53 -23 77 -4
37 -1 47 19 64 49 40 101 60 147 55 25 -3 47 -6 49 -8z m-518 -371 c-6 -21 -8
-63 -6 -93 8 -84 47 -131 199 -242 118 -85 136 -94 187 -100 l56 -6 -43 -12
c-45 -12 -89 -4 -122 21 -8 7 -28 18 -45 26 -44 21 -145 99 -182 140 -73 81
-96 187 -59 274 20 48 29 43 15 -8z m274 -178 c48 -71 88 -99 130 -91 18 4 34
0 47 -12 23 -21 26 -35 6 -35 -8 0 -16 -5 -18 -12 -10 -30 -116 -5 -163 39
-11 10 -37 29 -58 42 -40 25 -40 30 7 74 25 22 31 22 49 -5z"/>
<path d="M2384 9039 c-49 -17 -90 -34 -92 -40 -2 -5 -8 -9 -14 -9 -13 0 -105
-66 -138 -100 -26 -26 -42 -54 -60 -103 -9 -25 -14 -28 -39 -22 -40 9 -106
-13 -138 -44 -28 -28 -54 -82 -59 -121 -4 -31 25 -140 37 -140 5 0 9 -5 9 -11
0 -14 68 -82 98 -98 12 -7 27 -9 32 -6 6 3 10 3 11 -2 6 -88 13 -109 48 -162
55 -79 76 -99 131 -123 48 -21 54 -31 64 -98 1 -3 16 -28 34 -57 69 -107 191
-148 285 -94 15 8 27 19 27 23 0 4 7 8 15 8 8 0 15 7 15 15 0 8 4 15 8 15 9 0
32 59 32 83 0 14 10 17 59 17 73 0 110 13 186 63 95 64 195 177 262 298 25 44
23 70 -13 176 -15 42 -79 149 -109 180 -7 6 -27 35 -46 65 -31 48 -62 88 -96
124 -7 7 -13 17 -13 23 0 6 -4 11 -10 11 -5 0 -20 10 -33 23 -33 31 -66 57
-73 57 -3 0 -18 8 -32 19 -45 31 -132 54 -218 57 -68 2 -95 -2 -170 -27z m298
-102 c29 -12 60 -27 68 -34 8 -7 24 -20 35 -29 11 -8 -2 -4 -30 10 -75 38
-124 53 -189 55 -58 2 -116 -13 -116 -30 0 -5 -20 -9 -45 -9 -28 0 -45 -5 -45
-12 0 -6 -3 -8 -6 -5 -4 4 -19 -2 -34 -13 -16 -11 -31 -20 -35 -20 -3 0 -19
-14 -35 -31 -31 -34 -37 -68 -36 -181 1 -36 -2 -64 -6 -62 -3 2 -14 27 -23 54
-25 75 -13 128 39 182 51 52 83 78 95 78 5 0 14 6 20 14 7 8 23 17 36 20 13 3
37 11 52 18 15 6 37 13 47 15 11 2 22 6 25 9 12 12 131 -7 183 -29z m-116
-198 c-17 -85 99 -189 199 -177 26 3 32 1 24 -9 -6 -7 -7 -18 -3 -25 5 -10 4
-11 -7 0 -19 17 -69 16 -69 -3 0 -8 -5 -15 -10 -15 -6 0 -8 -10 -4 -24 7 -29
-9 -41 -29 -21 -9 8 -20 15 -26 15 -6 0 -11 3 -11 8 0 4 -14 13 -32 21 -45 20
-81 57 -116 121 -50 92 -50 96 4 103 25 2 53 12 62 21 23 22 25 20 18 -15z"/>
<path d="M4175 8645 c-5 -2 -68 -22 -140 -45 -71 -23 -137 -44 -145 -45 -8 -2
-16 -4 -17 -5 -2 -2 -6 -3 -10 -4 -5 -1 -18 -7 -30 -14 -26 -14 -24 -42 8
-141 25 -77 55 -113 108 -131 l38 -12 -22 -24 c-12 -13 -22 -29 -23 -36 -1 -7
-3 -25 -6 -40 -10 -60 42 -168 80 -168 13 0 12 -5 -5 -25 -16 -22 -18 -31 -9
-56 17 -49 39 -54 126 -25 42 14 85 26 94 26 15 0 38 -27 38 -44 0 -2 -30 -14
-67 -26 -97 -32 -130 -49 -136 -69 -7 -27 19 -81 40 -81 37 0 216 66 238 88
12 12 25 40 29 61 6 39 -9 100 -27 113 -6 3 -11 19 -12 35 -3 49 -5 52 -24 63
-13 7 -28 7 -45 0 -32 -12 -34 2 -5 31 18 18 21 30 17 82 -3 34 -10 63 -16 65
-7 2 -12 8 -12 14 0 25 -66 61 -114 61 -27 0 -32 4 -29 18 4 13 11 15 31 9 48
-13 99 13 128 66 14 24 9 133 -6 152 -2 1 -3 5 -5 10 -1 4 -7 20 -13 35 -7 16
-12 32 -12 37 0 11 -31 28 -45 25z"/>
<path d="M4873 8621 c-19 -18 -21 -29 -18 -132 l2 -113 37 -31 37 -31 -26 -14
c-48 -26 -70 -101 -35 -120 28 -15 44 -12 68 10 12 11 26 20 32 20 5 0 10 5
10 10 0 6 7 10 15 10 8 0 15 5 15 10 0 18 19 11 72 -26 64 -45 88 -48 105 -12
16 33 4 69 -33 101 l-26 23 25 13 c14 8 31 27 38 44 11 25 10 34 -4 60 -20 34
-15 50 5 18 15 -24 71 -29 85 -8 4 6 8 42 9 78 2 81 -17 114 -59 104 -14 -4
-29 -14 -32 -24 -4 -14 -22 -16 -125 -16 -91 0 -120 3 -120 13 0 7 -12 17 -26
22 -32 12 -27 13 -51 -9z"/>
<path d="M5988 8533 c-23 -6 -38 -62 -24 -85 6 -10 32 -23 58 -29 26 -7 46
-14 45 -16 -2 -1 -28 -5 -58 -8 -81 -8 -99 -21 -99 -67 0 -21 3 -38 8 -38 10
0 84 -61 79 -66 -2 -2 -20 1 -41 7 -58 16 -84 5 -92 -36 -8 -46 5 -60 69 -76
l52 -13 -55 -8 c-65 -10 -97 -31 -123 -82 -24 -45 -34 -130 -18 -140 17 -11
13 -26 -7 -26 -22 0 -52 -34 -52 -60 0 -32 32 -55 103 -76 37 -10 67 -22 67
-26 0 -5 7 -8 15 -8 23 0 18 -38 -6 -51 -15 -8 -24 -8 -32 0 -6 6 -21 11 -33
11 -13 0 -26 5 -29 11 -4 6 -13 8 -21 5 -8 -3 -14 -1 -14 5 0 6 -6 9 -14 6 -7
-3 -18 -1 -22 3 -5 5 -19 7 -31 4 -27 -7 -49 -65 -35 -90 12 -22 173 -73 233
-73 69 -1 119 53 119 129 0 16 7 35 15 44 32 31 6 96 -38 96 -9 0 -17 5 -17
11 0 5 4 8 9 5 26 -17 103 41 122 91 19 51 -13 150 -56 173 -43 23 -23 20 75
-9 91 -28 96 -28 113 -12 10 10 19 24 20 32 2 8 6 19 10 26 11 17 -8 57 -36
76 -13 8 -30 22 -38 29 -8 8 -30 25 -49 38 -70 48 -69 50 22 51 46 1 96 2 111
3 33 1 73 36 79 69 9 48 -6 62 -89 87 -43 12 -82 26 -88 30 -5 5 -14 9 -20 10
-5 0 -45 12 -88 25 -43 14 -79 24 -80 24 -1 -1 -10 -3 -19 -6z"/>
<path d="M8458 8408 c-33 -9 -118 -75 -118 -92 0 -4 -6 -14 -14 -22 -8 -7 -16
-19 -18 -25 -2 -7 -17 -13 -33 -14 -17 -1 -37 -3 -46 -3 -38 -4 -136 -82 -160
-127 -20 -38 -29 -45 -54 -45 -33 0 -85 -20 -85 -32 0 -5 -5 -8 -10 -8 -6 0
-29 -16 -50 -37 -43 -39 -63 -89 -66 -163 -2 -63 19 -96 93 -141 26 -16 33
-28 39 -67 12 -82 66 -172 217 -359 45 -56 86 -102 90 -103 5 0 15 -7 23 -15
35 -35 194 -44 231 -13 7 6 13 8 13 5 0 -11 115 47 185 93 193 126 322 242
364 326 59 118 11 342 -104 481 -5 7 -28 37 -50 67 -22 31 -45 56 -52 56 -6 0
-13 3 -15 8 -5 11 -111 62 -131 62 -11 0 -17 8 -17 24 0 29 -20 87 -35 103 -7
6 -29 21 -51 32 -41 22 -86 25 -146 9z m267 -268 c69 -26 198 -185 231 -285 9
-27 25 -106 30 -152 5 -47 2 -59 -26 -108 -31 -55 -94 -125 -112 -125 -5 0 -6
-4 -3 -10 3 -5 1 -10 -5 -10 -10 0 -68 -42 -114 -83 -12 -10 -31 -20 -43 -23
-13 -4 -23 -10 -23 -15 0 -5 -6 -9 -13 -9 -7 0 -29 -11 -49 -25 -75 -51 -131
-75 -173 -75 -46 0 -103 17 -122 36 -7 7 -23 21 -36 31 -12 10 -40 41 -62 68
-22 28 -43 52 -46 55 -23 20 -94 141 -110 188 -29 81 -24 99 53 186 15 17 28
25 28 19 0 -7 -4 -13 -9 -13 -14 0 -51 -83 -51 -115 0 -35 31 -135 42 -135 4
0 8 -7 8 -15 0 -8 5 -15 10 -15 6 0 10 -4 10 -10 0 -15 88 -130 136 -177 60
-59 112 -69 242 -49 56 9 249 150 334 245 59 65 90 131 96 198 4 48 0 64 -38
141 -56 115 -92 172 -107 172 -7 0 -13 4 -13 10 0 18 -75 45 -137 48 -40 3
-81 -2 -115 -13 -62 -20 -142 -57 -146 -67 -2 -5 -10 -8 -17 -8 -7 0 -15 -3
-17 -8 -1 -4 -34 -29 -73 -56 l-70 -48 40 39 c43 42 178 139 234 168 95 49
182 65 236 45z m-21 -151 c17 -8 45 -35 63 -61 l34 -46 -24 -26 c-14 -14 -30
-26 -37 -26 -6 0 -26 -10 -43 -22 l-30 -22 6 24 c9 36 -1 66 -28 80 -13 7 -26
24 -30 38 -4 15 -16 33 -28 41 -21 15 -21 16 17 26 48 14 63 13 100 -6z m-179
-90 c10 -34 27 -66 36 -72 16 -10 14 -14 -11 -46 -48 -60 -43 -107 17 -188
l23 -32 -22 -13 c-13 -7 -25 -13 -28 -14 -3 0 -23 -9 -44 -18 -26 -12 -51 -15
-73 -11 -35 6 -44 28 -18 42 22 13 55 83 55 118 0 32 -30 89 -63 118 -24 20
-15 17 -60 23 -23 4 -44 1 -52 -6 -8 -7 -15 -8 -15 -3 0 6 28 30 63 54 34 23
64 46 67 49 10 13 85 60 95 60 5 0 19 -28 30 -61z m330 -128 c-3 -5 -1 -12 4
-15 14 -9 -6 -94 -30 -129 -27 -39 -60 -70 -119 -110 -25 -16 -64 -49 -87 -72
-49 -50 -111 -82 -167 -88 -83 -9 -144 31 -220 147 -57 86 -80 141 -74 178 3
19 8 14 27 -27 13 -27 26 -52 30 -55 3 -3 13 -18 21 -34 25 -48 124 -142 163
-155 39 -13 76 -11 120 7 16 7 32 12 37 12 5 0 10 4 12 8 2 5 31 27 65 50 78
53 156 127 177 169 9 18 19 53 23 78 3 25 10 45 15 45 5 0 7 -4 3 -9z"/>
<path d="M1488 8087 c-86 -25 -193 -101 -265 -190 -13 -15 -21 -27 -18 -27 2
0 -6 -11 -19 -25 -38 -40 -66 -128 -66 -204 l0 -67 -43 -11 c-60 -16 -101 -75
-103 -147 -1 -28 2 -55 6 -61 5 -5 8 -13 9 -18 1 -19 36 -66 60 -80 14 -8 37
-25 51 -37 43 -37 85 -59 129 -66 32 -5 45 -13 51 -30 18 -46 80 -103 136
-124 30 -11 63 -20 73 -20 10 0 24 -12 32 -27 32 -63 138 -128 224 -138 62 -8
130 15 163 53 47 54 62 88 58 126 l-5 36 82 39 c55 26 87 48 96 65 20 37 30
32 21 -10 -12 -54 15 -116 67 -154 23 -17 52 -33 65 -35 13 -3 25 -10 27 -16
7 -23 42 -49 64 -49 14 0 32 15 52 43 16 23 29 45 27 50 -1 4 5 7 13 7 8 0 15
4 15 9 0 5 9 7 20 4 26 -7 25 -13 -5 -45 -14 -15 -25 -30 -25 -33 0 -3 -9 -15
-20 -27 -25 -27 -25 -49 0 -75 14 -15 28 -20 50 -18 26 4 32 0 44 -29 12 -28
62 -76 80 -76 3 0 16 -11 30 -25 14 -14 30 -25 36 -25 6 0 22 11 36 25 30 30
38 32 24 6 -32 -62 8 -119 71 -101 19 6 36 10 38 10 2 0 0 -12 -3 -26 -15 -57
69 -98 109 -54 23 25 35 26 28 1 -2 -10 0 -36 6 -57 12 -45 79 -104 118 -104
15 0 28 -10 37 -29 35 -66 83 -55 134 32 17 29 49 44 62 30 5 -4 -11 -35 -36
-67 -24 -33 -44 -67 -44 -76 0 -22 32 -50 56 -50 19 1 54 22 54 33 0 7 23 36
48 62 6 8 12 18 12 23 0 6 5 12 11 14 7 2 12 26 13 52 1 44 -2 51 -39 81 -21
19 -42 32 -46 30 -3 -3 -17 7 -29 20 -25 27 -49 32 -67 14 -9 -9 -15 -1 -23
28 -14 47 -80 97 -117 90 -17 -3 -23 1 -23 14 0 47 -77 76 -101 38 -6 -9 -8
-2 -6 25 2 32 -3 42 -26 59 -27 21 -29 21 -57 5 l-29 -17 6 30 c5 29 -17 69
-39 69 -5 0 -21 11 -36 25 -15 14 -35 25 -44 25 -20 0 -49 -28 -69 -68 -16
-30 -36 -46 -61 -48 -11 -1 -14 4 -10 15 3 9 8 18 12 21 16 13 70 100 70 114
0 15 -45 56 -63 56 -6 0 -19 -8 -29 -17 -17 -15 -18 -15 -13 -1 8 21 -10 56
-47 90 -29 26 -29 27 -13 58 9 17 13 40 10 50 -6 19 -39 36 -61 32 -7 -1 -31
16 -53 39 -66 65 -149 78 -214 34 -40 -28 -48 -26 -19 6 10 10 34 50 53 87 29
57 34 77 34 137 0 44 -6 81 -16 100 -29 57 -44 80 -61 96 -10 9 -18 20 -18 23
0 11 -22 31 -112 102 -46 36 -91 72 -102 80 -44 38 -248 149 -320 176 -68 25
-150 31 -208 15z m168 -107 c40 -9 176 -85 182 -101 2 -5 10 -9 18 -9 8 0 14
-4 14 -10 0 -5 5 -10 11 -10 6 0 25 -11 43 -25 18 -14 36 -25 40 -25 3 0 40
-25 81 -55 40 -30 79 -55 84 -55 6 0 11 -4 11 -8 0 -5 9 -18 20 -30 64 -68 79
-169 39 -252 -21 -44 -86 -144 -118 -182 -25 -30 -91 -65 -149 -78 -51 -12
-163 -7 -187 8 -5 4 -15 7 -21 8 -35 5 -145 62 -161 83 -7 9 -13 12 -13 6 0
-6 -4 -5 -8 1 -4 7 -45 40 -92 74 -128 93 -182 158 -211 249 -18 60 -18 123 1
146 5 7 7 15 3 19 -4 4 -3 10 3 14 6 4 26 30 44 57 40 58 73 91 146 143 54 37
141 50 220 32z m744 -830 c15 -16 33 -30 40 -30 11 0 -27 -62 -42 -68 -4 -2
-8 -9 -8 -17 0 -7 -6 -17 -12 -22 -17 -14 -102 46 -106 75 -3 20 22 69 43 84
22 16 58 7 85 -22z"/>
<path d="M1579 7926 c-2 -3 -18 -7 -34 -10 -17 -2 -31 -5 -32 -6 -2 -2 -6 -3
-10 -5 -44 -12 -100 -56 -145 -112 -26 -33 -50 -113 -49 -165 0 -51 29 -158
43 -158 4 0 8 -6 8 -14 0 -21 77 -102 127 -134 23 -15 43 -30 43 -34 0 -5 6
-8 14 -8 8 0 16 -4 18 -9 4 -11 143 -76 194 -90 47 -13 104 -14 136 -2 19 7
54 40 146 136 6 8 12 16 12 19 0 3 20 32 45 65 39 51 45 65 46 112 1 30 -3 65
-9 79 -18 44 -65 98 -122 139 -30 22 -61 46 -69 52 -76 66 -195 125 -281 138
-75 12 -75 12 -81 7z m93 -152 c4 -27 12 -50 18 -52 5 -2 10 -9 10 -16 0 -20
89 -106 110 -106 6 0 10 -4 10 -10 0 -5 9 -10 20 -10 11 0 20 -4 20 -10 0 -5
-17 -10 -38 -10 -52 0 -109 -30 -167 -87 -27 -26 -42 -39 -33 -28 27 35 59
114 65 164 7 60 -15 109 -73 168 -23 23 -40 44 -37 46 2 3 23 4 46 3 l42 -3 7
-49z m-183 -41 c33 -32 40 -73 22 -128 -9 -28 -25 -66 -35 -85 l-19 -35 -11
25 c-6 14 -13 27 -17 30 -14 12 -29 80 -23 106 8 37 45 104 56 104 5 0 17 -8
27 -17z m461 -328 c20 -12 10 -36 -34 -79 -43 -43 -45 -44 -100 -41 -31 2 -61
7 -66 10 -17 10 62 102 95 112 32 10 87 9 105 -2z"/>
<path d="M6965 8072 c-26 -26 -26 -59 -1 -74 6 -3 27 -20 46 -37 l34 -29 -74
2 c-91 3 -120 -2 -120 -20 0 -8 -4 -14 -9 -14 -5 0 -13 -10 -16 -22 -4 -11
-18 -31 -31 -43 -40 -37 -32 -68 29 -111 28 -21 54 -42 55 -46 2 -5 8 -8 13
-8 6 0 19 -8 30 -19 11 -10 37 -27 57 -37 20 -11 49 -31 63 -46 15 -16 36 -28
48 -28 26 0 61 34 61 58 0 11 9 27 21 38 37 33 40 49 25 121 -8 37 -13 70 -10
72 2 3 18 -5 34 -17 36 -27 54 -28 80 -2 39 39 18 80 -62 128 -16 9 -28 20
-28 24 0 4 -6 8 -14 8 -8 0 -16 4 -18 8 -1 5 -28 24 -58 44 -30 20 -64 45 -75
56 -28 25 -51 24 -80 -6z"/>
<path d="M3130 8059 c-14 -11 -33 -27 -43 -35 -9 -7 -21 -14 -26 -14 -5 0 -11
-4 -13 -8 -1 -5 -25 -23 -53 -42 -94 -63 -135 -100 -135 -124 0 -33 117 -197
138 -194 13 2 18 -6 20 -29 2 -18 12 -39 23 -46 10 -8 29 -33 42 -57 31 -59
77 -83 141 -75 102 13 186 106 172 192 -2 15 -5 31 -5 35 -1 3 -12 20 -26 36
l-25 30 36 23 c33 20 36 25 30 58 -6 42 -31 64 -64 58 -18 -4 -21 -1 -17 14 5
16 -22 70 -45 89 -3 3 -17 21 -30 40 -50 73 -77 84 -120 49z"/>
<path d="M6717 7730 c-9 -11 -17 -24 -17 -29 0 -5 -13 -23 -30 -39 -16 -17
-30 -35 -30 -40 0 -6 -4 -12 -10 -14 -12 -4 -16 -74 -5 -108 13 -40 114 -128
134 -115 5 3 12 1 16 -5 11 -19 115 10 115 32 0 4 7 8 15 8 8 0 15 7 15 15 0
8 5 15 10 15 6 0 10 7 10 15 0 13 3 13 20 -3 11 -10 32 -25 46 -33 25 -13 28
-12 55 19 16 18 29 36 29 40 0 14 -56 72 -68 72 -7 0 -12 5 -12 10 0 6 -6 10
-14 10 -8 0 -16 3 -18 8 -4 8 -104 86 -170 130 -55 37 -68 39 -91 12z"/>
<path d="M7885 7423 c-28 -7 -55 -42 -48 -61 3 -9 19 -34 35 -54 l29 -38 -25
0 c-14 0 -28 5 -31 10 -4 6 -12 10 -18 9 -7 -1 -25 3 -40 9 -46 19 -66 14
-109 -28 -23 -22 -49 -40 -59 -40 -9 0 -32 -15 -51 -33 -18 -18 -48 -42 -65
-52 -20 -12 -33 -27 -33 -40 0 -30 57 -112 126 -181 40 -40 43 -41 87 -34 25
4 54 13 64 21 33 27 53 49 53 59 0 6 4 10 9 10 5 0 11 10 14 22 8 29 -19 58
-53 58 l-28 0 14 40 c9 26 11 47 5 63 l-9 24 70 -20 70 -21 -8 -75 c-12 -124
-12 -124 20 -135 25 -9 31 -7 55 20 19 21 28 43 30 70 2 34 3 50 10 99 0 5 12
-7 26 -26 29 -44 47 -52 80 -37 50 23 43 61 -32 160 -26 34 -50 65 -53 68 -3
3 -18 25 -34 50 -31 50 -66 91 -75 89 -3 -1 -15 -4 -26 -6z"/>
<path d="M9221 7158 c-19 -5 -55 -24 -80 -41 -42 -29 -53 -31 -126 -32 -84 0
-117 -13 -173 -65 -15 -14 -29 -19 -40 -15 -93 37 -246 -29 -299 -129 -16 -31
-22 -94 -9 -114 4 -6 4 -12 1 -12 -3 0 7 -19 23 -43 l30 -42 -26 -45 c-22 -39
-26 -56 -25 -131 0 -72 7 -106 43 -217 53 -167 88 -226 156 -264 66 -37 77
-39 210 -44 91 -3 121 0 167 15 30 11 57 17 60 15 2 -3 17 1 33 7 16 7 34 13
39 14 50 12 185 63 251 96 79 39 174 118 174 146 0 7 4 13 9 13 5 0 15 32 21
72 17 99 7 264 -21 353 -12 39 -22 75 -24 80 -1 6 -7 23 -13 38 -7 16 -12 33
-12 39 0 6 -28 38 -62 71 -35 34 -62 65 -60 70 12 40 -9 137 -30 137 -5 0 -17
9 -28 20 -16 16 -33 20 -87 19 -38 0 -83 -5 -102 -11z m217 -287 c44 -31 71
-80 103 -188 24 -84 27 -109 25 -207 -4 -130 -10 -160 -37 -195 -24 -30 -107
-91 -125 -91 -7 0 -14 -4 -16 -9 -5 -14 -315 -111 -359 -113 -21 -1 -39 -4
-39 -7 0 -4 -42 -6 -94 -5 -89 1 -96 2 -140 34 -59 43 -79 75 -122 202 -47
137 -55 228 -24 289 24 48 77 109 95 109 7 0 20 9 30 20 10 11 22 20 26 20 5
0 32 11 61 24 82 37 397 137 458 145 69 9 119 0 158 -28z"/>
<path d="M9075 6800 c-114 -32 -149 -43 -160 -50 -5 -4 -32 -15 -59 -23 -60
-20 -146 -84 -166 -123 -8 -16 -18 -32 -23 -35 -4 -3 -13 -31 -19 -61 -10 -48
-9 -65 6 -120 28 -96 63 -178 78 -178 4 0 8 -7 8 -16 0 -25 67 -81 117 -98 57
-20 145 -20 206 -2 25 7 48 12 51 9 2 -3 19 2 38 11 18 8 58 25 88 36 145 56
235 131 265 219 39 115 -2 307 -82 383 -71 67 -209 86 -348 48z m156 -124 c-6
-13 -7 -26 -5 -29 8 -8 -15 -47 -28 -47 -20 0 -58 -43 -58 -65 0 -18 -10 -26
-55 -40 -55 -17 -55 -17 -73 5 -11 14 -29 22 -47 22 -17 0 -54 5 -83 11 l-52
10 37 34 c54 48 242 115 340 121 31 2 32 1 24 -22z m129 -86 c5 -19 10 -63 10
-97 0 -54 -3 -63 -21 -68 -13 -4 -27 -1 -39 10 -10 9 -30 17 -46 19 -18 2 -32
11 -38 26 -9 19 -7 25 14 39 65 43 75 59 80 131 1 23 28 -17 40 -60z m-448
-160 c27 0 48 -3 49 -7 0 -5 2 -25 4 -45 2 -21 1 -38 -3 -38 -18 0 -62 -50
-62 -69 0 -13 -9 -25 -22 -30 -21 -8 -25 -4 -37 33 -8 22 -17 43 -21 46 -4 3
-7 12 -8 20 0 8 -3 36 -7 62 l-6 47 33 -10 c18 -5 54 -9 80 -9z m262 -35 c15
-14 33 -25 41 -25 7 0 20 -6 27 -13 7 -7 22 -16 32 -20 18 -7 17 -9 -10 -26
-28 -17 -188 -72 -246 -85 -23 -5 -28 -3 -28 14 0 11 4 20 9 20 4 0 20 11 35
25 20 19 26 33 26 68 0 41 2 45 33 55 47 15 52 14 81 -13z"/>
<path d="M4977 7104 c-1 -1 -29 -5 -62 -8 -211 -23 -427 -76 -566 -139 -245
-112 -336 -166 -494 -293 -87 -70 -235 -209 -235 -221 0 -3 -13 -18 -28 -33
-16 -15 -42 -45 -58 -66 -16 -21 -31 -41 -34 -44 -3 -3 -14 -18 -24 -35 -11
-16 -23 -34 -28 -40 -32 -38 -150 -252 -173 -315 -9 -25 -23 -58 -30 -75 -12
-25 -21 -49 -30 -75 -1 -3 -4 -12 -8 -20 -17 -45 -39 -126 -56 -210 -33 -161
-43 -255 -45 -405 -1 -107 4 -199 18 -290 3 -16 8 -52 11 -80 4 -27 13 -73 21
-102 9 -29 17 -65 20 -80 22 -120 152 -405 257 -563 38 -58 72 -107 76 -110 3
-3 20 -23 36 -45 44 -59 54 -71 120 -139 70 -72 258 -236 270 -236 3 0 24 -15
49 -32 45 -34 95 -63 110 -65 5 -1 12 -6 15 -11 11 -17 255 -130 326 -152 22
-6 54 -18 70 -25 17 -7 57 -18 90 -24 33 -6 76 -16 95 -21 19 -6 53 -13 75
-16 22 -3 46 -7 54 -10 33 -11 188 -19 333 -17 158 2 322 24 448 59 200 57
249 76 403 152 96 48 284 166 346 217 95 80 271 249 271 261 0 4 40 51 67 79
6 7 38 52 69 101 32 49 62 91 66 92 4 2 8 10 8 17 0 7 3 15 8 17 21 9 167 351
187 438 2 8 10 42 19 75 8 33 18 76 21 95 3 19 10 53 15 76 12 53 24 208 24
309 0 95 -11 283 -18 294 -3 4 -7 27 -10 52 -6 48 -9 65 -24 124 -20 81 -43
158 -49 169 -3 6 5 1 18 -10 52 -46 109 -57 161 -30 27 14 28 14 40 -25 13
-45 38 -64 74 -55 47 12 49 43 15 156 -18 55 -37 113 -43 128 -6 15 -12 32
-14 39 -7 36 -28 89 -38 95 -18 12 -53 9 -65 -6 -7 -8 -27 -14 -45 -14 -19 0
-44 -3 -57 -7 -38 -12 -87 -82 -89 -125 -1 -15 -4 -19 -7 -10 -14 39 -55 128
-69 150 -8 14 -21 37 -27 53 -6 15 -15 27 -19 27 -4 0 -8 7 -8 15 0 8 -4 15
-10 15 -5 0 -10 6 -10 13 0 12 -112 183 -129 197 -3 3 -28 31 -55 64 -54 64
-142 156 -149 156 -3 0 -20 15 -39 33 -80 77 -182 156 -248 193 -19 10 -37 22
-40 25 -9 12 -214 115 -265 134 -27 11 -61 25 -75 32 -14 7 -30 13 -37 13 -6
0 -24 5 -40 12 -15 6 -37 13 -48 15 -11 2 -27 6 -35 10 -8 3 -21 7 -29 9 -7 1
-50 12 -95 23 -118 29 -252 44 -409 45 -76 0 -139 0 -140 0z m358 -95 c17 -4
48 -10 70 -14 118 -17 291 -59 350 -85 11 -5 52 -22 90 -39 39 -16 107 -49
150 -72 44 -22 94 -48 110 -57 30 -15 162 -112 240 -175 111 -90 277 -280 381
-437 51 -78 161 -311 197 -420 42 -123 82 -321 93 -455 5 -60 5 -316 -1 -345
-3 -13 -7 -40 -10 -60 -38 -250 -101 -447 -198 -630 -22 -41 -48 -90 -58 -107
-9 -18 -29 -47 -43 -65 -15 -18 -54 -70 -86 -115 -72 -99 -204 -235 -320 -327
-47 -37 -93 -74 -103 -82 -9 -8 -21 -14 -25 -14 -4 0 -27 -14 -52 -31 -51 -34
-300 -161 -300 -152 0 3 -6 1 -12 -5 -12 -9 -177 -63 -239 -78 -38 -10 -160
-32 -209 -38 -25 -3 -56 -8 -70 -11 -54 -12 -386 -4 -453 11 -16 3 -38 7 -50
9 -120 18 -312 69 -336 88 -8 7 -17 11 -20 10 -11 -4 -101 32 -101 39 0 5 -5
8 -12 8 -16 0 -138 59 -166 81 -13 10 -43 27 -68 39 -24 12 -44 26 -44 31 0 5
-6 9 -14 9 -8 0 -16 4 -18 8 -1 5 -30 27 -63 50 -33 22 -88 68 -123 101 -34
34 -67 61 -72 61 -6 0 -10 4 -10 9 0 5 -19 30 -42 54 -24 25 -54 60 -68 78
-14 18 -36 45 -50 59 -14 15 -25 28 -25 31 0 2 -25 42 -56 89 -47 71 -115 201
-175 335 -24 53 -74 208 -74 230 0 12 -3 25 -7 29 -4 3 -8 14 -9 24 -1 9 -9
58 -18 107 -8 50 -18 119 -21 155 -9 106 -4 359 8 415 3 11 8 40 12 65 4 25 9
56 12 70 16 97 73 273 129 398 13 29 24 55 24 58 0 3 9 18 19 32 10 15 18 29
18 32 -2 12 105 185 123 200 4 3 21 28 40 55 70 104 255 287 385 380 54 39
103 75 109 80 6 6 29 19 51 30 22 11 43 24 47 30 4 5 8 7 8 3 0 -3 34 11 75
32 168 88 353 146 556 175 63 10 116 19 118 21 8 7 375 1 406 -7z"/>
<path d="M7414 7080 c-12 -4 -34 -20 -49 -34 -15 -14 -32 -26 -37 -26 -12 0
-53 -41 -67 -68 -6 -11 -11 -34 -11 -51 0 -30 -13 -41 -25 -21 -18 29 -122 -4
-148 -47 -4 -7 -23 -19 -42 -27 -50 -21 -52 -46 -9 -113 20 -32 41 -59 45 -61
5 -2 9 -8 9 -14 0 -23 71 -78 101 -78 62 0 138 50 159 105 9 24 7 31 -11 51
-12 13 -24 23 -28 22 -20 -2 -30 4 -26 17 3 8 7 22 10 31 4 12 11 10 42 -13
21 -15 40 -30 43 -33 21 -24 129 3 157 38 13 16 15 15 31 -7 43 -61 45 -63 80
-50 38 13 52 51 31 85 -22 34 -141 198 -149 204 -3 3 -21 26 -39 53 -34 50
-35 50 -67 37z"/>
<path d="M877 6939 c-60 -12 -145 -50 -174 -78 -12 -11 -25 -21 -28 -21 -10 0
-69 -72 -91 -110 -39 -68 -83 -199 -88 -259 -2 -32 1 -87 8 -122 l13 -63 -43
-43 c-24 -23 -45 -50 -45 -60 -5 -61 11 -110 54 -157 9 -11 17 -23 17 -26 0
-9 58 -33 129 -56 32 -10 70 -14 97 -11 41 4 46 2 74 -32 37 -48 159 -92 220
-81 33 6 41 3 64 -20 57 -61 188 -93 272 -67 41 12 119 81 109 97 -3 5 0 12 6
15 12 8 6 69 -12 107 -10 24 -7 30 45 82 31 31 56 63 56 71 0 8 4 15 8 15 5 0
17 18 28 40 10 22 22 40 26 40 3 0 9 14 13 30 4 17 11 30 17 30 6 0 8 6 5 14
-3 7 -2 17 2 22 5 5 17 36 27 69 27 84 25 197 -3 251 -29 54 -108 134 -133
134 -6 0 -10 4 -10 9 0 9 -40 27 -49 22 -2 -2 -7 1 -10 6 -14 20 -169 78 -361
134 -79 24 -179 31 -243 18z m400 -315 c37 -11 53 -20 49 -29 -3 -8 -8 -29
-11 -49 -8 -38 -37 -72 -54 -61 -6 3 -29 33 -52 66 -22 33 -47 63 -55 66 -8 3
-14 9 -14 14 0 14 77 10 137 -7z m-107 -184 c11 -6 20 -21 20 -35 0 -39 48
-73 65 -45 7 11 35 2 35 -13 0 -18 63 -67 102 -79 46 -14 45 -25 -8 -52 -84
-44 -354 -17 -354 36 0 11 14 33 31 49 38 35 34 70 -11 110 -17 14 -28 27 -26
30 10 10 127 9 146 -1z"/>
<path d="M6918 6724 c-37 -20 -36 -51 3 -100 65 -81 79 -134 42 -148 -16 -7
-53 24 -53 43 0 5 -4 11 -8 13 -5 2 -23 25 -41 52 -30 43 -36 47 -63 42 -33
-7 -58 -28 -58 -50 0 -8 15 -36 33 -62 17 -25 37 -53 42 -62 6 -9 28 -33 49
-54 32 -31 46 -38 79 -38 41 0 101 30 111 55 3 8 21 21 41 29 19 8 38 23 42
32 6 17 -24 84 -39 84 -4 0 -8 5 -8 10 0 6 -19 37 -42 69 -24 33 -50 69 -58
80 -17 25 -35 26 -72 5z"/>
<path d="M8310 6414 c-41 -13 -85 -29 -97 -36 -27 -13 -30 -44 -7 -77 18 -24
27 -25 112 -1 48 14 50 13 54 -20 3 -20 -4 -27 -40 -40 -63 -24 -84 -45 -76
-78 10 -41 -11 -15 -26 33 -21 69 -43 115 -56 115 -6 0 -14 6 -17 13 -7 20
-73 20 -114 0 -20 -9 -44 -18 -52 -19 -43 -4 -173 -49 -191 -66 -11 -10 -24
-17 -29 -14 -18 12 -69 -7 -81 -29 -10 -19 -8 -36 13 -101 30 -95 31 -113 1
-120 -28 -7 -44 2 -44 24 -1 9 -12 49 -25 87 -18 54 -29 72 -49 79 -37 14 -79
-17 -74 -53 l4 -27 -35 18 c-46 23 -78 23 -124 -2 -20 -11 -47 -20 -60 -20
-13 0 -32 -9 -42 -20 -18 -20 -18 -23 16 -126 36 -114 60 -148 110 -158 40 -8
105 9 132 35 11 10 24 19 28 19 4 0 9 12 12 27 6 32 -13 55 -48 57 -32 1 -32
9 0 26 14 7 25 22 25 32 0 32 17 19 34 -27 30 -77 85 -102 167 -73 19 6 37 17
41 23 4 7 19 10 33 7 27 -5 69 23 59 39 -7 12 3 11 24 -2 15 -9 36 -6 103 16
46 16 89 31 94 35 6 4 27 10 47 13 31 5 40 2 48 -14 14 -26 66 -26 80 0 5 11
10 31 10 45 0 13 5 26 11 28 6 2 12 16 12 30 2 23 9 29 45 39 23 6 45 15 48
20 8 14 34 -2 34 -22 0 -14 -14 -23 -60 -36 -51 -16 -60 -22 -66 -46 -7 -32
17 -67 47 -67 34 0 184 54 201 73 15 17 15 22 -3 75 -11 31 -38 114 -60 185
-46 147 -39 143 -169 101z"/>
<path d="M1838 6379 c-75 -20 -124 -70 -152 -153 -32 -97 -15 -166 57 -236 22
-22 114 -49 152 -45 28 4 86 24 95 34 3 3 15 15 28 25 22 19 22 19 19 0 -2
-10 -9 -32 -16 -49 -17 -42 -1 -72 44 -81 42 -8 61 5 71 49 l7 32 14 -49 c15
-52 45 -92 62 -82 5 4 12 2 15 -3 9 -13 40 -3 53 18 8 13 5 34 -13 90 -13 41
-24 77 -24 82 0 4 24 20 53 36 40 22 53 34 55 55 6 49 -66 70 -125 36 -34 -20
-35 -20 -26 -2 18 33 35 122 28 143 -4 13 -18 23 -41 27 -46 8 -69 -12 -85
-77 -7 -27 -17 -49 -22 -49 -5 0 -7 6 -4 14 7 17 -13 86 -25 86 -4 0 -8 7 -8
15 0 8 -3 15 -8 15 -4 0 -18 10 -32 23 -21 19 -49 30 -135 51 -5 2 -22 0 -37
-5z m108 -143 c21 -24 22 -35 9 -93 -17 -76 -91 -108 -139 -60 -36 36 -23 121
26 167 29 27 73 21 104 -14z"/>
<path d="M8948 5810 c-70 -21 -128 -91 -128 -156 0 -21 9 -57 21 -81 l21 -43
-25 -30 c-14 -16 -42 -64 -63 -107 -36 -76 -37 -80 -38 -203 -3 -193 17 -277
83 -352 25 -29 82 -66 111 -73 3 -1 17 -7 33 -13 51 -22 151 -31 342 -31 214
0 275 10 373 60 74 39 162 119 162 148 0 5 4 11 8 13 4 2 18 33 30 71 18 55
22 91 22 198 0 130 0 130 -32 177 -32 47 -53 74 -75 97 -9 10 -5 18 17 40 34
32 53 80 46 116 -3 13 -5 25 -7 27 -1 1 -2 5 -3 10 -5 21 -29 52 -61 76 -52
40 -155 48 -220 17 l-46 -22 -32 23 c-28 20 -47 23 -139 26 -97 3 -110 2 -138
-18 -16 -12 -30 -17 -30 -12 0 32 -165 62 -232 42z m177 -310 c-60 -14 -101
-38 -148 -85 -65 -64 -99 -139 -100 -218 -4 -203 35 -265 197 -317 85 -28 94
-29 262 -30 155 -1 211 11 274 58 96 72 122 129 128 273 5 124 -7 158 -82 227
-52 48 -46 52 27 17 104 -50 114 -71 116 -236 1 -107 0 -118 -27 -174 -31 -63
-101 -137 -143 -150 -13 -4 -33 -13 -45 -20 -36 -23 -101 -26 -444 -23 -33 0
-169 36 -180 48 -3 3 -11 6 -19 8 -7 1 -28 14 -46 28 -29 22 -35 35 -47 97 -7
40 -12 122 -11 183 2 98 5 119 29 169 50 105 124 154 234 153 45 0 49 -1 25
-8z m295 -90 c82 -13 163 -52 194 -93 17 -21 26 -50 29 -85 5 -51 4 -53 -27
-66 -44 -19 -57 -5 -55 58 3 73 -15 98 -66 93 -32 -3 -44 1 -62 20 -12 13 -31
23 -42 23 -23 0 -56 -41 -41 -50 16 -10 20 -70 8 -94 -6 -12 -29 -41 -51 -65
-36 -40 -39 -47 -34 -88 l5 -44 -51 6 c-53 5 -117 25 -117 35 0 3 15 5 33 5
26 0 33 4 35 23 2 12 10 22 17 22 17 0 38 36 30 50 -3 5 3 18 15 30 22 22 27
60 8 60 -10 0 -10 2 -2 8 7 4 14 18 15 31 3 19 -1 26 -19 31 -29 6 -50 44 -44
75 4 22 9 23 80 24 42 0 106 -4 142 -9z"/>
<path d="M665 5524 c-81 -16 -154 -42 -190 -67 -51 -34 -121 -115 -134 -154
-45 -134 -50 -168 -48 -300 l2 -131 49 -62 c26 -35 44 -65 38 -69 -29 -19 -34
-146 -7 -188 21 -33 59 -67 99 -89 44 -24 233 -28 245 -5 8 14 14 13 52 -9 52
-29 188 -39 221 -16 18 13 51 11 73 -4 6 -3 40 -7 77 -9 48 -2 78 2 110 17 40
17 96 70 99 93 2 14 6 29 9 32 16 15 -4 147 -22 147 -6 0 -4 10 4 23 8 12 21
33 29 47 8 14 18 28 22 31 4 3 19 45 32 94 33 119 32 239 -2 349 -21 67 -33
87 -78 133 -78 77 -165 115 -295 128 -25 2 -68 7 -96 10 -101 12 -230 12 -289
-1z m375 -214 c36 -5 77 -15 92 -22 57 -30 94 -100 93 -173 -2 -76 -43 -175
-74 -175 -4 0 -16 -8 -27 -19 -20 -18 -93 -45 -146 -54 -25 -4 -28 -1 -28 24
0 24 6 30 38 40 53 16 75 50 78 122 3 105 -43 208 -103 227 -17 6 -57 10 -90
9 -63 -1 -123 9 -123 21 0 10 209 10 290 0z m-295 -109 c3 -5 18 -12 33 -16
16 -3 36 -20 50 -41 21 -32 23 -47 23 -140 -1 -127 -8 -145 -53 -135 -18 4
-36 8 -40 9 -5 1 -14 2 -22 2 -7 0 -16 13 -19 29 -4 19 -14 31 -29 34 -27 7
-88 -1 -103 -13 -13 -11 -37 9 -53 43 -18 42 -15 51 14 32 25 -16 83 -22 127
-12 33 7 77 52 88 89 11 44 5 78 -22 107 -11 12 -15 21 -10 21 5 0 12 -4 16
-9z"/>
<path d="M2258 5348 c-16 -19 -18 -46 -18 -213 0 -173 2 -194 18 -208 18 -16
66 -18 89 -4 14 9 22 76 9 80 -6 2 -5 6 2 11 7 4 17 -6 26 -28 8 -19 25 -41
38 -49 31 -21 92 -29 123 -17 18 7 31 6 44 -2 29 -18 75 3 81 38 l6 29 11 -32
c8 -21 20 -34 37 -39 35 -9 76 19 76 51 0 14 5 25 10 25 6 0 10 -3 10 -8 0 -4
12 -21 28 -37 38 -42 94 -47 117 -11 20 30 14 43 -43 104 -16 17 -27 32 -24
32 4 0 -1 7 -10 14 -17 12 -14 17 26 58 71 73 70 102 -2 114 -28 4 -42 3 -42
-5 0 -6 -5 -11 -11 -11 -7 0 -22 -12 -35 -27 l-24 -28 0 73 c0 59 -4 76 -20
92 -22 22 -37 24 -74 10 -25 -9 -26 -14 -26 -82 -1 -70 -1 -72 -16 -46 -12 22
-21 27 -50 26 -49 -2 -66 -30 -64 -105 3 -107 1 -120 -17 -125 -39 -10 -43 1
-43 101 0 82 -3 101 -18 114 -26 23 -69 22 -82 -3 -20 -36 -30 -21 -30 45 0
53 -3 66 -19 75 -31 16 -65 11 -83 -12z"/>
<path d="M1518 5343 c-26 -7 -29 -29 -30 -216 -1 -211 7 -230 78 -211 29 8 42
40 38 94 l-4 45 24 -60 c27 -72 59 -96 100 -77 15 6 31 24 36 39 6 16 14 37
19 48 5 11 12 27 14 35 3 8 6 -10 6 -41 1 -79 45 -113 97 -75 17 13 19 29 21
198 2 218 -2 230 -72 225 -25 -1 -50 -8 -57 -15 -12 -12 -49 -103 -69 -169 -5
-18 -13 -33 -18 -33 -4 0 -20 41 -36 90 -16 50 -37 99 -47 110 -18 19 -58 24
-100 13z"/>
<path d="M7185 5327 c-8 -12 -15 -25 -15 -30 0 -10 61 -90 73 -95 4 -2 7 -10
7 -17 0 -7 5 -15 12 -17 8 -3 -3 -20 -26 -44 -21 -21 -45 -50 -54 -63 -15 -22
-14 -24 3 -37 33 -25 77 -17 116 21 l37 34 1 -76 c1 -42 6 -82 13 -90 13 -16
79 -15 90 2 13 18 9 400 -4 413 -7 7 -26 12 -43 12 -41 0 -55 -16 -56 -64 0
-23 -3 -35 -6 -27 -3 8 -12 21 -19 30 -8 9 -19 24 -27 34 -7 10 -29 22 -50 27
-32 7 -39 5 -52 -13z"/>
<path d="M8435 5342 c-16 -2 -35 -10 -42 -19 -11 -14 -13 -14 -28 0 -12 13
-36 16 -110 15 -52 -1 -100 -5 -106 -8 -6 -4 -10 -45 -10 -98 0 -56 -4 -92
-10 -92 -6 0 -8 4 -5 8 7 12 -42 175 -56 184 -20 12 -74 9 -85 -4 -6 -7 -20
-38 -31 -68 l-20 -55 -7 36 c-12 62 -40 99 -76 99 -39 0 -65 -28 -80 -84 -6
-23 -19 -70 -30 -104 -10 -35 -16 -68 -13 -73 3 -5 0 -9 -5 -9 -6 0 -11 9 -11
21 0 12 -8 23 -20 26 -27 7 -25 16 8 30 66 30 68 130 3 179 -21 16 -202 15
-221 -2 -12 -10 -14 -34 -10 -134 l5 -122 33 -29 c27 -24 41 -29 85 -29 32 0
67 7 90 19 20 10 34 15 31 10 -8 -14 46 -31 78 -24 15 4 28 10 28 13 1 4 7 29
14 57 l13 50 19 -60 c19 -59 20 -60 57 -63 49 -4 71 14 87 74 15 51 18 51 24
2 8 -61 25 -79 71 -76 32 3 40 7 45 28 5 23 7 23 16 7 17 -30 78 -45 137 -35
57 11 83 26 81 48 0 8 -2 23 -2 32 -1 9 -12 20 -24 24 -21 6 -21 7 -2 20 40
29 64 57 64 75 0 10 5 19 10 19 6 0 10 -6 10 -14 0 -8 4 -16 8 -18 4 -1 22
-23 38 -47 l30 -44 -53 -54 c-29 -30 -53 -59 -53 -64 0 -5 -4 -9 -10 -9 -5 0
-10 -10 -10 -23 0 -28 45 -48 80 -35 13 5 44 31 69 58 26 28 48 50 51 50 3 0
5 -21 6 -46 1 -51 12 -64 61 -64 21 0 35 6 40 18 7 13 9 242 4 370 -1 29 -36
43 -74 30 -29 -11 -35 -26 -39 -98 l-3 -45 -35 50 c-54 79 -81 101 -115 97z"/>
<path d="M1945 5244 c-13 -13 -16 -36 -14 -121 2 -112 14 -173 36 -173 7 0 13
-4 13 -9 0 -22 78 -35 127 -22 20 6 35 6 39 0 5 -9 34 -7 67 6 15 6 17 24 17
159 0 148 -1 153 -22 164 -24 12 -65 11 -86 -2 -9 -5 -12 -37 -11 -103 1 -98
-2 -109 -36 -115 -19 -3 -20 3 -23 97 -2 83 -6 102 -22 117 -24 22 -63 23 -85
2z"/>
<path d="M7576 4560 c-14 -17 -33 -44 -43 -60 -9 -17 -21 -30 -25 -30 -4 0 -8
-7 -8 -15 0 -8 -4 -15 -10 -15 -5 0 -9 -3 -8 -7 2 -13 -15 -47 -34 -67 -10
-11 -18 -32 -18 -47 0 -23 5 -28 35 -33 34 -7 75 9 75 29 0 5 9 21 20 35 l20
25 0 -56 c0 -43 5 -60 20 -74 11 -10 20 -15 20 -10 0 4 6 3 13 -3 19 -15 52 3
77 42 12 20 25 36 29 36 5 0 6 -23 3 -52 -6 -59 10 -78 65 -78 27 0 33 4 34
23 1 19 2 18 14 -9 17 -39 72 -66 143 -72 61 -5 81 11 74 58 -4 29 -23 40 -74
40 -15 0 -30 4 -33 10 -6 9 15 8 81 -5 11 -3 37 4 57 15 20 11 37 18 37 16 0
-2 -7 -23 -16 -47 -8 -24 -18 -62 -21 -84 -3 -22 -11 -47 -19 -56 -15 -17 -18
-57 -6 -76 4 -7 22 -15 38 -19 35 -7 54 10 57 52 1 15 9 35 17 44 8 8 26 55
39 103 13 48 27 87 30 87 3 0 7 -24 8 -53 5 -107 15 -242 22 -280 2 -12 47
-26 67 -20 11 2 39 30 64 60 25 31 50 61 55 67 6 6 18 21 26 34 9 12 32 40 52
61 20 22 45 54 56 72 19 31 19 35 4 51 -9 10 -30 18 -49 18 -25 0 -39 -8 -64
-39 -32 -38 -33 -38 -71 -27 -53 16 -63 29 -60 79 2 44 -5 53 -62 71 -29 9 -8
28 23 21 39 -9 62 34 40 74 -14 28 -87 43 -120 26 -36 -19 -45 -32 -65 -92
l-17 -52 -22 41 c-18 34 -31 44 -73 59 -28 9 -54 15 -57 12 -2 -3 -15 2 -28
11 -30 21 -64 20 -73 -1 -5 -10 -21 -54 -36 -98 l-28 -80 4 107 c3 94 2 108
-15 123 -10 9 -23 14 -29 11 -5 -3 -11 0 -14 6 -5 17 -57 -9 -57 -29 0 -7 -4
-13 -10 -13 -5 0 -10 -6 -10 -14 0 -17 -30 -30 -31 -13 -1 7 -1 31 1 55 1 31
-2 42 -13 42 -8 0 -18 7 -21 16 -4 9 -9 14 -13 11 -3 -4 -14 -2 -23 3 -15 8
-24 3 -44 -20z"/>
<path d="M2875 4534 c-7 -8 -16 -28 -20 -45 -12 -55 -29 -78 -49 -67 -49 27
-196 -37 -196 -85 1 -26 19 -53 41 -58 13 -3 12 -9 -7 -37 l-23 -33 -12 41
c-17 55 -62 90 -118 90 -39 0 -87 -21 -103 -45 -4 -6 -26 -10 -50 -9 -28 2
-55 -4 -76 -17 -18 -10 -45 -19 -60 -19 -15 0 -35 -7 -45 -14 -18 -14 -18 -19
0 -91 3 -14 -3 -11 -22 13 -15 18 -30 30 -35 27 -5 -3 -11 -1 -15 5 -10 17
-68 11 -110 -11 -82 -42 -101 -92 -48 -126 22 -15 23 -17 7 -34 -9 -10 -19
-38 -21 -62 -5 -42 -7 -44 -51 -56 -42 -11 -48 -10 -60 6 -7 10 -15 29 -18 43
-16 72 -68 211 -82 219 -9 5 -25 5 -36 1 -12 -4 -25 -7 -31 -7 -5 0 -14 -11
-19 -26 -8 -21 1 -59 43 -189 29 -90 61 -171 71 -182 17 -18 20 -18 104 7 98
29 142 49 139 63 -1 5 19 10 45 10 26 -1 62 7 81 17 19 9 46 17 61 17 33 0 53
21 53 55 0 25 0 25 14 5 19 -27 74 -27 98 0 18 20 17 23 -10 114 -26 91 -27
116 -2 116 14 0 45 -66 54 -114 3 -17 10 -36 14 -42 5 -6 6 -13 3 -17 -12 -12
38 -28 67 -22 50 11 55 40 26 135 -27 87 -26 110 3 110 13 0 23 -19 40 -77 27
-96 44 -123 73 -123 31 0 67 27 67 51 0 17 4 19 23 12 36 -13 89 -8 132 12 22
11 48 18 58 17 23 -4 57 25 57 48 0 9 -13 56 -30 105 -32 96 -34 104 -22 90 5
-6 17 -36 27 -69 25 -81 60 -119 111 -118 78 0 121 37 107 91 -6 23 -41 36
-73 28 -15 -4 -22 4 -34 41 -21 59 -20 69 5 77 30 10 43 52 24 81 -12 18 -25
24 -54 24 -24 0 -41 5 -44 14 -8 19 -55 26 -72 10z"/>
<path d="M1195 4252 c-53 -6 -460 -147 -572 -198 -17 -7 -34 -14 -39 -14 -20
0 -84 -81 -95 -121 -26 -93 -5 -248 60 -440 29 -88 58 -139 109 -197 25 -29
29 -40 27 -90 -4 -103 43 -170 133 -192 47 -11 58 -10 131 14 44 14 86 26 93
26 7 0 26 12 42 26 23 22 39 27 95 30 72 3 170 39 204 75 14 15 28 18 74 14
58 -5 173 19 173 36 0 5 7 9 15 9 8 0 15 5 15 10 0 6 6 10 14 10 24 0 59 86
57 143 -1 58 -21 94 -65 115 -23 12 -27 18 -21 40 4 15 12 30 18 34 7 4 12 40
13 90 1 73 -4 99 -41 213 -23 72 -55 153 -69 181 -29 55 -106 144 -124 144 -7
0 -12 4 -12 8 0 23 -146 44 -235 34z m155 -103 c22 -7 40 -15 40 -19 0 -4 12
-20 28 -36 46 -49 61 -80 103 -207 43 -130 56 -203 45 -260 -9 -46 -68 -113
-125 -141 -52 -26 -256 -95 -298 -101 -15 -2 -59 -14 -98 -25 -38 -12 -79 -24
-90 -27 -11 -2 -27 -7 -35 -10 -73 -27 -136 -14 -195 41 -33 31 -138 327 -151
424 -1 13 4 46 12 72 22 76 68 108 226 159 73 24 135 47 138 51 3 4 59 25 124
47 129 43 208 52 276 32z"/>
<path d="M1204 4122 c-49 -9 -304 -97 -344 -119 -53 -29 -131 -109 -155 -159
-9 -19 -21 -59 -27 -88 -11 -51 -9 -61 21 -154 33 -101 63 -143 130 -180 87
-49 212 -54 336 -12 44 15 82 27 85 28 3 0 18 5 33 11 15 6 39 14 52 17 14 3
25 10 25 15 0 5 7 9 15 9 8 0 15 5 15 10 0 6 5 10 11 10 14 0 80 73 79 86 -1
3 7 12 17 20 10 7 14 14 9 14 -5 0 -3 7 4 15 6 8 9 19 6 24 -4 5 -2 12 4 16
20 13 9 104 -26 214 -31 100 -41 118 -81 157 -24 24 -53 44 -62 44 -9 0 -21 4
-26 9 -11 10 -90 18 -121 13z m111 -116 c35 -15 58 -53 86 -141 15 -50 28
-175 17 -175 -4 0 -8 -9 -8 -20 0 -37 -79 -100 -160 -130 l-75 -27 -2 36 c-1
20 -3 60 -5 90 -3 50 -1 55 31 81 18 16 45 31 60 35 76 19 81 98 6 98 -14 0
-25 3 -25 8 0 5 5 9 10 9 6 0 10 18 10 40 0 35 -5 43 -32 60 -42 26 -50 25
-87 -5 -35 -30 -42 -59 -24 -97 8 -16 9 -28 4 -28 -5 0 -17 21 -26 48 -9 26
-21 55 -27 65 -12 23 -15 20 57 45 72 24 143 27 190 8z m-451 -133 c-20 -40
-18 -57 13 -87 32 -33 62 -29 100 12 l25 27 -18 -32 c-10 -18 -24 -33 -31 -33
-7 0 -13 -4 -13 -8 0 -5 -19 -15 -42 -22 -44 -13 -88 -50 -88 -75 0 -20 54
-35 90 -25 33 10 40 -2 15 -27 -16 -16 -17 -70 -2 -90 13 -17 2 -16 -39 3 -50
24 -98 117 -96 187 1 47 33 127 64 163 36 41 41 43 22 7z"/>
<path d="M1235 3718 c-34 -19 -46 -41 -41 -76 7 -50 31 -66 92 -63 14 1 27 13
39 36 21 46 13 88 -21 104 -31 14 -43 14 -69 -1z"/>
<path d="M3310 3899 c0 -5 -4 -8 -8 -5 -15 9 -44 -36 -49 -75 -3 -22 -8 -39
-12 -39 -3 0 -19 23 -36 50 -40 66 -64 78 -104 54 -37 -22 -43 -36 -31 -69 6
-16 6 -25 0 -25 -6 0 -10 5 -10 11 0 16 -63 2 -77 -17 -24 -33 -10 -84 26 -95
8 -3 16 -15 18 -27 1 -13 12 -32 23 -44 27 -30 17 -35 -18 -9 -17 12 -43 21
-59 21 -30 0 -88 -31 -114 -61 -9 -11 -20 -19 -24 -19 -16 0 -65 -43 -65 -57
0 -9 16 -39 36 -67 l37 -51 -37 35 c-48 46 -103 48 -162 8 -43 -30 -78 -85
-72 -114 2 -14 36 -39 66 -50 5 -2 -11 -64 -17 -64 -6 0 -79 96 -132 172 -3 5
-18 11 -32 14 -20 3 -36 -4 -62 -28 l-36 -33 25 -92 c13 -50 27 -101 31 -113
6 -19 -7 -13 -76 34 -81 56 -135 78 -148 60 -3 -5 -15 -14 -25 -19 -40 -23
-37 -48 15 -126 62 -94 79 -118 106 -145 12 -12 19 -25 16 -28 -3 -3 2 -8 11
-12 9 -3 16 -10 16 -16 0 -41 81 -52 106 -14 14 23 14 28 -1 60 -10 20 -20 36
-24 36 -3 0 -12 10 -20 22 -11 17 -5 15 26 -10 59 -46 90 -56 119 -37 33 21
39 56 19 115 -9 28 -14 54 -11 57 3 4 6 -1 6 -10 0 -9 4 -17 8 -17 5 0 14 -10
21 -23 7 -13 21 -29 32 -35 41 -26 110 45 80 82 -9 11 -4 13 33 9 45 -5 82 12
126 57 8 8 29 22 45 31 23 12 30 22 30 45 0 29 1 30 26 20 21 -7 33 -6 52 7
35 23 39 60 10 91 -13 14 -21 26 -18 26 2 0 -11 21 -30 46 -40 52 -41 56 -18
79 16 16 18 16 35 -6 11 -13 25 -31 31 -39 7 -8 23 -31 37 -50 31 -45 39 -50
73 -48 35 3 61 40 53 76 -5 22 -4 24 4 10 14 -22 43 -23 75 -2 44 29 41 44
-23 137 -18 26 -29 47 -25 47 4 0 19 -19 33 -41 52 -84 87 -100 128 -56 26 28
27 45 6 75 -8 12 -14 22 -12 22 2 0 21 -7 43 -14 58 -21 125 11 125 59 0 26
-21 38 -108 61 l-63 17 6 73 c7 66 5 73 -13 83 -26 14 -42 14 -42 0z"/>
<path d="M7246 3848 c-8 -14 -14 -48 -13 -87 l0 -65 -59 -20 c-76 -27 -84 -32
-84 -60 0 -46 60 -75 112 -53 l33 14 -3 -36 c-5 -46 28 -91 66 -92 26 0 26 -1
6 -11 -25 -12 -44 -66 -33 -95 5 -13 20 -24 39 -28 25 -6 37 -2 56 16 13 12
24 28 24 35 0 6 15 27 33 46 17 18 44 49 60 68 25 32 24 31 -4 -17 -26 -43
-31 -59 -26 -90 7 -44 59 -98 104 -109 15 -4 43 -24 61 -45 18 -21 42 -41 55
-45 12 -4 34 -20 48 -35 15 -16 35 -29 44 -29 21 0 64 46 112 117 39 59 49 68
58 53 3 -5 -23 -51 -60 -102 -52 -72 -71 -92 -91 -93 -46 -2 -60 -58 -21 -91
75 -65 112 -77 142 -47 12 11 15 25 10 50 -3 18 -2 33 2 33 5 0 17 15 28 33
10 17 21 34 25 37 3 3 17 21 30 40 34 49 42 56 68 57 23 2 51 28 51 48 0 6 -5
17 -12 26 -16 21 -119 89 -134 89 -6 0 -14 8 -17 18 -8 23 -47 45 -72 40 -10
-2 -41 -33 -69 -70 -49 -66 -75 -86 -95 -73 -9 5 4 40 20 55 3 3 17 21 30 40
13 19 29 38 34 42 6 4 10 23 10 42 0 40 -24 65 -61 66 -23 0 -63 -35 -63 -56
0 -7 -3 -14 -7 -16 -5 -1 -21 -20 -36 -40 -26 -35 -54 -48 -70 -32 -4 4 18 42
48 84 60 85 66 113 33 141 -26 24 -55 24 -82 2 -12 -10 -15 -11 -8 -3 27 31 1
90 -41 90 -9 0 -22 8 -29 18 -7 10 -25 27 -40 36 -23 15 -33 16 -59 7 -46 -16
-49 -15 -49 27 0 42 -5 51 -40 75 -33 23 -47 21 -64 -5z"/>
<path d="M8442 3329 c-48 -24 -88 -71 -94 -108 -2 -21 -12 -27 -57 -37 -30 -6
-60 -20 -67 -29 -7 -9 -29 -34 -48 -56 -20 -21 -36 -41 -36 -43 0 -6 -24 -37
-47 -61 -7 -8 -13 -18 -13 -23 0 -6 -3 -12 -7 -14 -5 -1 -17 -19 -27 -38 -11
-19 -29 -54 -42 -77 -12 -23 -25 -54 -28 -70 -3 -15 -10 -46 -15 -68 -17 -64
-13 -136 8 -170 18 -29 156 -175 165 -175 3 0 18 -12 33 -26 52 -50 187 -154
199 -154 7 0 14 -4 16 -9 2 -4 47 -30 100 -56 82 -41 107 -48 165 -51 81 -3
143 8 198 37 44 23 124 102 152 149 9 17 21 30 25 30 4 0 8 6 8 14 0 8 4 16 9
18 15 5 91 130 91 149 0 9 5 19 10 21 6 2 12 28 13 58 2 51 5 56 34 70 96 46
145 160 103 241 -20 38 -108 119 -129 119 -11 0 -21 5 -23 11 -2 6 -20 11 -41
11 -20 0 -37 3 -37 8 0 4 -18 27 -39 52 -40 45 -144 105 -192 110 -14 2 -32
15 -43 33 -21 34 -27 39 -119 101 -86 58 -156 69 -225 33z m23 -259 c5 -4 13
-9 18 -9 15 -1 72 -32 97 -52 l25 -21 -25 7 c-14 3 -60 9 -103 12 -89 7 -139
-5 -203 -49 -43 -28 -104 -97 -104 -117 0 -6 -4 -11 -9 -11 -13 0 -41 -110
-41 -159 0 -80 29 -139 102 -211 82 -79 105 -97 188 -141 142 -76 198 -89 280
-65 71 21 143 69 188 125 20 25 40 48 43 51 4 3 17 28 30 55 33 68 32 166 0
218 -38 63 -13 41 29 -25 54 -83 67 -127 49 -170 -32 -79 -170 -268 -195 -268
-6 0 -19 -8 -30 -17 -45 -40 -82 -52 -147 -48 -58 3 -156 37 -165 58 -2 4 -9
7 -16 7 -14 0 -113 68 -166 114 -20 17 -53 45 -75 61 -90 69 -187 184 -181
215 8 47 19 86 26 95 4 6 10 24 14 40 7 27 60 123 75 135 3 3 11 12 16 21 82
134 135 174 220 164 27 -4 54 -10 60 -15z m-127 -273 c12 3 22 10 22 16 0 5
11 -2 25 -17 17 -19 31 -25 44 -21 11 3 26 -1 35 -11 11 -10 27 -15 46 -12 23
4 30 0 32 -16 5 -31 46 -48 73 -30 21 14 22 13 17 -12 -7 -35 20 -57 54 -44
19 8 24 6 24 -6 0 -8 7 -22 16 -31 12 -13 20 -13 40 -4 l25 11 -17 -30 c-15
-25 -16 -33 -4 -54 17 -33 49 -37 79 -12 46 39 -32 -65 -88 -117 -42 -40 -53
-46 -65 -35 -12 11 -11 13 5 16 45 8 59 84 18 97 -15 5 -17 10 -9 26 26 48
-41 99 -82 62 -17 -15 -20 -15 -28 -3 -12 19 -12 27 0 35 16 10 11 51 -8 68
-22 21 -61 18 -73 -5 -13 -25 -47 -4 -42 26 12 61 -77 82 -102 24 -14 -32 -14
-32 -15 -7 0 36 -28 59 -63 52 -29 -6 -53 -36 -42 -53 3 -6 -3 -10 -14 -10
-18 0 -18 3 -9 37 5 20 17 47 26 59 15 19 19 20 37 8 11 -7 30 -11 43 -7z"/>
<path d="M1830 3147 c-3 -3 -21 -8 -40 -10 -19 -3 -35 -6 -35 -7 0 -1 -8 -3
-18 -5 -42 -8 -155 -75 -165 -97 -2 -5 -10 -8 -18 -8 -8 0 -14 -4 -14 -8 0 -4
-14 -16 -31 -26 -55 -32 -193 -140 -232 -181 -79 -81 -118 -177 -119 -289 -1
-95 20 -154 87 -246 31 -41 63 -86 73 -99 35 -50 72 -81 121 -103 47 -20 51
-24 51 -56 0 -96 61 -183 140 -199 90 -19 210 41 278 137 29 42 46 57 82 68
49 16 168 89 213 131 15 14 43 46 61 71 25 34 44 49 75 59 46 13 119 78 145
130 15 28 21 86 14 121 -14 60 -76 110 -138 110 -17 0 -29 4 -25 9 10 17 -36
122 -83 190 -25 36 -49 68 -52 71 -3 3 -17 21 -30 40 -63 91 -124 151 -174
175 -38 17 -156 33 -166 22z m28 -219 c15 -15 15 -65 1 -107 -16 -46 -5 -78
31 -86 36 -8 69 19 75 61 2 16 4 30 6 32 3 4 6 21 8 39 1 15 3 15 16 -3 21
-28 18 -70 -10 -125 -27 -54 -24 -76 10 -85 34 -8 58 2 77 33 10 16 18 22 18
15 0 -19 -28 -71 -67 -121 -33 -44 -42 -75 -23 -86 7 -4 6 -11 -2 -18 -24 -22
-96 -77 -102 -77 -3 0 -24 18 -45 39 -22 22 -56 44 -77 50 -74 20 -196 -22
-266 -91 -21 -21 -40 -38 -44 -38 -3 0 -17 25 -31 57 -38 82 -43 180 -13 238
22 42 46 63 59 49 3 -4 0 -9 -6 -11 -17 -6 -16 -58 1 -92 41 -78 129 -80 236
-7 41 28 100 81 100 91 0 2 5 16 11 32 20 49 20 86 -1 121 -13 22 -27 32 -44
32 -32 0 -25 30 12 53 32 20 54 21 70 5z"/>
<path d="M4394 3132 c-43 -34 -82 -142 -65 -179 14 -31 14 -30 -8 -36 -43 -11
-65 -136 -29 -158 7 -4 10 -9 8 -11 -3 -2 -18 -10 -35 -20 -17 -9 -34 -29 -39
-47 -8 -25 -14 -29 -32 -25 -30 8 -62 -3 -74 -26 -15 -28 4 -68 35 -76 19 -5
24 -11 20 -23 -22 -53 -26 -95 -12 -118 4 -6 -2 -13 -13 -16 -27 -7 -45 -56
-30 -80 10 -17 9 -18 -22 -12 -18 4 -35 7 -38 7 -28 1 -40 -4 -40 -16 0 -8 -5
-16 -11 -18 -7 -2 -7 -12 0 -31 6 -15 7 -27 2 -27 -4 0 -12 -10 -18 -23 -17
-36 8 -73 54 -82 22 -4 32 -10 23 -13 -21 -7 -50 -42 -56 -69 -7 -24 -14 -28
-30 -14 -5 4 -24 4 -43 -1 -33 -9 -33 -10 -28 -55 3 -32 -1 -58 -15 -89 -50
-114 35 -224 172 -224 70 0 141 79 142 160 0 22 4 40 8 40 4 0 11 10 17 23 18
39 -3 64 -73 87 -36 12 -61 26 -58 32 3 5 13 6 23 3 9 -4 23 -8 31 -10 8 -2
15 -4 15 -5 0 -1 7 -3 15 -5 8 -2 23 -6 32 -10 23 -9 71 41 62 67 -3 10 2 25
11 34 9 9 15 28 13 43 -2 15 4 33 15 44 21 21 22 51 2 70 -13 13 -12 16 9 21
28 7 48 48 37 77 -5 16 -2 28 16 47 12 13 25 41 29 61 3 20 13 50 22 68 24 49
7 77 -62 99 -30 10 -58 24 -61 31 -6 16 17 12 72 -14 62 -29 120 8 99 64 -4 9
1 25 13 37 18 19 34 64 48 138 3 15 11 33 19 39 22 18 17 66 -8 81 -13 7 -27
13 -33 14 -5 0 -28 8 -50 18 -56 25 -27 32 47 11 59 -16 61 -16 81 4 17 17 19
25 11 48 -8 22 -22 33 -74 51 -90 32 -121 35 -146 14z"/>
<path d="M3460 3093 c-19 -7 -34 -32 -36 -58 -2 -26 35 -67 55 -60 10 3 22 -6
33 -25 9 -17 24 -30 32 -30 8 0 16 -4 18 -8 2 -5 23 -22 48 -39 25 -18 59 -44
75 -58 23 -21 19 -19 -20 7 -27 18 -51 36 -53 41 -2 4 -8 7 -13 7 -6 0 -19 9
-31 20 -32 29 -83 30 -131 2 -28 -17 -67 -78 -67 -105 0 -8 -18 -26 -39 -40
-25 -17 -41 -36 -46 -55 -3 -16 -17 -35 -30 -42 -14 -7 -25 -19 -25 -26 0 -7
-3 -19 -6 -27 -3 -8 2 -22 11 -31 14 -14 14 -16 1 -16 -8 0 -28 14 -44 30 -50
49 -122 32 -122 -28 0 -12 -6 -22 -13 -22 -25 0 -50 -58 -41 -98 4 -20 8 -44
9 -52 1 -8 5 -26 10 -40 7 -24 7 -24 -11 -10 -11 9 -32 22 -47 30 -26 13 -30
12 -54 -12 -22 -22 -25 -32 -19 -62 4 -21 13 -36 21 -36 7 0 15 -3 17 -8 2 -4
32 -28 68 -54 36 -26 70 -52 77 -58 7 -5 15 -10 18 -10 3 0 15 -8 26 -19 32
-29 85 -55 102 -48 25 10 50 55 43 79 -3 13 -22 33 -42 46 -20 13 -34 26 -31
29 3 3 38 6 77 7 69 1 73 3 101 36 17 19 33 40 37 45 4 6 13 18 20 27 22 28
24 66 5 78 -15 9 -12 10 14 5 27 -5 37 -2 58 21 18 19 23 34 19 48 -7 24 -38
56 -54 56 -5 0 -10 3 -10 8 0 4 -18 18 -40 32 -42 26 -59 55 -42 72 11 11 84
-29 129 -71 35 -33 67 -36 92 -10 40 43 29 70 -54 129 -57 40 -75 59 -75 77 0
16 6 23 20 23 11 0 20 -4 20 -10 0 -5 7 -10 15 -10 8 0 15 -4 15 -8 0 -4 12
-15 28 -24 15 -9 38 -26 51 -37 27 -24 49 -26 72 -8 23 17 40 53 33 70 -3 10
3 17 20 21 33 8 60 49 52 78 -3 13 -31 40 -65 63 -33 22 -61 43 -61 48 0 4 -6
7 -14 7 -8 0 -16 4 -18 8 -6 14 -66 52 -82 52 -9 0 -16 4 -16 10 0 15 -42 50
-59 49 -9 0 -23 -3 -31 -6z"/>
<path d="M7123 2803 c-10 -10 -26 -51 -37 -90 l-18 -72 -51 5 c-27 2 -54 7
-59 10 -14 9 -58 -24 -58 -44 0 -31 43 -68 89 -78 l45 -9 -42 -28 c-89 -58
-94 -68 -65 -118 11 -19 26 -29 40 -29 13 0 23 -5 23 -11 0 -10 50 -87 79
-121 18 -21 54 -24 69 -5 6 6 14 25 17 40 4 15 24 40 44 54 20 15 59 44 86 64
39 29 56 36 78 32 30 -6 67 19 67 45 0 15 -39 75 -52 80 -4 2 -8 8 -8 14 0 15
-41 49 -51 42 -5 -3 -9 8 -9 24 0 30 -23 59 -50 62 -23 3 -60 -11 -60 -23 0
-6 -3 -8 -6 -5 -3 4 2 28 11 54 19 56 9 86 -37 110 -25 13 -29 12 -45 -3z"/>
<path d="M7750 2431 c0 -6 -7 -8 -15 -5 -8 4 -15 1 -15 -7 0 -7 -3 -9 -6 -6
-13 12 -63 -34 -75 -68 -7 -19 -18 -35 -24 -36 -123 -7 -322 -81 -416 -155
-13 -11 -49 -44 -80 -75 -49 -48 -59 -64 -69 -112 -16 -80 -1 -194 35 -264 8
-15 15 -34 15 -40 0 -7 5 -13 10 -13 6 0 10 -6 10 -14 0 -8 15 -34 33 -58 18
-24 55 -74 82 -113 27 -38 53 -71 57 -73 4 -2 8 -8 8 -13 0 -24 136 -159 160
-159 6 0 10 -3 10 -7 0 -10 64 -39 110 -51 55 -14 177 -5 217 16 10 6 20 10
23 9 3 0 31 11 62 26 72 34 183 110 227 156 35 37 71 109 71 142 0 17 5 19 33
14 75 -14 166 42 184 113 21 84 -38 206 -126 258 -16 10 -31 29 -34 43 -3 15
-29 58 -57 96 -28 39 -63 87 -78 107 -15 20 -41 45 -59 54 -23 13 -35 29 -43
60 -7 23 -21 52 -31 63 -10 11 -19 24 -19 28 0 12 -95 72 -124 78 -14 3 -37 7
-51 10 -14 3 -25 1 -25 -4z m-35 -456 l49 -40 -39 -6 c-22 -4 -53 -12 -69 -18
-25 -10 -34 -8 -68 14 -21 14 -38 29 -38 34 0 5 -10 11 -22 15 l-23 6 25 19
c18 15 39 19 81 18 49 -2 62 -7 104 -42z m-330 -95 c-11 -18 78 -165 132 -217
13 -12 23 -25 23 -28 0 -12 77 -88 117 -116 107 -75 184 13 119 136 l-25 46
31 27 c17 15 39 40 49 56 l18 30 43 -89 c55 -115 55 -156 2 -202 -62 -54 -154
-88 -229 -85 -60 3 -166 85 -213 164 -9 15 -20 28 -24 28 -4 0 -8 6 -8 14 0 8
-3 16 -7 18 -10 4 -39 62 -57 113 -12 35 -12 46 1 78 8 20 19 37 25 37 5 0 6
-4 3 -10z"/>
<path d="M5095 2368 c-17 -5 -41 -24 -52 -41 -19 -28 -22 -45 -21 -127 1 -106
9 -122 64 -124 35 -1 49 -16 15 -16 -11 0 -32 -11 -47 -25 -35 -33 -45 -132
-17 -185 16 -31 22 -35 57 -34 21 1 42 7 46 14 6 9 11 8 18 -7 6 -11 25 -27
41 -35 34 -16 31 -23 -27 -61 -49 -32 -52 -31 -123 35 -63 59 -64 59 -94 48
-26 -10 -27 -14 -22 -55 4 -39 12 -52 58 -94 l53 -49 -44 0 c-50 -1 -70 -19
-70 -62 0 -54 18 -58 221 -60 167 -1 187 1 202 17 19 22 17 68 -4 89 -8 8 -36
15 -61 16 -27 1 -44 6 -41 13 2 5 28 27 58 47 61 43 76 79 52 127 -9 18 -11
31 -5 33 13 5 18 107 6 114 -5 4 -7 18 -3 33 14 53 14 62 0 68 -20 7 -19 39 1
47 13 5 15 14 9 44 -9 53 -25 61 -122 60 -65 0 -88 3 -100 15 -31 31 -2 44 98
45 70 0 95 4 109 17 23 21 19 71 -7 90 -21 16 -203 18 -248 3z"/>
<path d="M3632 1673 c-39 -19 -110 -97 -118 -130 -4 -13 -9 -23 -13 -23 -11 0
-76 -165 -95 -245 -7 -27 -16 -57 -19 -65 -4 -8 -8 -24 -10 -35 -1 -11 -5 -24
-9 -30 -4 -8 -20 -64 -23 -85 0 -3 -3 -9 -7 -15 -15 -25 -30 -128 -26 -181 6
-70 36 -137 89 -198 41 -46 139 -113 199 -135 19 -7 50 -20 68 -28 18 -8 36
-11 41 -8 5 3 12 1 16 -4 3 -5 13 -10 23 -9 9 0 39 -3 66 -6 49 -6 111 5 155
27 20 10 25 9 37 -8 27 -38 58 -67 82 -76 30 -12 122 -9 122 3 0 5 4 7 9 4 14
-9 88 71 112 122 17 33 23 65 24 111 0 57 3 67 31 96 50 54 69 102 71 184 1
65 5 78 29 105 82 93 98 265 31 342 -24 28 -114 64 -148 60 -13 -2 -36 -7 -51
-11 -22 -6 -28 -4 -28 9 0 9 -4 16 -10 16 -5 0 -10 6 -10 13 -1 39 -108 115
-205 146 -38 13 -77 25 -85 28 -8 4 -19 5 -24 4 -4 -1 -14 4 -22 10 -8 6 -14
9 -14 7 0 -3 -26 1 -57 8 -80 19 -190 17 -231 -3z m263 -121 c39 -11 91 -23
118 -27 26 -3 47 -10 47 -16 0 -5 9 -9 19 -9 11 0 26 -7 35 -15 8 -8 19 -15
24 -15 5 0 20 -21 34 -47 31 -57 43 -152 28 -220 -16 -71 -61 -216 -72 -230
-5 -7 -7 -17 -3 -23 3 -5 1 -10 -4 -10 -6 0 -11 -6 -11 -13 0 -7 -11 -37 -25
-65 -14 -29 -25 -56 -25 -62 0 -12 -55 -115 -81 -151 -22 -31 -97 -69 -125
-64 -10 2 -30 4 -44 5 -17 1 -8 7 30 18 74 21 151 99 203 205 22 43 40 83 41
90 2 6 6 19 9 27 13 30 67 213 67 226 0 8 4 14 8 14 22 0 2 140 -29 200 -18
34 -74 89 -115 113 -7 4 -57 21 -111 38 -92 29 -124 31 -193 17 -30 -7 -91
-51 -117 -84 -22 -30 -24 -38 -15 -59 7 -14 7 -25 2 -25 -4 0 -16 -7 -25 -16
-9 -9 -17 -15 -19 -13 -2 2 8 40 23 84 19 59 36 89 65 118 l40 39 75 -5 c42
-3 108 -15 146 -25z m82 -264 c40 -12 54 -47 40 -103 -13 -51 -12 -50 -36 -26
-42 42 -111 18 -137 -46 -21 -50 -34 -31 -30 45 4 86 18 120 57 136 32 13 46
13 106 -6z"/>
<path d="M5503 1406 l-50 -34 -59 20 c-120 40 -329 45 -437 9 -102 -34 -200
-128 -232 -221 -1 -3 -7 -18 -14 -35 -41 -104 -51 -162 -51 -299 0 -171 53
-343 133 -432 39 -43 120 -79 222 -98 6 -1 16 -5 23 -10 18 -11 205 -15 275
-5 36 4 72 18 100 37 l43 29 17 -29 c29 -50 108 -71 186 -48 46 13 99 66 111
110 19 72 13 205 -11 252 -5 10 -3 31 5 57 15 41 21 275 8 296 -11 17 -16 48
-14 90 5 212 1 233 -56 291 -62 62 -128 69 -199 20z m-417 -326 c9 -29 27 -58
54 -82 42 -39 44 -47 40 -158 -1 -46 -34 -130 -51 -130 -5 0 -9 -5 -9 -11 0
-6 -8 -23 -18 -37 -10 -15 -18 -39 -17 -54 1 -27 -21 -39 -39 -21 -4 5 -12 8
-18 8 -5 0 -23 23 -39 51 l-28 51 25 14 c84 45 98 268 22 355 -25 28 -27 36
-16 49 8 9 26 14 47 12 31 -2 35 -6 47 -47z"/>
</g>
</svg>
