<?xml version="1.0" encoding="UTF-8" standalone="no"?>
<!-- Created with Inkscape (http://www.inkscape.org/) -->

<svg
   xmlns:dc="http://purl.org/dc/elements/1.1/"
   xmlns:cc="http://creativecommons.org/ns#"
   xmlns:rdf="http://www.w3.org/1999/02/22-rdf-syntax-ns#"
   xmlns:svg="http://www.w3.org/2000/svg"
   xmlns="http://www.w3.org/2000/svg"
   xmlns:sodipodi="http://sodipodi.sourceforge.net/DTD/sodipodi-0.dtd"
   xmlns:inkscape="http://www.inkscape.org/namespaces/inkscape"
   width="140"
   height="200"
   viewBox="0 0 140 199.99999"
   id="svg5591"
   version="1.1"
   inkscape:version="0.91 r13725"
   sodipodi:docname="maya-months-13-k'ank'in.svg">
  <defs
     id="defs5593">
    <inkscape:path-effect
       effect="spiro"
       id="path-effect5499-2-2-4"
       is_visible="true" />
    <inkscape:path-effect
       effect="spiro"
       id="path-effect5499-2-2-0"
       is_visible="true" />
    <inkscape:path-effect
       effect="spiro"
       id="path-effect5499-2-2-86"
       is_visible="true" />
    <inkscape:path-effect
       effect="spiro"
       id="path-effect5499-2-2-8"
       is_visible="true" />
    <inkscape:path-effect
       effect="spiro"
       id="path-effect5492"
       is_visible="true" />
    <inkscape:path-effect
       effect="spiro"
       id="path-effect5511-9-5"
       is_visible="true" />
    <inkscape:path-effect
       effect="spiro"
       id="path-effect5507-6-3"
       is_visible="true" />
    <inkscape:path-effect
       effect="spiro"
       id="path-effect5503-3-6"
       is_visible="true" />
    <inkscape:path-effect
       effect="spiro"
       id="path-effect5499-2-2"
       is_visible="true" />
    <inkscape:path-effect
       effect="spiro"
       id="path-effect5442"
       is_visible="true" />
    <inkscape:path-effect
       effect="spiro"
       id="path-effect5430"
       is_visible="true" />
    <inkscape:path-effect
       effect="spiro"
       id="path-effect5426"
       is_visible="true" />
    <inkscape:path-effect
       effect="spiro"
       id="path-effect5177-1-4"
       is_visible="true" />
    <inkscape:path-effect
       effect="spiro"
       id="path-effect5143-6-2"
       is_visible="true" />
    <inkscape:path-effect
       effect="spiro"
       id="path-effect5143-9-6"
       is_visible="true" />
    <inkscape:path-effect
       effect="spiro"
       id="path-effect5143-2"
       is_visible="true" />
    <inkscape:path-effect
       effect="spiro"
       id="path-effect5077-2-9-9-1"
       is_visible="true" />
    <inkscape:path-effect
       effect="spiro"
       id="path-effect5077-2-9-4"
       is_visible="true" />
    <inkscape:path-effect
       effect="spiro"
       id="path-effect5077-2-6"
       is_visible="true" />
  </defs>
  <sodipodi:namedview
     id="base"
     pagecolor="#ffffff"
     bordercolor="#666666"
     borderopacity="1.0"
     inkscape:pageopacity="0.0"
     inkscape:pageshadow="2"
     inkscape:zoom="1.4"
     inkscape:cx="174.42821"
     inkscape:cy="167.70978"
     inkscape:document-units="px"
     inkscape:current-layer="layer1"
     showgrid="false"
     units="px"
     inkscape:window-width="1024"
     inkscape:window-height="704"
     inkscape:window-x="0"
     inkscape:window-y="27"
     inkscape:window-maximized="1" />
  <metadata
     id="metadata5596">
    <rdf:RDF>
      <cc:Work
         rdf:about="">
        <dc:format>image/svg+xml</dc:format>
        <dc:type
           rdf:resource="http://purl.org/dc/dcmitype/StillImage" />
        <dc:title></dc:title>
      </cc:Work>
    </rdf:RDF>
  </metadata>
  <g
     inkscape:label="Calque 1"
     inkscape:groupmode="layer"
     id="layer1"
     transform="translate(0,-852.36225)">
    <path
       style="fill:none;fill-rule:evenodd;stroke:#000000;stroke-width:3px;stroke-linecap:butt;stroke-linejoin:miter;stroke-opacity:1"
       d="m 60.144564,855.7263 c -4.3756,0.013 -8.7435,0.211 -13.0801,0.7871 -8.6733,1.1522 -17.3102,3.9095 -24.2422,9.2481 -5.1114,3.9364 -9.149501,9.1742 -12.064501,14.9296 -2.9148997,5.7555 -4.7324996,12.024 -5.7987996,18.3868 -2.1326001,12.7255 -1.2983001,25.7305 -1.1621001,38.6328 0.1232,11.6721 -0.3236,23.4349 1.7070001,34.9297 2.0306999,11.4947 6.8378996,22.9398 15.7266006,30.5058 7.0987,6.0424 16.2853,9.177 25.5059,10.5488 9.2205,1.3719 18.5939,1.1077 27.916,1.0977 7.0189,-0.01 14.358,-0.3694 21.3222,-1.2441 6.964196,-0.8747 12.558506,-3.1986 18.427706,-7.048 5.0842,-3.3346 9.7425,-8.1978 12.792,-13.458 3.0495,-5.2602 4.6928,-10.5565 5.9433,-16.5068 2.501,-11.9005 2.9375,-23.6595 3.0675,-35.8193 0.1452,-13.5784 1.0172,-27.2789 -1.3926,-40.6425 -1.2049,-6.6819 -3.2418,-13.2511 -6.4726,-19.2227 -3.2309,-5.9716 -7.6877,-11.3385 -13.2578,-15.2207 -5.9506,-4.1474 -13.00091,-6.4987 -20.140706,-7.7774 -7.1397,-1.2786 -14.4178,-1.5321 -21.666,-1.8046 -4.3716,-0.1644 -8.7553,-0.3353 -13.1308,-0.3223 z"
       id="path4462-4-0-0"
       inkscape:connector-curvature="0"
       sodipodi:nodetypes="ssssssssscsssssssssss" />
    <path
       style="fill:none;fill-rule:evenodd;stroke:#000000;stroke-width:3;stroke-linecap:butt;stroke-linejoin:miter;stroke-opacity:1"
       d="m 36.833964,1011.7014 c -7.870092,-1.8031 -16.551289,0.3989 -22.610501,5.7351 -2.006297,1.7669 -3.74176,3.8644 -4.9489296,6.2498 -1.20717,2.3854 -1.8737882,5.0654 -1.7535701,7.7361 0.1994783,4.4315 2.5714607,8.5859 5.8586997,11.5646 4.147429,3.7581 9.63039,5.7725 15.154127,6.674 5.523738,0.9016 11.155828,0.7721 16.752574,0.7426 6.711331,-0.035 13.502036,0.068 20.0318,-1.4827 2.391318,-0.568 4.746031,-1.3624 6.878395,-2.5847 2.132363,-1.2223 4.041062,-2.8901 5.335105,-4.9797 1.407198,-2.2723 2.034332,-4.9334 2.5192,-7.5618 0.573001,-3.1062 0.977541,-6.2977 0.475742,-9.4162 -0.2509,-1.5593 -0.730833,-3.089 -1.496114,-4.4705 -0.765281,-1.3815 -1.821394,-2.6123 -3.123328,-3.5062 -1.439525,-0.9884 -3.169144,-1.5487 -4.9148,-1.5922"
       id="path5075-3-3"
       inkscape:path-effect="#path-effect5077-2-6"
       inkscape:original-d="m 36.833964,1011.7014 c -10.2194,5.6344 -19.365,2.4102 -22.610501,5.7351 -3.2455,3.3248 -11.2110997,0.4189 -6.7024997,13.9859 4.5084997,13.5669 -12.7766996,7.413 5.8586997,11.5646 18.635401,4.1516 13.571901,7.4166 31.906701,7.4166 18.3349,0 7.1073,3.8551 20.0318,-1.4827 6.4623,-2.6689 10.1458,-5.1169 12.2135,-7.5644 2.0678,-2.4476 2.5198,-4.8947 2.5192,-7.5618 0,-9.1353 -0.6125,-17.4897 -4.1437,-17.3929 -3.5312,0.097 2.2989,4.4869 -4.9148,-1.5922"
       inkscape:connector-curvature="0"
       sodipodi:nodetypes="czzssssssc" />
    <path
       style="fill:none;fill-rule:evenodd;stroke:#000000;stroke-width:3;stroke-linecap:butt;stroke-linejoin:miter;stroke-opacity:1"
       d="m 35.556264,1011.1867 c -3.912092,0.6321 -7.594595,2.6064 -10.2864,5.5147 -0.954581,1.0314 -1.790571,2.1813 -2.395528,3.4498 -0.604956,1.2684 -0.974925,2.6588 -0.989872,4.064 -0.02764,2.5986 1.187879,5.1331 3.0547,6.941 2.276691,2.2048 5.405339,3.3472 8.538588,3.8238 3.133248,0.4766 6.321823,0.3458 9.491112,0.3422 4.015547,-0 8.101464,0.189 11.9755,-0.8676 2.139902,-0.5837 4.203354,-1.5635 5.83147,-3.0698 1.628115,-1.5063 2.793098,-3.5709 2.97613,-5.7814 0.127473,-1.5395 -0.221351,-3.1017 -0.900546,-4.4892 -0.679194,-1.3875 -1.680464,-2.6043 -2.844854,-3.6195 -1.644944,-1.4341 -3.627635,-2.4783 -5.7408,-3.0234"
       id="path5075-3-6-1"
       inkscape:path-effect="#path-effect5077-2-9-4"
       inkscape:original-d="m 35.556264,1011.1867 c -6.1094,3.297 -8.3462,3.5692 -10.2864,5.5147 -1.9402,1.9456 -6.0808,-0.425 -3.3854,7.5138 2.6953,7.9388 -8.086001,4.5117 3.0547,6.941 11.1407,2.4294 7.0687,4.166 18.0297,4.166 10.961,0 4.2489,2.2558 11.9755,-0.8676 7.7266,-3.1235 8.8083,-5.7298 8.8076,-8.8512 -6e-4,-5.3456 -1.6344,-8.1654 -3.7454,-8.1087 -2.111,0.057 -1.4283,0.5338 -5.7408,-3.0234"
       inkscape:connector-curvature="0"
       sodipodi:nodetypes="czzsssssc" />
    <path
       style="fill:none;fill-rule:evenodd;stroke:#000000;stroke-width:3;stroke-linecap:butt;stroke-linejoin:miter;stroke-opacity:1"
       d="m 38.663564,1011.9621 c -4.312951,0.5059 -8.423028,2.5911 -11.3785,5.7727 -0.809856,0.8718 -1.538932,1.8282 -2.072697,2.8917 -0.533764,1.0635 -0.86804,2.2393 -0.869903,3.4292 -0.0027,1.7357 0.713633,3.4356 1.8436,4.7531 1.404312,1.6374 3.396512,2.6878 5.469289,3.285 2.072776,0.5972 4.240923,0.7734 6.394011,0.905 5.460208,0.3336 11.043348,0.3859 16.2767,-1.207 1.69097,-0.5147 3.358109,-1.2143 4.71451,-2.3477 0.6782,-0.5666 1.272518,-1.2393 1.714015,-2.0049 0.441497,-0.7656 0.727721,-1.6256 0.789975,-2.5072 0.08755,-1.2398 -0.27083,-2.4854 -0.877912,-3.57 -0.607082,-1.0846 -1.45391,-2.0189 -2.377588,-2.8505 -2.939023,-2.6462 -6.743104,-4.3155 -10.6804,-4.6867"
       id="path5075-3-6-5-1"
       inkscape:path-effect="#path-effect5077-2-9-9-1"
       inkscape:original-d="m 38.663564,1011.9621 c -5.3102,2.6105 -9.6921,4.2322 -11.3785,5.7727 -1.6864,1.5405 7.0368,1.5012 -2.9426,6.3209 -9.979401,4.8196 -7.8397,2.8295 1.8436,4.7531 9.6833,1.9235 3.1751,5.4504 11.8633,4.19 7.8594,-1.1401 9.5609,1.2662 16.2767,-1.207 6.7159,-2.4731 7.2191,-4.3883 7.2185,-6.8598 -6e-4,-4.2327 -1.4206,-6.4654 -3.2555,-6.4205 -1.8348,0.045 -6.932,-1.87 -10.6804,-4.6867"
       inkscape:connector-curvature="0"
       sodipodi:nodetypes="czzsssssc" />
    <path
       style="fill:none;fill-rule:evenodd;stroke:#000000;stroke-width:3;stroke-linecap:butt;stroke-linejoin:miter;stroke-opacity:1"
       d="m 39.378464,1035.2474 c 0.198595,2.8672 0.240311,5.7452 0.1249,8.6169 -0.08381,2.0855 -0.250455,4.1676 -0.4994,6.2399"
       id="path5141-0"
       inkscape:path-effect="#path-effect5143-2"
       inkscape:original-d="m 39.378464,1035.2474 c 2.9963,8.3198 2.9963,3.2685 0.1249,8.6169 -2.8715,5.3484 0.1248,4.7542 -0.4994,6.2399"
       inkscape:connector-curvature="0"
       sodipodi:nodetypes="csc" />
    <path
       style="fill:none;fill-rule:evenodd;stroke:#000000;stroke-width:3;stroke-linecap:butt;stroke-linejoin:miter;stroke-opacity:1"
       d="m 43.373564,1035.5445 c 0.198516,2.8672 0.240199,5.7452 0.1248,8.6169 -0.0838,2.0855 -0.250412,4.1676 -0.4993,6.2399"
       id="path5141-6-6"
       inkscape:path-effect="#path-effect5143-9-6"
       inkscape:original-d="m 43.373564,1035.5445 c 2.9963,8.3198 2.9963,3.2685 0.1248,8.6169 -2.8714,5.3485 0.1249,4.7542 -0.4993,6.2399"
       inkscape:connector-curvature="0"
       sodipodi:nodetypes="csc" />
    <path
       style="fill:none;fill-rule:evenodd;stroke:#000000;stroke-width:3;stroke-linecap:butt;stroke-linejoin:miter;stroke-opacity:1"
       d="m 47.243764,1035.396 c 0.198598,2.8672 0.240314,5.7452 0.1249,8.6169 -0.08381,2.0854 -0.250456,4.1676 -0.4994,6.2398"
       id="path5141-2-6"
       inkscape:path-effect="#path-effect5143-6-2"
       inkscape:original-d="m 47.243764,1035.396 c 2.9963,8.3197 2.9963,3.2685 0.1249,8.6169 -2.8715,5.3484 0.1248,4.7541 -0.4994,6.2398"
       inkscape:connector-curvature="0"
       sodipodi:nodetypes="csc" />
    <path
       style="fill:none;fill-rule:evenodd;stroke:#000000;stroke-width:3;stroke-linecap:butt;stroke-linejoin:miter;stroke-opacity:1"
       d="m 91.441364,1014.0126 c -1.708609,0.036 -3.405964,0.5152 -4.881507,1.3774 -1.475543,0.8622 -2.726049,2.1058 -3.596393,3.5766 -1.619315,2.7364 -1.856065,6.0416 -2.1399,9.2086 -0.313372,3.4965 -0.721177,7.1045 0.3375,10.4516 0.894479,2.828 2.809495,5.278 5.1836,7.056 2.810228,2.1046 6.223399,3.2938 9.684864,3.8811 3.461466,0.5873 6.992772,0.6005 10.503242,0.5435 3.23485,-0.053 6.48407,-0.165 9.66374,-0.7623 3.17968,-0.5972 6.30689,-1.6998 8.93646,-3.5846 3.78631,-2.7139 6.37376,-7.042 6.9718,-11.6619 -2.02012,1.5399 -4.3597,2.6587 -6.8265,3.2645 -3.33802,0.8198 -6.82805,0.698 -10.2592,0.494 -2.60916,-0.1551 -5.28136,-0.3711 -7.65362,-1.4685 -1.18613,-0.5486 -2.28162,-1.319 -3.11932,-2.3221 -0.8377,-1.0031 -1.40819,-2.2464 -1.51807,-3.5487 -0.13747,-1.6293 0.45556,-3.2719 1.44927,-4.5704 0.99371,-1.2985 2.36438,-2.2732 3.83784,-2.982 3.80394,-1.83 8.24458,-1.9307 12.3995,-1.1855 4.16377,0.7468 8.17953,2.3099 11.7525,4.5746 0.21375,-3.2756 -0.95685,-6.6194 -3.167,-9.0464 -1.42881,-1.569 -3.25215,-2.747 -5.19915,-3.5911 -1.94699,-0.8441 -4.02005,-1.3653 -6.10815,-1.7437 -4.1823,-0.758 -8.46595,-0.9547 -12.70011,-0.5832"
       id="path5175-3-0"
       inkscape:path-effect="#path-effect5177-1-4"
       inkscape:original-d="m 91.441364,1014.0126 c -2.0063,0.2085 -3.5953,2.1878 -8.4779,4.954 -9.7651,5.5324 -4.6974,-3.6345 -2.1399,9.2086 2.5575,12.8432 -11.7527,4.7216 0.3375,10.4516 6.0451,2.865 2.6551,5.3271 5.1836,7.056 2.5285,1.7288 13.0967,5.9065 20.188106,4.4246 14.1827,-2.9638 11.8576,0.3952 18.6002,-4.3469 6.7426,-4.742 6.9718,-11.6619 6.9718,-11.6619 0,0 -3.0483,2.4989 -6.8265,3.2645 -3.7781,0.7657 -6.4229,1.0867 -10.2592,0.494 -7.6726,-1.1856 -12.98851,-0.6214 -12.29101,-7.3393 0.6976,-6.718 0.073,-10.7933 5.28711,-7.5524 8.8138,5.478 4.2618,-0.5927 12.3995,-1.1855 8.1376,-0.5927 11.7525,4.5746 11.7525,4.5746 0,0 3.3431,-7.2681 -3.167,-9.0464 -6.5101,-1.7783 0.999,-4.5659 -11.3073,-5.3348 -12.50981,-0.7817 -6.5561,-0.7921 -12.70011,-0.5832"
       inkscape:connector-curvature="0"
       sodipodi:nodetypes="csssssscssssscssc" />
    <path
       style="fill:none;fill-rule:evenodd;stroke:#000000;stroke-width:3px;stroke-linecap:butt;stroke-linejoin:miter;stroke-opacity:1"
       d="m 131.25097,1037.7217 c -3.64963,1.8387 -7.67228,2.9331 -11.7504,3.1967 -2.88022,0.1862 -5.78038,-0.038 -8.6176,-0.568 -2.77388,-0.5178 -5.61388,-1.3956 -7.62501,-3.375 -1.12821,-1.1104 -1.94269,-2.534 -2.33996,-4.0663 -0.39727,-1.5323 -0.37766,-3.169 0.0445,-4.6947 0.51948,-1.8776 1.63858,-3.5653 3.07866,-4.8773 1.44009,-1.312 3.19201,-2.2579 5.04005,-2.8743 4.03239,-1.3449 8.45009,-1.1266 12.5884,-0.1553 3.61936,0.8495 7.10589,2.2624 10.2955,4.1723"
       id="path5424"
       inkscape:path-effect="#path-effect5426"
       inkscape:original-d="m 131.25097,1037.7217 c -9,2 -8.797,2.8059 -11.7504,3.1967 -2.9534,0.3909 -1.1176,1.432 -8.6176,-0.568 -7.50001,-2 -1.125,6.125 -7.62501,-3.375 -6.499996,-9.5 -6.795496,-4.761 -2.2955,-8.761 4.5,-4 -0.3813,-7.2516 8.11871,-7.7516 8.5,-0.5 7.0884,-0.6553 12.5884,-0.1553 5.5,0.5 10.2955,4.1723 10.2955,4.1723"
       inkscape:connector-curvature="0"
       sodipodi:nodetypes="czsssssc" />
    <path
       style="fill:none;fill-rule:evenodd;stroke:#000000;stroke-width:3px;stroke-linecap:butt;stroke-linejoin:miter;stroke-opacity:1"
       d="m 17.507964,998.35035 c 0.896073,-3.41694 2.747011,-6.57813 5.288286,-9.03177 2.541276,-2.45365 5.765441,-4.19256 9.211714,-4.96823 3.565452,-0.80249 7.26778,-0.58284 10.921809,-0.65006 3.654028,-0.0672 7.443862,-0.47047 10.578191,-2.34994 2.269754,-1.36104 4.056857,-3.42717 5.400513,-5.70725 1.343657,-2.28009 2.270348,-4.77944 3.099487,-7.29275 3.098332,-9.39176 4.926386,-19.16882 6,-29 0.752935,-6.8947 1.138444,-13.82374 1.5,-20.75 0.530287,-10.1586 1.00989,-20.33089 0.75,-30.5 -0.27754,-10.85972 -1.399901,-21.69774 -3.3536,-32.38388"
       id="path5428"
       inkscape:path-effect="#path-effect5430"
       inkscape:original-d="m 17.507964,998.35035 c 14.5,-19 -5.000001,-7.5 14.5,-14 19.5,-6.5 9.5,7.5 21.5,-3 12,-10.5 8.5,19.49995 8.5,-13 0,-32.5 6,-20.25 6,-29 0,-8.75 0.375,-17.5 1.5,-20.75 1.125,-3.25 -0.5,-14.75 0.75,-30.5 1.25,-15.75 -1.6036,-14.38388 -3.3536,-32.38388"
       inkscape:connector-curvature="0"
       sodipodi:nodetypes="cssszzsc" />
    <path
       style="fill:none;fill-rule:evenodd;stroke:#000000;stroke-width:3;stroke-linecap:butt;stroke-linejoin:miter;stroke-opacity:1"
       d="m 37.158164,891.9793 c -3.240967,3.523 -5.136207,8.21018 -5.470461,12.9855 -0.334253,4.77531 0.859472,9.61565 3.186261,13.79912 1.6083,2.89166 3.774598,5.50655 6.489428,7.39811 2.714831,1.89155 5.996588,3.03129 9.304472,2.95253 3.654814,-0.087 7.19128,-1.66006 9.965837,-4.04063 2.774557,-2.38056 4.822091,-5.52953 6.243663,-8.89767 2.02563,-4.79934 2.822126,-10.1902 1.756279,-15.2893 -1.065848,-5.0991 -4.09157,-9.85734 -8.537779,-12.57176 -3.5799,-2.18554 -7.968214,-2.97418 -12.104205,-2.27716 -4.135991,0.69702 -7.993799,2.85445 -10.833495,5.94126 z"
       id="path5440"
       inkscape:path-effect="#path-effect5442"
       inkscape:original-d="m 37.158164,891.9793 c -14.2521,18.8731 -10.1812,19.02164 -2.2842,26.78462 7.897,7.76298 6.2344,13.45583 15.7939,10.35064 9.5594,-3.10519 16.6251,-0.51753 16.2095,-12.9383 -0.4156,-12.42077 5.2718,-15.44029 -6.7815,-27.86106 -12.0532,-12.42077 -8.6856,-15.20901 -22.9377,3.6641 z"
       inkscape:connector-curvature="0"
       sodipodi:nodetypes="zssssz" />
    <path
       style="fill:none;fill-rule:evenodd;stroke:#000000;stroke-width:3;stroke-linecap:butt;stroke-linejoin:miter;stroke-opacity:1"
       d="m 32.691664,912.99189 19.4945,-27.08566"
       id="path5497-3-5"
       inkscape:path-effect="#path-effect5499-2-2"
       inkscape:original-d="m 32.691664,912.99189 19.4945,-27.08566"
       inkscape:connector-curvature="0"
       sodipodi:nodetypes="cc" />
    <path
       style="fill:none;fill-rule:evenodd;stroke:#000000;stroke-width:3;stroke-linecap:butt;stroke-linejoin:miter;stroke-opacity:1"
       d="m 56.791864,887.00294 -22.3716,31.28004"
       id="path5501-41-1"
       inkscape:path-effect="#path-effect5503-3-6"
       inkscape:original-d="m 56.791864,887.00294 c 23.5856,29.51084 -13.4386,18.78293 -22.3716,31.28004"
       inkscape:connector-curvature="0"
       sodipodi:nodetypes="cc" />
    <path
       style="fill:none;fill-rule:evenodd;stroke:#000000;stroke-width:3;stroke-linecap:butt;stroke-linejoin:miter;stroke-opacity:1"
       d="m 37.828964,922.5426 23.3411,-33.42823"
       id="path5505-2-3"
       inkscape:path-effect="#path-effect5507-6-3"
       inkscape:original-d="m 37.828964,922.5426 23.3411,-33.42823"
       inkscape:connector-curvature="0"
       sodipodi:nodetypes="cc" />
    <path
       style="fill:none;fill-rule:evenodd;stroke:#000000;stroke-width:3;stroke-linecap:butt;stroke-linejoin:miter;stroke-opacity:1"
       d="m 64.320564,892.33935 -22.6961,33.53382"
       id="path5509-12-0"
       inkscape:path-effect="#path-effect5511-9-5"
       inkscape:original-d="m 64.320564,892.33935 c 21.7492,16.92462 -15.3652,21.29081 -22.6961,33.53382"
       inkscape:connector-curvature="0"
       sodipodi:nodetypes="cc" />
    <path
       style="fill:none;fill-rule:evenodd;stroke:#000000;stroke-width:3px;stroke-linecap:butt;stroke-linejoin:miter;stroke-opacity:1"
       d="m 80.327464,856.30701 c -0.88113,5.23283 -1.446099,10.51888 -1.6908,15.81973 -0.281058,6.08842 -0.139845,12.18724 -0.1482,18.28214 -0.0061,4.45237 -0.09206,8.90438 -0.093,13.35676 -7.74e-4,3.6715 0.05627,7.34301 0.1711,11.01271 4.307668,1.13975 8.935144,1.0428 13.1913,-0.27635 2.485186,-0.77026 4.875297,-1.97251 6.75,-3.77665 2.038666,-1.96194 3.372416,-4.52877 5.124996,-6.75 4.33057,-5.48858 11.39159,-8.70686 18.37501,-8.375 -3.85971,-0.3272 -7.82773,0.85865 -10.875,3.25 -2.71064,2.12718 -4.6277,5.08326 -6.44348,8.01164 -1.81579,2.92838 -3.62011,5.93366 -6.181526,8.23836 -2.905673,2.61446 -6.616556,4.16638 -10.3721,5.25 -2.899785,0.8367 -5.871795,1.42292 -8.8721,1.75 -0.189272,6.47876 -0.217283,12.96223 -0.084,19.44239 0.104622,5.08667 0.308601,10.1709 0.5608,15.25239 0.161924,3.26257 0.345861,6.54049 1.036864,9.73316 0.691002,3.19266 1.915646,6.32163 3.968236,8.86279 1.718117,2.12707 3.99528,3.79749 6.5379,4.8032 3.121751,1.23478 6.542697,1.45843 9.785296,2.32765 4.6206,1.23862 8.87137,3.825 12.09516,7.35931 3.22379,3.5343 5.40947,8.00434 6.21915,12.71906"
       id="path5490"
       inkscape:path-effect="#path-effect5492"
       inkscape:original-d="m 80.327464,856.30701 c 1.5,25.75 -1.6908,7.69473 -1.6908,15.81973 0,4.0625 -0.5534,15.05911 -0.1482,18.28214 0.4053,3.22304 -2.3981,12.72445 -0.093,13.35676 2.0252,0.55552 0.1711,11.01271 0.1711,11.01271 0,0 11.3788,-0.52635 13.1913,-0.27635 0.9983,0.1377 3.75,-4.52665 6.75,-3.77665 2.999996,0.75 -11.875,-1.75 5.124996,-6.75 17.00001,-5 18.37501,-8.375 18.37501,-8.375 0,0 -7.0625,-1.125 -10.875,3.25 -3.8125,4.375 -8.62501,10.25 -12.625006,16.25 -4,6 -6.561,5 -10.3721,5.25 -3.811,0.25 -8.8721,1.75 -8.8721,1.75 0,0 -0.5842,7.19239 -0.084,19.44239 0.25,6.125 0.02,9.54091 0.5608,15.25239 0.5406,5.71148 3.0887,13.18823 5.0051,18.59595 1.312,3.70236 3.6985,4.38542 6.5379,4.8032 2.8393,0.41778 6.6618,-0.3136 9.785296,2.32765 15.57901,13.17364 1.3143,4.57842 18.31431,20.07837"
       inkscape:connector-curvature="0"
       sodipodi:nodetypes="cssscszscssscsssssc" />
    <path
       style="fill:none;fill-rule:evenodd;stroke:#000000;stroke-width:3;stroke-linecap:butt;stroke-linejoin:miter;stroke-opacity:1"
       d="m 31.526364,906.43853 14.7434,-20.34834"
       id="path5497-3-5-4"
       inkscape:path-effect="#path-effect5499-2-2-8"
       inkscape:original-d="m 31.526364,906.43853 14.7434,-20.34834"
       inkscape:connector-curvature="0"
       sodipodi:nodetypes="cc" />
    <path
       style="fill:none;fill-rule:evenodd;stroke:#000000;stroke-width:3;stroke-linecap:butt;stroke-linejoin:miter;stroke-opacity:1"
       d="m 45.508464,927.77505 21.3931,-31.03508"
       id="path5497-3-5-8"
       inkscape:path-effect="#path-effect5499-2-2-86"
       inkscape:original-d="m 45.508464,927.77505 21.3931,-31.03508"
       inkscape:connector-curvature="0"
       sodipodi:nodetypes="cc" />
    <path
       style="fill:none;fill-rule:evenodd;stroke:#000000;stroke-width:3;stroke-linecap:butt;stroke-linejoin:miter;stroke-opacity:1"
       d="m 49.732164,928.84188 18.8849,-27.32204"
       id="path5497-3-5-3"
       inkscape:path-effect="#path-effect5499-2-2-0"
       inkscape:original-d="m 49.732164,928.84188 18.8849,-27.32204"
       inkscape:connector-curvature="0"
       sodipodi:nodetypes="cc" />
    <path
       style="fill:none;fill-rule:evenodd;stroke:#000000;stroke-width:3;stroke-linecap:butt;stroke-linejoin:miter;stroke-opacity:1"
       d="m 55.558064,928.23226 13.2206,-18.97019"
       id="path5497-3-5-5"
       inkscape:path-effect="#path-effect5499-2-2-4"
       inkscape:original-d="m 55.558064,928.23226 13.2206,-18.97019"
       inkscape:connector-curvature="0"
       sodipodi:nodetypes="cc" />
  </g>
</svg>
