<?xml version="1.0" encoding="UTF-8" standalone="no"?>
<!-- Created with Inkscape (http://www.inkscape.org/) -->

<svg
   xmlns:dc="http://purl.org/dc/elements/1.1/"
   xmlns:cc="http://creativecommons.org/ns#"
   xmlns:rdf="http://www.w3.org/1999/02/22-rdf-syntax-ns#"
   xmlns:svg="http://www.w3.org/2000/svg"
   xmlns="http://www.w3.org/2000/svg"
   xmlns:sodipodi="http://sodipodi.sourceforge.net/DTD/sodipodi-0.dtd"
   xmlns:inkscape="http://www.inkscape.org/namespaces/inkscape"
   width="140"
   height="200"
   viewBox="0 0 140 199.99999"
   id="svg6666"
   version="1.1"
   inkscape:version="0.91 r13725"
   sodipodi:docname="maya-months-16-k'ayab'.svg">
  <defs
     id="defs6668">
    <inkscape:path-effect
       effect="spiro"
       id="path-effect4975-3"
       is_visible="true" />
    <inkscape:path-effect
       effect="spiro"
       id="path-effect4975"
       is_visible="true" />
    <inkscape:path-effect
       effect="spiro"
       id="path-effect4712-3-0-4-8"
       is_visible="true" />
    <inkscape:path-effect
       effect="spiro"
       id="path-effect4712-4-0-0"
       is_visible="true" />
    <inkscape:path-effect
       effect="spiro"
       id="path-effect4712-3-0-4"
       is_visible="true" />
    <inkscape:path-effect
       effect="spiro"
       id="path-effect4712-2-2"
       is_visible="true" />
    <inkscape:path-effect
       effect="spiro"
       id="path-effect4053-8-0-9-4-4"
       is_visible="true" />
    <inkscape:path-effect
       effect="spiro"
       id="path-effect4053-8-0-9-4-5"
       is_visible="true" />
    <inkscape:path-effect
       effect="spiro"
       id="path-effect4053-8-0-9-4"
       is_visible="true" />
    <inkscape:path-effect
       effect="spiro"
       id="path-effect4727-4-8"
       is_visible="true" />
    <inkscape:path-effect
       effect="spiro"
       id="path-effect4727-4"
       is_visible="true" />
    <inkscape:path-effect
       effect="spiro"
       id="path-effect4727-1"
       is_visible="true" />
    <inkscape:path-effect
       effect="spiro"
       id="path-effect4819"
       is_visible="true" />
    <inkscape:path-effect
       effect="spiro"
       id="path-effect4815"
       is_visible="true" />
    <inkscape:path-effect
       effect="spiro"
       id="path-effect4746-54-4"
       is_visible="true" />
    <inkscape:path-effect
       effect="spiro"
       id="path-effect4662-7-8-5-6-9"
       is_visible="true" />
    <inkscape:path-effect
       effect="spiro"
       id="path-effect4662-7-8-3-4"
       is_visible="true" />
    <inkscape:path-effect
       effect="spiro"
       id="path-effect4662-7-9-2-0"
       is_visible="true" />
    <inkscape:path-effect
       effect="spiro"
       id="path-effect4662-7-3-1"
       is_visible="true" />
    <inkscape:path-effect
       effect="spiro"
       id="path-effect4464-0-4-4-5-9-9-4-3"
       is_visible="true" />
    <inkscape:path-effect
       effect="spiro"
       id="path-effect4727"
       is_visible="true" />
    <inkscape:path-effect
       effect="spiro"
       id="path-effect4746-54"
       is_visible="true" />
    <inkscape:path-effect
       effect="spiro"
       id="path-effect4675"
       is_visible="true" />
    <inkscape:path-effect
       effect="spiro"
       id="path-effect4671"
       is_visible="true" />
  </defs>
  <sodipodi:namedview
     id="base"
     pagecolor="#ffffff"
     bordercolor="#666666"
     borderopacity="1.0"
     inkscape:pageopacity="0.0"
     inkscape:pageshadow="2"
     inkscape:zoom="1.979899"
     inkscape:cx="79.262246"
     inkscape:cy="72.200835"
     inkscape:document-units="px"
     inkscape:current-layer="layer1"
     showgrid="false"
     units="px"
     inkscape:window-width="1366"
     inkscape:window-height="704"
     inkscape:window-x="0"
     inkscape:window-y="27"
     inkscape:window-maximized="1" />
  <metadata
     id="metadata6671">
    <rdf:RDF>
      <cc:Work
         rdf:about="">
        <dc:format>image/svg+xml</dc:format>
        <dc:type
           rdf:resource="http://purl.org/dc/dcmitype/StillImage" />
        <dc:title></dc:title>
      </cc:Work>
    </rdf:RDF>
  </metadata>
  <g
     inkscape:label="Calque 1"
     inkscape:groupmode="layer"
     id="layer1"
     transform="translate(0,-852.36225)">
    <path
       style="fill:none;fill-rule:evenodd;stroke:#000000;stroke-width:4;stroke-linecap:butt;stroke-linejoin:miter;stroke-opacity:1"
       d="m 22.623178,944.24542 -11.5945,2.55731 c -0.424969,-0.75232 -0.807156,-1.5288 -1.1441004,-2.32445 -2.2666306,-5.35233 -2.4068708,-11.32149 -2.7999,-17.12068 -0.5134601,-7.57616 -1.5144923,-15.15931 -1.0194,-22.73669 0.6378372,-9.76209 3.9299037,-19.55676 10.4573004,-26.84362 5.835832,-6.51483 13.94411,-10.70005 22.395217,-12.95366 8.451106,-2.25361 17.281043,-2.6902 26.027183,-2.61945 7.900622,0.0639 15.793007,0.53161 23.6929,0.65656 4.661045,0.0737 9.337041,0.0289 13.965502,0.58397 4.62846,0.55507 9.24815,1.73712 13.2646,4.10332 5.55325,3.27157 9.65482,8.66413 12.19131,14.58933 2.5365,5.9252 3.60728,12.38137 4.07569,18.80962 0.67974,9.32842 0.1346,18.69605 -0.2144,28.04269 -0.26173,7.00939 -0.41299,14.02293 -0.4499,21.0371 -0.0222,4.21596 -0.006,8.46473 -0.82461,12.60053 -0.81853,4.1358 -2.54469,8.20724 -5.58359,11.12955 -2.64899,2.54735 -6.14287,4.07646 -9.72092,4.91528 -3.57806,0.83883 -7.27137,1.0323 -10.94148,1.22302 -14.841092,0.77125 -29.697414,1.55012 -44.555502,1.25 -8.419046,-0.17006 -16.834475,-0.68652 -25.254,-0.5421 -4.834124,0.0829 -9.795083,0.36633 -14.3799,-1.1683 -2.912679,-0.97493 -5.592777,-2.68766 -7.6031,-5.0099 -2.073354,-2.39505 -3.4049165,-5.41496 -3.8220004,-8.5552 -0.4182274,-3.14885 0.080559,-6.41405 1.4198004,-9.29443 l 9.4748,-3.52574 c 5.509032,0.79567 11.072347,1.21526 16.6384,1.25489 2.994472,0.0213 6.086097,-0.0884 8.8084,-1.33592 2.901375,-1.32961 5.181194,-3.95936 6.065949,-7.0258 0.884756,-3.06644 0.352268,-6.51554 -1.433249,-9.16087 -1.77453,-2.62905 -4.698692,-4.39248 -7.813543,-4.9913 -3.114851,-0.59882 -6.39308,-0.0811 -9.291057,1.20833 -4.730058,2.10459 -8.479272,6.30778 -10.0319,11.24661 z"
       id="path4669"
       inkscape:path-effect="#path-effect4671"
       inkscape:original-d="m 22.623178,944.24542 c -28.2904004,13.35957 -11.5945,2.55731 -11.5945,2.55731 0,0 -0.4341,1.96014 -1.1441004,-2.32445 -0.7101,-4.28457 -1.6961,-14.81386 -2.7999,-17.12068 -2.2076,-4.61365 -0.1353,-17.72684 -1.0194,-22.73669 -1.7681,-10.01969 1.2628,-14.81999 10.4573004,-26.84362 18.3889,-24.04731 18.7174,-24.92481 48.4224,-15.57311 14.8525,4.67587 20.895,-3.65257 23.6929,0.65656 2.7978,4.30913 2.351,21.25582 27.230102,4.68729 28.5519,-19.01453 9.1944,-17.36753 16.267,33.39895 3.5364,25.38325 0.4928,18.14531 -0.2144,28.04269 -0.7073,9.89737 1.6719,38.58328 -0.4499,21.0371 -2.2982,-19.0045 62.9035,19.72228 -6.4082,23.73008 -34.656002,2.0039 -13.2362,6.9733 -20.6624,6.1383 -7.426302,-0.8349 -26.166602,1.25 -44.555502,1.25 -9.1944,0 -18.1304,-0.2188 -25.254,-0.5421 -7.1237,-0.3232 -12.435,-0.7508 -14.3799,-1.1683 -3.89,-0.835 -4.0668,-2.338 -7.6031,-5.0099 -7.0727004,-5.3438 -5.2365004,2.1325 -3.8220004,-8.5552 0.7073,-5.3438 1.4198004,-9.29443 1.4198004,-9.29443 l 9.4748,-3.52574 c 0,0 -1.7504,-0.0811 16.6384,1.25489 18.3889,1.33595 10.2229,16.03158 8.8084,-1.33592 -1.4145,-17.36751 18.778,-10.8429 4.6327,-16.18667 -7.0727,-2.6719 -16.0669,-5.31488 -17.1046,-3.78297 -1.0375,1.5319 -2.252,5.23474 -10.0319,11.24661 z"
       inkscape:connector-curvature="0"
       sodipodi:nodetypes="ccssssssssssssssscsccssssc" />
    <path
       style="fill:none;fill-rule:evenodd;stroke:#000000;stroke-width:4;stroke-linecap:butt;stroke-linejoin:miter;stroke-opacity:1"
       d="m 17.341578,982.85805 c -2.671262,1.51802 -4.868704,3.8599 -6.203274,6.62738 -1.3345706,2.76748 -1.7986941,5.94889 -1.2988264,8.98042 0.5082894,3.08265 1.9960654,5.97125 4.0797504,8.29915 2.083685,2.3279 4.747199,4.1054 7.63085,5.3076 3.613079,1.5063 7.536613,2.1194 11.4389,2.4285 7.206938,0.5709 14.450836,0.1463 21.6803,0.1729 10.241862,0.038 20.69423,0.9579 30.5576,-1.8009 2.838216,-0.7939 5.687248,-1.9487 7.72,-4.0826 1.769347,-1.8574 2.787617,-4.3413 3.191503,-6.8745 0.403887,-2.53328 0.227642,-5.12649 -0.148303,-7.66405 -0.267861,-1.80801 -0.639653,-3.61191 -1.313831,-5.31077 -0.674178,-1.69887 -1.664215,-3.29659 -3.033969,-4.50673 -1.672671,-1.47776 -3.833743,-2.31104 -6.025749,-2.7314 -2.192006,-0.42036 -4.4369,-0.45473 -6.668151,-0.5105 -3.034014,-0.0758 -6.066801,-0.19363 -9.1001,-0.2941 -8.813879,-0.29193 -17.632989,-0.43751 -26.4516,-0.3952 -6.063627,0.0291 -12.126827,0.14701 -18.187,0.3537 -2.738316,-0.0511 -5.486936,0.64794 -7.8681,2.0011 z"
       id="path4673"
       inkscape:path-effect="#path-effect4675"
       inkscape:original-d="m 17.341578,982.85805 c -23.1332004,5.8835 -7.5021004,2.8013 -7.5021004,15.6078 0,12.80635 2.1958004,10.40515 11.7106004,13.60675 4.7576,1.6008 -15.3312004,-39.23025 11.4389,2.4285 2.7306,4.2491 12.1654,1.7737 21.6803,0.1729 19.0298,-3.2016 18.1149,1.4006 30.5576,-1.8009 12.4426,-3.2016 17.234902,11.9255 7.72,-4.0826 -4.7575,-8.004 0.6645,-12.73765 3.0432,-14.53855 2.3788,-1.8009 6.630902,-9.0171 -4.3478,-9.8175 -5.4895,-0.4002 -9.6175,-2.2789 -12.6939,-3.2419 -3.0763,-0.963 -7.0417,-0.4442 -9.1001,-0.2941 -4.117,0.3001 -18.0346,1.6058 -26.4516,-0.3952 -16.8341,-4.002 -18.187,0.3537 -18.187,0.3537 z"
       inkscape:connector-curvature="0"
       sodipodi:nodetypes="sssssssssssscs" />
    <path
       style="fill:none;fill-rule:evenodd;stroke:#000000;stroke-width:4;stroke-linecap:butt;stroke-linejoin:miter;stroke-opacity:1"
       d="m 98.686378,980.15985 c 2.151302,0.25807 4.244232,0.99195 6.085602,2.1339 1.81194,1.1237 3.3861,2.65116 4.4747,4.4844 1.16389,1.96001 1.75104,4.22299 1.9596,6.49296 0.20855,2.26998 0.0517,4.55782 -0.1892,6.82459 -0.18253,1.7171 -0.41548,3.4393 -0.9316,5.0871 -0.51611,1.6479 -1.33034,3.2294 -2.5497,4.4521 -1.13385,1.137 -2.58227,1.9272 -4.10447,2.4383 -1.52221,0.5111 -3.12192,0.7541 -4.720832,0.9018 -3.898275,0.3601 -7.847535,0.1635 -11.6908,-0.5818"
       id="path4744-7"
       inkscape:path-effect="#path-effect4746-54"
       inkscape:original-d="m 98.686378,980.15985 c 11.277402,-6.8001 -7.1361,2.1339 6.085602,2.1339 13.2217,0 -0.1918,-12.7161 4.4747,4.4844 1.1667,4.3001 0.4815,10.9016 1.7704,13.31755 2.2518,4.2211 -1.7075,7.6165 -3.4813,9.5392 -3.5476,3.8452 -14.998302,4.5909 -8.825302,3.3401 17.983202,-3.6441 -9.7465,-8.182 -11.6908,-0.5818"
       inkscape:connector-curvature="0"
       sodipodi:nodetypes="csssssc" />
    <path
       style="fill:none;fill-rule:evenodd;stroke:#000000;stroke-width:4;stroke-linecap:butt;stroke-linejoin:miter;stroke-opacity:1"
       d="m 115.45978,978.63065 c 2.37674,-0.13147 4.78098,0.25922 6.9938,1.1365 1.36929,0.54286 2.67886,1.28015 3.73638,2.30548 1.05751,1.02534 1.85223,2.35549 2.08522,3.80992 0.16477,1.0286 0.0454,2.09523 -0.29598,3.07941 -0.34142,0.98417 -0.90101,1.88678 -1.59387,2.66466 -1.38574,1.55576 -3.27116,2.59186 -5.22635,3.31153 -3.03044,1.11545 -6.3158,1.53184 -9.5287,1.2077"
       id="path4725"
       inkscape:path-effect="#path-effect4727"
       inkscape:original-d="m 115.45978,978.63065 c 2.8465,-0.8489 2.3359,-0.2784 6.9938,1.1365 4.6578,1.415 4.0103,0.1728 5.8216,6.1154 1.8115,5.9427 -4.7872,6.5087 -7.1162,9.0556 -2.3289,2.5468 -0.9892,2.0566 -9.5287,1.2077"
       inkscape:connector-curvature="0"
       sodipodi:nodetypes="csssc" />
    <path
       style="fill:none;fill-rule:evenodd;stroke:#000000;stroke-width:4;stroke-linecap:butt;stroke-linejoin:miter;stroke-opacity:1"
       d="m 101.38118,863.39124 c 1.32934,0.42474 2.48783,1.36167 3.1812,2.57278 0.79574,1.38993 0.9636,3.03934 1.1205,4.63323 0.54393,5.52559 1.15934,11.05405 1.2264,16.60594 0.0362,2.99429 -0.0904,6.01296 -0.78361,8.92615 -0.69315,2.91318 -1.98204,5.73295 -4.03919,7.90901 -3.048331,3.22454 -7.516107,4.76723 -11.923423,5.28257 -4.407317,0.51533 -8.862791,0.11845 -13.299879,0.0709 -4.729863,-0.0507 -9.496335,0.29442 -14.165613,-0.4619 -2.334638,-0.37816 -4.637703,-1.03589 -6.741858,-2.11574 -2.104154,-1.07985 -4.007171,-2.59374 -5.389029,-4.51312 -1.625925,-2.25838 -2.479207,-4.99707 -2.873207,-7.75183 -0.394001,-2.75476 -0.353068,-5.55052 -0.341193,-8.33329 0.02287,-5.36016 -0.06409,-10.73899 0.5869,-16.05952 0.123522,-1.00954 0.274439,-2.02008 0.566423,-2.99434 0.291985,-0.97426 0.730461,-1.91583 1.381477,-2.69724 0.704767,-0.84593 1.652776,-1.48684 2.7004,-1.82563"
       id="path4462-4-3-4-0-9-9-9-0"
       inkscape:original-d="m 101.38118,863.39124 c 3.1959,1.92001 3.1301,1.69025 3.1812,2.57278 0.051,0.88253 1.4349,3.02346 1.1205,4.63323 -0.6291,3.21954 1.4968,13.24869 1.2264,16.60594 -0.5199,6.45569 -6.8318,15.54099 -4.8228,16.83516 4.018,2.58834 -21.548902,6.57873 -25.223302,5.3535 -3.6745,-1.22513 -22.268,-0.76075 -26.2965,-7.09076 -2.0143,-3.16505 0.1142,-10.59601 -3.2144,-16.08512 -2.0397,-3.36358 1.1729,-11.77503 0.5869,-16.05952 -0.293,-2.14225 1.868,-4.58872 1.9479,-5.69158 0.08,-1.10285 -1.0593,-1.04996 2.7004,-1.82563"
       inkscape:connector-curvature="0"
       sodipodi:nodetypes="csssszssssc"
       inkscape:path-effect="#path-effect4464-0-4-4-5-9-9-4-3" />
    <path
       style="fill:none;fill-rule:evenodd;stroke:#000000;stroke-width:4;stroke-linecap:butt;stroke-linejoin:miter;stroke-opacity:1"
       d="m 106.56688,894.29257 c -3.58796,-0.0474 -7.17906,0.1451 -10.741402,0.57568 -2.490383,0.30101 -5.06423,0.75688 -7.1096,2.20915 -1.380466,0.98017 -2.438739,2.36822 -3.1929,3.88402 -1.291904,2.59662 -1.717872,5.61502 -1.195,8.46775"
       id="path4660-9-8-8"
       inkscape:original-d="m 106.56688,894.29257 c -8.270002,-0.32286 -8.561602,-0.38303 -10.741402,0.57568 -1.09,0.47931 -5.6027,3.50483 -7.1096,2.20915 -1.6558,-1.42397 -0.3539,1.31563 -3.1929,3.88402 -2.839,2.5683 -4.3664,0.72216 -1.195,8.46775"
       inkscape:connector-curvature="0"
       sodipodi:nodetypes="csszc"
       inkscape:path-effect="#path-effect4662-7-3-1" />
    <path
       style="fill:none;fill-rule:evenodd;stroke:#000000;stroke-width:4;stroke-linecap:butt;stroke-linejoin:miter;stroke-opacity:1"
       d="m 47.082278,892.37904 c 3.837608,-0.14506 7.688742,0.0698 11.4864,0.64082 1.20919,0.18182 2.417878,0.40088 3.578494,0.7858 1.160617,0.38493 2.276894,0.94182 3.200906,1.7427 1.397108,1.21093 2.284874,2.91861 2.8368,4.68316 0.890458,2.84686 0.972424,5.94179 0.2339,8.83179"
       id="path4660-9-0-4-2"
       inkscape:original-d="m 47.082278,892.37904 c 8.2765,0.0729 9.3606,-0.42075 11.4864,0.64082 1.0628,0.53079 5.431,1.93372 6.7794,2.5285 1.3482,0.59478 1.7237,1.68688 2.8368,4.68316 1.113,2.99627 3.8161,1.2476 0.2339,8.83179"
       inkscape:connector-curvature="0"
       sodipodi:nodetypes="csszc"
       inkscape:path-effect="#path-effect4662-7-9-2-0" />
    <path
       style="fill:none;fill-rule:evenodd;stroke:#000000;stroke-width:4;stroke-linecap:butt;stroke-linejoin:miter;stroke-opacity:1"
       d="m 106.44728,881.53578 c -3.59811,-0.0467 -7.193947,-0.26862 -10.770502,-0.66467 -1.042807,-0.11548 -2.088172,-0.24655 -3.100794,-0.5211 -1.012622,-0.27456 -1.997181,-0.69852 -2.818606,-1.35124 -1.311917,-1.04247 -2.118764,-2.58868 -2.7453,-4.14281 -1.524096,-3.78055 -2.200166,-7.90022 -1.9643,-11.96959"
       id="path4660-9-6-2-0"
       inkscape:path-effect="#path-effect4662-7-8-3-4"
       inkscape:original-d="m 106.44728,881.53578 c -8.276602,-0.0729 -8.644902,0.3969 -10.770502,-0.66467 -1.0629,-0.53087 5.737402,-14.06343 -5.9194,-1.87234 -0.9974,1.04302 -3.1324,-4.81846 -2.7453,-4.14281 0.3872,0.67556 -5.5466,-4.3855 -1.9643,-11.96959"
       inkscape:connector-curvature="0"
       sodipodi:nodetypes="csszc" />
    <path
       style="fill:none;fill-rule:evenodd;stroke:#000000;stroke-width:4;stroke-linecap:butt;stroke-linejoin:miter;stroke-opacity:1"
       d="m 47.408878,880.03093 c 3.911414,-0.0135 7.822631,-0.0839 11.732,-0.21108 1.157361,-0.0376 2.322401,-0.0813 3.452307,-0.33467 1.129906,-0.25341 2.234431,-0.73134 3.067593,-1.53554 1.108518,-1.06999 1.632122,-2.59879 2.028,-4.08774 0.99233,-3.73228 1.420368,-7.61406 1.2651,-11.47289"
       id="path4660-9-6-4-5-1"
       inkscape:path-effect="#path-effect4662-7-8-5-6-9"
       inkscape:original-d="m 47.408878,880.03093 c 8.2699,0.32276 9.5521,0.74763 11.732,-0.21108 1.0898,-0.47931 5.646,-0.79457 6.5199,-1.87021 0.9059,-1.11505 -0.8112,-1.51944 2.028,-4.08774 2.839,-2.5683 4.4365,-3.72722 1.2651,-11.47289"
       inkscape:connector-curvature="0"
       sodipodi:nodetypes="csszc" />
    <path
       style="fill:none;fill-rule:evenodd;stroke:#000000;stroke-width:4;stroke-linecap:butt;stroke-linejoin:miter;stroke-opacity:1"
       d="m 81.676178,946.95282 c 4.070301,-0.0823 8.14822,0.21602 12.1632,0.88986 1.857733,0.31179 3.711807,0.70666 5.466686,1.39134 1.754876,0.68468 3.415536,1.6718 4.705416,3.0446 1.02631,1.09229 1.79936,2.40999 2.3314,3.81118 1.48192,3.90282 1.06797,8.30458 -0.1682,12.29205 -0.5932,1.91346 -1.37488,3.78128 -2.48092,5.45159 -1.10603,1.6703 -2.54826,3.14125 -4.292982,4.12571 -1.81271,1.02282 -3.881013,1.48971 -5.93,1.8554 -3.404176,0.60756 -6.851801,0.97153 -10.3078,1.0882"
       id="path4744-7-8"
       inkscape:path-effect="#path-effect4746-54-4"
       inkscape:original-d="m 81.676178,946.95282 c 10.8975,-5.67509 -0.6131,0.88986 12.1632,0.88986 6.388202,0 8.435702,4.08193 10.172102,4.43594 1.8658,0.3804 0.077,-3.36621 2.3314,3.81118 2.2547,7.17735 3.2599,9.08305 -0.1682,12.29205 -3.4282,3.2091 -12.739002,10.6212 -6.773902,9.5773 8.688702,-1.5205 0.3793,1.5375 -5.93,1.8554 -6.3093,0.318 -9.3684,-2.0832 -10.3078,1.0882"
       inkscape:connector-curvature="0"
       sodipodi:nodetypes="cssssssc" />
    <path
       style="fill:none;fill-rule:evenodd;stroke:#000000;stroke-width:4;stroke-linecap:butt;stroke-linejoin:miter;stroke-opacity:1"
       d="m 49.208478,900.515 c -5.201427,3.31812 -9.359054,8.24738 -11.7526,13.93383 -1.966084,4.67091 -2.747209,9.83508 -2.2505,14.87851"
       id="path4813"
       inkscape:path-effect="#path-effect4815"
       inkscape:original-d="m 49.208478,900.515 c -5.5012,7.085 -12.2527,3.5425 -11.7526,13.93383 0.5001,10.39134 -5.7513,10.6275 -2.2505,14.87851"
       inkscape:connector-curvature="0"
       sodipodi:nodetypes="csc" />
    <path
       style="fill:none;fill-rule:evenodd;stroke:#000000;stroke-width:4;stroke-linecap:butt;stroke-linejoin:miter;stroke-opacity:1"
       d="m 42.102278,932.05801 c -4.155191,0.43408 -8.012457,3.08815 -9.9028,6.81382 -0.758622,1.49517 -1.214466,3.14803 -1.287011,4.82307 -0.07255,1.67505 0.241784,3.3705 0.948511,4.89088 1.364898,2.93631 4.243337,5.11783 7.4393,5.63811"
       id="path4817"
       inkscape:path-effect="#path-effect4819"
       inkscape:original-d="m 42.102278,932.05801 c -2.5005,4.48717 -9.1526,0.67348 -9.9028,6.81382 -0.7501,6.14033 -3.8392,5.69911 -0.3385,9.71395 3.5008,4.01483 4.9387,5.40194 7.4393,5.63811"
       inkscape:connector-curvature="0"
       sodipodi:nodetypes="cssc" />
    <path
       style="fill:none;fill-rule:evenodd;stroke:#000000;stroke-width:4;stroke-linecap:butt;stroke-linejoin:miter;stroke-opacity:1"
       d="m 113.78228,996.21795 c 3.71689,-0.38733 7.54666,0.38901 10.8193,2.1932 0.98914,0.5453 1.93549,1.18797 2.71413,2.00615 0.77864,0.8182 1.38528,1.8225 1.61957,2.9274 0.24634,1.1618 0.0681,2.3958 -0.42043,3.4783 -0.48857,1.0824 -1.27694,2.0163 -2.21065,2.7502 -1.86743,1.4678 -4.24522,2.1199 -6.58952,2.5019 -4.82691,0.7865 -9.81581,0.5643 -14.5537,-0.6481"
       id="path4725-9"
       inkscape:path-effect="#path-effect4727-1"
       inkscape:original-d="m 113.78228,996.21795 c 2.8465,-0.849 6.1615,0.7783 10.8193,2.1932 4.6579,1.4149 2.5222,-1.0091 4.3337,4.93355 1.8114,5.9427 -6.8916,6.1835 -9.2206,8.7304 -2.3289,2.5468 -6.0143,0.2009 -14.5537,-0.6481"
       inkscape:connector-curvature="0"
       sodipodi:nodetypes="csssc" />
    <path
       style="fill:none;fill-rule:evenodd;stroke:#000000;stroke-width:4;stroke-linecap:butt;stroke-linejoin:miter;stroke-opacity:1"
       d="m 111.29918,992.37965 c 1.65189,-0.0495 3.30046,-0.20966 4.931,-0.479 0.98264,-0.16232 1.97399,-0.36954 2.8559,-0.83232 0.44096,-0.23139 0.85117,-0.52633 1.1901,-0.89118 0.33892,-0.36485 0.60533,-0.80103 0.7478,-1.2782 0.22215,-0.74407 0.13104,-1.5649 -0.18917,-2.27233 -0.32021,-0.70743 -0.85895,-1.30421 -1.49264,-1.75302 -1.26738,-0.89761 -2.85566,-1.19846 -4.39859,-1.37545 -2.81362,-0.32274 -5.66572,-0.30861 -8.476,0.042"
       id="path4725-90"
       inkscape:path-effect="#path-effect4727-4"
       inkscape:original-d="m 111.29918,992.37965 c 2.1393,0.6282 1.4301,0.5681 4.931,-0.479 3.5009,-1.0471 3.4323,1.3961 4.7938,-3.0017 1.3614,-4.3978 -4.3299,-3.516 -6.0804,-5.4008 -1.7504,-1.8848 -2.0578,-0.5862 -8.476,0.042"
       inkscape:connector-curvature="0"
       sodipodi:nodetypes="csssc" />
    <path
       style="fill:none;fill-rule:evenodd;stroke:#000000;stroke-width:4;stroke-linecap:butt;stroke-linejoin:miter;stroke-opacity:1"
       d="m 111.24548,1000.8171 c 2.53535,-0.1279 5.08518,0.033 7.5843,0.4789 0.79052,0.141 1.58919,0.3152 2.29278,0.7022 0.3518,0.1935 0.67684,0.4399 0.93972,0.7434 0.26288,0.3035 0.46239,0.6653 0.5549,1.056 0.141,0.5955 0.0247,1.2377 -0.26851,1.7748 -0.29323,0.5372 -0.75449,0.9723 -1.28071,1.2846 -1.05244,0.6247 -2.31747,0.7597 -3.53948,0.8274 -2.74814,0.1521 -5.5111,0.035 -8.2366,-0.3482"
       id="path4725-90-4"
       inkscape:path-effect="#path-effect4727-4-8"
       inkscape:original-d="m 111.24548,1000.8171 c 2.1394,-0.6282 4.0835,-0.5682 7.5843,0.4789 3.5008,1.0471 2.426,-1.89615 3.7874,2.5016 1.3615,4.3978 -3.3383,2.002 -5.0887,3.8868 -1.7505,1.8848 -1.8183,0.28 -8.2366,-0.3482"
       inkscape:connector-curvature="0"
       sodipodi:nodetypes="csssc" />
    <path
       style="fill:none;fill-rule:evenodd;stroke:#000000;stroke-width:4;stroke-linecap:butt;stroke-linejoin:miter;stroke-opacity:1"
       d="m 29.797778,994.93605 c -0.528958,1.01886 -0.559972,2.2617 -0.1761,3.3436 0.268901,0.75787 0.73912,1.45128 1.378835,1.93855 0.639715,0.4873 1.45184,0.7588 2.253865,0.7002 0.850779,-0.062 1.656691,-0.4941 2.229009,-1.12662 0.572318,-0.63257 0.917271,-1.45425 1.034291,-2.29923 0.102892,-0.74297 0.03331,-1.51391 -0.2371,-2.21353 -0.27041,-0.69962 -0.745519,-1.32455 -1.3691,-1.74137 -0.828808,-0.554 -1.904663,-0.71418 -2.864495,-0.44482 -0.959833,0.26937 -1.789856,0.95844 -2.249205,1.84322 z"
       id="path4051-8-0-7-8"
       inkscape:path-effect="#path-effect4053-8-0-9-4"
       inkscape:original-d="m 29.797778,994.93605 c -1.2966,2.6858 -3.0744,-0.1687 -0.1761,3.3436 2.8985,3.51225 1.0394,5.32465 3.6327,2.63875 2.5934,-2.68575 0.8243,21.3549 3.2633,-3.42585 0.5076,-5.1565 1.2921,-2.0955 -1.6062,-3.9549 -2.8985,-1.8594 -3.817,-1.2874 -5.1137,1.3984 z"
       inkscape:connector-curvature="0"
       sodipodi:nodetypes="zssssz" />
    <path
       style="fill:none;fill-rule:evenodd;stroke:#000000;stroke-width:4;stroke-linecap:butt;stroke-linejoin:miter;stroke-opacity:1"
       d="m 51.146278,994.65305 c -0.528924,1.01887 -0.559875,2.2617 -0.176,3.3436 0.268902,0.75786 0.739091,1.45128 1.378781,1.93858 0.63969,0.48727 1.451799,0.75887 2.253819,0.70027 0.850799,-0.062 1.656731,-0.4941 2.229047,-1.12665 0.572316,-0.63259 0.91725,-1.4543 1.034253,-2.2993 0.102875,-0.74297 0.03329,-1.51391 -0.237121,-2.21353 -0.270407,-0.69962 -0.745507,-1.32454 -1.369079,-1.74137 -0.828805,-0.55402 -1.904667,-0.71422 -2.864508,-0.44485 -0.95984,0.26936 -1.789868,0.95845 -2.249192,1.84325 z"
       id="path4051-8-0-7-8-4"
       inkscape:path-effect="#path-effect4053-8-0-9-4-5"
       inkscape:original-d="m 51.146278,994.65305 c -1.2966,2.6858 -3.0744,-0.1687 -0.176,3.3436 2.8984,3.51225 1.0394,5.32475 3.6326,2.63885 2.5935,-2.68585 0.8244,21.3549 3.2633,-3.42595 0.5077,-5.1565 1.2922,-2.0955 -1.6062,-3.9549 -2.8984,-1.8593 -3.8169,-1.2874 -5.1137,1.3984 z"
       inkscape:connector-curvature="0"
       sodipodi:nodetypes="zssssz" />
    <path
       style="fill:none;fill-rule:evenodd;stroke:#000000;stroke-width:4;stroke-linecap:butt;stroke-linejoin:miter;stroke-opacity:1"
       d="m 72.236278,994.93605 c -0.528959,1.01886 -0.55996,2.26169 -0.1761,3.3436 0.268891,0.75787 0.739085,1.45128 1.378778,1.93855 0.639693,0.4873 1.451801,0.7588 2.253822,0.7003 0.850813,-0.062 1.656766,-0.494 2.229104,-1.12663 0.572337,-0.63259 0.917291,-1.45431 1.034296,-2.29932 0.102876,-0.74298 0.03328,-1.51393 -0.237151,-2.21355 -0.270428,-0.69962 -0.745554,-1.32454 -1.369149,-1.74135 -0.828802,-0.55397 -1.904631,-0.71414 -2.864443,-0.44478 -0.959811,0.26937 -1.789818,0.95842 -2.249157,1.84318 z"
       id="path4051-8-0-7-8-1"
       inkscape:path-effect="#path-effect4053-8-0-9-4-4"
       inkscape:original-d="m 72.236278,994.93605 c -1.2966,2.6858 -3.0744,-0.1687 -0.1761,3.3436 2.8985,3.51225 1.0393,5.32475 3.6326,2.63885 2.5934,-2.68585 0.8244,21.3549 3.2634,-3.42595 0.5075,-5.1565 1.292,-2.0955 -1.6063,-3.9549 -2.8985,-1.8594 -3.817,-1.2874 -5.1136,1.3984 z"
       inkscape:connector-curvature="0"
       sodipodi:nodetypes="zssssz" />
    <path
       style="fill:none;fill-rule:evenodd;stroke:#000000;stroke-width:4;stroke-linecap:butt;stroke-linejoin:miter;stroke-opacity:1"
       d="m 15.002478,1008.2887 c -2.834782,4.6524 -4.283893,10.1375 -4.1169,15.583 0.09307,3.035 0.687172,6.0787 1.978084,8.8271 1.290911,2.7484 3.302143,5.1922 5.890016,6.7806 2.349918,1.4424 5.094169,2.1424 7.838322,2.411 2.744152,0.2687 5.509896,0.1249 8.263878,-0.01 2.768173,-0.1353 5.569909,-0.2666 8.223667,-1.0657 2.653758,-0.7992 5.188046,-2.3511 6.597633,-4.7373 0.725104,-1.2275 1.123536,-2.6174 1.4638,-4.0019 0.74238,-3.0206 1.243293,-6.1019 1.4637,-9.2046 0.202668,-2.853 0.16801,-5.7228 -0.1035,-8.57"
       id="path4710-04-7"
       inkscape:path-effect="#path-effect4712-2-2"
       inkscape:original-d="m 15.002478,1008.2887 c -7.6851004,11.606 -7.7764004,2.7766 -4.1169,15.583 3.6596,12.8064 -3.1107004,10.4051 7.8681,15.6077 10.9787,5.2026 6.9532,2.4013 16.1022,2.4013 9.149,0 7.868,3.4016 14.8213,-5.803 6.9532,-9.2046 2.9276,4.8025 1.4638,-4.0019 -1.4638,-8.8045 1.4637,-6.003 1.4637,-9.2046 0,-3.2017 1.3606,-4.1678 -0.1035,-8.57"
       inkscape:connector-curvature="0"
       sodipodi:nodetypes="cssssssc" />
    <path
       style="fill:none;fill-rule:evenodd;stroke:#000000;stroke-width:4;stroke-linecap:butt;stroke-linejoin:miter;stroke-opacity:1"
       d="m 53.238278,1014.9826 c -0.285512,3.678 -0.209193,7.3839 0.2275,11.047 0.28417,2.3837 0.729001,4.7766 1.716,6.9649 1.157734,2.5668 3.072891,4.8047 5.4914,6.2468 3.522068,2.1001 7.799647,2.409 11.899,2.5133 2.737176,0.07 5.497332,0.07 8.184579,-0.455 2.687248,-0.5251 5.32129,-1.6096 7.325321,-3.4753 2.15507,-2.0063 3.454215,-4.797 4.1309,-7.6626 0.703685,-2.98 0.78362,-6.0728 0.6781,-9.1329 -0.09669,-2.8041 -0.346354,-5.603 -0.7475,-8.38"
       id="path4710-0-7-3"
       inkscape:path-effect="#path-effect4712-3-0-4"
       inkscape:original-d="m 53.238278,1014.9826 c -7.6851,11.6058 -3.4321,-1.7594 0.2275,11.047 3.6595,12.8064 -9.2626,1.7623 1.716,6.9649 5.4895,2.6014 2.7238,5.1212 5.4914,6.2468 2.7676,1.1256 7.3246,2.5133 11.899,2.5133 9.1489,0 8.5567,5.2743 15.5099,-3.9303 6.9532,-9.2046 5.5947,1.1419 4.1309,-7.6626 -1.4638,-8.8044 0.6781,-5.9313 0.6781,-9.1329 0,-3.2017 0.7164,-3.9777 -0.7475,-8.38"
       inkscape:connector-curvature="0"
       sodipodi:nodetypes="csssssssc" />
    <path
       style="fill:none;fill-rule:evenodd;stroke:#000000;stroke-width:4;stroke-linecap:butt;stroke-linejoin:miter;stroke-opacity:1"
       d="m 120.10028,1012.0102 c 2.69228,0.17 5.32462,1.1901 7.4284,2.8787 0.78666,0.6314 1.50122,1.3542 2.1106,2.158 1.28112,1.6899 2.07792,3.7182 2.46091,5.804 0.38299,2.0858 0.36321,4.231 0.11589,6.3372 -0.21898,1.8648 -0.61873,3.7197 -1.3477,5.45 -0.72896,1.7304 -1.79789,3.3367 -3.2268,4.5548 -1.69014,1.4408 -3.82187,2.289 -5.99681,2.7386 -2.17493,0.4497 -4.40834,0.5222 -6.62889,0.5632 -4.62861,0.085 -9.41561,0.01 -13.643,-1.8787 -2.746347,-1.2258 -5.197675,-3.2522 -6.576202,-5.9252 -1.547211,-3 -1.640561,-6.5207 -1.546,-9.8949 0.107942,-3.8517 0.41717,-7.6977 0.926,-11.5171"
       id="path4710-9-7-0"
       inkscape:path-effect="#path-effect4712-4-0-0"
       inkscape:original-d="m 120.10028,1012.0102 c 1.8298,1.8009 5.5286,2.941 7.4284,2.8787 0.95,-0.032 1.4964,-1.4484 2.1106,2.158 0.6142,3.6063 2.6407,8.7876 2.5768,12.1412 -0.091,4.8023 -2.7511,7.8409 -4.5745,10.0048 -3.0851,3.6614 -3.4766,3.3018 -12.6257,3.3018 -9.1489,0 -6.6897,7.3259 -13.643,-1.8787 -6.953202,-9.2046 -8.039902,2.8792 -6.576202,-5.9252 1.4639,-8.8045 -1.546,-6.6933 -1.546,-9.8949 0,-3.2017 -0.5379,-7.1148 0.926,-11.5171"
       inkscape:connector-curvature="0"
       sodipodi:nodetypes="cssssssssc" />
    <path
       style="fill:none;fill-rule:evenodd;stroke:#000000;stroke-width:4;stroke-linecap:butt;stroke-linejoin:miter;stroke-opacity:1"
       d="m 62.366878,1015.1057 c -0.160333,2.2987 -0.120836,4.6114 0.1179,6.9033 0.147468,1.4157 0.374226,2.8364 0.8897,4.1632 0.575569,1.4814 1.531019,2.8426 2.8469,3.7339 1.777261,1.2038 4.022663,1.454 6.1687,1.5023 1.43715,0.032 2.888321,-0.011 4.286532,-0.3453 1.39821,-0.3338 2.750109,-0.9752 3.754068,-2.004 1.194007,-1.2236 1.814338,-2.9022 2.1416,-4.5802 0.349761,-1.7934 0.401077,-3.6325 0.3515,-5.459 -0.04546,-1.6747 -0.17484,-3.3472 -0.3875,-5.009"
       id="path4710-0-7-3-6"
       inkscape:path-effect="#path-effect4712-3-0-4-8"
       inkscape:original-d="m 62.366878,1015.1057 c -3.9841,6.9371 -1.7793,-0.7515 0.1179,6.9033 1.8973,7.6549 -4.802,1.0534 0.8897,4.1632 2.8458,1.5549 1.4121,3.0611 2.8469,3.7339 1.4347,0.6728 3.7972,1.5023 6.1687,1.5023 4.7429,0 4.4359,3.1526 8.0406,-2.3493 3.6047,-5.5019 2.9004,0.6826 2.1416,-4.5802 -0.7589,-5.2627 0.3515,-3.5453 0.3515,-5.459 0,-1.9138 0.3714,-2.3777 -0.3875,-5.009"
       inkscape:connector-curvature="0"
       sodipodi:nodetypes="csssssssc" />
    <path
       style="fill:none;fill-rule:evenodd;stroke:#000000;stroke-width:4;stroke-linecap:butt;stroke-linejoin:miter;stroke-opacity:1"
       d="m 43.893778,1015.0326 c 0.436025,3.127 0.206185,6.3452 -0.6698,9.3785 -0.442424,1.532 -1.074194,3.0581 -2.19,4.1973 -1.077484,1.1001 -2.530456,1.7592 -4.0074,2.1948 -2.839423,0.8374 -5.992233,0.9046 -8.6868,-0.3213 -2.354966,-1.0714 -4.219863,-3.0748 -5.3776,-5.3885 -0.493186,-0.9856 -0.873221,-2.0705 -0.785671,-3.1691 0.04378,-0.5493 0.207701,-1.0935 0.509116,-1.5549 0.301415,-0.4613 0.744252,-0.836 1.263555,-1.0204 0.612173,-0.2174 1.29934,-0.1612 1.908593,0.064 0.609253,0.2254 1.148164,0.6101 1.633178,1.0422 0.970026,0.8644 1.771797,1.9459 2.906729,2.5783 1.183804,0.6597 2.670757,0.7459 3.922875,0.2275 1.252119,-0.5184 2.242953,-1.6305 2.614018,-2.9339 0.371064,-1.3034 0.11452,-2.7706 -0.676814,-3.8707 -0.791335,-1.1002 -2.100743,-1.81 -3.454479,-1.8728"
       id="path4973"
       inkscape:path-effect="#path-effect4975"
       inkscape:original-d="m 43.893778,1015.0326 c -1.3723,8.5044 3.8131,3.3755 -0.6698,9.3785 -2.2416,3.0015 -2.2746,3.4067 -2.19,4.1973 0.085,0.7907 -0.9425,2.7451 -4.0074,2.1948 -6.1298,-1.1006 -3.1059,3.7808 -8.6868,-0.3213 -5.5808,-4.1021 -8.6712,-1.1864 -5.3776,-5.3885 3.2937,-4.2021 -5.0513,-5.144 0.987,-5.7444 6.0382,-0.6002 4.2529,5.2855 6.4485,3.6848 2.1958,-1.6008 1.9482,-7.2492 2.4056,-8.4499"
       inkscape:connector-curvature="0"
       sodipodi:nodetypes="cssccscsc" />
    <path
       style="fill:none;fill-rule:evenodd;stroke:#000000;stroke-width:4;stroke-linecap:butt;stroke-linejoin:miter;stroke-opacity:1"
       d="m 102.33608,1012.2607 c -1.05037,4.1121 -0.97615,8.5057 0.2125,12.58 0.44656,1.5307 1.07402,3.0585 2.19,4.1974 1.07756,1.0996 2.53219,1.7541 4.0074,2.1947 2.84068,0.8484 6.01286,0.9591 8.6868,-0.3212 1.60223,-0.7672 2.97579,-2.0259 3.8222,-3.5877 0.58562,-1.0806 0.91895,-2.339 0.70114,-3.5486 -0.10891,-0.6049 -0.35629,-1.1881 -0.74058,-1.6677 -0.38429,-0.4795 -0.90769,-0.852 -1.49636,-1.0284 -0.51419,-0.1541 -1.06577,-0.1573 -1.59457,-0.065 -0.52881,0.092 -1.03743,0.2772 -1.52852,0.4939 -0.98216,0.4335 -1.91669,1.0007 -2.95971,1.255 -1.34364,0.3276 -2.81543,0.092 -3.98925,-0.6397 -1.17383,-0.7313 -2.03444,-1.9484 -2.33266,-3.2988 -0.29821,-1.3505 -0.0302,-2.8168 0.72654,-3.9744 0.75671,-1.1576 1.99223,-1.9915 3.34887,-2.2602"
       id="path4973-8"
       inkscape:path-effect="#path-effect4975-3"
       inkscape:original-d="m 102.33608,1012.2607 c 1.3723,8.5043 -4.270502,6.577 0.2125,12.58 2.2415,3.0015 2.2745,3.4067 2.19,4.1974 -0.085,0.7906 0.9425,2.7449 4.0074,2.1947 6.1298,-1.1006 3.1059,3.7808 8.6868,-0.3212 5.5808,-4.1022 7.1159,0.6144 3.8222,-3.5877 -3.2936,-4.2021 4.5024,-5.6443 -1.5358,-6.2447 -6.0383,-0.6002 -3.887,3.2846 -6.0828,1.6838 -2.1956,-1.6008 -1.7891,-8.9725 -2.2465,-10.1731"
       inkscape:connector-curvature="0"
       sodipodi:nodetypes="cssccscsc" />
  </g>
</svg>
