<?xml version="1.0" encoding="UTF-8" standalone="no"?>
<!-- Created with Inkscape (http://www.inkscape.org/) -->

<svg
   xmlns:dc="http://purl.org/dc/elements/1.1/"
   xmlns:cc="http://creativecommons.org/ns#"
   xmlns:rdf="http://www.w3.org/1999/02/22-rdf-syntax-ns#"
   xmlns:svg="http://www.w3.org/2000/svg"
   xmlns="http://www.w3.org/2000/svg"
   xmlns:sodipodi="http://sodipodi.sourceforge.net/DTD/sodipodi-0.dtd"
   xmlns:inkscape="http://www.inkscape.org/namespaces/inkscape"
   width="140"
   height="200"
   viewBox="0 0 140 200"
   id="svg4990"
   version="1.1"
   inkscape:version="0.91 r13725"
   sodipodi:docname="maya-months-12-mak.svg">
  <defs
     id="defs4992">
    <inkscape:path-effect
       effect="spiro"
       id="path-effect5499-2-3"
       is_visible="true" />
    <inkscape:path-effect
       effect="spiro"
       id="path-effect5499-2-6"
       is_visible="true" />
    <inkscape:path-effect
       effect="spiro"
       id="path-effect5515-66-9"
       is_visible="true" />
    <inkscape:path-effect
       effect="spiro"
       id="path-effect5515-66-1"
       is_visible="true" />
    <inkscape:path-effect
       effect="spiro"
       id="path-effect5515-66"
       is_visible="true" />
    <inkscape:path-effect
       effect="spiro"
       id="path-effect5511-9"
       is_visible="true" />
    <inkscape:path-effect
       effect="spiro"
       id="path-effect5507-6"
       is_visible="true" />
    <inkscape:path-effect
       effect="spiro"
       id="path-effect5503-3"
       is_visible="true" />
    <inkscape:path-effect
       effect="spiro"
       id="path-effect5499-2"
       is_visible="true" />
    <inkscape:path-effect
       effect="spiro"
       id="path-effect4761"
       is_visible="true" />
    <inkscape:path-effect
       effect="spiro"
       id="path-effect4757"
       is_visible="true" />
    <inkscape:path-effect
       effect="spiro"
       id="path-effect4753"
       is_visible="true" />
    <inkscape:path-effect
       effect="spiro"
       id="path-effect4749"
       is_visible="true" />
    <inkscape:path-effect
       effect="spiro"
       id="path-effect3931-1-8-6"
       is_visible="true" />
    <inkscape:path-effect
       effect="spiro"
       id="path-effect3931-1-8-48"
       is_visible="true" />
    <inkscape:path-effect
       effect="spiro"
       id="path-effect3931-1-8-8"
       is_visible="true" />
    <inkscape:path-effect
       effect="spiro"
       id="path-effect3931-1-8-1"
       is_visible="true" />
    <inkscape:path-effect
       effect="spiro"
       id="path-effect3931-1-8-9"
       is_visible="true" />
    <inkscape:path-effect
       effect="spiro"
       id="path-effect3931-1-8-59"
       is_visible="true" />
    <inkscape:path-effect
       effect="spiro"
       id="path-effect3931-1-8-5"
       is_visible="true" />
    <inkscape:path-effect
       effect="spiro"
       id="path-effect3931-1-8-49"
       is_visible="true" />
    <inkscape:path-effect
       effect="spiro"
       id="path-effect3931-1-8-7"
       is_visible="true" />
    <inkscape:path-effect
       effect="spiro"
       id="path-effect3931-1-8-4"
       is_visible="true" />
    <inkscape:path-effect
       effect="spiro"
       id="path-effect4007-3-3-1"
       is_visible="true" />
    <inkscape:path-effect
       effect="spiro"
       id="path-effect4205-1-9"
       is_visible="true" />
    <inkscape:path-effect
       effect="spiro"
       id="path-effect4201-0-0"
       is_visible="true" />
    <inkscape:path-effect
       effect="spiro"
       id="path-effect4197-9-8"
       is_visible="true" />
    <inkscape:path-effect
       effect="spiro"
       id="path-effect4175-6-8-6"
       is_visible="true" />
    <inkscape:path-effect
       effect="spiro"
       id="path-effect4175-8-6"
       is_visible="true" />
    <inkscape:path-effect
       effect="spiro"
       id="path-effect4205-8"
       is_visible="true" />
    <inkscape:path-effect
       effect="spiro"
       id="path-effect4201-5"
       is_visible="true" />
    <inkscape:path-effect
       effect="spiro"
       id="path-effect4197-1"
       is_visible="true" />
    <inkscape:path-effect
       effect="spiro"
       id="path-effect4175-6-6"
       is_visible="true" />
    <inkscape:path-effect
       effect="spiro"
       id="path-effect4175-1"
       is_visible="true" />
    <inkscape:path-effect
       effect="spiro"
       id="path-effect4432-8-5"
       is_visible="true" />
    <inkscape:path-effect
       effect="spiro"
       id="path-effect4432-2"
       is_visible="true" />
    <inkscape:path-effect
       effect="spiro"
       id="path-effect4007-3-3"
       is_visible="true" />
    <inkscape:path-effect
       effect="spiro"
       id="path-effect3931-5-7"
       is_visible="true" />
    <inkscape:path-effect
       effect="spiro"
       id="path-effect3931-1-8"
       is_visible="true" />
    <inkscape:path-effect
       effect="spiro"
       id="path-effect3931-89-4"
       is_visible="true" />
    <inkscape:path-effect
       effect="spiro"
       id="path-effect3931-7-6"
       is_visible="true" />
    <inkscape:path-effect
       effect="spiro"
       id="path-effect3931-8-4"
       is_visible="true" />
    <inkscape:path-effect
       effect="spiro"
       id="path-effect3931-4"
       is_visible="true" />
    <inkscape:path-effect
       effect="spiro"
       id="path-effect5247-7-5-4-8-0"
       is_visible="true" />
    <inkscape:path-effect
       effect="spiro"
       id="path-effect5247-7-6-7-7"
       is_visible="true" />
    <inkscape:path-effect
       effect="spiro"
       id="path-effect5247-8-3-5"
       is_visible="true" />
    <inkscape:path-effect
       effect="spiro"
       id="path-effect4464-0-7-0-0-6-5"
       is_visible="true" />
  </defs>
  <sodipodi:namedview
     id="base"
     pagecolor="#ffffff"
     bordercolor="#666666"
     borderopacity="1.0"
     inkscape:pageopacity="0.0"
     inkscape:pageshadow="2"
     inkscape:zoom="1.979899"
     inkscape:cx="146.20927"
     inkscape:cy="92.165997"
     inkscape:document-units="px"
     inkscape:current-layer="layer1"
     showgrid="false"
     units="px"
     inkscape:window-width="1024"
     inkscape:window-height="704"
     inkscape:window-x="0"
     inkscape:window-y="27"
     inkscape:window-maximized="1" />
  <metadata
     id="metadata4995">
    <rdf:RDF>
      <cc:Work
         rdf:about="">
        <dc:format>image/svg+xml</dc:format>
        <dc:type
           rdf:resource="http://purl.org/dc/dcmitype/StillImage" />
        <dc:title></dc:title>
      </cc:Work>
    </rdf:RDF>
  </metadata>
  <g
     inkscape:label="Calque 1"
     inkscape:groupmode="layer"
     id="layer1"
     transform="translate(0,-852.36216)">
    <path
       style="fill:none;fill-rule:evenodd;stroke:#000000;stroke-width:3;stroke-linecap:butt;stroke-linejoin:miter;stroke-opacity:1"
       d="m 117.34346,996.68458 c -7.34882,4.54492 -16.00063,6.62362 -24.61303,7.32192 -8.612403,0.6982 -17.269414,0.084 -25.897271,-0.3864 -14.443292,-0.7871 -29.113664,-1.2038 -42.9152,-5.53342 -3.468156,-1.08799 -6.924614,-2.45509 -9.733201,-4.7624 -2.762344,-2.26932 -4.7714549,-5.35944 -6.1385668,-8.66267 -1.3671119,-3.30323 -2.122442,-6.82741 -2.6768331,-10.35912 -1.6134364,-10.27829 -1.5761079,-20.73519 -1.5379,-31.13928 0.034715,-9.45292 0.071246,-18.95731 1.6594,-28.27593 0.5762422,-3.38115 1.3617392,-6.74671 2.6986244,-9.90534 1.3368852,-3.15863 3.2477785,-6.11601 5.8360755,-8.36655 2.696839,-2.34492 6.050794,-3.8532 9.522201,-4.70226 4.207925,-1.0292 8.58087,-1.12401 12.9124,-1.18517 9.66526,-0.13647 19.333685,-0.13138 28.9944,-0.45767 13.691829,-0.46244 27.60378,-1.5705 40.929201,1.60962 8.49688,2.02779 16.84874,6.00617 22.2862,12.84305 2.93582,3.6914 4.91468,8.08587 6.1182,12.64624 2.389,9.05241 1.77466,18.58011 1.6027,27.94087 -0.12061,6.56572 -0.0157,13.15127 -0.73681,19.67839 -0.72105,6.52713 -2.30643,13.05554 -5.58579,18.74492 -3.0533,5.29718 -7.52477,9.73524 -12.7248,12.9512 z"
       id="path4462-4-4-5-5-1-6"
       inkscape:path-effect="#path-effect4464-0-7-0-0-6-5"
       inkscape:original-d="m 117.34346,996.68458 c -9.8345,3.99332 -31.041801,6.40242 -50.510301,6.93552 -24.836,0.68 -47.1358,-10.09232 -42.9152,-5.53342 2.1102,2.27942 -3.8484,6.63122 -9.733201,-4.7624 -2.9424,-5.6967 -6.8831998,-9.7274 -8.8153999,-19.02179 -1.9322,-9.2944 -1.679,-25.97926 -1.5379,-31.13928 0.142,-5.19121 -2.6479,-19.17473 1.6594,-28.27593 13.5948009,-28.72445 6.5204999,-14.1884 8.5346999,-18.27189 2.0142,-4.08349 5.702701,-5.51841 9.522201,-4.70226 3.8194,0.81623 10.7277,1.09105 12.9124,-1.18517 8.7382,-9.10518 7.7679,-1.1439 28.9944,-0.45767 20.4088,0.65985 36.997301,5.4974 40.929201,1.60962 1.966,-1.94394 20.0011,11.66825 22.2862,12.84305 3.8351,1.97152 4.2039,6.76058 6.1182,12.64624 3.8289,11.77125 3.397,24.41452 1.6027,27.94087 -1.7942,3.52635 -4.468,27.45952 -6.3226,38.42331 -1.8547,10.9637 -2.8903,8.958 -12.7248,12.9512 z"
       inkscape:connector-curvature="0"
       sodipodi:nodetypes="sssssssssssssssss" />
    <path
       style="fill:none;fill-rule:evenodd;stroke:#000000;stroke-width:3;stroke-linecap:butt;stroke-linejoin:miter;stroke-opacity:1"
       d="m 113.54426,998.84828 c 3.00901,0.0307 6.00642,0.85478 8.60818,2.36672 2.60176,1.5119 4.80179,3.7082 6.31822,6.3073 1.94997,3.3422 2.74486,7.3082 2.45288,11.1666 -0.29198,3.8585 -1.64373,7.6048 -3.69568,10.8854 -1.80397,2.8841 -4.14134,5.4201 -6.7854,7.5605 -6.88893,5.5768 -15.67879,8.3605 -24.464854,9.5281 -8.786063,1.1675 -17.690954,0.8344 -26.554247,0.841 -9.679863,0.01 -19.403037,0.42 -29.005127,-0.8046 -9.602091,-1.2246 -19.222374,-4.2148 -26.760274,-10.2877 -3.128453,-2.5204 -5.8900298,-5.5951 -7.5478998,-9.2545 -1.6625855,-3.6698 -2.1502234,-7.85 -1.4494439,-11.8174 0.7007795,-3.9674 2.5775176,-7.7096 5.2836438,-10.6943 3.3466279,-3.6912 7.9644719,-6.20757 12.8804009,-7.01892"
       id="path5245-8-7-2"
       inkscape:path-effect="#path-effect5247-8-3-5"
       inkscape:original-d="m 113.54426,998.84828 c 36.7756,34.44332 26.926,-12.3986 14.9264,8.67402 -11.3155,19.871 24.2171,6.1554 -1.2428,22.052 -25.46,15.8971 52.6212,4.9111 -6.7854,7.5605 -29.703301,1.3248 -32.131001,12.0849 -51.019101,10.3691 -18.888,-1.7156 -60.3128009,-1.4429 -55.765401,-11.0923 10.360801,-21.9848 -5.2494999,-3.4588 -7.5478998,-9.2545 -2.2985001,-5.7957 1.0053,-3.3029 3.8341999,-22.5117 5.6577999,-38.41745 -6.9217,8.8781 12.8804009,-7.01892"
       inkscape:connector-curvature="0"
       sodipodi:nodetypes="csssssssc" />
    <path
       style="fill:none;fill-rule:evenodd;stroke:#000000;stroke-width:3;stroke-linecap:butt;stroke-linejoin:miter;stroke-opacity:1"
       d="m 107.35506,1001.2357 c 1.42446,1.4747 2.62947,3.161 3.5632,4.9863 1.18465,2.3159 1.93177,4.8654 2.08684,7.4621 0.15506,2.5966 -0.29008,5.2386 -1.37624,7.6022 -1.96232,4.2703 -5.86666,7.3732 -10.0639,9.4873 -10.237055,5.1562 -22.219527,5.1483 -33.675101,4.7562 -9.767791,-0.3343 -19.671123,-0.8922 -28.9397,-3.993 -2.830985,-0.9471 -5.607544,-2.1398 -8.037421,-3.874 -2.429877,-1.7341 -4.50787,-4.0427 -5.636979,-6.8061 -0.920371,-2.2526 -1.184421,-4.7469 -0.92372,-7.1662 0.260702,-2.4194 1.033962,-4.7669 2.11032,-6.9492 1.214934,-2.4633 2.820253,-4.7336 4.7377,-6.7001"
       id="path5245-4-38-6-6"
       inkscape:path-effect="#path-effect5247-7-6-7-7"
       inkscape:original-d="m 107.35506,1001.2357 c 2.3047,1.1757 2.7518,2.6125 3.5632,4.9863 0.9903,2.8967 16.8915,3.8714 0.7106,15.0643 -16.181001,11.1929 27.6916,7.6218 -10.0639,9.4873 -18.877701,0.9327 -21.670901,5.9642 -33.675101,4.7562 -12.0042,-1.208 -33.9272,-7.4304 -28.9397,-3.993 4.9874,3.4372 -12.2136,-6.5994 -13.6744,-10.6801 -1.4607,-4.0808 -0.6113,-0.5907 1.1866,-14.1154 3.5958,-27.04967 -7.8475,4.4928 4.7377,-6.7001"
       inkscape:connector-curvature="0"
       sodipodi:nodetypes="csssszssc" />
    <path
       style="fill:none;fill-rule:evenodd;stroke:#000000;stroke-width:3;stroke-linecap:butt;stroke-linejoin:miter;stroke-opacity:1"
       d="m 110.03696,1000.3652 c 2.58786,1.6867 4.6966,4.1 6.0211,6.8906 1.24564,2.6245 1.79605,5.5688 1.63106,8.4692 -0.16498,2.9004 -1.04052,5.7523 -2.48936,8.2703 -2.33002,4.0495 -6.07118,7.1508 -10.1873,9.361 -5.700809,3.061 -12.144246,4.5255 -18.585798,5.1384 -6.441552,0.6129 -12.928666,0.4063 -19.398603,0.3106 -7.177125,-0.1061 -14.39607,-0.078 -21.471755,-1.2853 -7.075685,-1.2071 -14.087619,-3.7383 -19.540245,-8.4064 -2.571625,-2.2016 -4.792158,-4.9081 -5.9629,-8.0845 -1.020356,-2.7684 -1.204933,-5.8161 -0.690996,-8.7214 0.513937,-2.9054 1.711295,-5.6699 3.338996,-8.1308 1.198101,-1.8114 2.630609,-3.4675 4.2505,-4.91402"
       id="path5245-4-3-1-2-8"
       inkscape:path-effect="#path-effect5247-7-5-4-8-0"
       inkscape:original-d="m 110.03696,1000.3652 c 25.3971,25.7841 8.5654,-10.48972 6.0211,6.8906 -2.3132,15.8008 16.7243,4.8392 -0.8583,16.7395 -17.582601,11.9003 0.8274,7.8735 -10.1873,9.361 -11.014701,1.4874 -24.940401,6.7334 -37.984401,5.449 -13.044,-1.2843 -44.7435,-10.8581 -41.012,-9.6917 3.7315,1.1664 -4.3756,-3.5054 -5.9629,-8.0845 -1.5873,-4.5791 0.6944,-9.9653 2.648,-16.8522 7.9529,-28.03623 -9.424801,6.9864 4.2505,-4.91402"
       inkscape:connector-curvature="0"
       sodipodi:nodetypes="csszszzsc" />
    <path
       style="fill:none;fill-rule:evenodd;stroke:#000000;stroke-width:3;stroke-linecap:butt;stroke-linejoin:miter;stroke-opacity:1"
       d="m 99.200059,1003.2454 c 1.033911,5.0013 1.567861,10.1058 1.591301,15.2128 0.0201,4.3817 -0.33525,8.765 -1.060901,13.0862"
       id="path3929-6"
       inkscape:path-effect="#path-effect3931-4"
       inkscape:original-d="m 99.200059,1003.2454 c 3.182701,12.1048 2.298601,3.4353 1.591301,15.2128 -0.7072,11.7775 3.5364,7.5245 -1.060901,13.0862"
       inkscape:connector-curvature="0"
       sodipodi:nodetypes="csc" />
    <path
       style="fill:none;fill-rule:evenodd;stroke:#000000;stroke-width:3;stroke-linecap:butt;stroke-linejoin:miter;stroke-opacity:1"
       d="m 86.571259,1004.3647 c 0.869947,5.7317 0.989148,11.5769 0.3536,17.3393 -0.514938,4.6689 -1.524348,9.283 -3.0059,13.7404"
       id="path3929-9-4"
       inkscape:path-effect="#path-effect3931-8-4"
       inkscape:original-d="m 86.571259,1004.3647 c 3.1827,12.1048 1.0609,5.5618 0.3536,17.3393 -0.7073,11.7775 1.5914,8.1788 -3.0059,13.7404"
       inkscape:connector-curvature="0"
       sodipodi:nodetypes="csc" />
    <path
       style="fill:none;fill-rule:evenodd;stroke:#000000;stroke-width:3;stroke-linecap:butt;stroke-linejoin:miter;stroke-opacity:1"
       d="m 73.817259,1004.1311 c 0.687136,5.011 0.778482,10.1034 0.2715,15.1358 -0.548214,5.4417 -1.796508,10.8124 -3.7044,15.9381"
       id="path3929-8-4"
       inkscape:path-effect="#path-effect3931-7-6"
       inkscape:original-d="m 73.817259,1004.1311 c 3.1827,12.1047 0.9787,3.3582 0.2715,15.1358 -0.7073,11.7775 0.893,10.3765 -3.7044,15.9381"
       inkscape:connector-curvature="0"
       sodipodi:nodetypes="csc" />
    <path
       style="fill:none;fill-rule:evenodd;stroke:#000000;stroke-width:3;stroke-linecap:butt;stroke-linejoin:miter;stroke-opacity:1"
       d="m 60.616759,1003.4667 c 0.906321,5.602 0.876451,11.3544 -0.088,16.9467 -0.862612,5.0018 -2.471263,9.8743 -4.7563,14.4065"
       id="path3929-2-6"
       inkscape:path-effect="#path-effect3931-89-4"
       inkscape:original-d="m 60.616759,1003.4667 c 3.1828,12.1048 0.6189,5.1692 -0.088,16.9467 -0.7073,11.7776 -0.159,8.8448 -4.7563,14.4065"
       inkscape:connector-curvature="0"
       sodipodi:nodetypes="csc" />
    <path
       style="fill:none;fill-rule:evenodd;stroke:#000000;stroke-width:3;stroke-linecap:butt;stroke-linejoin:miter;stroke-opacity:1"
       d="m 35.496059,1001.2824 c 0.240332,4.6583 -0.330694,9.3573 -1.6797,13.8225 -1.098489,3.636 -2.710843,7.1163 -4.7742,10.3052"
       id="path3929-7-6"
       inkscape:path-effect="#path-effect3931-1-8"
       inkscape:original-d="m 35.496059,1001.2824 c 3.1828,12.1048 -0.9724,2.0448 -1.6797,13.8225 -0.7073,11.7775 -0.1768,4.7436 -4.7742,10.3052"
       inkscape:connector-curvature="0"
       sodipodi:nodetypes="csc" />
    <path
       style="fill:none;fill-rule:evenodd;stroke:#000000;stroke-width:3;stroke-linecap:butt;stroke-linejoin:miter;stroke-opacity:1"
       d="m 47.507859,1002.8067 c 0.4847,5.1594 0.275942,10.3836 -0.6189,15.4879 -0.870698,4.9666 -2.390619,9.819 -4.5089,14.3948"
       id="path3929-1-4"
       inkscape:path-effect="#path-effect3931-5-7"
       inkscape:original-d="m 47.507859,1002.8067 c 3.1828,12.1048 0.088,3.7104 -0.6189,15.4879 -0.7072,11.7776 0.088,8.8331 -4.5089,14.3948"
       inkscape:connector-curvature="0"
       sodipodi:nodetypes="csc" />
    <path
       style="fill:none;fill-rule:evenodd;stroke:#000000;stroke-width:3;stroke-linecap:butt;stroke-linejoin:miter;stroke-opacity:1"
       d="m 104.90586,919.83537 c -0.32268,-3.7505 -0.74487,-7.51365 -1.77043,-11.13562 -1.02556,-3.62196 -2.68473,-7.12057 -5.235071,-9.88935 -2.081139,-2.25939 -4.703272,-3.97619 -7.496,-5.2555 -5.829603,-2.67046 -12.337284,-3.46441 -18.7428,-3.75599 -7.275537,-0.33119 -14.798481,-0.008 -21.4359,2.9896 -2.155657,0.97366 -4.197481,2.22643 -5.9438,3.82181 -2.845917,2.59994 -4.831252,6.04806 -6.076917,9.69597 -1.245665,3.64791 -1.783162,7.50267 -2.036983,11.34903 -0.474612,7.19219 0.0615,14.60259 2.9194,21.21963 1.557425,3.60598 3.819382,6.95417 6.8515,9.45116 3.529772,2.90681 7.961038,4.55021 12.456133,5.38863 4.495095,0.83843 9.092453,0.91801 13.664267,1.00381 4.672934,0.0877 9.382638,0.1817 13.981746,-0.65029 4.599108,-0.83199 9.138082,-2.66575 12.460954,-5.95247 2.013151,-1.99125 3.521411,-4.45846 4.576701,-7.08605 2.66797,-6.64303 2.44086,-14.06195 1.8272,-21.19437 z"
       id="path4005-8-6"
       inkscape:path-effect="#path-effect4007-3-3"
       inkscape:original-d="m 104.90586,919.83537 c -1.1973,-9.69195 -6.386201,-18.08396 -7.005501,-21.02497 -0.6189,-2.94102 -19.0568,-10.39166 -7.496,-5.2555 6.3004,2.799 -7.9619,-3.83686 -18.7428,-3.75599 -10.7812,0.0809 -25.6475,2.99392 -21.4359,2.9896 13.5989,-0.014 -1.5027,-0.20348 -5.9438,3.82181 -3.5705,3.23629 -2.6397,11.67533 -8.1139,21.045 -5.4741,9.36966 8.6584,26.8606 2.9194,21.21963 -2.8697,-2.8205 -2.9396,5.01764 6.8515,9.45116 4.8953,2.21672 14.616,6.91502 26.1204,6.39244 11.5045,-0.5226 28.692601,-9.43411 26.4427,-6.60276 -4.2051,5.29177 7.035101,-12.77336 4.576701,-7.08605 -2.4587,5.68728 3.0766,-11.08079 1.8272,-21.19437 z"
       inkscape:connector-curvature="0"
       sodipodi:nodetypes="sssssszsssszs" />
    <path
       style="fill:none;fill-rule:evenodd;stroke:#000000;stroke-width:3;stroke-linecap:butt;stroke-linejoin:miter;stroke-opacity:1"
       d="m 47.709459,890.4493 c -2.712268,-5.54561 -3.215882,-12.13481 -1.3779,-18.0282 1.339269,-4.2943 3.994868,-8.30212 7.87,-10.58641 4.13454,-2.4372 9.164056,-2.70187 13.9634,-2.67571 5.025591,0.0274 10.227449,0.3495 14.6963,2.64878 4.376478,2.25175 7.715099,6.32231 9.3786,10.95445 2.031539,5.65697 1.578143,12.15772 -1.219,17.47791"
       id="path4430-9"
       inkscape:path-effect="#path-effect4432-2"
       inkscape:original-d="m 47.709459,890.4493 c -4.0475,-13.55045 -19.5912,-9.3648 -1.3779,-18.0282 18.2136,-8.6634 -0.2281,-16.15489 7.87,-10.58641 5.7699,3.96766 13.0836,-1.94363 13.9634,-2.67571 0.8795,-0.73199 5.3869,-0.90543 14.6963,2.64878 18.618201,7.10843 9.2681,5.67067 9.3786,10.95445 0.1822,8.70872 -1.219,17.47791 -1.219,17.47791"
       inkscape:connector-curvature="0"
       sodipodi:nodetypes="csssssc" />
    <path
       style="fill:none;fill-rule:evenodd;stroke:#000000;stroke-width:3;stroke-linecap:butt;stroke-linejoin:miter;stroke-opacity:1"
       d="m 60.079459,890.11803 c -0.573369,-1.69529 -0.712349,-3.53553 -0.4001,-5.2977 0.319374,-1.80238 1.158445,-3.57839 2.6224,-4.67721 0.75128,-0.5639 1.639347,-0.92994 2.555398,-1.13791 0.916051,-0.20798 1.861473,-0.26202 2.800602,-0.24102 2.048631,0.0458 4.158035,0.4781 5.8106,1.68972 1.415931,1.03812 2.411543,2.60868 2.8406,4.31117 0.439588,1.74427 0.294009,3.63069 -0.408,5.28686"
       id="path4430-5-1"
       inkscape:path-effect="#path-effect4432-8-5"
       inkscape:original-d="m 60.079459,890.11803 c -0.2448,-2.25129 -1.2893,-2.97439 -0.4001,-5.2977 0.9055,-2.36623 0.053,-1.42489 2.6224,-4.67721 0.9152,-1.15882 6.6041,-1.26612 5.356,-1.37893 -1.2483,-0.11281 2.1664,-0.82993 5.8106,1.68972 3.3297,2.3021 2.7791,1.7897 2.8406,4.31117 0.1006,4.15593 -0.408,5.28686 -0.408,5.28686"
       inkscape:connector-curvature="0"
       sodipodi:nodetypes="csszssc" />
    <path
       style="fill:none;fill-rule:evenodd;stroke:#000000;stroke-width:3;stroke-linecap:butt;stroke-linejoin:miter;stroke-opacity:1"
       d="m 51.978059,862.98465 c -6.651758,-1.65473 -13.4897,-2.55982 -20.3429,-2.69267 -6.747824,-0.1308 -13.793929,0.57719 -19.531601,4.13097 -3.1038267,1.92244 -5.7657149,4.72398 -6.9820999,8.16635 -1.2102184,3.42492 -0.9048391,7.27442 0.4046,10.66265 1.9884865,5.14529 6.3122239,9.3349 11.5175999,11.16031"
       id="path4173-83"
       inkscape:path-effect="#path-effect4175-1"
       inkscape:original-d="m 51.978059,862.98465 c -10.1187,-0.3332 -17.0038,-2.19286 -20.3429,-2.69267 -3.3392,-0.49981 -13.865,0.90997 -19.531601,4.13097 -11.33269988,6.44202 -4.5536998,-0.71919 -6.9820999,8.16635 -2.4285,8.88554 -7.2856,7.55271 0.4046,10.66265 7.6901999,3.10993 1.8037001,14.27025 11.5175999,11.16031"
       inkscape:connector-curvature="0"
       sodipodi:nodetypes="cssssc" />
    <path
       style="fill:none;fill-rule:evenodd;stroke:#000000;stroke-width:3;stroke-linecap:butt;stroke-linejoin:miter;stroke-opacity:1"
       d="m 46.415259,871.60948 c -1.251802,-0.30753 -2.545476,-0.44412 -3.8339,-0.40481 -1.153437,0.0352 -2.334939,0.22244 -3.3266,0.81258 -0.501872,0.29866 -0.947197,0.69919 -1.268656,1.18677 -0.321459,0.48759 -0.515641,1.06376 -0.520644,1.64776 -0.0051,0.59176 0.183141,1.17629 0.486386,1.68447 0.303246,0.50818 0.718128,0.94339 1.177614,1.31632 1.646346,1.33622 3.91919,1.86402 5.9859,1.39004"
       id="path4173-4-8"
       inkscape:path-effect="#path-effect4175-6-6"
       inkscape:original-d="m 46.415259,871.60948 c -3.5346,-0.10858 -2.6675,-0.24194 -3.8339,-0.40481 -1.1665,-0.16288 -1.3472,-0.23707 -3.3266,0.81258 -3.9591,2.09929 -0.9409,-0.0612 -1.7893,2.83453 -0.8483,2.89562 -1.0224,1.98739 1.664,3.00079 2.6865,1.01357 2.5922,2.40353 5.9859,1.39004"
       inkscape:connector-curvature="0"
       sodipodi:nodetypes="cssssc" />
    <path
       style="fill:none;fill-rule:evenodd;stroke:#000000;stroke-width:3;stroke-linecap:butt;stroke-linejoin:miter;stroke-opacity:1"
       d="m 9.5915581,889.16468 c 3.3360159,-1.83261 6.8724219,-3.30014 10.5258009,-4.36798 2.092762,-0.61169 4.223753,-1.09256 6.3764,-1.43886"
       id="path4195-4"
       inkscape:path-effect="#path-effect4197-1"
       inkscape:original-d="m 9.5915581,889.16468 c 4.7566999,-1.43886 5.3640999,-3.69993 10.5258009,-4.36798 5.1618,-0.66804 5.4655,-1.54164 6.3764,-1.43886"
       inkscape:connector-curvature="0"
       sodipodi:nodetypes="csc" />
    <path
       style="fill:none;fill-rule:evenodd;stroke:#000000;stroke-width:3;stroke-linecap:butt;stroke-linejoin:miter;stroke-opacity:1"
       d="m 23.882259,875.46806 c -2.332588,0.0289 -4.66383,0.16616 -6.983701,0.41111 -4.26453,0.45028 -8.4905025,1.26516 -12.6166999,2.43283"
       id="path4199-0"
       inkscape:path-effect="#path-effect4201-5"
       inkscape:original-d="m 23.882259,875.46806 c -4.6558,0.71943 -1.9232,-0.66804 -6.983701,0.41111 -5.0606,1.07914 -10.3899998,1.71339 -12.6166999,2.43283"
       inkscape:connector-curvature="0"
       sodipodi:nodetypes="csc" />
    <path
       style="fill:none;fill-rule:evenodd;stroke:#000000;stroke-width:3;stroke-linecap:butt;stroke-linejoin:miter;stroke-opacity:1"
       d="m 7.5741582,868.01028 c 2.8359508,-0.46109 5.7038518,-0.72557 8.5762998,-0.79091 3.069563,-0.0698 6.144275,0.0878 9.190601,0.47121"
       id="path4203-8"
       inkscape:path-effect="#path-effect4205-8"
       inkscape:original-d="m 7.5741582,868.01028 c 5.6663998,-0.55535 3.6181998,-0.90197 8.5762998,-0.79091 4.958201,0.11107 8.077601,0.47121 9.190601,0.47121"
       inkscape:connector-curvature="0"
       sodipodi:nodetypes="csc" />
    <path
       style="fill:none;fill-rule:evenodd;stroke:#000000;stroke-width:3;stroke-linecap:butt;stroke-linejoin:miter;stroke-opacity:1"
       d="m 84.736959,862.592 c 6.608084,-1.77954 13.429645,-2.76493 20.271201,-2.92823 7.68905,-0.18352 15.61308,0.73605 22.3936,4.36644 1.92829,1.03244 3.76547,2.2935 5.18955,3.95369 1.42409,1.66018 2.41437,3.75204 2.48385,5.93823 0.0493,1.55055 -0.36279,3.09346 -1.03481,4.49169 -0.67203,1.39822 -1.59791,2.66105 -2.60799,3.8385 -5.30552,6.18466 -13.1611,10.11194 -21.2922,10.6447"
       id="path4173-8-9"
       inkscape:path-effect="#path-effect4175-8-6"
       inkscape:original-d="m 84.736959,862.592 c 10.1187,-0.33321 16.932101,-2.42842 20.271201,-2.92823 3.3391,-0.49981 16.7271,1.14544 22.3936,4.36644 11.3329,6.44202 5.2449,1.00638 7.6734,9.89192 2.4282,8.88554 4.0474,5.22025 -3.6428,8.33019 -7.6902,3.10994 -11.5784,13.75464 -21.2922,10.6447"
       inkscape:connector-curvature="0"
       sodipodi:nodetypes="cssssc" />
    <path
       style="fill:none;fill-rule:evenodd;stroke:#000000;stroke-width:3;stroke-linecap:butt;stroke-linejoin:miter;stroke-opacity:1"
       d="m 91.999759,872.14158 c 1.418097,-0.72224 2.99508,-1.13043 4.5855,-1.18691 0.696131,-0.0247 1.398169,0.0176 2.075409,0.1806 0.67724,0.16296 1.330292,0.44956 1.876392,0.88198 0.63067,0.49938 1.10713,1.18976 1.35503,1.95504 0.24791,0.76529 0.26697,1.60242 0.059,2.3795 -0.20196,0.75448 -0.61314,1.44611 -1.14704,2.01618 -0.53389,0.57008 -1.18805,1.02105 -1.891861,1.35969 -1.635719,0.78704 -3.558492,0.95938 -5.3081,0.47577"
       id="path4173-4-5-0"
       inkscape:path-effect="#path-effect4175-6-8-6"
       inkscape:original-d="m 91.999759,872.14158 c 3.5347,-0.10858 3.419,-1.02404 4.5855,-1.18691 1.1666,-0.16287 1.9724,0.0129 3.951801,1.06258 3.9588,2.09939 0.5656,1.43892 1.414,4.33454 0.8483,2.89562 -0.3524,2.36239 -3.038901,3.37587 -2.6863,1.01349 -1.9146,1.48926 -5.3081,0.47577"
       inkscape:connector-curvature="0"
       sodipodi:nodetypes="cssssc" />
    <path
       style="fill:none;fill-rule:evenodd;stroke:#000000;stroke-width:3;stroke-linecap:butt;stroke-linejoin:miter;stroke-opacity:1"
       d="m 125.17236,887.53365 c -2.68606,-1.30076 -5.46114,-2.41763 -8.2994,-3.34022 -1.83166,-0.59539 -3.6896,-1.10994 -5.5666,-1.54164"
       id="path4195-6-8"
       inkscape:path-effect="#path-effect4197-9-8"
       inkscape:original-d="m 125.17236,887.53365 c -4.757,-1.43886 -3.1378,-2.67217 -8.2994,-3.34022 -5.1618,-0.66804 -4.6559,-1.64441 -5.5666,-1.54164"
       inkscape:connector-curvature="0"
       sodipodi:nodetypes="csc" />
    <path
       style="fill:none;fill-rule:evenodd;stroke:#000000;stroke-width:3;stroke-linecap:butt;stroke-linejoin:miter;stroke-opacity:1"
       d="m 113.83806,875.01347 c 2.3336,-0.0246 4.6689,0.11286 6.9835,0.41111 4.33811,0.55899 8.60283,1.68495 12.6515,3.34021"
       id="path4199-8-6"
       inkscape:path-effect="#path-effect4201-0-0"
       inkscape:original-d="m 113.83806,875.01347 c 4.6557,0.71943 1.9229,-0.66804 6.9835,0.41111 5.0605,1.07914 10.4248,2.62078 12.6515,3.34021"
       inkscape:connector-curvature="0"
       sodipodi:nodetypes="csc" />
    <path
       style="fill:none;fill-rule:evenodd;stroke:#000000;stroke-width:3;stroke-linecap:butt;stroke-linejoin:miter;stroke-opacity:1"
       d="m 131.31366,866.72733 c -3.67026,-0.0936 -7.34365,-0.0649 -11.012,0.0862 -2.36382,0.0974 -4.72554,0.24549 -7.083,0.44428"
       id="path4203-6-1"
       inkscape:path-effect="#path-effect4205-1-9"
       inkscape:original-d="m 131.31366,866.72733 c -1.2711,5.47536 -6.0538,-0.0249 -11.012,0.0862 -4.958,0.11107 -5.9699,0.44428 -7.083,0.44428"
       inkscape:connector-curvature="0"
       sodipodi:nodetypes="csc" />
    <path
       style="fill:none;fill-rule:evenodd;stroke:#000000;stroke-width:3;stroke-linecap:butt;stroke-linejoin:miter;stroke-opacity:1"
       d="m 99.744759,919.48128 c -0.558409,-5.41024 -1.142461,-11.05332 -4.0638,-15.64116 -1.50704,-2.36674 -3.591845,-4.34883 -5.9779,-5.8251 -5.38054,-3.32899 -11.957926,-3.987 -18.2806,-4.22403 -6.200318,-0.23244 -12.641589,-0.0917 -18.2502,2.56182 -1.672762,0.79143 -3.251204,1.8028 -4.5906,3.07971 -2.44352,2.32953 -4.006105,5.46676 -4.897688,8.72292 -0.891583,3.25616 -1.15175,6.64961 -1.298912,10.02242 -0.247375,5.6696 -0.174846,11.44097 1.4249,16.88581 0.889822,3.02857 2.273749,5.96008 4.3986,8.29439 2.819244,3.09716 6.789755,4.96562 10.870536,5.90782 4.08078,0.94221 8.305925,1.02627 12.494064,1.02978 3.663485,0.003 7.345711,-0.0538 10.954874,-0.68238 3.609164,-0.62855 7.167067,-1.855 10.130426,-4.00898 2.275289,-1.65384 4.165667,-3.84152 5.436,-6.35118 1.515381,-2.99377 2.128651,-6.37804 2.243751,-9.73151 0.11509,-3.35348 -0.24895,-6.70261 -0.593451,-10.04033 z"
       id="path4005-8-6-2"
       inkscape:path-effect="#path-effect4007-3-3-1"
       inkscape:original-d="m 99.744759,919.48128 c 0.1023,-12.5229 -0.9246,-9.86354 -4.0638,-15.64116 -1.2668,-2.33121 -2.8446,-3.89266 -5.9779,-5.8251 -4.8961,-3.01904 -9.1016,-4.29331 -18.2806,-4.22403 -9.1789,0.0691 -21.8358,2.56551 -18.2502,2.56182 11.5781,-0.0123 -0.8095,-0.36958 -4.5906,3.07971 -3.0398,2.77316 -4.8575,12.5111 -6.1966,18.74534 -1.3392,6.23423 6.3109,21.71966 1.4249,16.88581 -2.4433,-2.41691 -3.9373,4.49527 4.3986,8.29439 4.168,1.89948 13.5702,7.38534 23.3646,6.9376 9.7953,-0.44786 23.9056,-6.38099 21.0853,-4.69136 -3.0092,1.80298 4.5383,-0.78522 5.436,-6.35118 0.8975,-5.56593 1.5481,-7.24895 1.6503,-19.77184 z"
       inkscape:connector-curvature="0"
       sodipodi:nodetypes="zssssszsssszz" />
    <path
       style="fill:none;fill-rule:evenodd;stroke:#000000;stroke-width:3;stroke-linecap:butt;stroke-linejoin:miter;stroke-opacity:1"
       d="m 37.314059,976.28241 c 0.240315,4.65825 -0.33071,9.35726 -1.6797,13.82237 -1.098488,3.63596 -2.710842,7.11626 -4.7742,10.30522"
       id="path3929-7-6-2"
       inkscape:path-effect="#path-effect3931-1-8-4"
       inkscape:original-d="m 37.314059,976.28241 c 3.1828,12.10467 -0.9724,2.0448 -1.6797,13.82237 -0.7073,11.77752 -0.1768,4.7436 -4.7742,10.30522"
       inkscape:connector-curvature="0"
       sodipodi:nodetypes="csc" />
    <path
       style="fill:none;fill-rule:evenodd;stroke:#000000;stroke-width:3;stroke-linecap:butt;stroke-linejoin:miter;stroke-opacity:1"
       d="m 41.075159,976.6911 c 0.194678,4.50636 -0.332283,9.04312 -1.5547,13.38488 -1.042855,3.70399 -2.590487,7.2655 -4.5867,10.55522"
       id="path3929-7-6-4"
       inkscape:path-effect="#path-effect3931-1-8-7"
       inkscape:original-d="m 41.075159,976.6911 c 3.1828,12.10468 -0.8474,1.6073 -1.5547,13.38488 -0.7073,11.77752 0.011,4.9936 -4.5867,10.55522"
       inkscape:connector-curvature="0"
       sodipodi:nodetypes="csc" />
    <path
       style="fill:none;fill-rule:evenodd;stroke:#000000;stroke-width:3;stroke-linecap:butt;stroke-linejoin:miter;stroke-opacity:1"
       d="m 56.018159,979.47359 c 0.05415,4.27102 -0.557014,8.54982 -1.8047,12.63489 -1.10934,3.63211 -2.720798,7.11048 -4.7742,10.30522"
       id="path3929-7-6-20"
       inkscape:path-effect="#path-effect3931-1-8-49"
       inkscape:original-d="m 56.018159,979.47359 c 3.1828,12.10469 -1.0974,0.8573 -1.8047,12.63489 -0.7073,11.77752 -0.1768,4.7436 -4.7742,10.30522"
       inkscape:connector-curvature="0"
       sodipodi:nodetypes="csc" />
    <path
       style="fill:none;fill-rule:evenodd;stroke:#000000;stroke-width:3;stroke-linecap:butt;stroke-linejoin:miter;stroke-opacity:1"
       d="m 81.121059,979.65741 c 0.240315,4.65825 -0.33071,9.35726 -1.6797,13.82237 -1.098488,3.63596 -2.710842,7.11622 -4.7742,10.30522"
       id="path3929-7-6-1"
       inkscape:path-effect="#path-effect3931-1-8-5"
       inkscape:original-d="m 81.121059,979.65741 c 3.1828,12.10467 -0.9724,2.0448 -1.6797,13.82237 -0.7073,11.77752 -0.1768,4.7436 -4.7742,10.30522"
       inkscape:connector-curvature="0"
       sodipodi:nodetypes="csc" />
    <path
       style="fill:none;fill-rule:evenodd;stroke:#000000;stroke-width:3;stroke-linecap:butt;stroke-linejoin:miter;stroke-opacity:1"
       d="m 60.371059,979.15741 c 0.268032,4.65836 -0.303773,9.36379 -1.6797,13.82237 -1.089547,3.53059 -2.681038,6.90588 -4.7117,9.99272"
       id="path3929-7-6-7"
       inkscape:path-effect="#path-effect3931-1-8-59"
       inkscape:original-d="m 60.371059,979.15741 c 3.1828,12.10467 -0.9724,2.0448 -1.6797,13.82237 -0.7073,11.77752 -0.1143,4.4311 -4.7117,9.99272"
       inkscape:connector-curvature="0"
       sodipodi:nodetypes="csc" />
    <path
       style="fill:none;fill-rule:evenodd;stroke:#000000;stroke-width:3;stroke-linecap:butt;stroke-linejoin:miter;stroke-opacity:1"
       d="m 76.278559,979.57162 c 0.240314,4.65824 -0.330711,9.35725 -1.6797,13.82236 -1.098488,3.63596 -2.710842,7.11622 -4.7742,10.30522"
       id="path3929-7-6-6"
       inkscape:path-effect="#path-effect3931-1-8-9"
       inkscape:original-d="m 76.278559,979.57162 c 3.1828,12.10466 -0.9724,2.0448 -1.6797,13.82236 -0.7073,11.77752 -0.1768,4.7436 -4.7742,10.30522"
       inkscape:connector-curvature="0"
       sodipodi:nodetypes="csc" />
    <path
       style="fill:none;fill-rule:evenodd;stroke:#000000;stroke-width:3;stroke-linecap:butt;stroke-linejoin:miter;stroke-opacity:1"
       d="m 96.121059,981.15741 c 0.362143,4.2163 -0.03953,8.49704 -1.1797,12.57237 -1.024422,3.66161 -2.643385,7.15622 -4.7742,10.30522"
       id="path3929-7-6-8"
       inkscape:path-effect="#path-effect3931-1-8-1"
       inkscape:original-d="m 96.121059,981.15741 c 3.1828,12.10467 -0.4724,0.7948 -1.1797,12.57237 -0.7073,11.77752 -0.1768,4.7436 -4.7742,10.30522"
       inkscape:connector-curvature="0"
       sodipodi:nodetypes="csc" />
    <path
       style="fill:none;fill-rule:evenodd;stroke:#000000;stroke-width:3;stroke-linecap:butt;stroke-linejoin:miter;stroke-opacity:1"
       d="m 99.371059,980.65741 c 0.865541,4.1358 0.803691,8.46299 -0.1797,12.57237 -0.886923,3.70625 -2.520429,7.23222 -4.7742,10.30522"
       id="path3929-7-6-9"
       inkscape:path-effect="#path-effect3931-1-8-8"
       inkscape:original-d="m 99.371059,980.65741 c 3.182801,12.10467 0.5276,0.7948 -0.1797,12.57237 -0.7073,11.77752 -0.1768,4.7436 -4.7742,10.30522"
       inkscape:connector-curvature="0"
       sodipodi:nodetypes="csc" />
    <path
       style="fill:none;fill-rule:evenodd;stroke:#000000;stroke-width:3;stroke-linecap:butt;stroke-linejoin:miter;stroke-opacity:1"
       d="m 112.12106,979.53241 c 0.85202,3.7081 0.8761,7.60402 0.07,11.32237 -0.80862,3.72997 -2.4517,7.2766 -4.7742,10.30522"
       id="path3929-7-6-5"
       inkscape:path-effect="#path-effect3931-1-8-48"
       inkscape:original-d="m 112.12106,979.53241 c 3.1828,12.10467 0.7776,-0.4552 0.07,11.32237 -0.7073,11.77752 -0.1768,4.7436 -4.7742,10.30522"
       inkscape:connector-curvature="0"
       sodipodi:nodetypes="csc" />
    <path
       style="fill:none;fill-rule:evenodd;stroke:#000000;stroke-width:3;stroke-linecap:butt;stroke-linejoin:miter;stroke-opacity:1"
       d="m 114.93356,978.65741 c 1.00689,4.10876 1.05551,8.44919 0.1409,12.57947 -0.64933,2.93232 -1.77969,5.75754 -3.3322,8.3285"
       id="path3929-7-6-87"
       inkscape:path-effect="#path-effect3931-1-8-6"
       inkscape:original-d="m 114.93356,978.65741 c 3.1828,12.10467 0.032,7.54607 0.1409,12.57947 0.1164,5.3747 1.2652,2.7669 -3.3322,8.3285"
       inkscape:connector-curvature="0"
       sodipodi:nodetypes="csc" />
    <ellipse
       style="opacity:1;fill:#000000;fill-opacity:1;stroke:#000000;stroke-width:3;stroke-linecap:round;stroke-linejoin:round;stroke-miterlimit:4;stroke-dasharray:none;stroke-dashoffset:0;stroke-opacity:1"
       id="path4093-69-2-2-6"
       cx="31.616951"
       cy="947.00195"
       rx="0.65949833"
       ry="0.50075179" />
    <ellipse
       style="opacity:1;fill:#000000;fill-opacity:1;stroke:#000000;stroke-width:3;stroke-linecap:round;stroke-linejoin:round;stroke-miterlimit:4;stroke-dasharray:none;stroke-dashoffset:0;stroke-opacity:1"
       id="path4093-69-2-2-63"
       cx="41.866951"
       cy="958.50195"
       rx="0.65949833"
       ry="0.50075179" />
    <ellipse
       style="opacity:1;fill:#000000;fill-opacity:1;stroke:#000000;stroke-width:3;stroke-linecap:round;stroke-linejoin:round;stroke-miterlimit:4;stroke-dasharray:none;stroke-dashoffset:0;stroke-opacity:1"
       id="path4093-69-2-2-9"
       cx="56.116951"
       cy="964.25195"
       rx="0.65949833"
       ry="0.50075179" />
    <ellipse
       style="opacity:1;fill:#000000;fill-opacity:1;stroke:#000000;stroke-width:3;stroke-linecap:round;stroke-linejoin:round;stroke-miterlimit:4;stroke-dasharray:none;stroke-dashoffset:0;stroke-opacity:1"
       id="path4093-69-2-2-7"
       cx="71.366951"
       cy="966.25195"
       rx="0.65949833"
       ry="0.50075179" />
    <ellipse
       style="opacity:1;fill:#000000;fill-opacity:1;stroke:#000000;stroke-width:3;stroke-linecap:round;stroke-linejoin:round;stroke-miterlimit:4;stroke-dasharray:none;stroke-dashoffset:0;stroke-opacity:1"
       id="path4093-69-2-2-73"
       cx="86.616951"
       cy="965.25195"
       rx="0.65949833"
       ry="0.50075179" />
    <ellipse
       style="opacity:1;fill:#000000;fill-opacity:1;stroke:#000000;stroke-width:3;stroke-linecap:round;stroke-linejoin:round;stroke-miterlimit:4;stroke-dasharray:none;stroke-dashoffset:0;stroke-opacity:1"
       id="path4093-69-2-2-2"
       cx="100.75086"
       cy="960.00195"
       rx="0.65949833"
       ry="0.50075179" />
    <ellipse
       style="opacity:1;fill:#000000;fill-opacity:1;stroke:#000000;stroke-width:3;stroke-linecap:round;stroke-linejoin:round;stroke-miterlimit:4;stroke-dasharray:none;stroke-dashoffset:0;stroke-opacity:1"
       id="path4093-69-2-2-67"
       cx="112.0741"
       cy="949.73419"
       rx="0.65949833"
       ry="0.50075179" />
    <path
       style="fill:none;fill-rule:evenodd;stroke:#000000;stroke-width:3px;stroke-linecap:butt;stroke-linejoin:miter;stroke-opacity:1"
       d="m 78.461359,950.30328 c 0.585106,-1.84985 1.61537,-3.55722 2.9792,-4.93718 2.064239,-2.08865 4.822516,-3.37741 7.6559,-4.14907 2.727261,-0.74276 5.574658,-1.04248 8.3968,-0.88387"
       id="path4747"
       inkscape:path-effect="#path-effect4749"
       inkscape:original-d="m 78.461359,950.30328 c 3.8891,-3.7123 -4.7989,-0.87138 2.9792,-4.93718 7.7782,-4.0659 -0.4758,-3.44197 7.6559,-4.14907 8.1317,-0.7071 6.0987,-0.70707 8.3968,-0.88387"
       inkscape:connector-curvature="0"
       sodipodi:nodetypes="cssc" />
    <path
       style="fill:none;fill-rule:evenodd;stroke:#000000;stroke-width:3px;stroke-linecap:butt;stroke-linejoin:miter;stroke-opacity:1"
       d="m 72.808959,950.06398 c 1.319059,-3.26308 3.316144,-6.2503 5.8273,-8.71641 2.217842,-2.17806 4.841161,-3.95304 7.7201,-5.12542 4.088688,-1.66502 8.67594,-2.08217 12.9979,-1.18199"
       id="path4751"
       inkscape:path-effect="#path-effect4753"
       inkscape:original-d="m 72.808959,950.06398 c 4.5961,-6.364 0.8775,-5.71121 5.8273,-8.71641 4.9497,-3.0052 3.1239,-4.06482 7.7201,-5.12542 4.5962,-1.0607 9.6391,-1.35879 12.9979,-1.18199"
       inkscape:connector-curvature="0"
       sodipodi:nodetypes="cscc" />
    <path
       style="fill:none;fill-rule:evenodd;stroke:#000000;stroke-width:3px;stroke-linecap:butt;stroke-linejoin:miter;stroke-opacity:1"
       d="m 50.658859,945.73665 c 1.422071,-6.03323 4.154669,-11.75402 7.9539,-16.65177 2.925238,-3.77105 6.487316,-7.06219 10.5523,-9.56294 8.820866,-5.42653 19.988261,-6.87661 29.9025,-3.88282"
       id="path4755"
       inkscape:path-effect="#path-effect4757"
       inkscape:original-d="m 50.658859,945.73665 c 5.3033,-10.78339 0.5293,-10.99497 7.9539,-16.65177 7.4247,-5.6569 1.0064,-7.08814 10.5523,-9.56294 9.546,-2.4749 27.0741,-4.23642 29.9025,-3.88282"
       inkscape:connector-curvature="0"
       sodipodi:nodetypes="cssc" />
    <path
       style="fill:none;fill-rule:evenodd;stroke:#000000;stroke-width:3px;stroke-linecap:butt;stroke-linejoin:miter;stroke-opacity:1"
       d="m 47.693259,942.57094 c 1.027888,-5.3603 3.143059,-10.50973 6.1798,-15.04487 2.507031,-3.74406 5.647959,-7.07738 9.32,-9.68876 4.569499,-3.24961 9.903974,-5.34127 15.3965,-6.4693 6.569661,-1.34924 13.414685,-1.34256 19.9817,0.0195"
       id="path4759"
       inkscape:path-effect="#path-effect4761"
       inkscape:original-d="m 47.693259,942.57094 c 6.3639,-8.6621 -0.7171,-9.38807 6.1798,-15.04487 6.8943,-5.6569 1.0115,-6.86036 9.32,-9.68876 8.3085,-2.8284 10.8003,-6.6461 15.3965,-6.4693 4.5962,0.1767 16.4462,0.0195 19.9817,0.0195"
       inkscape:connector-curvature="0"
       sodipodi:nodetypes="csscc" />
    <path
       style="fill:none;fill-rule:evenodd;stroke:#000000;stroke-width:3px;stroke-linecap:butt;stroke-linejoin:miter;stroke-opacity:1"
       d="m 55.770459,948.28978 25.798,-33.50206"
       id="path5497-3"
       inkscape:path-effect="#path-effect5499-2"
       inkscape:original-d="m 55.770459,948.28978 25.798,-33.50206"
       inkscape:connector-curvature="0"
       sodipodi:nodetypes="cc" />
    <path
       style="fill:none;fill-rule:evenodd;stroke:#000000;stroke-width:3px;stroke-linecap:butt;stroke-linejoin:miter;stroke-opacity:1"
       d="m 86.771259,914.2132 -26.6422,35.04126"
       id="path5501-41"
       inkscape:path-effect="#path-effect5503-3"
       inkscape:original-d="m 86.771259,914.2132 c 20.242201,24.20449 -18.9755,24.79126 -26.6422,35.04126"
       inkscape:connector-curvature="0"
       sodipodi:nodetypes="cc" />
    <path
       style="fill:none;fill-rule:evenodd;stroke:#000000;stroke-width:3px;stroke-linecap:butt;stroke-linejoin:miter;stroke-opacity:1"
       d="m 64.929559,949.99819 26.3449,-35.85507"
       id="path5505-2"
       inkscape:path-effect="#path-effect5507-6"
       inkscape:original-d="m 64.929559,949.99819 26.3449,-35.85507"
       inkscape:connector-curvature="0"
       sodipodi:nodetypes="cc" />
    <path
       style="fill:none;fill-rule:evenodd;stroke:#000000;stroke-width:3px;stroke-linecap:butt;stroke-linejoin:miter;stroke-opacity:1"
       d="m 95.540859,914.78826 -25.3538,35.31663"
       id="path5509-12"
       inkscape:path-effect="#path-effect5511-9"
       inkscape:original-d="m 95.540859,914.78826 c 18.666001,13.8814 -19.0621,25.27502 -25.3538,35.31663"
       inkscape:connector-curvature="0"
       sodipodi:nodetypes="cc" />
    <path
       style="fill:none;fill-rule:evenodd;stroke:#000000;stroke-width:3px;stroke-linecap:butt;stroke-linejoin:miter;stroke-opacity:1"
       d="M 83.743759,937.55762 99.157859,916.223"
       id="path5513-3"
       inkscape:path-effect="#path-effect5515-66"
       inkscape:original-d="M 83.743759,937.55762 99.157859,916.223"
       inkscape:connector-curvature="0"
       sodipodi:nodetypes="cc" />
    <path
       style="fill:none;fill-rule:evenodd;stroke:#000000;stroke-width:3px;stroke-linecap:butt;stroke-linejoin:miter;stroke-opacity:1"
       d="m 90.572259,934.86173 9.438001,-12.76941"
       id="path5513-3-3"
       inkscape:path-effect="#path-effect5515-66-1"
       inkscape:original-d="m 90.572259,934.86173 9.438001,-12.76941"
       inkscape:connector-curvature="0"
       sodipodi:nodetypes="cc" />
    <path
       style="fill:none;fill-rule:evenodd;stroke:#000000;stroke-width:3px;stroke-linecap:butt;stroke-linejoin:miter;stroke-opacity:1"
       d="m 95.251559,934.53591 5.151201,-6.759"
       id="path5513-3-1"
       inkscape:path-effect="#path-effect5515-66-9"
       inkscape:original-d="m 95.251559,934.53591 5.151201,-6.759"
       inkscape:connector-curvature="0"
       sodipodi:nodetypes="cc" />
    <path
       style="fill:none;fill-rule:evenodd;stroke:#000000;stroke-width:3px;stroke-linecap:butt;stroke-linejoin:miter;stroke-opacity:1"
       d="m 52.305959,946.48902 23.1463,-29.96646"
       id="path5497-3-8"
       inkscape:path-effect="#path-effect5499-2-6"
       inkscape:original-d="m 52.305959,946.48902 23.1463,-29.96646"
       inkscape:connector-curvature="0"
       sodipodi:nodetypes="cc" />
    <path
       style="fill:none;fill-rule:evenodd;stroke:#000000;stroke-width:3px;stroke-linecap:butt;stroke-linejoin:miter;stroke-opacity:1"
       d="m 52.112559,940.95701 17.5337,-21.74635"
       id="path5497-3-0"
       inkscape:path-effect="#path-effect5499-2-3"
       inkscape:original-d="m 52.112559,940.95701 17.5337,-21.74635"
       inkscape:connector-curvature="0"
       sodipodi:nodetypes="cc" />
  </g>
</svg>
