<?xml version="1.0" encoding="UTF-8" standalone="no"?>
<!-- Created with Inkscape (http://www.inkscape.org/) -->

<svg
   xmlns:dc="http://purl.org/dc/elements/1.1/"
   xmlns:cc="http://creativecommons.org/ns#"
   xmlns:rdf="http://www.w3.org/1999/02/22-rdf-syntax-ns#"
   xmlns:svg="http://www.w3.org/2000/svg"
   xmlns="http://www.w3.org/2000/svg"
   xmlns:sodipodi="http://sodipodi.sourceforge.net/DTD/sodipodi-0.dtd"
   xmlns:inkscape="http://www.inkscape.org/namespaces/inkscape"
   width="140"
   height="200"
   viewBox="0 0 140 200"
   id="svg6498"
   version="1.1"
   inkscape:version="0.91 r13725"
   sodipodi:docname="maya-months-14-pax.svg">
  <defs
     id="defs6500">
    <inkscape:path-effect
       effect="spiro"
       id="path-effect5511-4-3-0-07-6-7"
       is_visible="true" />
    <inkscape:path-effect
       effect="spiro"
       id="path-effect5511-4-3-0-0-0-3"
       is_visible="true" />
    <inkscape:path-effect
       effect="spiro"
       id="path-effect5511-4-3-0-4-9-8"
       is_visible="true" />
    <inkscape:path-effect
       effect="spiro"
       id="path-effect5511-4-3-0-6-5-4"
       is_visible="true" />
    <inkscape:path-effect
       effect="spiro"
       id="path-effect5511-4-3-0-70-5-6"
       is_visible="true" />
    <inkscape:path-effect
       effect="spiro"
       id="path-effect5511-4-3-0-7-1-2"
       is_visible="true" />
    <inkscape:path-effect
       effect="spiro"
       id="path-effect4152-3-2-6-0"
       is_visible="true" />
    <inkscape:path-effect
       effect="spiro"
       id="path-effect4152-3-1-7-1"
       is_visible="true" />
    <inkscape:path-effect
       effect="spiro"
       id="path-effect5511-4-3-0-5-3-6"
       is_visible="true" />
    <inkscape:path-effect
       effect="spiro"
       id="path-effect5511-4-3-0-05-0-7"
       is_visible="true" />
    <inkscape:path-effect
       effect="spiro"
       id="path-effect5511-4-3-0-09-7-8"
       is_visible="true" />
    <inkscape:path-effect
       effect="spiro"
       id="path-effect4152-3-45-8"
       is_visible="true" />
    <inkscape:path-effect
       effect="spiro"
       id="path-effect5519-4-6-1-4-1"
       is_visible="true" />
    <inkscape:path-effect
       effect="spiro"
       id="path-effect5511-4-3-0-55-5"
       is_visible="true" />
    <inkscape:path-effect
       effect="spiro"
       id="path-effect4152-3-15-2"
       is_visible="true" />
    <inkscape:path-effect
       effect="spiro"
       id="path-effect4152-3-2-6"
       is_visible="true" />
    <inkscape:path-effect
       effect="spiro"
       id="path-effect4152-3-1-7"
       is_visible="true" />
    <inkscape:path-effect
       effect="spiro"
       id="path-effect5511-4-3-0-5-3"
       is_visible="true" />
    <inkscape:path-effect
       effect="spiro"
       id="path-effect5511-4-3-0-05-0"
       is_visible="true" />
    <inkscape:path-effect
       effect="spiro"
       id="path-effect5511-4-3-0-09-7"
       is_visible="true" />
    <inkscape:path-effect
       effect="spiro"
       id="path-effect5511-4-3-0-07-6"
       is_visible="true" />
    <inkscape:path-effect
       effect="spiro"
       id="path-effect5511-4-3-0-0-0"
       is_visible="true" />
    <inkscape:path-effect
       effect="spiro"
       id="path-effect5511-4-3-0-4-9"
       is_visible="true" />
    <inkscape:path-effect
       effect="spiro"
       id="path-effect5511-4-3-0-6-5"
       is_visible="true" />
    <inkscape:path-effect
       effect="spiro"
       id="path-effect5511-4-3-0-70-5"
       is_visible="true" />
    <inkscape:path-effect
       effect="spiro"
       id="path-effect5511-4-3-0-7-1"
       is_visible="true" />
    <inkscape:path-effect
       effect="spiro"
       id="path-effect4152-3-45"
       is_visible="true" />
    <inkscape:path-effect
       effect="spiro"
       id="path-effect5519-4-6-1-4"
       is_visible="true" />
    <inkscape:path-effect
       effect="spiro"
       id="path-effect5511-4-3-0-55"
       is_visible="true" />
    <inkscape:path-effect
       effect="spiro"
       id="path-effect6103-45"
       is_visible="true" />
    <inkscape:path-effect
       effect="spiro"
       id="path-effect6103-4"
       is_visible="true" />
    <inkscape:path-effect
       effect="spiro"
       id="path-effect6103-2"
       is_visible="true" />
    <inkscape:path-effect
       effect="spiro"
       id="path-effect6103"
       is_visible="true" />
    <inkscape:path-effect
       effect="spiro"
       id="path-effect6081-7"
       is_visible="true" />
    <inkscape:path-effect
       effect="spiro"
       id="path-effect6081"
       is_visible="true" />
    <inkscape:path-effect
       effect="spiro"
       id="path-effect6052-0"
       is_visible="true" />
    <inkscape:path-effect
       effect="spiro"
       id="path-effect6052"
       is_visible="true" />
    <inkscape:path-effect
       effect="spiro"
       id="path-effect6030-1"
       is_visible="true" />
    <inkscape:path-effect
       effect="spiro"
       id="path-effect6030"
       is_visible="true" />
    <inkscape:path-effect
       effect="spiro"
       id="path-effect6008-0"
       is_visible="true" />
    <inkscape:path-effect
       effect="spiro"
       id="path-effect6008"
       is_visible="true" />
    <inkscape:path-effect
       effect="spiro"
       id="path-effect5986-2"
       is_visible="true" />
    <inkscape:path-effect
       effect="spiro"
       id="path-effect5986"
       is_visible="true" />
    <inkscape:path-effect
       effect="spiro"
       id="path-effect5982"
       is_visible="true" />
    <inkscape:path-effect
       effect="spiro"
       id="path-effect5937"
       is_visible="true" />
    <inkscape:path-effect
       effect="spiro"
       id="path-effect5077-2-6-9"
       is_visible="true" />
  </defs>
  <sodipodi:namedview
     id="base"
     pagecolor="#ffffff"
     bordercolor="#666666"
     borderopacity="1.0"
     inkscape:pageopacity="0.0"
     inkscape:pageshadow="2"
     inkscape:zoom="1.4"
     inkscape:cx="1.7354159"
     inkscape:cy="119.64466"
     inkscape:document-units="px"
     inkscape:current-layer="layer1"
     showgrid="false"
     units="px"
     inkscape:window-width="1024"
     inkscape:window-height="704"
     inkscape:window-x="0"
     inkscape:window-y="27"
     inkscape:window-maximized="1" />
  <metadata
     id="metadata6503">
    <rdf:RDF>
      <cc:Work
         rdf:about="">
        <dc:format>image/svg+xml</dc:format>
        <dc:type
           rdf:resource="http://purl.org/dc/dcmitype/StillImage" />
        <dc:title></dc:title>
      </cc:Work>
    </rdf:RDF>
  </metadata>
  <g
     inkscape:label="Calque 1"
     inkscape:groupmode="layer"
     id="layer1"
     transform="translate(0,-852.36216)">
    <path
       style="fill:none;fill-rule:evenodd;stroke:#000000;stroke-width:3px;stroke-linecap:butt;stroke-linejoin:miter;stroke-opacity:1"
       d="m 44.390664,861.86527 c -3.2598,0.7513 -6.9234,2.6204 -10.9622,4.1027 -4.0388,1.4824 -8.3203,2.4454 -10.9598,4.4782 -5.1114,3.9364 -8.7959,8.2903 -11.7109,14.0457 -2.9149004,5.7555 -4.7325004,12.024 -5.7988004,18.3868 -2.1326,12.7255 -1.2983,25.7305 -1.1621,38.6328 0.1232,11.6721 -0.3236,23.4349 1.707,34.9297 2.0307,11.4947 6.8379004,22.9398 15.7266004,30.50583 7.0987,6.0424 16.2853,9.177 25.5059,10.5488 9.2205,1.3719 18.5939,1.1077 27.916,1.0977 7.0189,-0.01 14.358,-0.3694 21.3222,-1.2441 6.964206,-0.8747 12.558506,-3.1986 18.427706,-7.048 5.08419,-3.3346 9.74249,-8.1978 12.79199,-13.45803 3.0495,-5.2602 4.6928,-10.5565 5.9433,-16.5068 2.501,-11.9005 2.9375,-23.6595 3.0675,-35.8193 0.1452,-13.5784 1.0172,-27.2789 -1.3926,-40.6425 -1.2049,-6.6819 -3.2418,-13.2511 -6.4726,-19.2227 -3.2309,-5.9716 -7.6877,-11.3385 -13.25779,-15.2207 -5.9506,-4.1474 -8.2721,-6.4987 -15.411906,-7.7774 -1.0914,-0.1955 -3.0336,-0.576 -5.0447,-0.644 -2.0112,-0.068 -3.9807,-0.067 -5.1269,0.029"
       id="path4462-4-0-0-2"
       inkscape:connector-curvature="0"
       sodipodi:nodetypes="csccssssccsssssscscsc" />
    <path
       style="fill:none;fill-rule:evenodd;stroke:#000000;stroke-width:3;stroke-linecap:butt;stroke-linejoin:miter;stroke-opacity:1"
       d="m 30.451164,1012.8962 c -6.269085,-0.3513 -12.632547,2.5519 -16.4761,7.517 -2.412589,3.1166 -3.848471,7.0033 -3.906818,10.9441 -0.05835,3.9408 1.286325,7.9101 3.830818,10.9199 1.77979,2.1053 4.117857,3.7256 6.6956,4.7029 3.924824,1.488 8.229808,1.4733 12.424,1.6382 3.405378,0.1339 6.865349,0.3938 10.1816,-0.3917 3.254723,-0.7709 6.26036,-2.5608 8.488838,-5.055 2.228477,-2.4943 3.669754,-5.6818 4.070606,-9.0025 0.400852,-3.3206 -0.240527,-6.7595 -1.81145,-9.7125 -1.570924,-2.9529 -4.064313,-5.4065 -7.042094,-6.9298"
       id="path5075-3-3-0"
       inkscape:path-effect="#path-effect5077-2-6-9"
       inkscape:original-d="m 30.451164,1012.8962 c -6.2038,5.6657 -14.5058,4.1736 -16.4761,7.517 -1.9702,3.3433 -0.505,7.5925 -0.076,21.864 0.4288,14.2714 -5.9154004,4.5578 6.6956,4.7029 5.5652,0 9.8076,1.0251 12.424,1.6382 2.6164,0.6131 5.1096,0.9026 10.1816,-0.3917 10.1441,-2.5886 7.822,-30.0374 3.7059,-30.6998"
       inkscape:connector-curvature="0"
       sodipodi:nodetypes="czzcssc" />
    <path
       style="fill:none;fill-rule:evenodd;stroke:#000000;stroke-width:3;stroke-linecap:butt;stroke-linejoin:miter;stroke-opacity:1"
       d="m 127.74896,1021.3948 c -3.05774,-4.0029 -7.67608,-6.8486 -12.67199,-7.4917 -3.64104,-0.4687 -7.36697,0.2125 -10.7908,1.537 -2.81921,1.0906 -5.5148,2.6528 -7.512306,4.9216 -2.740295,3.1124 -3.958239,7.3296 -4.1807,11.4705 -0.225095,4.1899 0.549588,8.554 2.932,12.008 1.241607,1.8001 2.903981,3.3175 4.841896,4.3306 2.16795,1.1333 4.62463,1.617 7.06585,1.7745 2.44123,0.1576 4.89012,0 7.33536,-0.07 2.13298,-0.063 4.27607,-0.064 6.38552,-0.386 2.10944,-0.3222 4.20793,-0.9857 5.92517,-2.2524 1.49098,-1.0998 2.6435,-2.622 3.43869,-4.2954 0.79519,-1.6735 1.24386,-3.4965 1.47201,-5.3351 0.70541,-5.6848 -0.76331,-11.6598 -4.2407,-16.212 z"
       id="path5935"
       inkscape:original-d="m 127.74896,1021.3948 c -4.7073,-3.7511 -7.0517,-7.5737 -12.67199,-7.4917 -2.8101,0.041 -10.1407,-2.2232 -10.7908,1.537 -1.3677,7.9115 -6.887806,1.9576 -7.512306,4.9216 -1.249,5.928 -2.0575,8.9253 -4.1807,11.4705 -2.1231,2.5452 -5.5609,6.8883 2.932,12.008 8.492806,5.1196 -0.6197,-5.782 4.841896,4.3306 1.36611,2.5294 7.65691,5.4773 14.40121,1.7049 6.74429,-3.7723 11.18409,-1.7135 12.31069,-2.6384 1.1265,-0.9248 2.1771,-0.5907 4.9107,-9.6305 2.4135,-7.9814 0.2492,-12.6342 -4.2407,-16.212 z"
       inkscape:connector-curvature="0"
       sodipodi:nodetypes="sssssssssss"
       inkscape:path-effect="#path-effect5937" />
    <path
       style="fill:none;fill-rule:evenodd;stroke:#000000;stroke-width:3;stroke-linecap:butt;stroke-linejoin:miter;stroke-opacity:1"
       d="m 55.160364,1036.8586 c -0.4635,4.0713 -0.089,5.161 1.2154,7.2263 1.2971,2.0544 3.695,3.3284 5.9698,4.1819 3.4608,1.2984 7.8942,1.1277 11.0258,1.1822 3.0085,0.052 7.0402,0.065 10.4363,-0.7275 2.4059,-0.5612 5.3813,-1.3939 6.8584,-2.8088 1.4772,-1.415 1.7789,-2.1627 2.0343,-4.4157 0.2553,-2.253 0.1179,-4.5314 -0.085,-6.7897 -0.3913,-4.3579 -1.0744,-8.8353 -3.3669,-12.562 l 6e-4,0 0,0 c -1.0836,-1.7615 -1.8476,-2.6883 -3.5039,-3.9273"
       id="path5978"
       inkscape:connector-curvature="0"
       sodipodi:nodetypes="caacazcccccc" />
    <path
       style="fill:none;fill-rule:evenodd;stroke:#000000;stroke-width:3;stroke-linecap:butt;stroke-linejoin:miter;stroke-opacity:1"
       d="m 62.849664,1018.5723 c -1.5665,1.1666 -2.7472,0.7129 -4.5783,3.2742 -1.8311,2.5613 -2.0494,3.0076 -2.5715,7.3318"
       id="path5969"
       inkscape:connector-curvature="0"
       sodipodi:nodetypes="csc" />
    <path
       style="fill:none;fill-rule:evenodd;stroke:#000000;stroke-width:3px;stroke-linecap:butt;stroke-linejoin:miter;stroke-opacity:1"
       d="m 4.1166636,943.35158 c 11.2145834,-0.37125 22.4307534,-0.69456 33.6481004,-0.96991 19.494092,-0.47852 38.99505,-0.8122 58.4937,-0.5858 13.309906,0.15454 26.616776,0.57008 39.910396,1.24629"
       id="path5980"
       inkscape:path-effect="#path-effect5982"
       inkscape:original-d="m 4.1166636,943.35158 c 18.7383004,-1.7678 38.9678004,6.82488 33.6481004,-0.96991 -4.7761,-6.99828 43.9981,-2.3536 58.4937,-0.5858 14.495706,1.7677 30.364396,-0.87501 39.910396,1.24629"
       inkscape:connector-curvature="0"
       sodipodi:nodetypes="cssc" />
    <path
       style="fill:none;fill-rule:evenodd;stroke:#000000;stroke-width:3px;stroke-linecap:butt;stroke-linejoin:miter;stroke-opacity:1"
       d="m 4.2579636,967.65107 c 4.0539181,1.50801 8.5904384,1.68591 12.7500004,0.5 2.116889,-0.60354 4.18771,-1.58957 5.668,-3.21875 1.498197,-1.64888 2.276888,-3.81944 2.8633,-5.96875 1.422447,-5.21353 1.922049,-10.67745 1.4687,-16.0625"
       id="path5984"
       inkscape:path-effect="#path-effect5986"
       inkscape:original-d="m 4.2579636,967.65107 c 13.0000004,0.75 9.0000004,4 12.7500004,0.5 0.9375,-0.875 4.2656,-2.04687 5.668,-3.21875 1.4023,-1.17187 2.6289,-4.09375 2.8633,-5.96875 0.4688,-3.74999 1.4687,-13.0625 1.4687,-16.0625"
       inkscape:connector-curvature="0"
       sodipodi:nodetypes="csssc" />
    <path
       style="fill:none;fill-rule:evenodd;stroke:#000000;stroke-width:3px;stroke-linecap:butt;stroke-linejoin:miter;stroke-opacity:1"
       d="m 134.99576,966.65107 c -4.05392,1.50798 -8.59043,1.68589 -12.75,0.5 -2.11688,-0.60352 -4.1877,-1.58954 -5.66799,-3.2187 -1.49821,-1.64889 -2.2769,-3.81947 -2.8633,-5.9688 -1.42242,-5.21354 -1.92202,-10.67745 -1.4687,-16.0625"
       id="path5984-7"
       inkscape:path-effect="#path-effect5986-2"
       inkscape:original-d="m 134.99576,966.65107 c -13,0.75 -9,4 -12.75,0.5 -0.9375,-0.875 -4.26559,-2.0468 -5.66799,-3.2187 -1.4023,-1.1719 -2.6289,-4.0938 -2.8633,-5.9688 -0.4688,-3.7499 -1.4687,-13.0625 -1.4687,-16.0625"
       inkscape:connector-curvature="0"
       sodipodi:nodetypes="csssc" />
    <path
       style="fill:none;fill-rule:evenodd;stroke:#000000;stroke-width:3px;stroke-linecap:butt;stroke-linejoin:miter;stroke-opacity:1"
       d="m 53.757964,968.65107 c 2.149496,2.98338 5.18824,5.31749 8.625,6.625 2.452295,0.93297 5.094892,1.34806 7.7173,1.2634 3.736463,-0.12062 7.450739,-1.27245 10.5327,-3.3884 1.73301,-1.18981 3.261852,-2.67619 4.5,-4.375"
       id="path6006"
       inkscape:path-effect="#path-effect6008"
       inkscape:original-d="m 53.757964,968.65107 c 3.9623,3.2564 4.4324,7.2104 8.625,6.625 3.375,-0.5 6.2178,0.5194 7.7173,1.2634 1.4996,0.7441 6.6537,-0.6072 10.5327,-3.3884 2.2083,-1.5833 -9.0043,0.2891 4.5,-4.375"
       inkscape:connector-curvature="0"
       sodipodi:nodetypes="ccssc" />
    <path
       style="fill:none;fill-rule:evenodd;stroke:#000000;stroke-width:3px;stroke-linecap:butt;stroke-linejoin:miter;stroke-opacity:1"
       d="m 54.257964,992.38297 c 2.149496,-2.98338 5.18824,-5.31749 8.625,-6.625 2.452295,-0.93297 5.094892,-1.34806 7.7173,-1.2634 3.736463,0.12062 7.450739,1.27245 10.5327,3.3884 1.73301,1.18981 3.261852,2.67619 4.5,4.375"
       id="path6006-1"
       inkscape:path-effect="#path-effect6008-0"
       inkscape:original-d="m 54.257964,992.38297 c 3.9623,-3.2564 4.4324,-7.2104 8.625,-6.625 3.375,0.5 6.2178,-0.5193 7.7173,-1.2634 1.4996,-0.744 6.6537,0.6073 10.5327,3.3884 2.2083,1.5833 -9.0043,-0.289 4.5,4.375"
       inkscape:connector-curvature="0"
       sodipodi:nodetypes="ccssc" />
    <path
       style="fill:none;fill-rule:evenodd;stroke:#000000;stroke-width:3px;stroke-linecap:butt;stroke-linejoin:miter;stroke-opacity:1"
       d="m 62.132964,975.40107 c -1.326341,1.17712 -2.191141,2.8612 -2.375,4.625 -0.229559,2.20221 0.629016,4.49174 2.25,6"
       id="path6028"
       inkscape:path-effect="#path-effect6030"
       inkscape:original-d="m 62.132964,975.40107 c -1.5,2.375 -2.625,2.25 -2.375,4.625 0.25,2.375 0.5,4.625 2.25,6"
       inkscape:connector-curvature="0"
       sodipodi:nodetypes="csc" />
    <path
       style="fill:none;fill-rule:evenodd;stroke:#000000;stroke-width:3px;stroke-linecap:butt;stroke-linejoin:miter;stroke-opacity:1"
       d="m 76.459064,975.15107 c 1.326341,1.17712 2.191141,2.8612 2.375,4.625 0.229559,2.20221 -0.629016,4.49174 -2.25,6"
       id="path6028-8"
       inkscape:path-effect="#path-effect6030-1"
       inkscape:original-d="m 76.459064,975.15107 c 1.5,2.375 2.625,2.25 2.375,4.625 -0.25,2.375 -0.5,4.625 -2.25,6"
       inkscape:connector-curvature="0"
       sodipodi:nodetypes="csc" />
    <path
       style="fill:none;fill-rule:evenodd;stroke:#000000;stroke-width:3px;stroke-linecap:butt;stroke-linejoin:miter;stroke-opacity:1"
       d="m 64.866664,941.57785 c 0.09753,-8.2669 0.152561,-16.53431 0.1651,-24.80178 0.01049,-6.91735 -0.0088,-13.83583 -0.2187,-20.75 -0.171833,-5.65978 -0.471355,-11.31485 -0.7813,-16.96875 -0.118117,-2.15464 -0.238758,-4.31744 -0.65504,-6.43478 -0.416283,-2.11734 -1.141028,-4.20205 -2.37616,-5.97147 -1.305152,-1.86973 -3.159851,-3.33862 -5.25,-4.25 -3.425006,-1.49342 -7.360904,-1.47231 -11,-0.625 -4.740209,1.10369 -9.074598,3.52284 -13.75,4.875 -1.903797,0.55059 -3.876131,0.92351 -5.857272,0.87179 -1.98114,-0.0517 -3.978373,-0.54591 -5.642728,-1.62179 -1.962433,-1.26856 -3.388979,-3.33935 -3.875,-5.625 2.957413,-0.54668 5.915752,-1.08834 8.875,-1.625 8.456911,-1.53365 16.935507,-3.02827 25.5,-3.75 2.052784,-0.17299 4.124064,-0.30109 6.168458,-0.0475 2.044393,0.25357 4.077956,0.91094 5.706542,2.17251 1.321703,1.02384 2.331587,2.41027 3.079702,3.90543 0.748116,1.49515 1.246238,3.10237 1.670298,4.71957 2.848516,10.86313 2.453554,22.26989 2.375,33.5 -0.06645,9.50035 0.10766,19.00049 0.25,28.5 0.07023,4.68739 0.132735,9.3749 0.1875,14.0625"
       id="path6050"
       inkscape:path-effect="#path-effect6052"
       inkscape:original-d="m 64.866664,941.57785 c 0.25,-6.87501 0.6339,-16.30178 0.1651,-24.80178 -0.4687,-8.5 -0.3437,-15.875 -0.2187,-20.75 0.125,-4.875 -1.4375,-12.1875 -0.7813,-16.96875 0.6563,-4.78125 -2.7812,-9.15625 -3.0312,-12.40625 -0.5,-6.5 -3,-0.75 -5.25,-4.25 -2.25,-3.5 -6.25,-1.125 -11,-0.625 -4.75,0.5 -0.25,4.875 -13.75,4.875 -13.5,0 -11.5,1.75 -11.5,-0.75 0,-2.5 -3.875,-5.625 -3.875,-5.625 0,0 -0.125,-1.625 8.875,-1.625 9,0 16.75,-4.75 25.5,-3.75 8.75,1 7.375,-3.875 11.875,2.125 4.5,6 3.5,-11.375 4.75,8.625 1.25,20 1.2664,21.25935 2.375,33.5 0.9501,10.49055 -0.75,21.25 0.25,28.5 1,7.25 -1.0625,12.8125 0.1875,14.0625"
       inkscape:connector-curvature="0"
       sodipodi:nodetypes="csssssssscssssssc" />
    <path
       style="fill:none;fill-rule:evenodd;stroke:#000000;stroke-width:3px;stroke-linecap:butt;stroke-linejoin:miter;stroke-opacity:1"
       d="m 73.851064,941.29755 c -0.09247,-8.09017 -0.14751,-16.18077 -0.1651,-24.27145 -0.01504,-6.91738 -0.0027,-13.83614 0.2187,-20.75 0.18122,-5.65945 0.50243,-11.31333 0.7813,-16.9688 0.106408,-2.15794 0.207686,-4.32507 0.617929,-6.44633 0.410242,-2.12126 1.144297,-4.21123 2.413271,-5.95987 1.874151,-2.58258 4.805577,-4.25277 7.875,-5.125 3.555235,-1.01028 7.326896,-1.03569 11,-0.625 4.963576,0.55498 9.817006,1.88873 14.500006,3.625 1.76008,0.65257 3.51956,1.36788 5.37903,1.62502 0.92973,0.12857 1.88063,0.13979 2.80346,-0.0314 0.92284,-0.17119 1.81781,-0.52892 2.5675,-1.09363 0.91019,-0.68561 1.5886,-1.6735 1.90165,-2.76917 0.31305,-1.09568 0.25895,-2.29286 -0.15165,-3.35583 -2.99745,-0.43477 -5.99751,-0.85144 -8.99999,-1.25 -8.5995,-1.14152 -17.221919,-2.13466 -25.875006,-2.75 -2.052983,-0.14599 -4.121365,-0.27036 -6.16448,-0.0219 -2.043115,0.24846 -4.079006,0.89222 -5.71052,2.1469 -1.325678,1.01948 -2.337391,2.40617 -3.084962,3.90213 -0.747571,1.49596 -1.2431,3.10462 -1.665038,4.72287 -2.833328,10.8666 -2.449741,22.27035 -2.375,33.5 0.06323,9.50036 -0.108461,19.00048 -0.25,28.5 -0.06984,4.6874 -0.13234,9.37491 -0.1875,14.0625"
       id="path6050-9"
       inkscape:path-effect="#path-effect6052-0"
       inkscape:original-d="m 73.851064,941.29755 c -0.25,-6.87501 -0.6339,-15.77145 -0.1651,-24.27145 0.4687,-8.5 0.3437,-15.875 0.2187,-20.75 -0.125,-4.875 1.4375,-12.1875 0.7813,-16.9688 -0.6563,-4.7812 2.7812,-9.1562 3.0312,-12.4062 0.5,-6.5 5.625,-1.625 7.875,-5.125 2.25,-3.5 6.25,-1.125 11,-0.625 4.750006,0.5 1,3.625 14.500006,3.625 13.49999,0 10.74999,3 10.74999,0.5 0,-2.5 1.75,-6.125 1.75,-6.125 0,0 0,-1.25 -8.99999,-1.25 -9,0 -17.125006,-3.75 -25.875006,-2.75 -8.75,1 -7.375,-3.875 -11.875,2.125 -4.5,6 -3.5,-11.375 -4.75,8.625 -1.25,20 -1.2664,21.2593 -2.375,33.5 -0.9501,10.4905 0.75,21.25 -0.25,28.5 -1,7.25 1.0625,12.8125 -0.1875,14.0625"
       inkscape:connector-curvature="0"
       sodipodi:nodetypes="csssssssscssssssc" />
    <path
       style="fill:none;fill-rule:evenodd;stroke:#000000;stroke-width:3px;stroke-linecap:butt;stroke-linejoin:miter;stroke-opacity:1"
       d="m 8.1329636,942.65107 c -0.2109818,-8.41539 -0.1692901,-16.83711 0.125,-25.25 0.1771511,-5.06423 0.4478696,-10.14321 1.3749998,-15.125 0.9936626,-5.33929 2.7539356,-10.56444 5.5000006,-15.25 3.038796,-5.18504 7.289051,-9.67311 12.375,-12.875 4.543057,-2.86011 9.674701,-4.66716 14.875,-6 5.768787,-1.47854 11.679995,-2.40086 17.625,-2.75"
       id="path6079"
       inkscape:path-effect="#path-effect6081"
       inkscape:original-d="m 8.1329636,942.65107 c 0.4999998,-11.5 -1.875,-14.75 0.125,-25.25 1.9999994,-10.5 -2.125,-3.125 1.3749998,-15.125 3.5000006,-12 -1,-8.75 5.5000006,-15.25 6.5,-6.5 2.875,-7.875 12.375,-12.875 9.5,-5 28.2675,-8.26717 14.875,-6 -9.7166,1.64488 11.125,-1.75 17.625,-2.75"
       inkscape:connector-curvature="0"
       sodipodi:nodetypes="csssssc" />
    <path
       style="fill:none;fill-rule:evenodd;stroke:#000000;stroke-width:3px;stroke-linecap:butt;stroke-linejoin:miter;stroke-opacity:1"
       d="m 131.03016,943.15108 c 0.23087,-8.41507 0.18918,-16.83762 -0.125,-25.25 -0.1891,-5.06324 -0.47863,-10.13815 -1.375,-15.125 -0.96167,-5.35011 -2.64486,-10.62435 -5.5,-15.25 -3.1445,-5.09445 -7.61035,-9.25016 -12.37499,-12.875 -4.47375,-3.40354 -9.30943,-6.42156 -14.625006,-8.25 -5.524772,-1.90039 -11.503009,-2.46761 -17.2866,-1.64016"
       id="path6079-4"
       inkscape:path-effect="#path-effect6081-7"
       inkscape:original-d="m 131.03016,943.15108 c -0.5,-11.5 1.875,-14.75 -0.125,-25.25 -2,-10.5 2.125,-3.125 -1.375,-15.125 -3.5,-12 1,-8.75 -5.5,-15.25 -6.49999,-6.5 -2.875,-7.875 -12.37499,-12.875 -9.5,-5 -28.017506,-10.5171 -14.625006,-8.25 9.716606,1.6449 -10.7866,-0.64016 -17.2866,-1.64016"
       inkscape:connector-curvature="0"
       sodipodi:nodetypes="csssssc" />
    <path
       style="fill:none;fill-rule:evenodd;stroke:#000000;stroke-width:3px;stroke-linecap:butt;stroke-linejoin:miter;stroke-opacity:1"
       d="m 33.682564,871.27078 c 0.07665,12.02066 0.07669,24.04181 1e-4,36.06247 -0.0739,11.59899 -0.219136,23.19753 -0.4357,34.79473"
       id="path6101"
       inkscape:path-effect="#path-effect6103"
       inkscape:original-d="m 33.682564,871.27078 c 1.0607,20.1526 0.7072,20.50617 1e-4,36.06247 -0.7071,15.5564 -0.7893,28.78433 -0.4357,34.79473"
       inkscape:connector-curvature="0"
       sodipodi:nodetypes="csc" />
    <path
       style="fill:none;fill-rule:evenodd;stroke:#000000;stroke-width:3px;stroke-linecap:butt;stroke-linejoin:miter;stroke-opacity:1"
       d="m 103.59417,869.40839 c 0.12505,12.43284 0.15439,24.86665 0.088,37.29994 -0.0619,11.59908 -0.20717,23.19771 -0.4357,34.7947"
       id="path6101-2"
       inkscape:path-effect="#path-effect6103-2"
       inkscape:original-d="m 103.59417,869.40839 c 1.0607,20.1526 0.7956,21.74364 0.088,37.29994 -0.7071,15.5564 -0.7893,28.7843 -0.4357,34.7947"
       inkscape:connector-curvature="0"
       sodipodi:nodetypes="csc" />
    <path
       style="fill:none;fill-rule:evenodd;stroke:#000000;stroke-width:3px;stroke-linecap:butt;stroke-linejoin:miter;stroke-opacity:1"
       d="m 96.453964,866.10141 c 0.272159,13.49204 0.390069,26.98719 0.3537,40.48192 -0.03126,11.59929 -0.176503,23.19827 -0.4357,34.7947"
       id="path6101-1"
       inkscape:path-effect="#path-effect6103-4"
       inkscape:original-d="m 96.453964,866.10141 c 1.0607,20.1526 1.0608,24.92562 0.3537,40.48192 -0.7071,15.5564 -0.7893,28.7843 -0.4357,34.7947"
       inkscape:connector-curvature="0"
       sodipodi:nodetypes="csc" />
    <path
       style="fill:none;fill-rule:evenodd;stroke:#000000;stroke-width:3px;stroke-linecap:butt;stroke-linejoin:miter;stroke-opacity:1"
       d="m 41.120064,868.64583 c -0.07394,12.89605 -0.178077,25.79193 -0.3124,38.6875 -0.120812,11.59852 -0.266046,23.19679 -0.4357,34.7947"
       id="path6101-5"
       inkscape:path-effect="#path-effect6103-45"
       inkscape:original-d="m 41.120064,868.64583 c 1.0607,20.1526 0.3947,23.1312 -0.3124,38.6875 -0.7071,15.5564 -0.7893,28.7843 -0.4357,34.7947"
       inkscape:connector-curvature="0"
       sodipodi:nodetypes="csc" />
    <path
       style="fill:none;fill-rule:evenodd;stroke:#000000;stroke-width:3px;stroke-linecap:butt;stroke-linejoin:miter;stroke-opacity:1"
       d="m 54.401664,865.72974 -13.2945,20.21051"
       id="path5509-0-1-0-20"
       inkscape:path-effect="#path-effect5511-4-3-0-55"
       inkscape:original-d="m 54.401664,865.72974 c 18.666,13.8814 -7.0029,10.16881 -13.2945,20.21051"
       inkscape:connector-curvature="0"
       sodipodi:nodetypes="cc" />
    <path
       style="fill:none;fill-rule:evenodd;stroke:#000000;stroke-width:3px;stroke-linecap:butt;stroke-linejoin:miter;stroke-opacity:1"
       d="m 59.188364,865.41804 -18.2577,28.28939"
       id="path5517-5-5-4-8"
       inkscape:path-effect="#path-effect5519-4-6-1-4"
       inkscape:original-d="m 59.188364,865.41804 -18.2577,28.28939"
       inkscape:connector-curvature="0"
       sodipodi:nodetypes="cc" />
    <path
       style="fill:none;fill-rule:evenodd;stroke:#000000;stroke-width:3px;stroke-linecap:butt;stroke-linejoin:miter;stroke-opacity:1"
       d="m 40.935464,878.77333 7.5201,-12.03548"
       id="path4150-3-0"
       inkscape:path-effect="#path-effect4152-3-45"
       inkscape:original-d="m 40.935464,878.77333 7.5201,-12.03548"
       inkscape:connector-curvature="0"
       sodipodi:nodetypes="cc" />
    <path
       style="fill:none;fill-rule:evenodd;stroke:#000000;stroke-width:3px;stroke-linecap:butt;stroke-linejoin:miter;stroke-opacity:1"
       d="m 61.835964,868.08186 -20.9132,33.02"
       id="path5509-0-1-0-1-5"
       inkscape:path-effect="#path-effect5511-4-3-0-7-1"
       inkscape:original-d="m 61.835964,868.08186 c 128.692996,-206.17274 -14.6216,22.9783 -20.9132,33.02"
       inkscape:connector-curvature="0"
       sodipodi:nodetypes="cc" />
    <path
       style="fill:none;fill-rule:evenodd;stroke:#000000;stroke-width:3px;stroke-linecap:butt;stroke-linejoin:miter;stroke-opacity:1"
       d="m 63.324664,872.76049 -22.4019,36.1217"
       id="path5509-0-1-0-0-0"
       inkscape:path-effect="#path-effect5511-4-3-0-70-5"
       inkscape:original-d="m 63.324664,872.76049 c 18.6661,13.8814 -16.1103,26.08 -22.4019,36.1217"
       inkscape:connector-curvature="0"
       sodipodi:nodetypes="cc" />
    <path
       style="fill:none;fill-rule:evenodd;stroke:#000000;stroke-width:3px;stroke-linecap:butt;stroke-linejoin:miter;stroke-opacity:1"
       d="m 63.949664,878.51677 -23.2769,37.9342"
       id="path5509-0-1-0-8-7"
       inkscape:path-effect="#path-effect5511-4-3-0-6-5"
       inkscape:original-d="m 63.949664,878.51677 c 18.6661,13.8814 -16.9853,27.8925 -23.2769,37.9342"
       inkscape:connector-curvature="0"
       sodipodi:nodetypes="cc" />
    <path
       style="fill:none;fill-rule:evenodd;stroke:#000000;stroke-width:3px;stroke-linecap:butt;stroke-linejoin:miter;stroke-opacity:1"
       d="m 64.322464,885.25919 -23.7457,38.4967"
       id="path5509-0-1-0-6-8"
       inkscape:path-effect="#path-effect5511-4-3-0-4-9"
       inkscape:original-d="m 64.322464,885.25919 c 18.6661,13.8814 -17.4541,28.455 -23.7457,38.4967"
       inkscape:connector-curvature="0"
       sodipodi:nodetypes="cc" />
    <path
       style="fill:none;fill-rule:evenodd;stroke:#000000;stroke-width:3px;stroke-linecap:butt;stroke-linejoin:miter;stroke-opacity:1"
       d="m 64.596164,892.67394 -24.1519,37.8092"
       id="path5509-0-1-0-02-7"
       inkscape:path-effect="#path-effect5511-4-3-0-0-0"
       inkscape:original-d="m 64.596164,892.67394 c 18.6661,13.8814 -17.8603,27.7675 -24.1519,37.8092"
       inkscape:connector-curvature="0"
       sodipodi:nodetypes="cc" />
    <path
       style="fill:none;fill-rule:evenodd;stroke:#000000;stroke-width:3px;stroke-linecap:butt;stroke-linejoin:miter;stroke-opacity:1"
       d="m 64.783664,899.26677 -24.2769,38.74671"
       id="path5509-0-1-0-07-2"
       inkscape:path-effect="#path-effect5511-4-3-0-07-6"
       inkscape:original-d="m 64.783664,899.26677 c 18.6661,13.8814 -17.9853,28.705 -24.2769,38.74671"
       inkscape:connector-curvature="0"
       sodipodi:nodetypes="cc" />
    <path
       style="fill:none;fill-rule:evenodd;stroke:#000000;stroke-width:3px;stroke-linecap:butt;stroke-linejoin:miter;stroke-opacity:1"
       d="m 64.930864,907.06649 -22.4019,35.1842"
       id="path5509-0-1-0-3-3"
       inkscape:path-effect="#path-effect5511-4-3-0-09-7"
       inkscape:original-d="m 64.930864,907.06649 c 18.6661,13.8814 -16.1103,25.1425 -22.4019,35.1842"
       inkscape:connector-curvature="0"
       sodipodi:nodetypes="cc" />
    <path
       style="fill:none;fill-rule:evenodd;stroke:#000000;stroke-width:3px;stroke-linecap:butt;stroke-linejoin:miter;stroke-opacity:1"
       d="m 64.996664,914.77705 -17.0894,27.3717"
       id="path5509-0-1-0-06-9"
       inkscape:path-effect="#path-effect5511-4-3-0-05-0"
       inkscape:original-d="m 64.996664,914.77705 c -242.220304,148.27755 -10.7978,17.33 -17.0894,27.3717"
       inkscape:connector-curvature="0"
       sodipodi:nodetypes="cc" />
    <path
       style="fill:none;fill-rule:evenodd;stroke:#000000;stroke-width:3px;stroke-linecap:butt;stroke-linejoin:miter;stroke-opacity:1"
       d="m 64.999864,922.76947 -12.0269,19.1217"
       id="path5509-0-1-0-2-1"
       inkscape:path-effect="#path-effect5511-4-3-0-5-3"
       inkscape:original-d="m 64.999864,922.76947 c 18.6661,13.8814 -5.7353,9.08 -12.0269,19.1217"
       inkscape:connector-curvature="0"
       sodipodi:nodetypes="cc" />
    <path
       style="fill:none;fill-rule:evenodd;stroke:#000000;stroke-width:3px;stroke-linecap:butt;stroke-linejoin:miter;stroke-opacity:1"
       d="m 58.365064,942.04617 6.6181,-10.39369"
       id="path4150-3-6-8"
       inkscape:path-effect="#path-effect4152-3-1-7"
       inkscape:original-d="m 58.365064,942.04617 6.6181,-10.39369"
       inkscape:connector-curvature="0"
       sodipodi:nodetypes="cc" />
    <path
       style="fill:none;fill-rule:evenodd;stroke:#000000;stroke-width:3px;stroke-linecap:butt;stroke-linejoin:miter;stroke-opacity:1"
       d="m 63.544264,941.83517 1.4306,-2.5187"
       id="path4150-3-7-4"
       inkscape:path-effect="#path-effect4152-3-2-6"
       inkscape:original-d="m 63.544264,941.83517 1.4306,-2.5187"
       inkscape:connector-curvature="0"
       sodipodi:nodetypes="cc" />
    <path
       style="fill:none;fill-rule:evenodd;stroke:#000000;stroke-width:3px;stroke-linecap:butt;stroke-linejoin:miter;stroke-opacity:1"
       d="m 41.110964,871.46658 2.1798,-3.55639"
       id="path4150-3-61-0"
       inkscape:path-effect="#path-effect4152-3-15-2"
       inkscape:original-d="m 41.110964,871.46658 c 4.2104,-5.5853 0.1701,2.65771 2.1798,-3.55639"
       inkscape:connector-curvature="0"
       sodipodi:nodetypes="cc" />
    <path
       style="fill:none;fill-rule:evenodd;stroke:#000000;stroke-width:3px;stroke-linecap:butt;stroke-linejoin:miter;stroke-opacity:1"
       d="m 86.763364,864.22024 -12.2559,19.03935"
       id="path5509-0-1-0-20-4"
       inkscape:path-effect="#path-effect5511-4-3-0-55-5"
       inkscape:original-d="m 86.763364,864.22024 c 18.666006,13.8814 -5.9643,8.99765 -12.2559,19.03935"
       inkscape:connector-curvature="0"
       sodipodi:nodetypes="cc" />
    <path
       style="fill:none;fill-rule:evenodd;stroke:#000000;stroke-width:3px;stroke-linecap:butt;stroke-linejoin:miter;stroke-opacity:1"
       d="m 91.152464,864.77032 -16.9982,26.38906"
       id="path5517-5-5-4-8-7"
       inkscape:path-effect="#path-effect5519-4-6-1-4-1"
       inkscape:original-d="m 91.152464,864.77032 -16.9982,26.38906"
       inkscape:connector-curvature="0"
       sodipodi:nodetypes="cc" />
    <path
       style="fill:none;fill-rule:evenodd;stroke:#000000;stroke-width:3px;stroke-linecap:butt;stroke-linejoin:miter;stroke-opacity:1"
       d="m 74.866164,876.22528 7.3433,-11.79244"
       id="path4150-3-0-0"
       inkscape:path-effect="#path-effect4152-3-45-8"
       inkscape:original-d="m 74.866164,876.22528 7.3433,-11.79244"
       inkscape:connector-curvature="0"
       sodipodi:nodetypes="cc" />
    <path
       style="fill:none;fill-rule:evenodd;stroke:#000000;stroke-width:3px;stroke-linecap:butt;stroke-linejoin:miter;stroke-opacity:1"
       d="m 96.784464,905.0488 -22.7555,36.95197"
       id="path5509-0-1-0-3-3-1"
       inkscape:path-effect="#path-effect5511-4-3-0-09-7-8"
       inkscape:original-d="m 96.784464,905.0488 c 18.666106,13.8814 -16.4639,26.91027 -22.7555,36.95197"
       inkscape:connector-curvature="0"
       sodipodi:nodetypes="cc" />
    <path
       style="fill:none;fill-rule:evenodd;stroke:#000000;stroke-width:3px;stroke-linecap:butt;stroke-linejoin:miter;stroke-opacity:1"
       d="m 96.806064,913.33382 -17.3988,28.56495"
       id="path5509-0-1-0-06-9-4"
       inkscape:path-effect="#path-effect5511-4-3-0-05-0-7"
       inkscape:original-d="m 96.806064,913.33382 c -242.220304,148.27758 -11.1072,18.52325 -17.3988,28.56495"
       inkscape:connector-curvature="0"
       sodipodi:nodetypes="cc" />
    <path
       style="fill:none;fill-rule:evenodd;stroke:#000000;stroke-width:3px;stroke-linecap:butt;stroke-linejoin:miter;stroke-opacity:1"
       d="m 96.676664,921.92295 -12.2037,19.71832"
       id="path5509-0-1-0-2-1-4"
       inkscape:path-effect="#path-effect5511-4-3-0-5-3-6"
       inkscape:original-d="m 96.676664,921.92295 c 18.666106,13.8814 -5.9121,9.67662 -12.2037,19.71832"
       inkscape:connector-curvature="0"
       sodipodi:nodetypes="cc" />
    <path
       style="fill:none;fill-rule:evenodd;stroke:#000000;stroke-width:3px;stroke-linecap:butt;stroke-linejoin:miter;stroke-opacity:1"
       d="m 89.865064,941.79627 6.6181,-10.3937"
       id="path4150-3-6-8-3"
       inkscape:path-effect="#path-effect4152-3-1-7-1"
       inkscape:original-d="m 89.865064,941.79627 6.6181,-10.3937"
       inkscape:connector-curvature="0"
       sodipodi:nodetypes="cc" />
    <path
       style="fill:none;fill-rule:evenodd;stroke:#000000;stroke-width:3px;stroke-linecap:butt;stroke-linejoin:miter;stroke-opacity:1"
       d="m 95.044264,941.58527 1.4306,-2.5187"
       id="path4150-3-7-4-4"
       inkscape:path-effect="#path-effect4152-3-2-6-0"
       inkscape:original-d="m 95.044264,941.58527 1.4306,-2.5187"
       inkscape:connector-curvature="0"
       sodipodi:nodetypes="cc" />
    <path
       style="fill:none;fill-rule:evenodd;stroke:#000000;stroke-width:3px;stroke-linecap:butt;stroke-linejoin:miter;stroke-opacity:1"
       d="m 94.525764,865.77385 -20.6039,32.73274"
       id="path5509-0-1-0-1-5-3"
       inkscape:path-effect="#path-effect5511-4-3-0-7-1-2"
       inkscape:original-d="m 94.525764,865.77385 c 128.692996,-206.1728 -14.3123,22.69104 -20.6039,32.73274"
       inkscape:connector-curvature="0"
       sodipodi:nodetypes="cc" />
    <path
       style="fill:none;fill-rule:evenodd;stroke:#000000;stroke-width:3px;stroke-linecap:butt;stroke-linejoin:miter;stroke-opacity:1"
       d="m 96.633164,869.85583 -22.888,36.74042"
       id="path5509-0-1-0-0-0-7"
       inkscape:path-effect="#path-effect5511-4-3-0-70-5-6"
       inkscape:original-d="m 96.633164,869.85583 c 18.666106,13.8814 -16.5964,26.69872 -22.888,36.74042"
       inkscape:connector-curvature="0"
       sodipodi:nodetypes="cc" />
    <path
       style="fill:none;fill-rule:evenodd;stroke:#000000;stroke-width:3px;stroke-linecap:butt;stroke-linejoin:miter;stroke-opacity:1"
       d="m 96.639464,876.42972 -22.9676,37.11661"
       id="path5509-0-1-0-8-7-2"
       inkscape:path-effect="#path-effect5511-4-3-0-6-5-4"
       inkscape:original-d="m 96.639464,876.42972 c 18.666106,13.8814 -16.676,27.07491 -22.9676,37.11661"
       inkscape:connector-curvature="0"
       sodipodi:nodetypes="cc" />
    <path
       style="fill:none;fill-rule:evenodd;stroke:#000000;stroke-width:3px;stroke-linecap:butt;stroke-linejoin:miter;stroke-opacity:1"
       d="m 96.813364,883.19422 -23.0607,37.52443"
       id="path5509-0-1-0-6-8-2"
       inkscape:path-effect="#path-effect5511-4-3-0-4-9-8"
       inkscape:original-d="m 96.813364,883.19422 c 18.666106,13.8814 -16.7691,27.48273 -23.0607,37.52443"
       inkscape:connector-curvature="0"
       sodipodi:nodetypes="cc" />
    <path
       style="fill:none;fill-rule:evenodd;stroke:#000000;stroke-width:3px;stroke-linecap:butt;stroke-linejoin:miter;stroke-opacity:1"
       d="m 96.821864,890.27746 -23.0691,37.30097"
       id="path5509-0-1-0-02-7-3"
       inkscape:path-effect="#path-effect5511-4-3-0-0-0-3"
       inkscape:original-d="m 96.821864,890.27746 c 18.666106,13.8814 -16.7775,27.25927 -23.0691,37.30097"
       inkscape:connector-curvature="0"
       sodipodi:nodetypes="cc" />
    <path
       style="fill:none;fill-rule:evenodd;stroke:#000000;stroke-width:3px;stroke-linecap:butt;stroke-linejoin:miter;stroke-opacity:1"
       d="m 96.810564,897.42279 -22.9953,37.68604"
       id="path5509-0-1-0-07-2-2"
       inkscape:path-effect="#path-effect5511-4-3-0-07-6-7"
       inkscape:original-d="m 96.810564,897.42279 c 18.666106,13.8814 -16.7037,27.64434 -22.9953,37.68604"
       inkscape:connector-curvature="0"
       sodipodi:nodetypes="cc" />
  </g>
</svg>
