<?xml version="1.0" encoding="UTF-8" standalone="no"?>
<!-- Created with Inkscape (http://www.inkscape.org/) -->

<svg
   xmlns:dc="http://purl.org/dc/elements/1.1/"
   xmlns:cc="http://creativecommons.org/ns#"
   xmlns:rdf="http://www.w3.org/1999/02/22-rdf-syntax-ns#"
   xmlns:svg="http://www.w3.org/2000/svg"
   xmlns="http://www.w3.org/2000/svg"
   xmlns:sodipodi="http://sodipodi.sourceforge.net/DTD/sodipodi-0.dtd"
   xmlns:inkscape="http://www.inkscape.org/namespaces/inkscape"
   width="140"
   height="200"
   viewBox="0 0 140 200"
   id="svg5963"
   version="1.1"
   inkscape:version="0.91 r13725"
   sodipodi:docname="maya-months-00-pop.svg">
  <defs
     id="defs5965">
    <inkscape:path-effect
       effect="spiro"
       id="path-effect5177-1"
       is_visible="true" />
    <inkscape:path-effect
       effect="spiro"
       id="path-effect5143-6"
       is_visible="true" />
    <inkscape:path-effect
       effect="spiro"
       id="path-effect5143-9"
       is_visible="true" />
    <inkscape:path-effect
       effect="spiro"
       id="path-effect5143"
       is_visible="true" />
    <inkscape:path-effect
       effect="spiro"
       id="path-effect5077-2-9-9"
       is_visible="true" />
    <inkscape:path-effect
       effect="spiro"
       id="path-effect5077-2-9"
       is_visible="true" />
    <inkscape:path-effect
       effect="spiro"
       id="path-effect5077-2"
       is_visible="true" />
    <inkscape:path-effect
       effect="spiro"
       id="path-effect4578-9-09-3"
       is_visible="true" />
    <inkscape:path-effect
       effect="spiro"
       id="path-effect4578-0-4"
       is_visible="true" />
    <inkscape:path-effect
       effect="spiro"
       id="path-effect4662-7-8-5-6"
       is_visible="true" />
    <inkscape:path-effect
       effect="spiro"
       id="path-effect4662-7-8-3"
       is_visible="true" />
    <inkscape:path-effect
       effect="spiro"
       id="path-effect4662-7-9-2"
       is_visible="true" />
    <inkscape:path-effect
       effect="spiro"
       id="path-effect4662-7-3"
       is_visible="true" />
    <inkscape:path-effect
       effect="spiro"
       id="path-effect4464-0-4-4-5-9-9-4"
       is_visible="true" />
    <inkscape:path-effect
       effect="spiro"
       id="path-effect4464-0-4-4-5-9-4"
       is_visible="true" />
    <inkscape:path-effect
       effect="spiro"
       id="path-effect4578-9-0-3"
       is_visible="true" />
    <inkscape:path-effect
       effect="spiro"
       id="path-effect4578-9-4"
       is_visible="true" />
    <inkscape:path-effect
       effect="spiro"
       id="path-effect4578-7-3"
       is_visible="true" />
    <inkscape:path-effect
       effect="spiro"
       id="path-effect4578-4"
       is_visible="true" />
    <inkscape:path-effect
       effect="spiro"
       id="path-effect4464-0-4-4-5-3"
       is_visible="true" />
    <inkscape:path-effect
       effect="spiro"
       id="path-effect4464-0-4-4-58"
       is_visible="true" />
    <inkscape:path-effect
       effect="spiro"
       id="path-effect4464-0-4-1"
       is_visible="true" />
  </defs>
  <sodipodi:namedview
     id="base"
     pagecolor="#ffffff"
     bordercolor="#666666"
     borderopacity="1.0"
     inkscape:pageopacity="0.0"
     inkscape:pageshadow="2"
     inkscape:zoom="1.979899"
     inkscape:cx="43.416133"
     inkscape:cy="113.568"
     inkscape:document-units="px"
     inkscape:current-layer="layer1"
     showgrid="false"
     units="px"
     inkscape:window-width="1024"
     inkscape:window-height="704"
     inkscape:window-x="0"
     inkscape:window-y="27"
     inkscape:window-maximized="1" />
  <metadata
     id="metadata5968">
    <rdf:RDF>
      <cc:Work
         rdf:about="">
        <dc:format>image/svg+xml</dc:format>
        <dc:type
           rdf:resource="http://purl.org/dc/dcmitype/StillImage" />
        <dc:title></dc:title>
      </cc:Work>
    </rdf:RDF>
  </metadata>
  <g
     inkscape:label="Calque 1"
     inkscape:groupmode="layer"
     id="layer1"
     transform="translate(0,-852.36216)">
    <path
       style="fill:none;fill-rule:evenodd;stroke:#000000;stroke-width:4px;stroke-linecap:butt;stroke-linejoin:miter;stroke-opacity:1"
       d="m 60.353727,855.22111 c -4.37555,0.013 -8.74345,0.21101 -13.08007,0.78711 -8.67324,1.15221 -17.310177,3.90953 -24.242191,9.24805 -5.111402,3.93642 -9.149534,9.17424 -12.064453,14.92968 -2.9149177,5.75544 -4.7325067,12.02395 -5.7988277,18.38672 -2.132643,12.72553 -1.298274,25.73054 -1.16211,38.63282 0.123182,11.67212 -0.32363,23.4349 1.707031,34.92968 2.030661,11.49478 6.8378517,22.93986 15.7265627,30.50583 7.098686,6.0423 16.285268,9.177 25.505858,10.5488 9.22059,1.3719 18.59394,1.1077 27.91602,1.0977 7.01891,-0.01 14.35798,-0.3694 21.32218,-1.2442 6.964193,-0.8747 12.558513,-3.1985 18.427693,-7.0479 5.08426,-3.3346 9.74251,-8.1978 12.79205,-13.458 3.04953,-5.2602 4.69283,-10.55652 5.94333,-16.50678 2.501,-11.90052 2.93748,-23.65949 3.06747,-35.81927 0.14515,-13.57841 1.01722,-27.27894 -1.39258,-40.64258 -1.2049,-6.68182 -3.24182,-13.25105 -6.47265,-19.22266 -3.23084,-5.97162 -7.68766,-11.33845 -13.25782,-15.2207 -5.9506,-4.1474 -13.0009,-6.49873 -20.140613,-7.77735 -7.13973,-1.27862 -14.41783,-1.53214 -21.66602,-1.80468 -4.37163,-0.16438 -8.75531,-0.33524 -13.13086,-0.32227 z"
       id="path4462-4-0"
       inkscape:connector-curvature="0"
       sodipodi:nodetypes="ssssssssscsssssssssss" />
    <path
       style="fill:none;fill-rule:evenodd;stroke:#000000;stroke-width:4;stroke-linecap:butt;stroke-linejoin:miter;stroke-opacity:1"
       d="m 65.296287,1003.6746 c -6.665904,0.4436 -13.407228,-0.2693 -19.83289,-2.0974 -5.898037,-1.67799 -11.594974,-4.33699 -16.213818,-8.37045 -5.786146,-5.05282 -9.634061,-12.067 -11.784216,-19.44177 -3.64793,-12.51196 -2.629047,-25.8245 -2.649301,-38.85739 -0.01708,-10.9938 -0.792215,-22.06557 0.907799,-32.92715 0.850007,-5.43079 2.327143,-10.79184 4.744622,-15.72861 2.417478,-4.93678 5.798913,-9.4458 10.115943,-12.84863 5.771961,-4.54965 12.9967,-6.96148 20.272754,-7.99776 7.276054,-1.03629 14.667687,-0.77588 22.010887,-0.47212 6.085466,0.25174 12.194738,0.53455 18.177381,1.67659 5.982644,1.14203 11.874552,3.18068 16.860122,6.6793 4.85126,3.40436 8.71513,8.11422 11.49545,13.34817 2.78032,5.23395 4.50513,10.98533 5.50092,16.82766 1.99158,11.68467 1.10815,23.63636 0.90907,35.48786 -0.17744,10.56325 0.18427,21.23756 -1.9909,31.57595 -1.08758,5.1692 -2.81723,10.23218 -5.45817,14.80698 -2.64094,4.57481 -6.21668,8.65502 -10.62409,11.56675 -4.6371,3.06347 -10.154244,4.77802 -15.710923,4.88232"
       id="path4462-4-3-9"
       inkscape:original-d="m 65.296287,1003.6746 c -8.54234,-0.4029 -11.18679,0.9344 -19.83289,-2.0974 -8.64609,-3.03184 -14.568047,-10.74447 -16.213818,-8.37045 -3.291542,4.74804 -8.844183,-4.80082 -11.784216,-19.44177 -2.940032,-14.64095 -4.151338,-34.55078 -2.649301,-38.85739 3.00407,-8.61322 -0.697087,-51.75076 15.768364,-61.50439 8.232691,-4.87682 25.985991,-7.81881 42.283641,-8.46988 20.79093,-0.83056 38.570543,13.92359 35.037503,8.35589 -3.53306,-5.5677 18.37776,40.45672 17.90544,65.66369 -0.47514,25.35939 -10.75807,46.82996 -18.07316,57.94968 -3.65756,5.55982 -10.296013,4.55242 -15.710923,4.88232"
       inkscape:connector-curvature="0"
       sodipodi:nodetypes="csssssssssc"
       inkscape:path-effect="#path-effect4464-0-4-1" />
    <path
       style="fill:none;fill-rule:evenodd;stroke:#000000;stroke-width:4;stroke-linecap:butt;stroke-linejoin:miter;stroke-opacity:1"
       d="m 61.104857,1001.2131 c -4.577921,-0.011 -9.154406,-0.5511 -13.60882,-1.60731 -6.09413,-1.44507 -12.049259,-3.91457 -16.821714,-7.97047 -3.836475,-3.26045 -6.810186,-7.46983 -8.926057,-12.03844 -2.115872,-4.5686 -3.393854,-9.49453 -4.121678,-14.47643 -1.455648,-9.96381 -0.738541,-20.09666 -0.736443,-30.16623 0.0022,-10.67352 -0.798749,-21.41861 0.791761,-31.97296 0.795255,-5.27717 2.196718,-10.49102 4.516853,-15.29705 2.320136,-4.80604 5.582514,-9.20103 9.763857,-12.51726 5.560156,-4.40976 12.532139,-6.75526 19.556338,-7.76619 7.024198,-1.01093 14.162199,-0.76395 21.252593,-0.46789 5.876016,0.24535 11.775031,0.52569 17.549918,1.63854 5.774887,1.11286 11.459995,3.09447 16.265605,6.48473 4.70281,3.31773 8.43657,7.90848 11.11322,13.00351 2.67665,5.09503 4.32419,10.68807 5.26981,16.36518 1.89124,11.35423 1.01563,22.95695 0.89794,34.467 -0.0964,9.4312 0.31566,18.92914 -1.21148,28.23637 -1.52714,9.30724 -5.21967,18.60467 -12.22664,24.91808 -3.52691,3.17781 -7.81714,5.50873 -12.411543,6.70416 -2.380169,0.6193 -4.838639,0.93702 -7.29805,0.94315"
       id="path4462-4-3-4-51"
       inkscape:original-d="m 61.104857,1001.2131 c -4.17227,-1.47371 -6.85218,0.7202 -13.60882,-1.60731 -6.75665,-2.32738 -16.027528,-9.12444 -16.821714,-7.97047 -6.353492,9.23168 -14.823224,-48.77267 -13.784178,-56.6811 1.039046,-7.90842 -0.821303,-50.30452 15.072471,-59.78727 7.945761,-4.74071 25.079691,-7.60114 40.808931,-8.23408 20.06583,-0.80744 37.225343,13.53597 33.815523,8.12327 -3.40984,-5.4127 17.73682,39.33045 17.28097,63.83569 -0.45857,24.65341 -6.37816,42.34429 -13.43812,53.15445 -3.52999,5.40509 -5.65837,4.79045 -12.411543,6.70416 -6.75318,1.91366 -0.57173,-1.47388 -7.29805,0.94315"
       inkscape:connector-curvature="0"
       sodipodi:nodetypes="csszssssszc"
       inkscape:path-effect="#path-effect4464-0-4-4-58" />
    <path
       style="fill:none;fill-rule:evenodd;stroke:#000000;stroke-width:4;stroke-linecap:butt;stroke-linejoin:miter;stroke-opacity:1"
       d="m 118.59237,981.19479 c -6.58584,2.1308 -13.47315,3.32744 -20.391753,3.54299 -3.850369,0.11996 -7.735751,-0.0662 -11.481601,-0.96524 -3.74585,-0.89908 -7.360212,-2.53824 -10.251099,-5.08432 -4.46252,-3.93025 -6.895231,-9.73889 -7.97568,-15.58642 -1.080448,-5.84753 -0.947374,-11.83946 -1.10134,-17.78398 -0.176432,-6.81192 -0.731525,-13.67534 0.325725,-20.40702 0.528625,-3.36585 1.465906,-6.68563 2.999587,-9.72802 1.533681,-3.0424 3.678809,-5.80443 6.399658,-7.85512 2.865416,-2.15965 6.298625,-3.48225 9.81327,-4.20473 3.514644,-0.72248 7.123272,-0.86642 10.71131,-0.84033 8.599873,0.0625 17.192363,1.09222 25.563513,3.06341"
       id="path4462-4-3-4-0-1"
       inkscape:original-d="m 118.59237,981.19479 c -3.55078,6.62346 -11.76643,4.0422 -20.391753,3.54299 -8.29296,-0.47995 -20.13496,-8.87772 -21.7327,-6.04956 -3.19542,5.6563 -10.5352,-28.23996 -9.07702,-33.3704 1.45817,-5.13043 1.73259,-32.18046 9.72497,-37.99016 3.99618,-2.90487 12.61367,-4.65724 20.52458,-5.04506 10.091983,-0.49472 27.278453,6.37978 25.563513,3.06341"
       inkscape:connector-curvature="0"
       sodipodi:nodetypes="csszssc"
       inkscape:path-effect="#path-effect4464-0-4-4-5-3" />
    <path
       style="fill:none;fill-rule:evenodd;stroke:#000000;stroke-width:4px;stroke-linecap:butt;stroke-linejoin:miter;stroke-opacity:1"
       d="m 43.862727,998.50773 24.60413,-35.40267 m 0.0989,-42.71724 -2.39688,-3.05351 M 51.397627,898.54767 32.284954,874.67458"
       id="path4576-5"
       inkscape:original-d="m 43.862727,998.50773 24.60413,-35.40267 m 0.0989,-42.71724 -2.39688,-3.05351 M 51.397627,898.54767 32.284954,874.67458"
       inkscape:connector-curvature="0"
       sodipodi:nodetypes="cccccc"
       inkscape:path-effect="#path-effect4578-4" />
    <path
       style="fill:none;fill-rule:evenodd;stroke:#000000;stroke-width:4px;stroke-linecap:butt;stroke-linejoin:miter;stroke-opacity:1"
       d="M 23.424019,982.29174 46.770477,950.1996 c 1.654858,-2.27478 3.353826,-4.66924 3.78033,-7.44975 0.29785,-1.94178 -0.06898,-3.97933 -1.02535,-5.69531 m -15.68964,-19.23463 -15.303932,-18.9523"
       id="path4576-6-7"
       inkscape:path-effect="#path-effect4578-7-3"
       inkscape:original-d="M 23.424019,982.29174 46.770477,950.1996 c 0,0 4.03687,-5.7417 3.78033,-7.44975 -0.25654,-1.70805 -1.02535,-5.69531 -1.02535,-5.69531 m -15.68964,-19.23463 c -5.464136,-6.26241 -10.17314,-12.38616 -15.303932,-18.9523"
       inkscape:connector-curvature="0"
       sodipodi:nodetypes="cczccc" />
    <path
       style="fill:none;fill-rule:evenodd;stroke:#000000;stroke-width:4px;stroke-linecap:butt;stroke-linejoin:miter;stroke-opacity:1"
       d="M 62.837327,1003.7352 51.414937,987.99909 M 35.213277,965.95793 21.396652,946.53228 c -0.86044,-1.37667 -1.442731,-2.92639 -1.70174,-4.52904 -0.258268,-1.59806 -0.195915,-3.24032 0.105531,-4.83081 0.514161,-2.71281 1.731244,-5.28932 3.500059,-7.40947 l 57.528225,-62.60751"
       id="path4576-0-79"
       inkscape:original-d="M 62.837327,1003.7352 51.414937,987.99909 M 35.213277,965.95793 21.396652,946.53228 c 0,0 -1.395987,-1.71527 -1.70174,-4.52904 -0.305753,-2.81377 -0.370902,-3.33851 0.105531,-4.83081 0.476433,-1.4923 3.500059,-7.40947 3.500059,-7.40947 l 57.528225,-62.60751"
       inkscape:connector-curvature="0"
       sodipodi:nodetypes="cccczzcc"
       inkscape:path-effect="#path-effect4578-9-4" />
    <path
       style="fill:none;fill-rule:evenodd;stroke:#000000;stroke-width:4px;stroke-linecap:butt;stroke-linejoin:miter;stroke-opacity:1"
       d="m 92.457687,1002.0391 -26.23151,-35.90682 m -15.69934,-23.26349 c -0.580955,-1.58281 -0.917035,-3.25524 -0.99263,-4.93961 -0.05568,-1.24057 0.05239,-2.50734 0.513869,-3.66023 0.461481,-1.15289 1.283407,-2.11915 2.144741,-3.0137 l 54.442223,-56.54181"
       id="path4576-0-7-9"
       inkscape:original-d="m 92.457687,1002.0391 -26.23151,-35.90682 m -15.69934,-23.26349 c 0,0 -1.1724,-0.5631 -0.99263,-4.93961 0.17977,-4.37653 2.65861,-6.67393 2.65861,-6.67393 l 54.442223,-56.54181"
       inkscape:connector-curvature="0"
       sodipodi:nodetypes="ccczcc"
       inkscape:path-effect="#path-effect4578-9-0-3" />
    <path
       style="fill:none;fill-rule:evenodd;stroke:#000000;stroke-width:4;stroke-linecap:butt;stroke-linejoin:miter;stroke-opacity:1"
       d="m 121.91791,971.65728 c -6.94111,2.61859 -14.29278,4.1456 -21.70255,4.50782 -3.246212,0.15869 -6.526979,0.0926 -9.704129,-0.59209 -3.17715,-0.68468 -6.260739,-2.01541 -8.699294,-4.16402 -3.599961,-3.17192 -5.529684,-7.88232 -6.350002,-12.60968 -0.820319,-4.72736 -0.647496,-9.56109 -0.719488,-14.35855 -0.0784,-5.2244 -0.447588,-10.48939 0.396119,-15.64581 0.421854,-2.57821 1.150913,-5.11964 2.32921,-7.45132 1.178297,-2.33168 2.816893,-4.45156 4.892851,-6.0376 2.408394,-1.84002 5.336513,-2.91328 8.318258,-3.45664 2.981745,-0.54337 6.032074,-0.57953 9.062119,-0.50973 8.070376,0.18591 16.123496,1.11384 24.024656,2.76828"
       id="path4462-4-3-4-0-9-2"
       inkscape:original-d="m 121.91791,971.65728 c -8.00638,14.13193 -14.39855,4.9003 -21.70255,4.50782 -7.022543,-0.37733 -17.050453,-6.97958 -18.403423,-4.75611 -2.70593,4.44693 -8.3043,-22.9347 -7.06949,-26.96823 1.23477,-4.03346 0.85016,-24.56721 7.61818,-29.13473 3.384,-2.28379 11.50717,-0.18489 17.380377,-3.96637 7.197956,-4.63443 20.265566,-13.50319 24.024656,2.76828"
       inkscape:connector-curvature="0"
       sodipodi:nodetypes="csszssc"
       inkscape:path-effect="#path-effect4464-0-4-4-5-9-4" />
    <path
       style="fill:none;fill-rule:evenodd;stroke:#000000;stroke-width:4;stroke-linecap:butt;stroke-linejoin:miter;stroke-opacity:1"
       d="m 122.39732,969.20661 c -6.82889,2.29957 -13.96134,3.69586 -21.15324,4.14108 -3.155137,0.19532 -6.346515,0.20621 -9.448804,-0.40112 -3.102288,-0.60732 -6.129027,-1.86461 -8.488819,-3.96804 -3.321017,-2.96023 -5.061312,-7.35356 -5.769096,-11.74573 -0.707784,-4.39217 -0.493509,-8.87191 -0.534424,-13.32055 -0.04358,-4.738 -0.376682,-9.51102 0.371865,-14.18972 0.374274,-2.33935 1.022527,-4.64702 2.076019,-6.769 1.053493,-2.12197 2.522222,-4.05662 4.390436,-5.51347 2.326916,-1.81455 5.198179,-2.83329 8.109829,-3.31228 2.911651,-0.47898 5.882027,-0.44452 8.830644,-0.33141 7.85203,0.30121 15.68293,1.15165 23.41656,2.54307"
       id="path4462-4-3-4-0-9-9-9"
       inkscape:original-d="m 122.39732,969.20661 c -7.80375,12.98219 -14.0341,4.50163 -21.15324,4.14108 -6.844823,-0.34663 -16.618893,-6.41173 -17.937623,-4.36916 -2.63743,4.08513 -7.50707,-21.36091 -6.30352,-25.06628 1.20353,-3.7053 0.24162,-22.27628 6.83832,-26.47219 3.29836,-2.09799 11.21591,-0.16985 16.940473,-3.64369 7.01576,-4.25737 19.75262,-12.40455 23.41656,2.54307"
       inkscape:connector-curvature="0"
       sodipodi:nodetypes="csszssc"
       inkscape:path-effect="#path-effect4464-0-4-4-5-9-9-4" />
    <path
       style="fill:none;fill-rule:evenodd;stroke:#000000;stroke-width:4;stroke-linecap:butt;stroke-linejoin:miter;stroke-opacity:1"
       d="m 93.733197,973.19538 c -0.02785,-3.58863 -0.3226,-7.17516 -0.881,-10.72019 -0.392509,-2.49186 -0.959668,-5.06257 -2.51769,-7.04651 -1.082605,-1.37856 -2.585191,-2.38434 -4.191,-3.08707 -2.804874,-1.22747 -5.989345,-1.57014 -8.99115,-0.96751"
       id="path4660-9-8"
       inkscape:original-d="m 93.733197,973.19538 c 0.13234,-8.27411 0.18864,-8.56725 -0.881,-10.72019 -0.53485,-1.07648 -3.85073,-5.50583 -2.51769,-7.04651 1.46494,-1.69312 -1.40127,-0.31838 -4.191,-3.08707 -2.78974,-2.76871 -0.87472,-4.3447 -8.99115,-0.96751"
       inkscape:connector-curvature="0"
       sodipodi:nodetypes="csszc"
       inkscape:path-effect="#path-effect4662-7-3" />
    <path
       style="fill:none;fill-rule:evenodd;stroke:#000000;stroke-width:4;stroke-linecap:butt;stroke-linejoin:miter;stroke-opacity:1"
       d="m 94.252957,913.6917 c 0.272362,3.83194 0.142255,7.69236 -0.38749,11.49726 -0.169872,1.22011 -0.381932,2.43957 -0.763305,3.61093 -0.381373,1.17135 -0.938109,2.29817 -1.740895,3.23255 -1.256802,1.46281 -3.046463,2.37557 -4.88407,2.96086 -3.003535,0.95665 -6.255746,1.12042 -9.34019,0.47034"
       id="path4660-9-0-4"
       inkscape:original-d="m 94.252957,913.6917 c 0.13235,8.2741 0.68214,9.34431 -0.38749,11.49726 -0.53485,1.07649 -1.90895,5.47993 -2.5042,6.84348 -0.59526,1.36354 -1.74146,1.76819 -4.88407,2.96086 -3.14262,1.19268 -1.22377,3.84752 -9.34019,0.47034"
       inkscape:connector-curvature="0"
       sodipodi:nodetypes="csszc"
       inkscape:path-effect="#path-effect4662-7-9-2" />
    <path
       style="fill:none;fill-rule:evenodd;stroke:#000000;stroke-width:4;stroke-linecap:butt;stroke-linejoin:miter;stroke-opacity:1"
       d="m 107.2172,972.23426 c -0.0407,-3.43224 0.10743,-6.8667 0.4435,-10.28269 0.10329,-1.0499 0.22511,-2.10239 0.49295,-3.1228 0.26785,-1.0204 0.68764,-2.01334 1.33864,-2.8435 1.07672,-1.37305 2.69665,-2.20147 4.3146,-2.85479 3.18097,-1.28446 6.56786,-2.05736 9.99114,-2.27999"
       id="path4660-9-6-2"
       inkscape:path-effect="#path-effect4662-7-8-3"
       inkscape:original-d="m 107.2172,972.23426 c -0.13235,-8.27411 -0.62617,-8.12975 0.4435,-10.28269 0.53484,-1.07648 15.0276,5.35761 1.83159,-5.9663 -1.12907,-0.96889 5.01975,-3.25989 4.3146,-2.85479 -0.70515,0.4051 1.87472,-5.65718 9.99114,-2.27999"
       inkscape:connector-curvature="0"
       sodipodi:nodetypes="csszc" />
    <path
       style="fill:none;fill-rule:evenodd;stroke:#000000;stroke-width:4;stroke-linecap:butt;stroke-linejoin:miter;stroke-opacity:1"
       d="m 107.34266,914.24955 c 0.0768,3.72264 0.24557,7.44338 0.506,11.1577 0.0814,1.16037 0.17299,2.32807 0.47462,3.4515 0.30164,1.12344 0.82825,2.2114 1.66947,3.01479 0.58352,0.55728 1.30034,0.961 2.0511,1.25665 0.75076,0.29566 1.53795,0.48738 2.32601,0.66065 3.05849,0.67246 6.17511,1.08031 9.30365,1.21749"
       id="path4660-9-6-4-5"
       inkscape:path-effect="#path-effect4662-7-8-5-6"
       inkscape:original-d="m 107.34266,914.24955 c -0.13234,8.27411 -0.56367,9.00476 0.506,11.1577 0.53484,1.07648 0.9837,5.62173 2.14409,6.46629 1.20293,0.87552 1.58737,-0.8514 4.37711,1.9173 2.78972,2.7687 1.18721,4.59468 9.30365,1.21749"
       inkscape:connector-curvature="0"
       sodipodi:nodetypes="csszc" />
    <path
       style="fill:none;fill-rule:evenodd;stroke:#000000;stroke-width:4px;stroke-linecap:butt;stroke-linejoin:miter;stroke-opacity:1"
       d="m 41.496607,997.87384 26.54867,-37.70076 m -0.23299,-36.68408 -3.55135,-4.20825 M 49.572657,900.6652 30.891089,876.33879"
       id="path4576-3-0"
       inkscape:original-d="m 41.496607,997.87384 26.54867,-37.70076 m -0.23299,-36.68408 -3.55135,-4.20825 M 49.572657,900.6652 30.891089,876.33879"
       inkscape:connector-curvature="0"
       sodipodi:nodetypes="cccccc"
       inkscape:path-effect="#path-effect4578-0-4" />
    <path
       style="fill:none;fill-rule:evenodd;stroke:#000000;stroke-width:4px;stroke-linecap:butt;stroke-linejoin:miter;stroke-opacity:1"
       d="M 65.672937,1003.8916 52.968747,986.14644 M 36.862907,963.99956 23.626098,945.81458 c -0.906339,-1.49416 -1.492303,-3.18159 -1.707065,-4.9159 -0.16101,-1.30024 -0.114591,-2.62592 0.136608,-3.91179 0.40756,-2.08627 1.360593,-4.06352 2.73871,-5.68198 l 58.349616,-63.65745"
       id="path4576-0-9-8"
       inkscape:original-d="M 65.672937,1003.8916 52.968747,986.14644 M 36.862907,963.99956 23.626098,945.81458 c -0.04586,-0.0459 -2.185765,-7.49742 -1.707065,-4.9159 0.4787,2.58152 -0.764895,-0.87268 0.136608,-3.91179 0.901503,-3.03911 2.73871,-5.68198 2.73871,-5.68198 -1.157686,1.73035 41.799526,-37.76773 58.349616,-63.65745"
       inkscape:connector-curvature="0"
       sodipodi:nodetypes="cccczzcc"
       inkscape:path-effect="#path-effect4578-9-09-3" />
    <path
       style="fill:none;fill-rule:evenodd;stroke:#000000;stroke-width:4;stroke-linecap:butt;stroke-linejoin:miter;stroke-opacity:1"
       d="m 37.043157,1011.1962 c -7.870068,-1.8031 -16.551252,0.3988 -22.610475,5.735 -2.006308,1.7669 -3.741784,3.8644 -4.9489646,6.2498 -1.2071806,2.3853 -1.8738073,5.0654 -1.7535931,7.7361 0.1994736,4.4316 2.5714987,8.586 5.8587817,11.5647 4.147443,3.7581 9.630398,5.7725 15.154135,6.674 5.523738,0.9016 11.155829,0.7721 16.752576,0.7426 6.71133,-0.035 13.502031,0.068 20.03179,-1.4828 2.391316,-0.568 4.746028,-1.3624 6.878391,-2.5847 2.132364,-1.2223 4.041065,-2.8901 5.335109,-4.9797 1.407181,-2.2723 2.034318,-4.9333 2.51918,-7.5617 0.573,-3.1062 0.977525,-6.2977 0.475721,-9.4162 -0.250902,-1.5592 -0.730832,-3.089 -1.496107,-4.4705 -0.765274,-1.3815 -1.821375,-2.6122 -3.123294,-3.5062 -1.439539,-0.9885 -3.169181,-1.5488 -4.91487,-1.5923"
       id="path5075-3"
       inkscape:path-effect="#path-effect5077-2"
       inkscape:original-d="m 37.043157,1011.1962 c -10.21942,5.6343 -19.365006,2.4102 -22.610475,5.735 -3.245468,3.3249 -11.2111237,0.419 -6.7025577,13.9859 4.5085657,13.5669 -12.77662,7.413 5.8587817,11.5647 18.635405,4.1516 13.571867,7.4166 31.906711,7.4166 18.33483,0 7.10723,3.855 20.03179,-1.4828 6.46228,-2.6689 10.14575,-5.1168 12.2135,-7.5644 2.06775,-2.4475 2.51978,-4.8946 2.51918,-7.5617 -0.002,-9.1353 -0.61248,-17.4897 -4.14368,-17.3929 -3.53119,0.097 2.29883,4.4869 -4.91487,-1.5923"
       inkscape:connector-curvature="0"
       sodipodi:nodetypes="czzssssssc" />
    <path
       style="fill:none;fill-rule:evenodd;stroke:#000000;stroke-width:4;stroke-linecap:butt;stroke-linejoin:miter;stroke-opacity:1"
       d="m 35.765447,1010.6814 c -3.912083,0.6322 -7.594561,2.6065 -10.286374,5.5148 -0.954586,1.0314 -1.790583,2.1813 -2.395549,3.4498 -0.604966,1.2684 -0.974943,2.6588 -0.989894,4.064 -0.02765,2.5986 1.187883,5.1331 3.05471,6.941 2.276701,2.2048 5.405354,3.3472 8.538608,3.8238 3.133254,0.4766 6.321834,0.3458 9.491129,0.3422 4.01555,-0 8.101473,0.189 11.97551,-0.8676 2.139896,-0.5837 4.203339,-1.5635 5.831447,-3.0698 1.628108,-1.5064 2.793088,-3.5709 2.976133,-5.7814 0.127485,-1.5395 -0.221332,-3.1018 -0.900524,-4.4893 -0.679193,-1.3874 -1.680467,-2.6043 -2.844866,-3.6195 -1.644939,-1.4341 -3.627627,-2.4783 -5.74079,-3.0234"
       id="path5075-3-6"
       inkscape:path-effect="#path-effect5077-2-9"
       inkscape:original-d="m 35.765447,1010.6814 c -6.109413,3.297 -8.346153,3.5692 -10.286374,5.5148 -1.940214,1.9456 -6.080777,-0.425 -3.385443,7.5138 2.695334,7.9387 -8.086001,4.5116 3.05471,6.941 11.140717,2.4293 7.068699,4.166 18.029737,4.166 10.96102,0 4.24888,2.2558 11.97551,-0.8676 7.72663,-3.1235 8.80829,-5.7298 8.80758,-8.8512 -6.1e-4,-5.3456 -1.63435,-8.1654 -3.74539,-8.1088 -2.11102,0.057 -1.42827,0.5339 -5.74079,-3.0234"
       inkscape:connector-curvature="0"
       sodipodi:nodetypes="czzsssssc" />
    <path
       style="fill:none;fill-rule:evenodd;stroke:#000000;stroke-width:4;stroke-linecap:butt;stroke-linejoin:miter;stroke-opacity:1"
       d="m 38.872787,1011.4568 c -4.312975,0.5059 -8.423063,2.5912 -11.378552,5.7728 -0.809843,0.8718 -1.53891,1.8281 -2.07267,2.8916 -0.533759,1.0635 -0.868035,2.2393 -0.869901,3.4292 -0.0027,1.7357 0.713638,3.4356 1.843605,4.7531 1.404319,1.6374 3.396523,2.6878 5.469307,3.285 2.072784,0.5973 4.240942,0.7735 6.394041,0.9051 5.460202,0.3337 11.043347,0.3859 16.27668,-1.207 1.690952,-0.5147 3.358069,-1.2144 4.71445,-2.3477 0.678191,-0.5667 1.272501,-1.2393 1.713995,-2.0049 0.441494,-0.7656 0.72772,-1.6256 0.789985,-2.5072 0.08757,-1.2398 -0.270795,-2.4855 -0.877863,-3.57 -0.607068,-1.0846 -1.453889,-2.0189 -2.377567,-2.8506 -2.939008,-2.6462 -6.74314,-4.3155 -10.68046,-4.6866"
       id="path5075-3-6-5"
       inkscape:path-effect="#path-effect5077-2-9-9"
       inkscape:original-d="m 38.872787,1011.4568 c -5.310205,2.6106 -9.692144,4.2323 -11.378552,5.7728 -1.686402,1.5405 7.036842,1.5012 -2.942571,6.3208 -9.979414,4.8197 -7.839718,2.8296 1.843605,4.7531 9.683328,1.9236 3.175063,5.4505 11.863348,4.1901 7.85938,-1.1402 9.56082,1.2662 16.27668,-1.207 6.71586,-2.4732 7.21905,-4.3883 7.21843,-6.8598 -5.3e-4,-4.2327 -1.42055,-6.4654 -3.25543,-6.4206 -1.83486,0.045 -6.93207,-1.87 -10.68046,-4.6866"
       inkscape:connector-curvature="0"
       sodipodi:nodetypes="czzsssssc" />
    <path
       style="fill:none;fill-rule:evenodd;stroke:#000000;stroke-width:4;stroke-linecap:butt;stroke-linejoin:miter;stroke-opacity:1"
       d="m 39.587697,1034.7422 c 0.198569,2.8672 0.240269,5.7452 0.12485,8.6169 -0.08382,2.0854 -0.250456,4.1676 -0.49939,6.2398"
       id="path5141"
       inkscape:path-effect="#path-effect5143"
       inkscape:original-d="m 39.587697,1034.7422 c 2.9963,8.3197 2.9963,3.2684 0.12485,8.6169 -2.87146,5.3484 0.12484,4.7541 -0.49939,6.2398"
       inkscape:connector-curvature="0"
       sodipodi:nodetypes="csc" />
    <path
       style="fill:none;fill-rule:evenodd;stroke:#000000;stroke-width:4;stroke-linecap:butt;stroke-linejoin:miter;stroke-opacity:1"
       d="m 43.582767,1035.0393 c 0.198569,2.8672 0.240269,5.7452 0.12485,8.6169 -0.08382,2.0854 -0.250456,4.1676 -0.49939,6.2398"
       id="path5141-6"
       inkscape:path-effect="#path-effect5143-9"
       inkscape:original-d="m 43.582767,1035.0393 c 2.9963,8.3198 2.9963,3.2685 0.12485,8.6169 -2.87146,5.3484 0.12484,4.7542 -0.49939,6.2398"
       inkscape:connector-curvature="0"
       sodipodi:nodetypes="csc" />
    <path
       style="fill:none;fill-rule:evenodd;stroke:#000000;stroke-width:4;stroke-linecap:butt;stroke-linejoin:miter;stroke-opacity:1"
       d="m 47.452987,1034.8907 c 0.198566,2.8672 0.240266,5.7452 0.12485,8.6169 -0.08382,2.0855 -0.250455,4.1676 -0.49939,6.2399"
       id="path5141-2"
       inkscape:path-effect="#path-effect5143-6"
       inkscape:original-d="m 47.452987,1034.8907 c 2.9963,8.3198 2.9963,3.2685 0.12485,8.6169 -2.87146,5.3485 0.12484,4.7542 -0.49939,6.2399"
       inkscape:connector-curvature="0"
       sodipodi:nodetypes="csc" />
    <path
       style="fill:none;fill-rule:evenodd;stroke:#000000;stroke-width:4;stroke-linecap:butt;stroke-linejoin:miter;stroke-opacity:1"
       d="m 91.650617,1013.5074 c -1.708609,0.036 -3.405971,0.5151 -4.881523,1.3773 -1.475552,0.8622 -2.726068,2.1058 -3.596417,3.5766 -1.619344,2.7365 -1.856074,6.0417 -2.13991,9.2087 -0.31337,3.4965 -0.721199,7.1045 0.3375,10.4516 0.894489,2.828 2.809525,5.2779 5.18362,7.0559 2.810228,2.1046 6.223376,3.2938 9.684824,3.8811 3.461448,0.5874 6.992739,0.6006 10.503199,0.5436 3.23487,-0.053 6.4841,-0.165 9.66378,-0.7622 3.17969,-0.5973 6.30691,-1.6999 8.93649,-3.5847 3.78633,-2.7139 6.37379,-7.042 6.97182,-11.662 -2.02009,1.5399 -4.35969,2.6588 -6.8265,3.2646 -3.33802,0.8198 -6.82806,0.6979 -10.25921,0.4939 -2.60915,-0.1551 -5.28134,-0.3711 -7.65359,-1.4685 -1.18612,-0.5487 -2.28161,-1.319 -3.11931,-2.3221 -0.8377,-1.0031 -1.40819,-2.2464 -1.51808,-3.5487 -0.13748,-1.6293 0.45554,-3.2719 1.44925,-4.5704 0.9937,-1.2985 2.36437,-2.2732 3.83783,-2.982 3.80392,-1.8299 8.24453,-1.9307 12.39942,-1.1854 4.16379,0.7469 8.17956,2.31 11.75257,4.5746 0.21371,-3.2756 -0.95689,-6.6193 -3.16703,-9.0464 -1.42881,-1.569 -3.25214,-2.747 -5.19913,-3.5912 -1.94699,-0.8441 -4.02005,-1.3653 -6.10815,-1.7437 -4.18229,-0.758 -8.46595,-0.9546 -12.7001,-0.5831"
       id="path5175-3"
       inkscape:path-effect="#path-effect5177-1"
       inkscape:original-d="m 91.650617,1013.5074 c -2.00634,0.2085 -3.59537,2.1877 -8.47794,4.9539 -9.76515,5.5324 -4.69744,-3.6344 -2.13991,9.2087 2.55755,12.8431 -11.75269,4.7216 0.3375,10.4516 6.04509,2.865 2.65515,5.327 5.18362,7.0559 2.52848,1.7289 13.096677,5.9066 20.188023,4.4247 14.18271,-2.9638 11.85768,0.3952 18.60027,-4.3469 6.74259,-4.7421 6.97182,-11.662 6.97182,-11.662 0,0 -3.04832,2.4989 -6.8265,3.2646 -3.77818,0.7656 -6.42291,1.0867 -10.25921,0.4939 -7.67261,-1.1855 -12.98849,-0.6214 -12.29098,-7.3393 0.6975,-6.7179 0.0728,-10.7932 5.28708,-7.5524 8.8138,5.4781 4.26179,-0.5926 12.39942,-1.1854 8.13762,-0.5928 11.75257,4.5746 11.75257,4.5746 0,0 3.34307,-7.2682 -3.16703,-9.0464 -6.51008,-1.7783 0.99902,-4.566 -11.30728,-5.3349 -12.50986,-0.7816 -6.55611,-0.792 -12.7001,-0.5831"
       inkscape:connector-curvature="0"
       sodipodi:nodetypes="csssssscssssscssc" />
  </g>
</svg>
