<?xml version="1.0" encoding="UTF-8" standalone="no"?>
<!-- Created with Inkscape (http://www.inkscape.org/) -->

<svg
   xmlns:dc="http://purl.org/dc/elements/1.1/"
   xmlns:cc="http://creativecommons.org/ns#"
   xmlns:rdf="http://www.w3.org/1999/02/22-rdf-syntax-ns#"
   xmlns:svg="http://www.w3.org/2000/svg"
   xmlns="http://www.w3.org/2000/svg"
   xmlns:sodipodi="http://sodipodi.sourceforge.net/DTD/sodipodi-0.dtd"
   xmlns:inkscape="http://www.inkscape.org/namespaces/inkscape"
   width="140"
   height="200"
   viewBox="0 0 140 200"
   id="svg6224"
   version="1.1"
   inkscape:version="0.91 r13725"
   sodipodi:docname="maya-months-10-sak.svg">
  <defs
     id="defs6226">
    <inkscape:path-effect
       effect="spiro"
       id="path-effect4786-9"
       is_visible="true" />
    <inkscape:path-effect
       effect="spiro"
       id="path-effect4786"
       is_visible="true" />
    <inkscape:path-effect
       effect="spiro"
       id="path-effect4782"
       is_visible="true" />
    <inkscape:path-effect
       effect="spiro"
       id="path-effect4754-4"
       is_visible="true" />
    <inkscape:path-effect
       effect="spiro"
       id="path-effect4750-6"
       is_visible="true" />
    <inkscape:path-effect
       effect="spiro"
       id="path-effect4754"
       is_visible="true" />
    <inkscape:path-effect
       effect="spiro"
       id="path-effect4750"
       is_visible="true" />
    <inkscape:path-effect
       effect="spiro"
       id="path-effect4746"
       is_visible="true" />
    <inkscape:path-effect
       effect="spiro"
       id="path-effect4712-4"
       is_visible="true" />
    <inkscape:path-effect
       effect="spiro"
       id="path-effect4712-3"
       is_visible="true" />
    <inkscape:path-effect
       effect="spiro"
       id="path-effect4712"
       is_visible="true" />
    <inkscape:path-effect
       effect="spiro"
       id="path-effect4708"
       is_visible="true" />
    <inkscape:path-effect
       effect="spiro"
       id="path-effect4704"
       is_visible="true" />
    <inkscape:path-effect
       effect="spiro"
       id="path-effect5247-8-2-5"
       is_visible="true" />
    <inkscape:path-effect
       effect="spiro"
       id="path-effect4049-4-1-2"
       is_visible="true" />
    <inkscape:path-effect
       effect="spiro"
       id="path-effect4091-4-7"
       is_visible="true" />
    <inkscape:path-effect
       effect="spiro"
       id="path-effect4087-3-9"
       is_visible="true" />
    <inkscape:path-effect
       effect="spiro"
       id="path-effect4049-4-5"
       is_visible="true" />
    <inkscape:path-effect
       effect="spiro"
       id="path-effect4047-6-1"
       is_visible="true" />
  </defs>
  <sodipodi:namedview
     id="base"
     pagecolor="#ffffff"
     bordercolor="#666666"
     borderopacity="1.0"
     inkscape:pageopacity="0.0"
     inkscape:pageshadow="2"
     inkscape:zoom="1.979899"
     inkscape:cx="-18.528828"
     inkscape:cy="94.510474"
     inkscape:document-units="px"
     inkscape:current-layer="layer1"
     showgrid="false"
     units="px"
     inkscape:window-width="1024"
     inkscape:window-height="704"
     inkscape:window-x="0"
     inkscape:window-y="27"
     inkscape:window-maximized="1" />
  <metadata
     id="metadata6229">
    <rdf:RDF>
      <cc:Work
         rdf:about="">
        <dc:format>image/svg+xml</dc:format>
        <dc:type
           rdf:resource="http://purl.org/dc/dcmitype/StillImage" />
        <dc:title></dc:title>
      </cc:Work>
    </rdf:RDF>
  </metadata>
  <g
     inkscape:label="Calque 1"
     inkscape:groupmode="layer"
     id="layer1"
     transform="translate(0,-852.36216)">
    <path
       style="fill:none;fill-rule:evenodd;stroke:#000000;stroke-width:4;stroke-linecap:butt;stroke-linejoin:miter;stroke-opacity:1"
       d="m 8.4817587,971.73441 c 0.011303,3.90097 0.1131914,7.80457 -0.071,11.7012 -0.1549015,3.27699 -0.5118752,6.54236 -0.6453,9.8203 -0.1501005,3.68762 -0.015212,7.39879 0.6339,11.03189 1.0253632,5.7391 3.4583843,11.4009 7.7910993,15.3016 2.825737,2.544 6.339148,4.2356 9.982519,5.3231 3.64337,1.0874 7.432293,1.597 11.213181,1.999 8.687549,0.9238 17.427564,1.3006 26.164,1.3406 9.877396,0.045 19.762053,-0.3399 29.587,-1.3574 6.849923,-0.7094 13.680992,-1.7286 20.354002,-3.4303 3.05974,-0.7803 6.14152,-1.7309 8.7291,-3.5407 3.66556,-2.5637 6.0169,-6.6389 7.53309,-10.8472 3.09374,-8.587 3.12274,-17.92388 3.3127,-27.04919 0.3084,-14.81449 1.12005,-29.80083 -1.9048,-44.30651 -0.863,-4.13851 -2.04309,-8.23353 -3.87949,-12.04137 -1.8364,-3.80783 -4.35122,-7.33122 -7.6162,-10.01672 -5.14373,-4.23081 -11.82038,-6.144 -18.4159,-7.06964 -9.483784,-1.33099 -19.11347,-0.83574 -28.690002,-0.89681 -9.254324,-0.059 -18.537199,-0.63916 -27.745148,0.28803 -9.207948,0.92718 -18.49033,3.48021 -25.878351,9.05364 -5.090043,3.83987 -9.1948052,9.16375 -10.8814003,15.31261 -1.1196125,4.0818 -1.1559998,8.38045 -0.9414,12.60757 0.2983411,5.87663 1.0661464,11.724 1.2859,17.6041 0.055885,1.49534 0.076277,2.99182 0.082,4.4882 0.00597,1.56132 -0.00402,3.12267 5e-4,4.684 z"
       id="path4045-7-5"
       inkscape:path-effect="#path-effect4047-6-1"
       inkscape:original-d="m 8.4817587,971.73441 c 1.7525993,1.8107 6.4471993,8.0576 -0.071,11.7012 -6.5182,3.6437 3.2144993,-0.897 -0.6453,9.8203 -3.8598,10.71699 0.4216,10.15599 0.6339,11.03189 1.4071995,7.7665 -3.8159,20.5894 7.7910993,15.3016 11.606801,-5.2878 8.843301,4.1006 21.1957,7.3221 6.1761,1.6108 16.131,1.6798 26.164,1.3406 10.0331,-0.3392 23.1006,-1.5179 29.587,-1.3574 6.578503,0.1628 24.090102,-8.3277 20.354002,-3.4303 -1.2343,1.6179 5.3992,-0.1338 8.7291,-3.5407 3.32989,-3.4069 5.98139,-7.8441 7.53309,-10.8472 3.9637,-7.671 -8.64629,-17.43119 3.3127,-27.04919 11.9586,-9.6179 53.3587,-20.73483 -1.9048,-44.30651 -21.37279,-9.11623 -20.01589,-18.20719 -11.49569,-22.05809 8.52039,-3.85089 15.01169,-4.95448 -18.4159,-7.06964 -66.855501,-4.23032 -5.476102,-48.83946 -28.690002,-0.89681 -11.6065,23.97134 -48.284399,8.46038 -53.623499,9.34167 -2.669401,0.44078 -9.8077008,5.33192 -10.8814003,15.31261 -0.5367,4.99039 -1.9679,6.40274 -0.9414,12.60757 1.0264,6.20492 1.6340995,12.84521 1.2859,17.6041 -2.7857,38.07209 -3.6716,4.7473 0.082,4.4882 3.7535993,-0.259 -1.7521,2.8734 5e-4,4.684 z"
       inkscape:connector-curvature="0"
       sodipodi:nodetypes="zzzcsssssssssssssssszz" />
    <path
       style="fill:none;fill-rule:evenodd;stroke:#000000;stroke-width:4;stroke-linecap:butt;stroke-linejoin:miter;stroke-opacity:1"
       d="m 8.7056582,980.68391 c 3.5665878,0.51509 7.1581848,0.85695 10.7579008,1.024 2.093243,0.0971 4.211026,0.13331 6.262159,-0.29559 2.051133,-0.4289 4.05267,-1.36213 5.434441,-2.93751 0.912716,-1.0406 1.521546,-2.32015 1.923047,-3.6448 0.401501,-1.32465 0.604575,-2.70042 0.780953,-4.0733 0.837712,-6.5205 1.104992,-13.12234 2.388699,-19.56988 0.430682,-2.16314 0.978193,-4.31323 1.838854,-6.34398 0.860661,-2.03074 2.045123,-3.94578 3.633346,-5.47621 2.407825,-2.32021 5.630769,-3.64736 8.90783,-4.31207 3.277062,-0.66471 6.64298,-0.71462 9.98587,-0.79247 10.889991,-0.25359 21.795716,-0.82818 32.6662,-0.12905 2.703545,0.17388 5.428482,0.43168 8.006632,1.26387 2.57815,0.83218 5.02557,2.28772 6.62377,4.47522 1.11436,1.52525 1.77443,3.34541 2.13891,5.19888 0.36447,1.85347 0.44545,3.75005 0.49009,5.63849 0.15196,6.42841 -0.10538,12.85865 -0.1629,19.2886 -0.0547,6.10947 0.0708,12.22965 -0.4216,18.3195 -0.46862,5.79605 -1.57913,11.51913 -2.8134,17.20159 l -4.3598,20.0721"
       id="path4047-0-7"
       inkscape:path-effect="#path-effect4049-4-5"
       inkscape:original-d="m 8.7056582,980.68391 c 5.2526998,-2.1187 8.8961008,7.8648 10.7579008,1.024 0.3601,-1.3229 10.0685,-0.4809 11.6966,-3.2331 1.628,-2.752 3.6449,0.599 2.704,-7.7181 -0.7008,-6.195 2.552699,-11.71793 2.388699,-19.56988 -0.328,-15.70397 0.5806,-7.59911 5.4722,-11.82019 6.486,-5.59697 12.8678,-3.69036 18.8937,-5.10454 13.6322,-3.19927 26.7181,-3.35421 32.6662,-0.12905 6.800202,3.68719 7.408302,-13.9533 14.630402,5.73909 3.611,9.84606 5.0204,15.86448 2.629,10.83737 -2.4887,-5.23166 -3.4628,9.9021 -0.1629,19.2886 3.6276,10.3188 -0.75,5.856 -0.4216,18.3195 0.3282,12.46339 -0.9599,8.6683 -2.8134,17.20159 l -4.3598,20.0721"
       inkscape:connector-curvature="0"
       sodipodi:nodetypes="cssssssssssssc" />
    <path
       style="fill:none;fill-rule:evenodd;stroke:#000000;stroke-width:4;stroke-linecap:butt;stroke-linejoin:miter;stroke-opacity:1"
       d="m 109.09996,993.04271 c -1.96109,0.18562 -3.93971,0.18562 -5.9008,0 -2.26078,-0.21398 -4.511957,-0.67921 -6.603002,-1.5649 -1.783127,-0.75527 -3.476499,-1.85035 -4.5945,-3.4315 -1.041939,-1.47358 -1.525013,-3.30279 -1.5152,-5.1075 0.01718,-3.16007 1.557901,-6.26278 4.0191,-8.2449 1.853903,-1.49304 4.138916,-2.34505 6.429702,-2.9919 3.1053,-0.87685 6.30415,-1.42197 9.5246,-1.6231"
       id="path4085-6-5"
       inkscape:path-effect="#path-effect4087-3-9"
       inkscape:original-d="m 109.09996,993.04271 c -3.5642,0.1089 -10.340999,-1.7982 -5.9008,0 4.0396,1.6326 -4.246699,-1.8305 -6.603002,-1.5649 -4.3846,0.4941 -3.5599,-1.3356 -4.5945,-3.4315 -1.8805,-3.81 -2.1122,-3.2658 -1.5152,-5.1075 1.0599,-3.2697 8.655403,-9.0725 4.0191,-8.2449 -2.9334,0.5237 15.715602,-4.0196 6.429702,-2.9919 -6.451102,0.714 1.005,2.2133 9.5246,-1.6231"
       inkscape:connector-curvature="0"
       sodipodi:nodetypes="cssssssc" />
    <path
       style="fill:none;fill-rule:evenodd;stroke:#000000;stroke-width:4;stroke-linecap:butt;stroke-linejoin:miter;stroke-opacity:1"
       d="m 107.27376,1003.962 c -3.55788,0.2793 -7.1579,0.016 -10.637102,-0.7792 -2.778515,-0.6347 -5.490155,-1.6121 -7.9593,-3.0356 -2.701972,-1.55773 -5.110595,-3.66191 -6.8652,-6.24039 -1.607494,-2.36229 -2.650151,-5.11046 -2.9835,-7.9483 -0.477821,-4.06775 0.508604,-8.23007 2.3871,-11.8696 1.915949,-3.71209 4.767215,-6.94627 8.2485,-9.2552 3.634889,-2.4108 7.862988,-3.77926 12.116602,-4.74422 2.87323,-0.65181 5.78524,-1.13261 8.7155,-1.439"
       id="path4089-44-4"
       inkscape:path-effect="#path-effect4091-4-7"
       inkscape:original-d="m 107.27376,1003.962 c -7.550799,-0.4986 -5.7126,-2.524 -10.637102,-0.7792 -4.9242,1.7449 -1.7218,-2.2877 -7.9593,-3.0356 -6.2375,-0.74779 -2.269,0.7391 -6.8652,-6.24039 -4.596,-6.9796 -5.2815,-2.9629 -2.9835,-7.9483 2.2979,-4.9854 -1.2145,-4.8222 2.3871,-11.8696 3.1291,-6.1228 0.3695,-7.2611 8.2485,-9.2552 7.8789,-1.9942 7.1923,-4.49491 12.116602,-4.74422 4.9243,-0.24924 6.7457,-1.19013 8.7155,-1.439"
       inkscape:connector-curvature="0"
       sodipodi:nodetypes="csssssssc" />
    <ellipse
       style="opacity:1;fill:#000000;fill-opacity:1;stroke:#000000;stroke-width:4;stroke-linecap:round;stroke-linejoin:round;stroke-miterlimit:4;stroke-dasharray:none;stroke-dashoffset:0;stroke-opacity:1"
       id="path4093-70-1"
       cx="97.075554"
       cy="1016.2994"
       rx="0.65949833"
       ry="0.50075179" />
    <ellipse
       style="opacity:1;fill:#000000;fill-opacity:1;stroke:#000000;stroke-width:4;stroke-linecap:round;stroke-linejoin:round;stroke-miterlimit:4;stroke-dasharray:none;stroke-dashoffset:0;stroke-opacity:1"
       id="path4093-6-0-2"
       cx="72.134148"
       cy="967.22003"
       rx="0.65949833"
       ry="0.50075179" />
    <ellipse
       style="opacity:1;fill:#000000;fill-opacity:1;stroke:#000000;stroke-width:4;stroke-linecap:round;stroke-linejoin:round;stroke-miterlimit:4;stroke-dasharray:none;stroke-dashoffset:0;stroke-opacity:1"
       id="path4093-7-0-7"
       cx="66.830681"
       cy="984.59424"
       rx="0.65949833"
       ry="0.50075179" />
    <ellipse
       style="opacity:1;fill:#000000;fill-opacity:1;stroke:#000000;stroke-width:4;stroke-linecap:round;stroke-linejoin:round;stroke-miterlimit:4;stroke-dasharray:none;stroke-dashoffset:0;stroke-opacity:1"
       id="path4093-4-8-6"
       cx="83.979485"
       cy="1011.9357"
       rx="0.65949833"
       ry="0.50075179" />
    <ellipse
       style="opacity:1;fill:#000000;fill-opacity:1;stroke:#000000;stroke-width:4;stroke-linecap:round;stroke-linejoin:round;stroke-miterlimit:4;stroke-dasharray:none;stroke-dashoffset:0;stroke-opacity:1"
       id="path4093-69-2-2"
       cx="71.76635"
       cy="1002.0497"
       rx="0.65949833"
       ry="0.50075179" />
    <ellipse
       style="opacity:1;fill:#000000;fill-opacity:1;stroke:#000000;stroke-width:4;stroke-linecap:round;stroke-linejoin:round;stroke-miterlimit:4;stroke-dasharray:none;stroke-dashoffset:0;stroke-opacity:1"
       id="path4093-86-8-3"
       cx="83.999382"
       cy="955.32458"
       rx="0.65949833"
       ry="0.50075179" />
    <ellipse
       style="opacity:1;fill:#000000;fill-opacity:1;stroke:#000000;stroke-width:4;stroke-linecap:round;stroke-linejoin:round;stroke-miterlimit:4;stroke-dasharray:none;stroke-dashoffset:0;stroke-opacity:1"
       id="path4093-447-6-7"
       cx="98.063835"
       cy="949.90729"
       rx="0.65949833"
       ry="0.50075179" />
    <path
       style="fill:none;fill-rule:evenodd;stroke:#000000;stroke-width:4;stroke-linecap:butt;stroke-linejoin:miter;stroke-opacity:1"
       d="m 22.660059,981.61591 c 0.883654,-4.76035 1.700461,-9.53311 2.4501,-14.3164 1.025326,-6.54238 1.928677,-13.12249 3.6399,-19.51982 1.412919,-5.28213 3.516384,-10.63234 7.598399,-14.27025 3.304978,-2.94541 7.648168,-4.50964 12.017989,-5.21885 4.369821,-0.70922 8.823068,-0.62706 13.249911,-0.66428 11.060931,-0.093 22.140168,-0.94242 33.1694,-0.10047 3.217937,0.24565 6.444782,0.63918 9.532022,1.57959 3.08725,0.94042 6.04617,2.45365 8.35058,4.71311 2.22271,2.17936 3.76617,4.98502 4.753,7.93735 2.55681,7.64927 1.4614,15.95704 1.0871,24.01362 -0.31538,6.7885 -0.0969,13.6015 -0.6713,20.373 -0.50489,5.95159 -1.71465,11.81863 -3.0631,17.63739 l -4.7349,20.4318"
       id="path4047-0-8-0"
       inkscape:path-effect="#path-effect4049-4-1-2"
       inkscape:original-d="m 22.660059,981.61591 c 1.6281,-2.752 1.3869,-9.2342 2.4501,-14.3164 0.6963,-3.3286 3.804,-11.66787 3.6399,-19.51982 -0.3281,-15.70397 -7.503,-4.79804 7.598399,-14.27025 15.1014,-9.47221 15.4535,-6.13194 25.2679,-5.88313 10.2205,0.2591 26.5331,-1.38578 33.1694,-0.10047 5.532902,1.0716 12.000002,2.78818 17.882602,6.2927 4.7366,2.82178 3.7272,2.23525 4.753,7.93735 1.0258,5.70193 -1.539,14.41679 1.0871,24.01362 5.2527,19.1937 -0.9998,7.9096 -0.6713,20.373 0.3281,12.4634 -1.0906,9.126 -3.0631,17.63739 l -4.7349,20.4318"
       inkscape:connector-curvature="0"
       sodipodi:nodetypes="cssssssssssc" />
    <path
       style="fill:none;fill-rule:evenodd;stroke:#000000;stroke-width:4;stroke-linecap:butt;stroke-linejoin:miter;stroke-opacity:1"
       d="m 19.276859,916.9636 c -3.995714,-3.64764 -7.071653,-8.29504 -8.867901,-13.39842 -2.7752121,-7.88474 -2.4159316,-16.76629 0.672,-24.53389 2.180154,-5.48411 5.690589,-10.44237 10.182445,-14.27013 4.491857,-3.82777 9.960528,-6.51239 15.749451,-7.65997 5.788923,-1.14759 11.885655,-0.74827 17.453867,1.20713 5.568211,1.95541 10.589364,5.46877 14.283137,10.07145 3.507048,4.37 5.797255,9.6842 6.7061,15.21324 1.340441,8.1547 -0.372888,16.77513 -4.7298,23.79747"
       id="path5245-8-17-0"
       inkscape:path-effect="#path-effect5247-8-2-5"
       inkscape:original-d="m 19.276859,916.9636 c -19.88520035,-38.31967 -15.3564003,10.04568 -8.867901,-13.39842 6.118501,-22.10734 -2.2811993,-14.86283 0.672,-24.53389 2.9531,-9.67107 30.9916,-30.92478 57.6689,-10.65152 5.5552,4.34357 8.5806,23.42694 6.7061,15.21324 -1.4622,-6.40715 -0.1451,17.54471 -4.7298,23.79747"
       inkscape:connector-curvature="0"
       sodipodi:nodetypes="cszcsc" />
    <path
       style="fill:none;fill-rule:evenodd;stroke:#000000;stroke-width:4px;stroke-linecap:butt;stroke-linejoin:miter;stroke-opacity:1"
       d="m 42.781858,959.09817 c 3.012346,-0.50618 6.006541,-1.12037 8.9749,-1.84099 1.4549,-0.3532 2.907703,-0.73328 4.3017,-1.27941 1.244052,-0.48739 2.436695,-1.10587 3.5518,-1.84191"
       id="path4702"
       inkscape:path-effect="#path-effect4704"
       inkscape:original-d="m 42.781858,959.09817 c 6.5,0.25 2.2249,-0.59099 8.9749,-1.84099 3.375,-0.625 3.9009,-0.90533 4.3017,-1.27941 0.4009,-0.37408 0.6768,-0.84191 3.5518,-1.84191"
       inkscape:connector-curvature="0"
       sodipodi:nodetypes="cssc" />
    <path
       style="fill:none;fill-rule:evenodd;stroke:#000000;stroke-width:4px;stroke-linecap:butt;stroke-linejoin:miter;stroke-opacity:1"
       d="m 51.799558,972.37851 c 0.239214,-2.64933 0.357245,-5.3096 0.3536,-7.9697 -0.0031,-2.29293 -0.09667,-4.58573 -0.2803,-6.8713"
       id="path4706"
       inkscape:path-effect="#path-effect4708"
       inkscape:original-d="m 51.799558,972.37851 c 0.5,-4.75 0.1036,-5.7197 0.3536,-7.9697 0.25,-2.25 -1.5303,-1.8713 -0.2803,-6.8713"
       inkscape:connector-curvature="0"
       sodipodi:nodetypes="csc" />
    <path
       style="fill:none;fill-rule:evenodd;stroke:#000000;stroke-width:4px;stroke-linecap:butt;stroke-linejoin:miter;stroke-opacity:1"
       d="m 16.075658,1019.184 c -2.500751,3.9826 -3.752009,8.7374 -3.5355,13.4351 0.126276,2.7398 0.750175,5.4774 2.013208,7.912 1.263033,2.4346 3.184493,4.5557 5.588193,5.8766 2.317606,1.2736 4.987253,1.7686 7.625912,1.9445 2.638659,0.1758 5.288963,0.051 7.930487,0.1768 2.321354,0.1104 4.636943,0.4141 6.960199,0.3562 2.323257,-0.058 4.701816,-0.5058 6.651601,-1.7704 1.498113,-0.9717 2.690201,-2.4101 3.3587,-4.0659 0.740464,-1.834 0.833183,-3.8564 0.8838,-5.8336 0.07843,-3.0635 0.07846,-6.1289 10e-5,-9.1924"
       id="path4710"
       inkscape:path-effect="#path-effect4712"
       inkscape:original-d="m 16.075658,1019.184 c -7.4245998,10.2531 -7.0709998,2.1214 -3.5355,13.4351 3.5355,11.3137 -3.0051998,9.1924 7.601401,13.7886 10.6066,4.5962 6.7175,2.1213 15.556399,2.1213 8.8388,0 6.8942,6.7175 13.6118,-1.4142 6.7175,-8.1317 4.7729,3.7123 3.3587,-4.0659 -1.4142,-7.7782 0.8838,-3.0052 0.8838,-5.8336 0,-2.8285 1.4143,-5.3033 10e-5,-9.1924"
       inkscape:connector-curvature="0"
       sodipodi:nodetypes="cssssssc" />
    <path
       style="fill:none;fill-rule:evenodd;stroke:#000000;stroke-width:4px;stroke-linecap:butt;stroke-linejoin:miter;stroke-opacity:1"
       d="m 54.560858,1028.2499 c -0.623842,2.0276 -0.923388,4.1546 -0.8838,6.2757 0.05055,2.7085 0.669639,5.4371 2.0329,7.7781 1.028237,1.7657 2.480817,3.2963 4.2427,4.331 2.129511,1.2506 4.625294,1.7418 7.089234,1.9086 2.463941,0.1669 4.9387,0.03 7.406466,0.1244 2.049436,0.079 4.093701,0.317 6.144496,0.2925 2.050796,-0.025 4.140737,-0.327 5.964704,-1.2648 2.654664,-1.3649 4.526785,-4.0121 5.3033,-6.8943 0.486742,-1.8067 0.576489,-3.6979 0.5302,-5.5684 -0.06475,-2.6164 -0.390959,-5.2263 -0.9722,-7.7782"
       id="path4710-0"
       inkscape:path-effect="#path-effect4712-3"
       inkscape:original-d="m 54.560858,1028.2499 c -7.4246,10.2531 -4.4193,-5.038 -0.8838,6.2757 3.5355,11.3137 -8.5737,3.1819 2.0329,7.7781 5.3033,2.2981 1.5689,3.3366 4.2427,4.331 2.6737,0.9944 10.0763,2.033 14.4957,2.033 8.8388,0 5.3916,7.1594 12.1092,-0.9723 6.7175,-8.1317 6.7175,0.8839 5.3033,-6.8943 -1.4142,-7.7782 0.5302,-2.74 0.5302,-5.5684 0,-2.8285 0.442,-3.8891 -0.9722,-7.7782"
       inkscape:connector-curvature="0"
       sodipodi:nodetypes="csssssssc" />
    <path
       style="fill:none;fill-rule:evenodd;stroke:#000000;stroke-width:4px;stroke-linecap:butt;stroke-linejoin:miter;stroke-opacity:1"
       d="m 118.37316,1021.9059 c 2.47244,0.32 4.85836,1.2866 6.8564,2.7776 0.74745,0.5578 1.44289,1.1891 2.03899,1.9064 1.20723,1.4526 1.98348,3.2372 2.36355,5.0874 0.38006,1.8501 0.37421,3.7661 0.12585,5.6385 -0.22203,1.6739 -0.6399,3.3312 -1.35666,4.8601 -0.71677,1.529 -1.74043,2.9285 -3.06274,3.9787 -1.6665,1.3236 -3.74236,2.0466 -5.83809,2.4167 -2.09573,0.37 -4.23342,0.4087 -6.3596,0.5002 -4.37219,0.1882 -8.90175,0.5809 -12.9931,-0.9723 -2.825295,-1.0725 -5.352031,-3.1436 -6.540702,-5.922 -1.047871,-2.4493 -0.996896,-5.2295 -0.6186,-7.8666 0.383001,-2.6699 1.08349,-5.294 2.082,-7.7996"
       id="path4710-9"
       inkscape:path-effect="#path-effect4712-4"
       inkscape:original-d="m 118.37316,1021.9059 c 1.7678,1.591 5.0209,2.8326 6.8564,2.7776 0.91779,-0.028 1.44569,-1.2797 2.03899,1.9064 0.5934,3.186 2.5511,7.7633 2.4894,10.7259 -0.088,4.2426 -2.6578,6.9271 -4.4194,8.8388 -2.98059,3.2345 -3.35879,2.9169 -12.19769,2.9169 -8.8388,0 -6.2755,7.1594 -12.9931,-0.9723 -6.717502,-8.1317 -7.954902,1.8562 -6.540702,-5.922 1.4142,-7.7782 -0.6186,-5.0382 -0.6186,-7.8666 0,-2.8285 0.6678,-3.9105 2.082,-7.7996"
       inkscape:connector-curvature="0"
       sodipodi:nodetypes="cssssssssc" />
    <path
       style="fill:none;fill-rule:evenodd;stroke:#000000;stroke-width:4;stroke-linecap:butt;stroke-linejoin:miter;stroke-opacity:1"
       d="m 65.122758,864.23876 c 1.507744,-1.94967 3.513501,-3.51095 5.773559,-4.49413 2.260058,-0.98318 4.769683,-1.3862 7.223941,-1.1601 2.8808,0.2654 5.654174,1.39029 8.01344,3.0646 2.359266,1.67431 4.313188,3.88523 5.84156,6.34155 4.211918,6.76919 5.104859,15.13062 4.5084,23.08086 -0.425992,5.67808 -1.556405,11.30296 -3.3571,16.70477"
       id="path4744"
       inkscape:path-effect="#path-effect4746"
       inkscape:original-d="m 65.122758,864.23876 c 10.8951,-6.00756 0.224,-5.65423 12.9975,-5.65423 12.7735,0 9.3468,-5.78945 13.855,9.40615 4.5084,15.1956 4.5084,5.41163 4.5084,23.08086 0,17.66933 -1.4787,9.99046 -3.3571,16.70477"
       inkscape:connector-curvature="0"
       sodipodi:nodetypes="csssc" />
    <path
       style="fill:none;fill-rule:evenodd;stroke:#000000;stroke-width:4;stroke-linecap:butt;stroke-linejoin:miter;stroke-opacity:1"
       d="m 96.405758,885.36498 c 3.681322,0.13519 7.355842,0.45523 11.005102,0.95851 3.94215,0.54367 7.98753,1.2975 11.8557,0.36295 1.89774,-0.45849 3.70915,-1.32971 5.1737,-2.62072 0.5516,-0.48623 1.05372,-1.03131 1.46829,-1.63861 0.9905,-1.45099 1.44667,-3.20139 1.7033,-4.93938 0.47069,-3.18771 0.32422,-6.45847 -0.354,-9.60856 -0.32085,-1.49023 -0.76882,-2.97551 -1.5787,-4.26695 -0.77035,-1.22842 -1.85246,-2.24812 -3.08042,-3.0192 -1.22797,-0.77107 -2.59969,-1.29853 -4.01007,-1.63513 -2.82074,-0.6732 -5.76126,-0.58903 -8.6579,-0.45017 -4.31021,0.20662 -8.69583,0.54348 -12.704502,2.14073 -2.531352,1.00862 -4.865038,2.51063 -6.8315,4.39692"
       id="path4748"
       inkscape:path-effect="#path-effect4750"
       inkscape:original-d="m 96.405758,885.36498 c 8.640902,-1.59014 -0.4534,3.60895 11.005102,0.95851 5.7293,-1.32517 9.6961,1.22934 11.8557,0.36295 2.0193,-0.81017 3.0134,1.4432 5.1737,-2.62072 2.16019,-4.06392 5.08839,-5.0597 1.46829,-1.63861 -1.01939,0.96322 2.6774,-4.1245 1.7033,-4.93938 -3.06379,-2.56306 -108.347191,-54.12639 -0.354,-9.60856 24.4309,10.07113 11.007,0.32708 -1.5787,-4.26695 -12.58569,-4.59402 -7.55749,-9.77834 -15.74839,-5.1045 -3.5881,2.04735 -8.8349,1.61449 -12.704502,2.14073 -3.8696,0.52623 -6.3618,2.01155 -6.8315,4.39692"
       inkscape:connector-curvature="0"
       sodipodi:nodetypes="ccssssssssc" />
    <path
       style="fill:none;fill-rule:evenodd;stroke:#000000;stroke-width:4;stroke-linecap:butt;stroke-linejoin:miter;stroke-opacity:1"
       d="m 95.654458,876.79093 c 3.052538,0.3835 6.157362,0.34859 9.200502,-0.10346 1.30367,-0.19365 2.61662,-0.4707 3.78047,-1.08918 0.58192,-0.30924 1.12203,-0.70325 1.56814,-1.18828 0.44611,-0.48502 0.79669,-1.06275 0.98689,-1.69369 0.12786,-0.42414 0.18271,-0.87335 0.12963,-1.31315 -0.0531,-0.4398 -0.21701,-0.86979 -0.49463,-1.215 -0.31445,-0.39101 -0.75711,-0.65714 -1.20831,-0.87664 -0.45121,-0.21949 -0.92239,-0.40173 -1.34853,-0.66663 -0.42614,-0.26489 -0.81327,-0.62718 -0.99335,-1.09551 -0.09,-0.23417 -0.12519,-0.49141 -0.085,-0.73905 0.0401,-0.24765 0.1578,-0.48465 0.34202,-0.65496 0.2088,-0.19303 0.49055,-0.29185 0.77251,-0.3287 0.28196,-0.0368 0.56784,-0.0166 0.85169,4.1e-4 1.50576,0.0901 3.08098,0.10187 4.4137,0.80847 0.83702,0.44379 1.52903,1.14897 1.97915,1.9826 0.45013,0.83364 0.65983,1.79171 0.62435,2.73844 -0.0584,1.55843 -0.77645,3.05084 -1.8286,4.20197 -1.06625,1.16657 -2.45928,2.00289 -3.93675,2.56402 -1.47747,0.56114 -3.04251,0.85825 -4.61025,1.0582 -3.30078,0.42098 -6.655021,0.42098 -9.955802,0"
       id="path4752"
       inkscape:path-effect="#path-effect4754"
       inkscape:original-d="m 95.654458,876.79093 c 5.447502,-0.88338 4.504302,3.96051 9.200502,-0.10346 4.6961,-4.06398 6.8991,3.44993 6.3355,-3.97115 -0.2817,-3.71054 2.785,0.51186 -0.365,-2.52815 -1.0363,-1 -5.2656,-5.35797 -3.2932,-4.03279 3.9448,2.65044 9.8643,0.0951 1.6242,-0.32829 -21.164502,-1.08745 2.5118,-0.73759 4.4137,0.80847 0.9511,0.77306 2.0605,2.73877 2.6035,4.72104 0.543,1.98227 -0.5136,3.36268 -1.8286,4.20197 -5.2598,3.35718 -2.1602,-7.39784 -8.547,3.62222 -3.0583,5.27697 -7.889602,0 -9.955802,0"
       inkscape:connector-curvature="0"
       sodipodi:nodetypes="cscscsssssc" />
    <path
       style="fill:none;fill-rule:evenodd;stroke:#000000;stroke-width:4;stroke-linecap:butt;stroke-linejoin:miter;stroke-opacity:1"
       d="m 96.405758,885.19717 c 3.938482,0.13145 7.868382,0.51983 11.756402,1.16187 2.71403,0.44817 5.40596,1.01947 8.0989,1.58059 1.53529,0.31991 3.08007,0.63916 4.53935,1.21358 1.45928,0.57442 2.84332,1.42324 3.82775,2.64404 1.30182,1.6144 1.79816,3.73021 2.03169,5.79091 0.26355,2.32559 0.23644,4.70886 -0.3628,6.97133 -1.10917,4.18776 -4.25968,7.78319 -8.26549,9.43276"
       id="path4748-9"
       inkscape:path-effect="#path-effect4750-6"
       inkscape:original-d="m 96.405758,885.19717 c 8.640902,1.59015 0.2979,-1.48857 11.756402,1.16187 5.7293,1.32517 5.9393,0.7142 8.0989,1.58059 2.0193,0.81022 6.2068,-0.20636 8.3671,3.85762 2.16019,4.06387 5.65189,9.21199 2.03169,5.79091 -1.0193,-0.96324 -0.2938,5.70318 -0.3628,6.97133 -0.2355,4.33085 -15.49589,11.87771 -8.26549,9.43276"
       inkscape:connector-curvature="0"
       sodipodi:nodetypes="ccssssc" />
    <path
       style="fill:none;fill-rule:evenodd;stroke:#000000;stroke-width:4;stroke-linecap:butt;stroke-linejoin:miter;stroke-opacity:1"
       d="m 96.030258,894.38964 c 2.392938,-1.05876 4.988732,-1.65681 7.603702,-1.75183 1.55255,-0.0564 3.13818,0.0692 4.58234,0.64187 1.44416,0.57271 2.74036,1.63529 3.34986,3.06431 0.1714,0.40187 0.28769,0.83094 0.3028,1.26757 0.0151,0.43664 -0.0744,0.88158 -0.2918,1.26053 -0.25562,0.44554 -0.67211,0.77782 -1.11429,1.03921 -0.44218,0.26139 -0.91755,0.46219 -1.36539,0.71374 -0.44785,0.25155 -0.87664,0.56317 -1.16123,0.99078 -0.1423,0.21381 -0.24617,0.45495 -0.28863,0.70825 -0.0425,0.25329 -0.0221,0.51885 0.0728,0.7575 0.0998,0.25099 0.27986,0.46662 0.49868,0.62496 0.21883,0.15834 0.4753,0.26085 0.73981,0.31556 0.52901,0.10944 1.07828,0.0306 1.60661,-0.0821 0.95013,-0.20266 1.88615,-0.51871 2.70628,-1.03947 0.82014,-0.52076 1.52117,-1.25784 1.89532,-2.1544 0.35718,-0.85592 0.40188,-1.8262 0.19979,-2.73137 -0.20209,-0.90516 -0.64229,-1.74715 -1.20939,-2.48102 -0.97454,-1.26112 -2.31677,-2.20773 -3.76927,-2.86377 -1.45251,-0.65605 -3.01669,-1.03353 -4.58993,-1.28862 -2.93709,-0.47622 -5.941406,-0.53593 -8.895102,-0.17678"
       id="path4752-0"
       inkscape:path-effect="#path-effect4754-4"
       inkscape:original-d="m 96.030258,894.38964 c 5.447502,0.88338 2.907603,-5.81581 7.603702,-1.75183 4.6961,4.06397 8.4958,-3.7149 7.9322,3.70618 -0.2817,3.71054 3.1607,-0.51186 0.011,2.5281 -1.0363,1.00003 -5.8291,5.53465 -3.8567,4.20948 3.9447,-2.65045 7.1502,0.27685 2.8451,0.85842 -2.0204,0.27296 2.6997,-1.64785 4.6016,-3.19387 1.902,-1.54606 3.796,-3.53389 -1.0096,-5.21239 -5.9588,-2.0813 -1.9724,6.86769 -8.3592,-4.15239 -3.0583,-5.2769 -6.828899,-0.17678 -8.895102,-0.17678"
       inkscape:connector-curvature="0"
       sodipodi:nodetypes="cscscssssc" />
    <path
       style="fill:none;fill-rule:evenodd;stroke:#000000;stroke-width:4px;stroke-linecap:butt;stroke-linejoin:miter;stroke-opacity:1"
       d="m 81.836658,872.10601 c 1.353756,4.11659 2.187384,8.40393 2.4748,12.72786 0.354545,5.33384 -0.124385,10.72226 -1.4141,15.90995"
       id="path4780"
       inkscape:path-effect="#path-effect4782"
       inkscape:original-d="m 81.836658,872.10601 c 7.4246,7.7782 0,1.76776 2.4748,12.72786 2.4749,10.9602 -0.707,8.13175 -1.4141,15.90995"
       inkscape:connector-curvature="0"
       sodipodi:nodetypes="csc" />
    <path
       style="fill:none;fill-rule:evenodd;stroke:#000000;stroke-width:4;stroke-linecap:butt;stroke-linejoin:miter;stroke-opacity:1"
       d="m 30.943259,890.22608 c 0.755393,3.2558 3.112166,6.05636 6.104399,7.54545 1.846334,0.91883 3.927906,1.36504 5.987844,1.26578 2.059937,-0.0993 4.093284,-0.74569 5.822656,-1.86929 1.731327,-1.12487 3.152319,-2.72698 4.044146,-4.58909 0.891827,-1.86211 1.249375,-3.97945 0.998354,-6.02879 -0.419955,-3.42853 -2.578776,-6.56372 -5.55,-8.32525 -2.143856,-1.27102 -4.691037,-1.85406 -7.173039,-1.62764 -2.482001,0.22642 -4.885659,1.26349 -6.74366,2.92464 -1.46786,1.31235 -2.594157,3.00788 -3.212179,4.87735 -0.618022,1.86947 -0.723532,3.90881 -0.278521,5.82684 z"
       id="path4784"
       inkscape:path-effect="#path-effect4786"
       inkscape:original-d="m 30.943259,890.22608 c 2.4061,2.79099 -0.7179,6.80538 6.104399,7.54545 6.8222,0.74005 6.7583,5.23999 11.8105,-0.60351 5.0523,-5.84363 8.1173,-2.97089 5.0425,-10.61788 -3.075,-7.64705 2.8721,-5.42448 -5.55,-8.32525 -8.422,-2.90071 -11.7338,-4.79639 -13.916699,1.297 -2.183,6.09332 -5.8969,7.91321 -3.4907,10.70419 z"
       inkscape:connector-curvature="0"
       sodipodi:nodetypes="zsssssz" />
    <path
       style="fill:none;fill-rule:evenodd;stroke:#000000;stroke-width:4;stroke-linecap:butt;stroke-linejoin:miter;stroke-opacity:1"
       d="m 34.515059,889.23896 c 0.254613,1.03251 0.81275,1.97977 1.547179,2.74887 0.734429,0.7691 1.641089,1.36378 2.61452,1.79195 1.276646,0.56154 2.679252,0.84172 4.072887,0.78759 1.393635,-0.0541 2.776091,-0.44487 3.978913,-1.15082 1.105299,-0.64872 2.06033,-1.5689 2.688265,-2.68614 0.627935,-1.11723 0.91838,-2.43318 0.749235,-3.70358 -0.14341,-1.07711 -0.611466,-2.10051 -1.283398,-2.95446 -0.671933,-0.85395 -1.54289,-1.54176 -2.500302,-2.05566 -1.482939,-0.79598 -3.190517,-1.17947 -4.868938,-1.05457 -1.67842,0.12489 -3.320843,0.76324 -4.618462,1.8351 -0.930595,0.76869 -1.684472,1.76103 -2.121051,2.88633 -0.436579,1.12529 -0.547838,2.38348 -0.258848,3.55539 z"
       id="path4784-6"
       inkscape:path-effect="#path-effect4786-9"
       inkscape:original-d="m 34.515059,889.23896 c 1.640499,1.6796 -0.4893,4.09544 4.161699,4.54082 4.651,0.44534 4.6074,3.15334 8.0518,-0.36323 3.4441,-3.51664 5.5338,-1.78782 3.4375,-6.38972 -2.0963,-4.60198 1.958,-3.26443 -3.7837,-5.01012 -5.7415,-1.74563 -7.9992,-2.88645 -9.4874,0.78053 -1.4882,3.66691 -4.020199,4.76211 -2.379899,6.44172 z"
       inkscape:connector-curvature="0"
       sodipodi:nodetypes="zsssssz" />
  </g>
</svg>
