<?xml version="1.0" encoding="UTF-8" standalone="no"?>
<!-- Created with Inkscape (http://www.inkscape.org/) -->

<svg
   xmlns:dc="http://purl.org/dc/elements/1.1/"
   xmlns:cc="http://creativecommons.org/ns#"
   xmlns:rdf="http://www.w3.org/1999/02/22-rdf-syntax-ns#"
   xmlns:svg="http://www.w3.org/2000/svg"
   xmlns="http://www.w3.org/2000/svg"
   xmlns:sodipodi="http://sodipodi.sourceforge.net/DTD/sodipodi-0.dtd"
   xmlns:inkscape="http://www.inkscape.org/namespaces/inkscape"
   width="140"
   height="200"
   viewBox="0 0 140 200"
   id="svg7282"
   version="1.1"
   inkscape:version="0.91 r13725"
   sodipodi:docname="maya-months-04-sek.svg">
  <defs
     id="defs7284">
    <inkscape:path-effect
       effect="spiro"
       id="path-effect4123"
       is_visible="true" />
    <inkscape:path-effect
       effect="spiro"
       id="path-effect5177-1-3"
       is_visible="true" />
    <inkscape:path-effect
       effect="spiro"
       id="path-effect4065-2-7"
       is_visible="true" />
    <inkscape:path-effect
       effect="spiro"
       id="path-effect4065-2"
       is_visible="true" />
    <inkscape:path-effect
       effect="spiro"
       id="path-effect4065"
       is_visible="true" />
    <inkscape:path-effect
       effect="spiro"
       id="path-effect3985-8-9"
       is_visible="true" />
    <inkscape:path-effect
       effect="spiro"
       id="path-effect3985-80"
       is_visible="true" />
    <inkscape:path-effect
       effect="spiro"
       id="path-effect4007-3"
       is_visible="true" />
    <inkscape:path-effect
       effect="spiro"
       id="path-effect4007"
       is_visible="true" />
    <inkscape:path-effect
       effect="spiro"
       id="path-effect3985-8"
       is_visible="true" />
    <inkscape:path-effect
       effect="spiro"
       id="path-effect3985"
       is_visible="true" />
    <inkscape:path-effect
       effect="spiro"
       id="path-effect3931-5"
       is_visible="true" />
    <inkscape:path-effect
       effect="spiro"
       id="path-effect3931-1"
       is_visible="true" />
    <inkscape:path-effect
       effect="spiro"
       id="path-effect3931-89"
       is_visible="true" />
    <inkscape:path-effect
       effect="spiro"
       id="path-effect3931-7"
       is_visible="true" />
    <inkscape:path-effect
       effect="spiro"
       id="path-effect3931-8"
       is_visible="true" />
    <inkscape:path-effect
       effect="spiro"
       id="path-effect3931"
       is_visible="true" />
    <inkscape:path-effect
       effect="spiro"
       id="path-effect5247-7-5-4-8"
       is_visible="true" />
    <inkscape:path-effect
       effect="spiro"
       id="path-effect5247-7-6-7"
       is_visible="true" />
    <inkscape:path-effect
       effect="spiro"
       id="path-effect5247-8-3"
       is_visible="true" />
    <inkscape:path-effect
       effect="spiro"
       id="path-effect4464-0-7-0-0-6"
       is_visible="true" />
  </defs>
  <sodipodi:namedview
     id="base"
     pagecolor="#ffffff"
     bordercolor="#666666"
     borderopacity="1.0"
     inkscape:pageopacity="0.0"
     inkscape:pageshadow="2"
     inkscape:zoom="1.979899"
     inkscape:cx="69.010984"
     inkscape:cy="96.374639"
     inkscape:document-units="px"
     inkscape:current-layer="layer1"
     showgrid="false"
     units="px"
     inkscape:window-width="1024"
     inkscape:window-height="704"
     inkscape:window-x="0"
     inkscape:window-y="27"
     inkscape:window-maximized="1" />
  <metadata
     id="metadata7287">
    <rdf:RDF>
      <cc:Work
         rdf:about="">
        <dc:format>image/svg+xml</dc:format>
        <dc:type
           rdf:resource="http://purl.org/dc/dcmitype/StillImage" />
        <dc:title></dc:title>
      </cc:Work>
    </rdf:RDF>
  </metadata>
  <g
     inkscape:label="Calque 1"
     inkscape:groupmode="layer"
     id="layer1"
     transform="translate(0,-852.36216)">
    <path
       style="fill:none;fill-rule:evenodd;stroke:#000000;stroke-width:4;stroke-linecap:butt;stroke-linejoin:miter;stroke-opacity:1"
       d="m 22.580662,910.56438 c 7.219668,-4.79676 15.887462,-7.03683 24.520785,-7.81029 8.633324,-0.77346 17.322144,-0.15929 25.977045,0.31526 14.469219,0.79336 29.210478,1.24087 42.904618,5.97987 3.4893,1.20751 6.9443,2.72411 9.7308,5.14665 2.87701,2.50123 4.90918,5.8682 6.25526,9.43491 1.34608,3.56671 2.04021,7.34487 2.55794,11.12181 1.52628,11.13447 1.5719,22.41342 1.5375,33.65196 -0.0312,10.21056 -0.12948,20.4622 -1.659,30.5576 -0.54766,3.61475 -1.28385,7.22205 -2.60322,10.63175 -1.31936,3.4096 -3.24704,6.6302 -5.92938,9.1145 -2.66528,2.4685 -6.01042,4.1431 -9.5198,5.0819 -4.18859,1.1205 -8.57378,1.2186 -12.9092,1.2808 -9.66314,0.1386 -19.329964,0.1324 -28.987308,0.4946 -13.697925,0.5138 -27.6611,1.7424 -40.91905,-1.7395 -8.627043,-2.2657 -16.961313,-6.7197 -22.28074,-13.8795 -2.9967167,-4.0335 -4.9359477,-8.7825 -6.1167197,-13.66666 -2.3755761,-9.82642 -1.7531453,-20.08718 -1.60225,-30.19555 0.1055941,-7.07368 -0.026276,-14.16576 0.6834796,-21.20453 0.7097551,-7.03877 2.2963591,-14.08352 5.6376304,-20.31922 3.0079917,-5.61371 7.4168997,-10.4719 12.7216097,-13.99636 z"
       id="path4462-4-4-5-5-1"
       inkscape:path-effect="#path-effect4464-0-7-0-0-6"
       inkscape:original-d="m 22.580662,910.56438 c 9.83203,-4.31547 31.03412,-6.91895 50.49783,-7.49503 24.829818,-0.73493 47.124118,10.90668 42.904618,5.97987 -2.1097,-2.46336 3.8474,-7.16631 9.7308,5.14665 2.9417,6.15646 6.8815,10.51229 8.8132,20.55672 1.9317,10.04442 1.6786,28.07557 1.5375,33.65196 -0.1419,5.61012 2.6473,20.72204 -1.659,30.5576 -13.5914,31.04245 -6.5189,15.33325 -8.5326,19.74625 -2.0137,4.4132 -5.7013,5.9639 -9.5198,5.0819 -3.8185,-0.8821 -10.7251,-1.1792 -12.9092,1.2808 -8.7361,9.8398 -7.766,1.2362 -28.987308,0.4946 -20.40364,-0.7131 -36.98807,-5.9412 -40.91905,-1.7395 -1.96549,2.1007 -19.99612,-12.61 -22.28074,-13.8795 -3.8341397,-2.1307 -4.2027897,-7.3061 -6.1167197,-13.66666 -3.82786,-12.72109 -3.39608,-26.38463 -1.60225,-30.19555 1.79382,-3.8109 4.4669,-29.67532 6.32111,-41.52375 1.8542097,-11.84844 2.8895497,-9.68088 12.7216097,-13.99636 z"
       inkscape:connector-curvature="0"
       sodipodi:nodetypes="sssssssssssssssss" />
    <path
       style="fill:none;fill-rule:evenodd;stroke:#000000;stroke-width:4;stroke-linecap:butt;stroke-linejoin:miter;stroke-opacity:1"
       d="m 26.378912,908.22625 c -6.098406,-0.4426 -11.876615,-4.07226 -14.92274,-9.37392 -2.0763392,-3.61379 -2.8998208,-7.88751 -2.5896422,-12.04376 0.3101785,-4.15625 1.7223972,-8.19343 3.8321722,-11.7878 1.799661,-3.06603 4.10719,-5.83057 6.7837,-8.17058 6.70849,-5.86507 15.504606,-8.88416 24.320282,-10.18291 8.815676,-1.29874 17.77539,-1.00837 26.686208,-1.02292 9.732744,-0.0159 19.51701,-0.39616 29.153813,0.96713 9.636805,1.3633 19.268025,4.61715 26.597805,11.02034 3.17161,2.77067 5.8849,6.13136 7.5461,10.00127 1.70687,3.9763 2.25731,8.43934 1.57977,12.71314 -0.67754,4.27379 -2.57934,8.34481 -5.41307,11.61504 -3.32033,3.83178 -7.91612,6.5389 -12.8772,7.58522"
       id="path5245-8-7"
       inkscape:path-effect="#path-effect5247-8-3"
       inkscape:original-d="m 26.378912,908.22625 c -36.76647,-37.22262 -26.91942974,13.39891 -14.92274,-9.37392 11.31276,-21.47448 -24.211179,-6.65208 1.24253,-23.83156 25.45372,-17.17975 -52.60829,-5.30737 6.7837,-8.17058 29.696,-1.43161 32.12314,-13.06 51.00649,-11.20583 18.883318,1.85418 60.297918,1.55945 55.751618,11.98747 -10.3582,23.75874 5.2483,3.73787 7.5461,10.00127 2.2979,6.2634 -1.0051,3.56941 -3.8333,24.32818 -5.6564,41.51743 6.92,-9.59443 -12.8772,7.58522"
       inkscape:connector-curvature="0"
       sodipodi:nodetypes="csssssssc" />
    <path
       style="fill:none;fill-rule:evenodd;stroke:#000000;stroke-width:4;stroke-linecap:butt;stroke-linejoin:miter;stroke-opacity:1"
       d="m 32.566662,905.64609 c -1.425598,-1.62273 -2.627903,-3.44135 -3.56249,-5.38869 -1.212017,-2.5254 -1.972955,-5.27708 -2.128933,-8.07391 -0.155977,-2.79684 0.300632,-5.63747 1.418603,-8.20588 1.946139,-4.47104 5.7891,-7.90217 10.06135,-10.25281 5.03675,-2.77128 10.725133,-4.20106 16.438828,-4.8355 5.713696,-0.63445 11.482504,-0.49938 17.228012,-0.30451 9.790634,0.33208 19.761287,0.87225 28.932578,4.31524 2.87622,1.07976 5.66855,2.45086 8.08694,4.34557 2.4184,1.8947 4.4561,4.33867 5.58406,7.19634 0.9626,2.43873 1.23956,5.12128 0.97535,7.72976 -0.26422,2.60848 -1.05766,5.14653 -2.16165,7.52459 -1.21867,2.62509 -2.81956,5.07237 -4.7365,7.24069"
       id="path5245-4-38-6"
       inkscape:path-effect="#path-effect5247-7-6-7"
       inkscape:original-d="m 32.566662,905.64609 c -2.3042,-1.27062 -2.7512,-2.8233 -3.56249,-5.38869 -0.98997,-3.13041 -16.88727,-4.18369 -0.71033,-16.27979 16.17696,-12.09611 -27.68486974,-8.23682 10.06135,-10.25281 18.87309,-1.008 21.66565,-6.44552 33.66684,-5.14001 12.001278,1.30543 33.918878,8.02991 28.932578,4.31524 -4.9862,-3.71467 12.2106,7.1319 13.671,11.54191 1.4604,4.41009 0.6112,0.63821 -1.1863,15.25435 -3.5949,29.23227 7.8456,-4.85533 -4.7365,7.24069"
       inkscape:connector-curvature="0"
       sodipodi:nodetypes="csssszssc" />
    <path
       style="fill:none;fill-rule:evenodd;stroke:#000000;stroke-width:4;stroke-linecap:butt;stroke-linejoin:miter;stroke-opacity:1"
       d="m 29.885352,906.58683 c -2.595954,-1.91631 -4.689903,-4.50661 -6.01962,-7.44652 -2.578119,-5.70004 -2.123043,-12.59036 0.85808,-18.09036 2.308771,-4.25955 6.001546,-7.67197 10.18481,-10.11625 5.605432,-3.27525 12.05802,-4.87618 18.515001,-5.55111 6.45698,-0.67492 12.96901,-0.46246 19.459969,-0.3377 7.221576,0.1388 14.490197,0.17226 21.588945,1.50576 7.098753,1.33349 14.107313,4.06698 19.412973,8.96804 2.61625,2.41674 4.79841,5.37048 5.9614,8.73691 1.03513,2.99633 1.23547,6.25665 0.72778,9.38582 -0.5077,3.12917 -1.71099,6.128 -3.37508,8.82619 -1.19308,1.93448 -2.6237,3.7223 -4.2495,5.31052"
       id="path5245-4-3-1-2"
       inkscape:path-effect="#path-effect5247-7-5-4-8"
       inkscape:original-d="m 29.885352,906.58683 c -25.3908597,-27.86467 -8.56334,11.3362 -6.01962,-7.44652 2.31255,-17.07578 -16.7201897,-5.22972 0.85808,-18.09036 17.57829,-12.86055 -0.82717,-8.50872 10.18481,-10.11625 11.01198,-1.60753 24.93416,-7.27684 37.97497,-5.88881 13.040818,1.38804 44.732518,11.73431 41.001918,10.4738 -3.7306,-1.26051 4.3745,3.78826 5.9614,8.73691 1.5869,4.94865 -0.6942,10.76942 -2.6473,18.21201 -7.951,30.29845 9.4225,-7.55012 -4.2495,5.31052"
       inkscape:connector-curvature="0"
       sodipodi:nodetypes="csszszzsc" />
    <path
       style="fill:none;fill-rule:evenodd;stroke:#000000;stroke-width:4px;stroke-linecap:butt;stroke-linejoin:miter;stroke-opacity:1"
       d="m 40.719622,903.47417 c -1.034085,-5.41564 -1.567422,-10.92679 -1.59099,-16.44022 -0.02023,-4.73217 0.334802,-9.4659 1.06066,-14.14211"
       id="path3929"
       inkscape:path-effect="#path-effect3931"
       inkscape:original-d="m 40.719622,903.47417 c -3.18198,-13.0815 -2.2981,-3.71232 -1.59099,-16.44022 0.7071,-12.7279 -3.53553,-8.13171 1.06066,-14.14211"
       inkscape:connector-curvature="0"
       sodipodi:nodetypes="csc" />
    <path
       style="fill:none;fill-rule:evenodd;stroke:#000000;stroke-width:4px;stroke-linecap:butt;stroke-linejoin:miter;stroke-opacity:1"
       d="m 53.345252,902.2646 c -0.872437,-6.20142 -0.991436,-12.50848 -0.35355,-18.7384 0.51521,-5.0318 1.523315,-10.01301 3.0052,-14.84917"
       id="path3929-9"
       inkscape:path-effect="#path-effect3931-8"
       inkscape:original-d="m 53.345252,902.2646 c -3.18198,-13.0815 -1.06066,-6.0105 -0.35355,-18.7384 0.7071,-12.7279 -1.59099,-8.83877 3.0052,-14.84917"
       inkscape:connector-curvature="0"
       sodipodi:nodetypes="csc" />
    <path
       style="fill:none;fill-rule:evenodd;stroke:#000000;stroke-width:4px;stroke-linecap:butt;stroke-linejoin:miter;stroke-opacity:1"
       d="m 66.096152,902.51713 c -0.689572,-5.42044 -0.780785,-10.91679 -0.27145,-16.35712 0.548693,-5.86073 1.794725,-11.65586 3.70343,-17.22417"
       id="path3929-8"
       inkscape:path-effect="#path-effect3931-7"
       inkscape:original-d="m 66.096152,902.51713 c -3.18198,-13.0815 -0.97856,-3.62922 -0.27145,-16.35712 0.7071,-12.7279 -0.89276,-11.21377 3.70343,-17.22417"
       inkscape:connector-curvature="0"
       sodipodi:nodetypes="csc" />
    <path
       style="fill:none;fill-rule:evenodd;stroke:#000000;stroke-width:4px;stroke-linecap:butt;stroke-linejoin:miter;stroke-opacity:1"
       d="m 79.29329,903.23509 c -0.913588,-6.06068 -0.883652,-12.26265 0.0884,-18.31423 0.863284,-5.37443 2.468228,-10.62921 4.75512,-15.56884"
       id="path3929-2"
       inkscape:path-effect="#path-effect3931-89"
       inkscape:original-d="m 79.29329,903.23509 c -3.181978,-13.0815 -0.61872,-5.58633 0.0884,-18.31423 0.7071,-12.7279 0.15902,-9.55844 4.75512,-15.56884"
       inkscape:connector-curvature="0"
       sodipodi:nodetypes="csc" />
    <path
       style="fill:none;fill-rule:evenodd;stroke:#000000;stroke-width:4px;stroke-linecap:butt;stroke-linejoin:miter;stroke-opacity:1"
       d="m 104.40781,905.59556 c -0.25336,-5.02629 0.31626,-10.09314 1.6793,-14.93771 1.09699,-3.89898 2.70612,-7.65355 4.773,-11.13686"
       id="path3929-7"
       inkscape:path-effect="#path-effect3931-1"
       inkscape:original-d="m 104.40781,905.59556 c -3.182,-13.0815 0.9722,-2.20981 1.6793,-14.93771 0.7071,-12.7279 0.1768,-5.12646 4.773,-11.13686"
       inkscape:connector-curvature="0"
       sodipodi:nodetypes="csc" />
    <path
       style="fill:none;fill-rule:evenodd;stroke:#000000;stroke-width:4px;stroke-linecap:butt;stroke-linejoin:miter;stroke-opacity:1"
       d="m 92.39901,903.94835 c -0.490103,-5.57601 -0.281732,-11.21304 0.6187,-16.73765 0.870563,-5.34135 2.387719,-10.577 4.5078,-15.55627"
       id="path3929-1"
       inkscape:path-effect="#path-effect3931-5"
       inkscape:original-d="m 92.39901,903.94835 c -3.182,-13.0815 -0.088,-4.00975 0.6187,-16.73765 0.7071,-12.7279 -0.088,-9.54587 4.5078,-15.55627"
       inkscape:connector-curvature="0"
       sodipodi:nodetypes="csc" />
    <path
       style="fill:none;fill-rule:evenodd;stroke:#000000;stroke-width:4px;stroke-linecap:butt;stroke-linejoin:miter;stroke-opacity:1"
       d="m 3.1924923,976.25439 c 5.4367847,-5.72885 13.8520007,-8.46136 21.6172397,-7.01933 5.611712,1.04211 10.779637,4.1531 14.49569,8.48534 2.949849,3.43898 4.99863,7.60609 6.180642,11.98 1.182012,4.3739 1.513568,8.95302 1.243968,13.4758 -0.454295,7.6212 -2.622073,15.1354 -6.29702,21.8275"
       id="path3983"
       inkscape:path-effect="#path-effect3985"
       inkscape:original-d="m 3.1924923,976.25439 c 18.0312197,-6.0104 5.35378,-12.67613 21.6172397,-7.01933 16.26345,5.6569 3.53553,-20.85966 14.49569,8.48534 10.96015,29.3449 8.48527,7.77812 7.42461,25.4558 -1.06066,17.6777 -6.29702,21.8275 -6.29702,21.8275"
       inkscape:connector-curvature="0"
       sodipodi:nodetypes="csssc" />
    <path
       style="fill:none;fill-rule:evenodd;stroke:#000000;stroke-width:4px;stroke-linecap:butt;stroke-linejoin:miter;stroke-opacity:1"
       d="m 136.18761,970.6511 c -6.32315,-3.6956 -14.14266,-4.73821 -21.2132,-2.82847 -5.84385,1.57842 -11.12829,5.12504 -14.8493,9.89956 -3.051467,3.91541 -5.048524,8.60381 -6.042907,13.46726 -0.994383,4.86344 -1.005109,9.90025 -0.320993,14.81695 0.934686,6.7175 3.168127,13.2519 6.5407,19.1362"
       id="path3983-4"
       inkscape:path-effect="#path-effect3985-8"
       inkscape:original-d="m 136.18761,970.6511 c -18.0312,-6.0104 -4.9497,-8.48527 -21.2132,-2.82847 -16.2634,5.6569 -3.8891,-19.44544 -14.8493,9.89956 -10.9601,29.34491 -7.4246,10.60654 -6.3639,28.28421 1.0606,17.6778 6.5407,19.1362 6.5407,19.1362"
       inkscape:connector-curvature="0"
       sodipodi:nodetypes="csssc" />
    <path
       style="fill:none;fill-rule:evenodd;stroke:#000000;stroke-width:4;stroke-linecap:butt;stroke-linejoin:miter;stroke-opacity:1"
       d="m 50.750602,935.78658 c 1.881028,3.66548 5.019504,6.67081 8.76303,8.39127 3.152547,1.44886 6.689584,1.98894 10.150851,1.7494 3.461267,-0.23955 6.848056,-1.24272 9.976307,-2.74332 2.094631,-1.00478 4.091921,-2.24034 5.811553,-3.80237 1.719632,-1.56202 3.157726,-3.46023 4.036467,-5.61078 0.789276,-1.9316 1.115957,-4.05459 0.910634,-6.1311 -0.205322,-2.07651 -0.945615,-4.10202 -2.154934,-5.80249 -1.162782,-1.63503 -2.739769,-2.95239 -4.485167,-3.94182 -1.745398,-0.98943 -3.658161,-1.65972 -5.608821,-2.1291 -4.753681,-1.14386 -9.774752,-1.10222 -14.53591,0.0101 -3.865826,0.90315 -7.679747,2.58662 -10.33328,5.53943 -1.724952,1.9195 -2.897171,4.33014 -3.341749,6.87224 -0.444577,2.54211 -0.160088,5.20751 0.811019,7.59851 l 0,3e-5 z"
       id="path4005"
       inkscape:path-effect="#path-effect4007"
       inkscape:original-d="m 50.750602,935.78658 c -1.58966,9.34652 -7.06517,2.80031 8.76303,8.39127 15.82823,5.59094 11.81247,-1.28913 20.127158,-0.99392 8.31462,0.29519 6.37882,-4.87334 9.84802,-9.41315 3.4692,-4.53982 -4.8815,-14.66672 -1.2443,-11.93359 1.8184,1.36656 -3.8891,-3.92283 -10.093988,-6.07092 -6.20487,-2.14808 -19.58941,-0.69448 -14.53591,0.0101 10.10699,1.40923 -6.86791,-4.2316 -10.33328,5.53943 -3.46535,9.77104 -0.94108,5.12422 -2.53073,14.47075 z"
       inkscape:connector-curvature="0"
       sodipodi:nodetypes="zszzssszz" />
    <path
       style="fill:none;fill-rule:evenodd;stroke:#000000;stroke-width:4;stroke-linecap:butt;stroke-linejoin:miter;stroke-opacity:1"
       d="m 46.855442,937.3022 c 1.87095,4.73683 5.846242,8.47633 10.45993,10.63315 7.210883,3.37096 15.860733,2.98811 23.180468,-0.13946 5.637389,-2.40874 10.728214,-6.55622 13.23197,-12.15206 1.21251,-2.70993 1.791402,-5.71459 1.566769,-8.6749 -0.224632,-2.96031 -1.264367,-5.86878 -3.052069,-8.23902 -1.552418,-2.05829 -3.635351,-3.68189 -5.913847,-4.88812 -2.278496,-1.20623 -4.75284,-2.00813 -7.263733,-2.5929 -5.884076,-1.37037 -12.142327,-1.55091 -17.909528,0.249 -4.368305,1.36332 -8.422145,3.89277 -11.27918,7.46741 -2.025683,2.53448 -3.427682,5.5737 -3.976547,8.77147 -0.548865,3.19777 -0.23615,6.54776 0.955767,9.56543 z"
       id="path4005-8"
       inkscape:path-effect="#path-effect4007-3"
       inkscape:original-d="m 46.855442,937.3022 c -1.89745,11.84358 -8.43323,3.54846 10.45993,10.63315 18.89316,7.08466 13.25576,-0.51348 23.180468,-0.13946 9.92467,0.37414 9.09097,-6.39938 13.23197,-12.15206 4.1408,-5.7527 -5.8267,-20.37728 -1.4853,-16.91392 2.1709,1.73168 -5.771,-4.75897 -13.17758,-7.48102 -7.406378,-2.72194 -23.941568,-0.6439 -17.909528,0.249 12.06409,1.78578 -7.14278,-4.91415 -11.27918,7.46741 -4.13635,12.38157 -1.12328,6.49331 -3.02078,18.3369 z"
       inkscape:connector-curvature="0"
       sodipodi:nodetypes="zszzssszz" />
    <path
       style="fill:none;fill-rule:evenodd;stroke:#000000;stroke-width:4.05654156px;stroke-linecap:butt;stroke-linejoin:miter;stroke-opacity:1"
       d="m 3.9360523,970.77486 c 5.6990778,-5.01409 13.6378397,-7.37958 21.1518697,-6.30256 4.731943,0.67825 9.250316,2.66222 13.049871,5.56303 3.799555,2.90081 6.88419,6.70322 9.082069,10.94829 3.722989,7.19073 4.866435,15.51352 4.37549,23.59598 -0.439794,7.2404 -2.150339,14.4018 -5.03014,21.0593"
       id="path3983-8"
       inkscape:path-effect="#path-effect3985-80"
       inkscape:original-d="m 3.9360523,970.77486 c 18.8226397,-6.42719 4.17458,-12.35163 21.1518697,-6.30256 16.97729,6.04917 16.25876,2.35298 22.13194,16.51132 6.4461,15.53948 5.4827,4.69247 4.37549,23.59598 -1.10722,18.9037 -5.03014,21.0593 -5.03014,21.0593"
       inkscape:connector-curvature="0"
       sodipodi:nodetypes="csssc" />
    <path
       style="fill:none;fill-rule:evenodd;stroke:#000000;stroke-width:4;stroke-linecap:butt;stroke-linejoin:miter;stroke-opacity:1"
       d="m 135.75201,966.16064 c -6.93106,-3.8208 -15.43691,-4.6719 -22.9876,-2.30016 -7.09349,2.22813 -13.193783,7.17311 -17.3598,13.33156 -4.687863,6.92988 -6.996764,15.34158 -7.0863,23.70766 -0.0888,8.2971 1.967876,16.6081 5.9159,23.9062"
       id="path3983-4-6"
       inkscape:path-effect="#path-effect3985-8-9"
       inkscape:original-d="m 135.75201,966.16064 c -16.4566,-7.03533 -29.162,-0.35246 -22.9876,-2.30016 3.834,-1.20942 -5.6883,-17.40943 -17.3598,13.33156 -11.6715,30.74086 -8.2158,5.18906 -7.0863,23.70766 1.1295,18.5187 5.9159,23.9062 5.9159,23.9062"
       inkscape:connector-curvature="0"
       sodipodi:nodetypes="csssc" />
    <path
       style="fill:none;fill-rule:evenodd;stroke:#000000;stroke-width:4px;stroke-linecap:butt;stroke-linejoin:miter;stroke-opacity:1"
       d="m 20.945982,1018.3822 c -3.020175,1.1902 -5.731566,3.1547 -7.80352,5.6537 -1.261616,1.5217 -2.292132,3.2466 -2.932964,5.1165 -0.6408313,1.8699 -0.8848536,3.8873 -0.6025657,5.8437 0.4775347,3.3095 2.4392987,6.2765 4.9497497,8.4853 3.583637,3.153 8.235712,4.8878 12.940886,5.691 4.705175,0.8032 9.509886,0.7359 14.282714,0.6729 8.485373,-0.1119 16.971082,-0.2025 25.45585,-0.3535 2.515496,-0.045 5.140912,-0.1224 7.35416,-1.3188 1.718017,-0.9287 3.068031,-2.5105 3.736508,-4.3455 0.766211,-2.1033 0.643068,-4.407 0.72304,-6.644 0.04816,-1.3471 0.17354,-2.6926 0.147801,-4.0402 -0.02574,-1.3477 -0.208663,-2.7122 -0.749511,-3.9469 -0.731,-1.6687 -2.122143,-3.0375 -3.802538,-3.7413"
       id="path4063"
       inkscape:path-effect="#path-effect4065"
       inkscape:original-d="m 20.945982,1018.3822 c -11.6672597,12.728 -5.32864,-7.0743 -7.80352,5.6537 -2.47487,12.7279 -9.1923897,-3.8891 -3.5355297,10.9602 5.6568497,14.8492 -9.40608004,16.5807 4.9497497,8.4853 17.95054,-10.1226 3.53553,6.7174 27.2236,6.3639 23.68809,-0.3535 16.26347,3.8891 25.45585,-0.3535 4.5962,-2.1213 6.82873,-2.0928 7.35416,-1.3188 0.52542,0.774 1.96874,-0.4564 3.736508,-4.3455 3.53553,-7.7782 0.7837,0.6771 0.72304,-6.644 -0.0592,-7.1498 1.87316,-4.4515 -0.60171,-7.9871 -2.474878,-3.5355 -3.802538,-3.7413 -3.802538,-3.7413"
       inkscape:connector-curvature="0"
       sodipodi:nodetypes="csssssssscc" />
    <path
       style="fill:none;fill-rule:evenodd;stroke:#000000;stroke-width:4;stroke-linecap:butt;stroke-linejoin:miter;stroke-opacity:1"
       d="m 25.841482,1021.0862 c -1.679712,1.1921 -2.808853,3.1298 -3.01787,5.1789 -0.235942,2.3131 0.690307,4.6733 2.28394,6.3663 1.563005,1.6605 3.700015,2.6952 5.907308,3.2679 2.207292,0.5728 4.501118,0.7141 6.779332,0.8136 3.431303,0.1498 6.916126,0.2052 10.24596,-0.6365 1.620927,-0.4097 3.230397,-1.0561 4.43992,-2.2104 1.291525,-1.2325 2.03569,-2.9926 2.1314,-4.7753 0.06052,-1.1272 -0.127765,-2.2672 -0.54756,-3.3151"
       id="path4063-7"
       inkscape:path-effect="#path-effect4065-2"
       inkscape:original-d="m 25.841482,1021.0862 c -2.68876,0.578 -3.24839,1.7382 -3.01787,5.1789 0.38112,5.6887 -4.3402,10.9222 2.28394,6.3663 8.28281,-5.6967 1.75638,4.2805 12.68664,4.0815 10.93026,-0.1989 6.00436,1.7512 10.24596,-0.6365 4.24159,-2.3876 2.80855,2.167 4.43992,-2.2104 1.6314,-4.3773 2.15938,-0.6552 2.1314,-4.7753 -0.0273,-4.0238 0.59442,-1.3254 -0.54756,-3.3151"
       inkscape:connector-curvature="0"
       sodipodi:nodetypes="cssssssc" />
    <path
       style="fill:none;fill-rule:evenodd;stroke:#000000;stroke-width:4;stroke-linecap:butt;stroke-linejoin:miter;stroke-opacity:1"
       d="m 23.458422,1019.9768 c -2.528188,1.6758 -4.243712,4.5232 -4.54364,7.5415 -0.332642,3.3475 1.063713,6.7669 3.46371,9.1241 1.866478,1.8332 4.275602,3.0456 6.783863,3.7893 2.508261,0.7436 5.126231,1.041 7.735267,1.2341 5.193692,0.3844 10.611995,0.3278 15.34013,-1.8555 1.68042,-0.776 3.258641,-1.8257 4.46314,-3.2311 1.531463,-1.7869 2.402531,-4.1258 2.42052,-6.4791 0.01122,-1.4674 -0.30161,-2.9364 -0.90971,-4.2719"
       id="path4063-7-3"
       inkscape:path-effect="#path-effect4065-2-7"
       inkscape:original-d="m 23.458422,1019.9768 c -5.36557,4.2753 -7.71644,-2.1381 -4.54364,7.5415 3.17279,9.6797 -4.58817,14.4012 3.46371,9.1241 10.06806,-6.5985 1.23301,5.2538 14.51913,5.0234 13.28612,-0.2303 18.07544,-0.6099 15.34013,-1.8555 -5.32459,-2.4247 2.48015,1.8392 4.46314,-3.2311 1.98302,-5.0702 2.45454,-1.7068 2.42052,-6.4791 -0.0331,-4.6608 0.4784,-1.9673 -0.90971,-4.2719"
       inkscape:connector-curvature="0"
       sodipodi:nodetypes="cssssssc" />
    <path
       style="fill:none;fill-rule:evenodd;stroke:#000000;stroke-width:4;stroke-linecap:butt;stroke-linejoin:miter;stroke-opacity:1"
       d="m 85.97111,1025.3935 c -2.305414,0.6392 -4.298206,2.3258 -5.30974,4.4938 -0.602062,1.2904 -0.862209,2.7111 -1.06404,4.1207 -0.404571,2.8255 -0.590366,5.7555 0.22024,8.4923 0.460874,1.556 1.25443,3.0354 2.42764,4.1566 1.227892,1.1735 2.822098,1.9102 4.46682,2.3341 1.644722,0.4239 3.349906,0.5521 5.04608,0.6402 4.6666,0.2424 9.3433,0.1944 14.0138,0.344 3.25772,0.1044 6.52474,0.3047 9.77137,0.016 3.24663,-0.2882 6.50888,-1.0925 9.25593,-2.8467 2.63956,-1.6856 4.72101,-4.2298 5.8503,-7.151 -1.06929,0.3623 -2.14928,0.693 -3.2381,0.9916 -0.979,0.2684 -1.96997,0.5117 -2.98113,0.6015 -1.01115,0.09 -2.04862,0.022 -3.00487,-0.3191 -0.90655,-0.323 -1.72805,-0.8935 -2.32277,-1.6501 -0.59473,-0.7566 -0.95686,-1.6993 -0.99033,-2.6611 -0.0376,-1.0793 0.33982,-2.1574 0.9912,-3.0189 0.65138,-0.8614 1.56628,-1.5093 2.5727,-1.901 1.88018,-0.7318 4.00911,-0.5698 5.9416,0.01 1.14469,0.3434 2.24687,0.8283 3.2735,1.4401 -0.48226,-1.8882 -1.37586,-3.6702 -2.6006,-5.1861 -0.65738,-0.8136 -1.40625,-1.5487 -2.1749,-2.2582 -0.61884,-0.5712 -1.25285,-1.128 -1.9331,-1.6245 -1.19116,-0.8694 -2.52068,-1.5488 -3.9231,-2.0047"
       id="path5175-3-6"
       inkscape:path-effect="#path-effect5177-1-3"
       inkscape:original-d="m 85.97111,1025.3935 c -1.7713,-0.6767 -3.1681,6.6311 -5.30974,4.4938 -2.14165,-2.1372 -3.680308,-4.2413 -1.06404,4.1207 2.61628,8.3619 -12.147578,4.7616 0.22024,8.4923 6.18384,1.8654 -0.15886,3.0309 2.42764,4.1566 1.2933,0.5628 5.3614,2.1492 9.5129,2.9743 4.1516,0.8251 10.3866,0.8264 14.0138,0.344 14.5084,-1.9296 12.1298,0.2573 19.0273,-2.8302 6.8975,-3.0875 5.8503,-7.151 5.8503,-7.151 0,0 0.6267,0.4931 -3.2381,0.9916 -3.8651,0.4985 -2.0616,0.6684 -5.986,0.2824 -7.8487,-0.7718 -7.7038,-4.9132 -3.3131,-4.3112 3.3089,0.4537 -0.11,-0.5139 3.5639,-4.9199 2.2118,-2.6526 2.1922,-0.1614 5.9416,0.01 2.8878,0.1299 3.2735,1.4401 3.2735,1.4401 0,0 -6.0434,0.6309 -2.6006,-5.1861 7.2902,-12.3178 10.3131,-0.5903 -2.1749,-2.2582 -5.6486,-0.7545 -0.1817,-1.4006 -1.9331,-1.6245 -1.7514,-0.224 -0.7806,-2.0727 -3.9231,-2.0047"
       inkscape:connector-curvature="0"
       sodipodi:nodetypes="czsssssscssssscsssc" />
    <path
       style="fill:none;fill-rule:evenodd;stroke:#000000;stroke-width:4px;stroke-linecap:butt;stroke-linejoin:miter;stroke-opacity:1"
       d="m 126.80961,1026.8425 c -1.99929,-0.4095 -4.06063,-0.5145 -6.0912,-0.3105 -3.2131,0.3229 -6.42244,1.4758 -8.7622,3.7015 -1.55411,1.4783 -2.6933,3.435 -3.0008,5.5578 -0.2608,1.8004 0.0844,3.6691 0.8838,5.3033 0.97151,1.9861 2.6159,3.6352 4.5982,4.6145 1.98151,0.9789 4.24442,1.2838 6.4523,1.1839 1.98018,-0.09 3.94575,-0.4948 5.7999,-1.1957"
       id="path4121"
       inkscape:path-effect="#path-effect4123"
       inkscape:original-d="m 126.80961,1026.8425 c -4.7729,2.0329 -1.495,-3.0503 -6.0912,-0.3105 -4.5962,2.74 -6.5525,0.3428 -8.7622,3.7015 -2.2097,3.3588 -2.9124,1.9339 -3.0008,5.5578 -0.088,3.6239 -1.2375,1.2374 0.8838,5.3033 2.1214,4.0659 1.0626,4.1726 4.5982,4.6145 3.5355,0.442 2.6516,1.2722 6.4523,1.1839 3.8007,-0.088 4.3857,-1.0197 5.7999,-1.1957"
       inkscape:connector-curvature="0"
       sodipodi:nodetypes="cccccccc" />
  </g>
</svg>
