<?xml version="1.0" encoding="UTF-8" standalone="no"?>
<!-- Created with Inkscape (http://www.inkscape.org/) -->

<svg
   xmlns:dc="http://purl.org/dc/elements/1.1/"
   xmlns:cc="http://creativecommons.org/ns#"
   xmlns:rdf="http://www.w3.org/1999/02/22-rdf-syntax-ns#"
   xmlns:svg="http://www.w3.org/2000/svg"
   xmlns="http://www.w3.org/2000/svg"
   xmlns:sodipodi="http://sodipodi.sourceforge.net/DTD/sodipodi-0.dtd"
   xmlns:inkscape="http://www.inkscape.org/namespaces/inkscape"
   width="140"
   height="200"
   viewBox="0 0 140 200"
   id="svg5848"
   version="1.1"
   inkscape:version="0.91 r13725"
   sodipodi:docname="maya-months-18-wayeb'.svg">
  <defs
     id="defs5850">
    <inkscape:path-effect
       effect="spiro"
       id="path-effect4831-9"
       is_visible="true" />
    <inkscape:path-effect
       effect="spiro"
       id="path-effect4053-8-0-9-4-4-0-2-5-03"
       is_visible="true" />
    <inkscape:path-effect
       effect="spiro"
       id="path-effect4053-8-0-9-4-4-0-2-5-0"
       is_visible="true" />
    <inkscape:path-effect
       effect="spiro"
       id="path-effect5706"
       is_visible="true" />
    <inkscape:path-effect
       effect="spiro"
       id="path-effect4053-8-0-9-4-4-0-9-0"
       is_visible="true" />
    <inkscape:path-effect
       effect="spiro"
       id="path-effect4053-8-0-9-4-4-0-1-8"
       is_visible="true" />
    <inkscape:path-effect
       effect="spiro"
       id="path-effect4053-8-0-9-4-4-0-2-7"
       is_visible="true" />
    <inkscape:path-effect
       effect="spiro"
       id="path-effect4053-8-0-9-4-4-0-9-3"
       is_visible="true" />
    <inkscape:path-effect
       effect="spiro"
       id="path-effect4053-8-0-9-4-4-0-1-7"
       is_visible="true" />
    <inkscape:path-effect
       effect="spiro"
       id="path-effect4053-8-0-9-4-4-0-2-5"
       is_visible="true" />
    <inkscape:path-effect
       effect="spiro"
       id="path-effect5638-1"
       is_visible="true" />
    <inkscape:path-effect
       effect="spiro"
       id="path-effect5638"
       is_visible="true" />
    <inkscape:path-effect
       effect="spiro"
       id="path-effect5616-8"
       is_visible="true" />
    <inkscape:path-effect
       effect="spiro"
       id="path-effect5616"
       is_visible="true" />
    <inkscape:path-effect
       effect="spiro"
       id="path-effect5511-4-3-0-5-3-6-36-0"
       is_visible="true" />
    <inkscape:path-effect
       effect="spiro"
       id="path-effect5511-4-3-0-4-9-8-1-4"
       is_visible="true" />
    <inkscape:path-effect
       effect="spiro"
       id="path-effect5511-4-3-0-07-6-7-7"
       is_visible="true" />
    <inkscape:path-effect
       effect="spiro"
       id="path-effect5511-4-3-0-0-0-3-4"
       is_visible="true" />
    <inkscape:path-effect
       effect="spiro"
       id="path-effect5511-4-3-0-4-9-8-7"
       is_visible="true" />
    <inkscape:path-effect
       effect="spiro"
       id="path-effect4152-3-2-6-0-1"
       is_visible="true" />
    <inkscape:path-effect
       effect="spiro"
       id="path-effect4152-3-1-7-1-3"
       is_visible="true" />
    <inkscape:path-effect
       effect="spiro"
       id="path-effect5511-4-3-0-5-3-6-36"
       is_visible="true" />
    <inkscape:path-effect
       effect="spiro"
       id="path-effect5511-4-3-0-05-0-7-34"
       is_visible="true" />
    <inkscape:path-effect
       effect="spiro"
       id="path-effect5511-4-3-0-09-7-8-0"
       is_visible="true" />
    <inkscape:path-effect
       effect="spiro"
       id="path-effect5511-4-3-0-07-6-7-5"
       is_visible="true" />
    <inkscape:path-effect
       effect="spiro"
       id="path-effect5511-4-3-0-0-0-3-8"
       is_visible="true" />
    <inkscape:path-effect
       effect="spiro"
       id="path-effect5511-4-3-0-4-9-8-1"
       is_visible="true" />
    <inkscape:path-effect
       effect="spiro"
       id="path-effect4152-3-2-6-0-4"
       is_visible="true" />
    <inkscape:path-effect
       effect="spiro"
       id="path-effect4152-3-1-7-1-6"
       is_visible="true" />
    <inkscape:path-effect
       effect="spiro"
       id="path-effect5511-4-3-0-5-3-6-3"
       is_visible="true" />
    <inkscape:path-effect
       effect="spiro"
       id="path-effect5511-4-3-0-05-0-7-3"
       is_visible="true" />
    <inkscape:path-effect
       effect="spiro"
       id="path-effect5511-4-3-0-09-7-8-9"
       is_visible="true" />
    <inkscape:path-effect
       effect="spiro"
       id="path-effect5480"
       is_visible="true" />
    <inkscape:path-effect
       effect="spiro"
       id="path-effect5475"
       is_visible="true" />
    <inkscape:path-effect
       effect="spiro"
       id="path-effect5471"
       is_visible="true" />
    <inkscape:path-effect
       effect="spiro"
       id="path-effect5467"
       is_visible="true" />
    <inkscape:path-effect
       effect="spiro"
       id="path-effect5463"
       is_visible="true" />
    <inkscape:path-effect
       effect="spiro"
       id="path-effect5459"
       is_visible="true" />
    <inkscape:path-effect
       effect="spiro"
       id="path-effect5455"
       is_visible="true" />
    <inkscape:path-effect
       effect="spiro"
       id="path-effect5451"
       is_visible="true" />
    <inkscape:path-effect
       effect="spiro"
       id="path-effect5447"
       is_visible="true" />
    <inkscape:path-effect
       effect="spiro"
       id="path-effect4464-0-7-0-9"
       is_visible="true" />
  </defs>
  <sodipodi:namedview
     id="base"
     pagecolor="#ffffff"
     bordercolor="#666666"
     borderopacity="1.0"
     inkscape:pageopacity="0.0"
     inkscape:pageshadow="2"
     inkscape:zoom="1.979899"
     inkscape:cx="120.2673"
     inkscape:cy="101.33831"
     inkscape:document-units="px"
     inkscape:current-layer="layer1"
     showgrid="false"
     units="px"
     inkscape:window-width="1366"
     inkscape:window-height="704"
     inkscape:window-x="0"
     inkscape:window-y="27"
     inkscape:window-maximized="1" />
  <metadata
     id="metadata5853">
    <rdf:RDF>
      <cc:Work
         rdf:about="">
        <dc:format>image/svg+xml</dc:format>
        <dc:type
           rdf:resource="http://purl.org/dc/dcmitype/StillImage" />
        <dc:title></dc:title>
      </cc:Work>
    </rdf:RDF>
  </metadata>
  <g
     inkscape:label="Calque 1"
     inkscape:groupmode="layer"
     id="layer1"
     transform="translate(0,-852.36216)">
    <path
       style="fill:none;fill-rule:evenodd;stroke:#000000;stroke-width:3;stroke-linecap:butt;stroke-linejoin:miter;stroke-opacity:1"
       d="m 24.537428,931.97302 c 6.344186,-3.92757 13.878848,-5.41958 21.2853,-6.32455 12.259097,-1.49789 24.649037,-1.58213 36.995,-1.25603 5.886054,0.15547 11.791708,0.40604 17.587942,1.44215 5.79622,1.03611 11.50921,2.88475 16.48135,6.03873 8.99473,5.70562 14.96675,15.36082 18.00418,25.57029 3.03743,10.20948 3.39799,21.01711 3.13973,31.66571 -0.2317,9.55346 -0.96693,19.21638 -4.00742,28.27598 -3.04049,9.0597 -8.60547,17.5534 -16.75619,22.5422 -5.96693,3.6522 -12.98863,5.2526 -19.959614,5.8424 -6.970979,0.5898 -13.982423,0.2255 -20.978278,0.2468 -9.230866,0.028 -18.486509,0.7272 -27.677161,-0.1339 -9.190653,-0.8612 -18.497083,-3.4244 -25.709139,-9.186 C 15.831885,1031.0157 11.279182,1022.6109 8.8076092,1013.851 6.3360361,1005.0911 5.786335,995.91467 5.4931277,986.81752 5.1659031,976.66494 5.157959,966.35905 7.7663318,956.5418 10.374705,946.72455 15.900689,937.31987 24.537428,931.97302 Z"
       id="path4462-4-4-5-1"
       inkscape:path-effect="#path-effect4464-0-7-0-9"
       inkscape:original-d="m 24.537428,931.97302 c 4.9164,-2.1315 12.322,-5.07761 21.2853,-6.32455 8.9632,-1.24694 27.271,-0.75514 36.995,-1.25603 14.0943,-0.72599 38.289092,12.34779 34.069292,7.48088 -4.2197,-4.86679 21.70801,35.2019 21.14391,57.236 -0.5675,22.16738 -12.02671,41.09808 -20.76361,50.81818 -8.7369,9.7201 -19.714792,6.8218 -40.937892,6.0892 -20.4054,-0.7044 -49.455,-13.4703 -53.3863,-9.3199 -7.8626,8.3009 -21.0380003,-42.35018 -17.4500003,-49.87928 3.5878,-7.5291 -0.6214,-46.31844 19.0443003,-54.8445 z"
       inkscape:connector-curvature="0"
       sodipodi:nodetypes="sssssssszs" />
    <path
       style="fill:none;fill-rule:evenodd;stroke:#000000;stroke-width:3px;stroke-linecap:butt;stroke-linejoin:miter;stroke-opacity:1"
       d="M 5.8294277,987.01727 138.14193,986.82977"
       id="path5445"
       inkscape:path-effect="#path-effect5447"
       inkscape:original-d="M 5.8294277,987.01727 138.14193,986.82977"
       inkscape:connector-curvature="0"
       sodipodi:nodetypes="cc" />
    <path
       style="fill:none;fill-rule:evenodd;stroke:#000000;stroke-width:3px;stroke-linecap:butt;stroke-linejoin:miter;stroke-opacity:1"
       d="m 46.498628,987.07403 c -7.405379,4.64078 -12.913724,12.21747 -15.0442,20.69317 -1.684516,6.7015 -1.297408,13.8279 0.5,20.5 0.755748,2.8054 1.757712,5.5479 3.051,8.1496 1.431831,2.8804 3.219671,5.5836 5.3099,8.0286"
       id="path5449"
       inkscape:path-effect="#path-effect5451"
       inkscape:original-d="m 46.498628,987.07403 c -12.5,11 -14.5442,9.69324 -15.0442,20.69317 -0.5,11 -6,11 0.5,20.5 6.5,9.5 10.4777,8.4574 3.051,8.1496 -6.6615,-0.276 2.9557,5.2994 5.3099,8.0286"
       inkscape:connector-curvature="0"
       sodipodi:nodetypes="csssc" />
    <path
       style="fill:none;fill-rule:evenodd;stroke:#000000;stroke-width:3px;stroke-linecap:butt;stroke-linejoin:miter;stroke-opacity:1"
       d="m 90.700728,986.86064 c 3.998796,2.53428 7.530135,5.80359 10.364602,9.59552 5.48718,7.34074 8.26672,16.70044 7.47489,25.83104 -0.4184,4.8246 -1.80623,9.5595 -4.02509,13.8639 -1.85662,3.6017 -4.2926,6.904 -7.185702,9.7411"
       id="path5453"
       inkscape:path-effect="#path-effect5455"
       inkscape:original-d="m 90.700728,986.86064 c 11.000002,10 5.8646,-2.40448 10.364602,9.59552 4.49999,11.99994 -15.835202,15.29934 7.47489,25.83104 13.2217,5.9737 0.9749,4.8639 -4.02509,13.8639 -5.000002,9 -7.185702,9.7411 -7.185702,9.7411"
       inkscape:connector-curvature="0"
       sodipodi:nodetypes="csssc" />
    <path
       style="fill:none;fill-rule:evenodd;stroke:#000000;stroke-width:3px;stroke-linecap:butt;stroke-linejoin:miter;stroke-opacity:1"
       d="m 57.013228,1011.346 c 1.068101,-1.3397 2.504044,-2.3598 4.063089,-3.0704 1.559044,-0.7106 3.241203,-1.1218 4.936911,-1.3671 4.105973,-0.594 8.405743,-0.2059 12.1875,1.5 1.719174,0.7755 3.341151,1.8357 4.543185,3.289 1.202034,1.4533 1.955407,3.3291 1.831815,5.211 -0.08095,1.2326 -0.531,2.425 -1.19491,3.4666 -0.66391,1.0417 -1.536587,1.9387 -2.49259,2.7209 -2.234635,1.8283 -4.947445,3.0489 -7.781482,3.6009 -2.834036,0.5519 -5.784684,0.4426 -8.593518,-0.2259 -1.868348,-0.4447 -3.694637,-1.1431 -5.273768,-2.2362 -1.579131,-1.093 -2.90354,-2.5995 -3.601232,-4.3888 -0.545835,-1.3999 -0.695838,-2.9488 -0.449087,-4.4309 0.246751,-1.4821 0.887423,-2.8943 1.824087,-4.0691 z"
       id="path5457"
       inkscape:path-effect="#path-effect5459"
       inkscape:original-d="m 57.013228,1011.346 c 5.5,-3 5.8488,-12.8826 9,-4.4375 169.518102,454.3013 6.1875,-4.5 12.1875,1.5 6,6 8.875,-1.5 6.375,8.5 -2.5,10 3.3125,6.1875 -3.6875,6.1875 -7,0 -11.375,6.375 -16.375,3.375 -5,-3 -9.375,-0.125 -8.875,-6.625 0.5,-6.5 -1.9615,-6.6801 1.375,-8.5 z"
       inkscape:connector-curvature="0"
       sodipodi:nodetypes="ssssssss" />
    <path
       style="fill:none;fill-rule:evenodd;stroke:#000000;stroke-width:3px;stroke-linecap:butt;stroke-linejoin:miter;stroke-opacity:1"
       d="m 25.454428,986.76727 c -1.01402,-7.4793 -0.673537,-15.14015 1,-22.5 0.860222,-3.78307 2.078931,-7.50775 3.938614,-10.91263 1.859682,-3.40487 4.382132,-6.48888 7.561386,-8.71237 3.090745,-2.16159 6.722047,-3.4593 10.421432,-4.19396 3.699386,-0.73466 7.483706,-0.92682 11.253868,-1.03199 10.939267,-0.30516 21.922348,0.10866 32.7363,1.78769 4.023319,0.62468 8.048942,1.43252 11.817732,2.97315 3.76878,1.54064 7.29354,3.85882 9.77066,7.09011 2.09674,2.7351 3.36995,6.01705 4.2626,9.34575 1.14976,4.28745 1.7095,8.71354 2.0251,13.14124 0.30787,4.31934 0.38629,8.65503 0.2348,12.98268"
       id="path5461"
       inkscape:path-effect="#path-effect5463"
       inkscape:original-d="m 25.454428,986.76727 c 0,-15.5 -5,-8.5 1,-22.5 6,-14 -2,-18.125 11.5,-19.625 13.5,-1.5 9.6753,-8.22595 21.6753,-5.22595 12,3 20.7363,0.28769 32.7363,1.78769 12.000002,1.5 16.088392,1.56326 21.588392,10.06326 5.5,8.5 0.7626,0.84575 4.2626,9.34575 3.5,8.5 1.5251,8.64124 2.0251,13.14124 0.5,4.5 0.2348,12.98268 0.2348,12.98268"
       inkscape:connector-curvature="0"
       sodipodi:nodetypes="csssssssc" />
    <path
       style="fill:none;fill-rule:evenodd;stroke:#000000;stroke-width:3px;stroke-linecap:butt;stroke-linejoin:miter;stroke-opacity:1"
       d="m 46.954428,940.76727 0.375,46.25"
       id="path5465"
       inkscape:path-effect="#path-effect5467"
       inkscape:original-d="m 46.954428,940.76727 c 0.5,20 0.375,46.25 0.375,46.25"
       inkscape:connector-curvature="0"
       sodipodi:nodetypes="cc" />
    <path
       style="fill:none;fill-rule:evenodd;stroke:#000000;stroke-width:3px;stroke-linecap:butt;stroke-linejoin:miter;stroke-opacity:1"
       d="m 91.079428,941.01727 0.25,45.5"
       id="path5469"
       inkscape:path-effect="#path-effect5471"
       inkscape:original-d="m 91.079428,941.01727 0.25,45.5"
       inkscape:connector-curvature="0"
       sodipodi:nodetypes="cc" />
    <path
       style="fill:none;fill-rule:evenodd;stroke:#000000;stroke-width:3px;stroke-linecap:butt;stroke-linejoin:miter;stroke-opacity:1"
       d="m 63.425428,939.59808 0.404,46.91919"
       id="path5473"
       inkscape:path-effect="#path-effect5475"
       inkscape:original-d="m 63.425428,939.59808 0.404,46.91919"
       inkscape:connector-curvature="0"
       sodipodi:nodetypes="cc" />
    <path
       style="fill:none;fill-rule:evenodd;stroke:#000000;stroke-width:3px;stroke-linecap:butt;stroke-linejoin:miter;stroke-opacity:1"
       d="m 74.300428,939.67368 0.279,47.59359"
       id="path5478"
       inkscape:path-effect="#path-effect5480"
       inkscape:original-d="m 74.300428,939.67368 0.279,47.59359"
       inkscape:connector-curvature="0"
       sodipodi:nodetypes="cc" />
    <path
       style="fill:none;fill-rule:evenodd;stroke:#000000;stroke-width:3px;stroke-linecap:butt;stroke-linejoin:miter;stroke-opacity:1"
       d="m 63.592228,951.32867 -16.3337,26.8269"
       id="path5509-0-1-0-3-3-1-7"
       inkscape:path-effect="#path-effect5511-4-3-0-09-7-8-9"
       inkscape:original-d="m 63.592228,951.32867 c 18.6661,13.8814 -10.0421,16.7852 -16.3337,26.8269"
       inkscape:connector-curvature="0"
       sodipodi:nodetypes="cc" />
    <path
       style="fill:none;fill-rule:evenodd;stroke:#000000;stroke-width:3px;stroke-linecap:butt;stroke-linejoin:miter;stroke-opacity:1"
       d="m 63.670728,959.9395 -16.8151,27.17657"
       id="path5509-0-1-0-06-9-4-2"
       inkscape:path-effect="#path-effect5511-4-3-0-05-0-7-3"
       inkscape:original-d="m 63.670728,959.9395 c -242.220298,148.2775 -10.5235,17.13487 -16.8151,27.17657"
       inkscape:connector-curvature="0"
       sodipodi:nodetypes="cc" />
    <path
       style="fill:none;fill-rule:evenodd;stroke:#000000;stroke-width:3px;stroke-linecap:butt;stroke-linejoin:miter;stroke-opacity:1"
       d="m 63.771428,967.80318 -11.8501,19.05539"
       id="path5509-0-1-0-2-1-4-5"
       inkscape:path-effect="#path-effect5511-4-3-0-5-3-6-3"
       inkscape:original-d="m 63.771428,967.80318 c 18.6661,13.8814 -5.5585,9.01369 -11.8501,19.05539"
       inkscape:connector-curvature="0"
       sodipodi:nodetypes="cc" />
    <path
       style="fill:none;fill-rule:evenodd;stroke:#000000;stroke-width:3px;stroke-linecap:butt;stroke-linejoin:miter;stroke-opacity:1"
       d="m 56.938428,986.88857 6.7042,-10.59728"
       id="path4150-3-6-8-3-6"
       inkscape:path-effect="#path-effect4152-3-1-7-1-6"
       inkscape:original-d="m 56.938428,986.88857 6.7042,-10.59728"
       inkscape:connector-curvature="0"
       sodipodi:nodetypes="cc" />
    <path
       style="fill:none;fill-rule:evenodd;stroke:#000000;stroke-width:3px;stroke-linecap:butt;stroke-linejoin:miter;stroke-opacity:1"
       d="m 62.117628,986.67757 1.5868,-2.67495"
       id="path4150-3-7-4-4-9"
       inkscape:path-effect="#path-effect4152-3-2-6-0-4"
       inkscape:original-d="m 62.117628,986.67757 1.5868,-2.67495"
       inkscape:connector-curvature="0"
       sodipodi:nodetypes="cc" />
    <path
       style="fill:none;fill-rule:evenodd;stroke:#000000;stroke-width:3px;stroke-linecap:butt;stroke-linejoin:miter;stroke-opacity:1"
       d="m 56.859228,939.56561 -9.877,15.30786"
       id="path5509-0-1-0-6-8-2-4"
       inkscape:path-effect="#path-effect5511-4-3-0-4-9-8-1"
       inkscape:original-d="m 56.859228,939.56561 c 18.6661,13.88141 -3.5854,5.26616 -9.877,15.30786"
       inkscape:connector-curvature="0"
       sodipodi:nodetypes="cc" />
    <path
       style="fill:none;fill-rule:evenodd;stroke:#000000;stroke-width:3px;stroke-linecap:butt;stroke-linejoin:miter;stroke-opacity:1"
       d="m 61.570628,939.17556 -14.3695,23.27646"
       id="path5509-0-1-0-02-7-3-9"
       inkscape:path-effect="#path-effect5511-4-3-0-0-0-3-8"
       inkscape:original-d="m 61.570628,939.17556 c 18.6661,13.8814 -8.0779,13.23476 -14.3695,23.27646"
       inkscape:connector-curvature="0"
       sodipodi:nodetypes="cc" />
    <path
       style="fill:none;fill-rule:evenodd;stroke:#000000;stroke-width:3px;stroke-linecap:butt;stroke-linejoin:miter;stroke-opacity:1"
       d="m 63.532328,943.89017 -16.3937,26.09225"
       id="path5509-0-1-0-07-2-2-8"
       inkscape:path-effect="#path-effect5511-4-3-0-07-6-7-5"
       inkscape:original-d="m 63.532328,943.89017 c 18.6661,13.8814 -10.1021,16.05055 -16.3937,26.09225"
       inkscape:connector-curvature="0"
       sodipodi:nodetypes="cc" />
    <path
       style="fill:none;fill-rule:evenodd;stroke:#000000;stroke-width:3px;stroke-linecap:butt;stroke-linejoin:miter;stroke-opacity:1"
       d="m 91.119928,951.29578 -16.4799,26.83143"
       id="path5509-0-1-0-3-3-1-0"
       inkscape:path-effect="#path-effect5511-4-3-0-09-7-8-0"
       inkscape:original-d="m 91.119928,951.29578 c 18.666092,13.8814 -10.1883,16.78973 -16.4799,26.83143"
       inkscape:connector-curvature="0"
       sodipodi:nodetypes="cc" />
    <path
       style="fill:none;fill-rule:evenodd;stroke:#000000;stroke-width:3px;stroke-linecap:butt;stroke-linejoin:miter;stroke-opacity:1"
       d="m 91.159828,959.64641 -16.931,27.30602"
       id="path5509-0-1-0-06-9-4-1"
       inkscape:path-effect="#path-effect5511-4-3-0-05-0-7-34"
       inkscape:original-d="m 91.159828,959.64641 c -242.220298,148.27749 -10.6394,17.26432 -16.931,27.30602"
       inkscape:connector-curvature="0"
       sodipodi:nodetypes="cc" />
    <path
       style="fill:none;fill-rule:evenodd;stroke:#000000;stroke-width:3px;stroke-linecap:butt;stroke-linejoin:miter;stroke-opacity:1"
       d="m 91.185728,968.22663 -11.8912,18.4683"
       id="path5509-0-1-0-2-1-4-57"
       inkscape:path-effect="#path-effect5511-4-3-0-5-3-6-36"
       inkscape:original-d="m 91.185728,968.22663 c 18.666092,13.8814 -5.5996,8.4266 -11.8912,18.4683"
       inkscape:connector-curvature="0"
       sodipodi:nodetypes="cc" />
    <path
       style="fill:none;fill-rule:evenodd;stroke:#000000;stroke-width:3px;stroke-linecap:butt;stroke-linejoin:miter;stroke-opacity:1"
       d="m 84.686628,986.84993 6.6181,-10.3937"
       id="path4150-3-6-8-3-4"
       inkscape:path-effect="#path-effect4152-3-1-7-1-3"
       inkscape:original-d="m 84.686628,986.84993 6.6181,-10.3937"
       inkscape:connector-curvature="0"
       sodipodi:nodetypes="cc" />
    <path
       style="fill:none;fill-rule:evenodd;stroke:#000000;stroke-width:3px;stroke-linecap:butt;stroke-linejoin:miter;stroke-opacity:1"
       d="m 89.865828,986.63893 1.4306,-2.5187"
       id="path4150-3-7-4-4-0"
       inkscape:path-effect="#path-effect4152-3-2-6-0-1"
       inkscape:original-d="m 89.865828,986.63893 1.4306,-2.5187"
       inkscape:connector-curvature="0"
       sodipodi:nodetypes="cc" />
    <path
       style="fill:none;fill-rule:evenodd;stroke:#000000;stroke-width:3px;stroke-linecap:butt;stroke-linejoin:miter;stroke-opacity:1"
       d="m 83.812528,940.2486 -9.3605,14.63182"
       id="path5509-0-1-0-6-8-2-5"
       inkscape:path-effect="#path-effect5511-4-3-0-4-9-8-7"
       inkscape:original-d="m 83.812528,940.2486 c -0.4526,1.13288 -3.0689,4.59012 -9.3605,14.63182"
       inkscape:connector-curvature="0"
       sodipodi:nodetypes="cc" />
    <path
       style="fill:none;fill-rule:evenodd;stroke:#000000;stroke-width:3px;stroke-linecap:butt;stroke-linejoin:miter;stroke-opacity:1"
       d="m 88.248128,940.75315 -13.8767,22.05401"
       id="path5509-0-1-0-02-7-3-5"
       inkscape:path-effect="#path-effect5511-4-3-0-0-0-3-4"
       inkscape:original-d="m 88.248128,940.75315 c 18.666092,13.8814 -7.5851,12.01231 -13.8767,22.05401"
       inkscape:connector-curvature="0"
       sodipodi:nodetypes="cc" />
    <path
       style="fill:none;fill-rule:evenodd;stroke:#000000;stroke-width:3px;stroke-linecap:butt;stroke-linejoin:miter;stroke-opacity:1"
       d="m 91.057528,943.80236 -16.5871,26.77003"
       id="path5509-0-1-0-07-2-2-5"
       inkscape:path-effect="#path-effect5511-4-3-0-07-6-7-7"
       inkscape:original-d="m 91.057528,943.80236 c 18.666092,13.88139 -10.2955,16.72833 -16.5871,26.77003"
       inkscape:connector-curvature="0"
       sodipodi:nodetypes="cc" />
    <path
       style="fill:none;fill-rule:evenodd;stroke:#000000;stroke-width:3px;stroke-linecap:butt;stroke-linejoin:miter;stroke-opacity:1"
       d="m 52.247828,939.83621 -5.2145,7.70645"
       id="path5509-0-1-0-6-8-2-4-8"
       inkscape:path-effect="#path-effect5511-4-3-0-4-9-8-1-4"
       inkscape:original-d="m 52.247828,939.83621 c 18.6661,13.8814 1.0771,-2.33525 -5.2145,7.70645"
       inkscape:connector-curvature="0"
       sodipodi:nodetypes="cc" />
    <path
       style="fill:none;fill-rule:evenodd;stroke:#000000;stroke-width:3px;stroke-linecap:butt;stroke-linejoin:miter;stroke-opacity:1"
       d="m 79.331228,939.65906 -4.9117,7.78587"
       id="path5509-0-1-0-2-1-4-57-3"
       inkscape:path-effect="#path-effect5511-4-3-0-5-3-6-36-0"
       inkscape:original-d="m 79.331228,939.65906 c 18.6661,13.8814 1.3799,-2.25583 -4.9117,7.78587"
       inkscape:connector-curvature="0"
       sodipodi:nodetypes="cc" />
    <path
       style="fill:none;fill-rule:evenodd;stroke:#000000;stroke-width:3;stroke-linecap:butt;stroke-linejoin:miter;stroke-opacity:1"
       d="m 19.436628,926.34437 c -5.230196,-1.32767 -9.734147,-5.24805 -11.7703003,-10.24522 -2.1139867,-5.18819 -1.5973465,-11.01781 -1.1771,-16.60437 0.3199524,-4.2533 0.5682949,-8.54166 1.6219,-12.6748 1.327189,-5.20637 3.9367693,-10.07683 7.5114003,-14.08803 4.855813,-5.44885 11.403529,-9.23766 18.3633,-11.43551 6.992642,-2.20823 14.428467,-2.87136 21.7423,-2.34112 3.387603,0.24559 6.825949,0.76493 9.8576,2.29636 0.81561,0.412 1.599732,0.89773 2.27867,1.50929 0.678938,0.61156 1.251491,1.35382 1.59593,2.20018 0.217377,0.53414 0.342521,1.11033 0.322792,1.68667 -0.01973,0.57635 -0.188678,1.15267 -0.518992,1.62538 -0.27398,0.39209 -0.652935,0.70557 -1.075589,0.92954 -0.422655,0.22397 -0.88833,0.36048 -1.361288,0.43197 -0.945916,0.14297 -1.909542,0.0294 -2.859823,-0.0809 -3.207751,-0.3723 -6.43958,-0.70661 -9.6613,-0.48572 -3.817606,0.26175 -7.592203,1.31767 -10.932226,3.18499 -3.340023,1.86732 -6.235608,4.5535 -8.243474,7.81097 -0.812114,1.31754 -1.482367,2.73349 -1.860389,4.23434 -0.378022,1.50084 -0.456538,3.09139 -0.101411,4.59781 0.364352,1.54556 1.177728,2.96718 2.238341,4.14896 1.060612,1.18177 2.363104,2.131 3.758059,2.88968 3.676972,1.99981 7.947854,2.68404 11.659,4.61969 3.19336,1.66559 5.943296,4.31802 7.32638,7.6435 0.691542,1.66274 1.034239,3.47626 0.939604,5.27458 -0.09464,1.79833 -0.631785,3.5787 -1.596184,5.09951 -1.75843,2.77296 -4.804366,4.51138 -7.950647,5.45068 -3.14628,0.93931 -6.450141,1.18039 -9.704753,1.61499 -3.321912,0.44358 -6.616933,1.09355 -9.953038,1.41334 -3.336105,0.31979 -6.747847,0.30156 -9.982762,-0.57433 -0.15588,-0.0422 -0.31123,-0.0864 -0.466,-0.13248 z"
       id="path5614"
       inkscape:path-effect="#path-effect5616"
       inkscape:original-d="M 19.436628,926.34437 C 2.8262277,922.54582 8.8433277,932.35019 7.6663277,916.09915 c -1.1771,-16.25113 -8.63159996,-3.17966 -1.1771,-16.60437 3.7272003,-6.71239 3.0441,-10.06932 1.6219,-12.6748 -1.4223,-2.60547 -3.8665,-6.49241 7.5114003,-14.08803 11.3779,-7.59564 12.9686,-9.16122 18.3633,-11.43551 5.3947,-2.27428 14.8763,-3.22435 21.7423,-2.34112 6.866,0.88323 7.5526,1.58979 9.8576,2.29636 2.305,0.70656 6.2285,1.41321 3.8746,3.70947 -2.354,2.29638 -1.4713,3.2679 -0.1962,3.31205 1.275,0.0442 2.9424,-0.83908 -5.2967,1.28066 -8.2391,2.11973 -7.3563,-0.6182 -9.6613,-0.48572 -2.3051,0.13249 -17.0179,5.87336 -19.1757,10.99596 -4.3157,10.24531 -3.5311,-0.35326 -1.9618,8.83215 1.5695,9.18541 -4.2044,5.97885 5.9964,7.03864 10.2009,1.05989 4.9891,-8.8051 11.659,4.61969 6.6698,13.42489 9.8084,12.01176 6.6698,18.01759 -3.1388,6.00583 -3.1388,6.71234 -17.6554,7.06567 -14.5165,0.35324 -15.8712,1.76853 -19.9358,0.83901 -4.0646,-0.92952 -0.466,-0.13248 -0.466,-0.13248 z"
       inkscape:connector-curvature="0"
       sodipodi:nodetypes="cssssssssssscccscssc" />
    <path
       style="fill:none;fill-rule:evenodd;stroke:#000000;stroke-width:3;stroke-linecap:butt;stroke-linejoin:miter;stroke-opacity:1"
       d="m 120.74982,926.33823 c 4.94016,-1.5075 9.38195,-4.96911 11.4928,-9.68314 1.14729,-2.56218 1.58673,-5.39459 1.65485,-8.20109 0.0681,-2.80649 -0.22288,-5.60755 -0.47774,-8.40328 -0.42112,-4.61952 -0.74684,-9.26423 -1.71751,-13.8002 -0.97068,-4.53598 -2.62243,-9.00144 -5.4487,-12.67968 -3.26827,-4.25349 -7.93253,-7.23536 -12.7953,-9.4997 -9.10014,-4.23747 -19.263459,-6.23127 -29.277392,-5.53141 -3.387284,0.23673 -6.812094,0.79481 -9.8576,2.29635 -0.821754,0.40515 -1.615727,0.88039 -2.299607,1.49009 -0.68388,0.6097 -1.256227,1.36039 -1.574893,2.21939 -0.262443,0.70744 -0.347058,1.48765 -0.189158,2.2255 0.157899,0.73785 0.566414,1.42859 1.169958,1.88145 0.622171,0.46684 1.413919,0.66182 2.191182,0.6918 0.777263,0.03 1.551186,-0.0933 2.320818,-0.20605 3.197688,-0.46828 6.441229,-0.75948 9.6614,-0.48563 3.913545,0.33282 7.767828,1.51639 11.123941,3.55676 3.356111,2.04036 6.201581,4.94606 8.051661,8.41071 1.44172,2.69992 2.27771,5.7877 1.96169,8.83209 -0.24571,2.36705 -1.21978,4.69471 -2.92309,6.35666 -1.8896,1.84371 -4.499076,2.74273 -7.07076,3.33964 -2.571683,0.59691 -5.221015,0.95472 -7.661342,1.96203 -3.383495,1.39662 -6.262763,4.10018 -7.617071,7.50084 -0.677155,1.70033 -0.972643,3.55576 -0.820616,5.37964 0.152027,1.82388 0.754737,3.61291 1.767887,5.13711 1.815461,2.73121 4.833092,4.47157 7.967717,5.43569 3.134624,0.96411 6.431451,1.23892 9.687585,1.63004 5.76984,0.69307 11.60484,1.76826 17.34999,0.89382 1.12557,-0.17132 2.24034,-0.41713 3.3293,-0.74943 z"
       id="path5614-2"
       inkscape:path-effect="#path-effect5616-8"
       inkscape:original-d="m 120.74982,926.33823 c 16.61051,-3.79851 10.3158,6.5679 11.4928,-9.68314 1.17711,-16.25114 8.63151,-3.17958 1.17711,-16.60437 -7.45441,-13.42478 15.5895,-11.28869 -7.16621,-26.47988 -11.3779,-7.59563 -7.4006,-6.98252 -12.7953,-9.4997 -5.3947,-2.51718 -22.411392,-6.41464 -29.277392,-5.53141 -6.866,0.88322 -7.5527,1.58979 -9.8576,2.29635 -2.305,0.70656 -6.2284,1.4132 -3.8745,3.70948 2.354,2.2964 2.2558,4.06281 0.9808,4.10695 -1.2751,0.0441 -3.727,-1.63398 4.512,0.48575 8.2391,2.11974 7.3564,-0.61813 9.6614,-0.48563 2.305,0.1324 17.017802,6.84487 19.175602,11.96747 4.31569,10.24531 3.53109,-0.35333 1.96169,8.83209 -1.5693,9.18541 7.2778,5.29687 -2.92309,6.35666 -10.200902,1.05989 -8.062402,-8.12312 -14.732102,5.30167 -6.6698,13.42488 -9.8086,12.01176 -6.6698,18.01759 3.1387,6.00583 3.1387,6.71239 17.655302,7.06573 14.51649,0.35323 13.28549,1.82336 17.34999,0.89382 4.0646,-0.92955 -1.9597,0.46005 3.3293,-0.74943 z"
       inkscape:connector-curvature="0"
       sodipodi:nodetypes="ssssssssssscccscszs" />
    <path
       style="fill:none;fill-rule:evenodd;stroke:#000000;stroke-width:3;stroke-linecap:butt;stroke-linejoin:miter;stroke-opacity:1"
       d="m 33.563128,889.96181 c -1.314039,-0.89782 -2.762322,-1.59879 -4.2817,-2.07236 -2.651465,-0.82642 -5.477524,-0.9518 -8.2486,-0.76638 -3.15055,0.21081 -6.311771,0.82856 -9.1488,2.21481 -1.79216,0.8757 -3.4370911,2.05178 -4.8454003,3.46435"
       id="path5636"
       inkscape:path-effect="#path-effect5638"
       inkscape:original-d="m 33.563128,889.96181 c -2.158,-3.70947 1.113,0.22403 -4.2817,-2.07236 -5.3946,-2.29635 3.0905,-20.17342 -8.2486,-0.76638 -3.3104,5.66573 -8.7565,0.88991 -9.1488,2.21481 -0.3924,1.32479 -4.3549003,4.52425 -4.8454003,3.46435"
       inkscape:connector-curvature="0"
       sodipodi:nodetypes="csscc" />
    <path
       style="fill:none;fill-rule:evenodd;stroke:#000000;stroke-width:3;stroke-linecap:butt;stroke-linejoin:miter;stroke-opacity:1"
       d="m 132.57992,892.41902 c -1.37596,-1.067 -2.90073,-1.94183 -4.5163,-2.59121 -2.7847,-1.11932 -5.80832,-1.5584 -8.8094,-1.58968 -2.8528,-0.0297 -5.7387,0.30946 -8.4049,1.32473 -1.69763,0.64645 -3.292,1.5632 -4.7047,2.70518"
       id="path5636-6"
       inkscape:path-effect="#path-effect5638-1"
       inkscape:original-d="m 132.57992,892.41902 c -2.158,-3.70948 0.87841,-0.29486 -4.5163,-2.59121 -5.3946,-2.29635 -2.63,-3.7977 -8.8094,-1.58968 -6.1791,2.20802 -8.0126,-1.7e-4 -8.4049,1.32473 -0.3925,1.32479 -4.2144,3.76507 -4.7047,2.70518"
       inkscape:connector-curvature="0"
       sodipodi:nodetypes="csscc" />
    <path
       style="fill:none;fill-rule:evenodd;stroke:#000000;stroke-width:3;stroke-linecap:butt;stroke-linejoin:miter;stroke-opacity:1"
       d="m 23.162928,895.55529 c -0.21748,0.36216 -0.250805,0.82878 -0.087,1.21817 0.140226,0.33334 0.415043,0.60196 0.738666,0.76334 0.323624,0.16138 0.693149,0.21964 1.054134,0.19803 0.367304,-0.022 0.735013,-0.12798 1.034388,-0.34192 0.299376,-0.21393 0.524733,-0.54189 0.576212,-0.90623 0.04071,-0.2881 -0.02835,-0.58724 -0.174443,-0.83886 -0.146094,-0.25163 -0.366379,-0.45656 -0.618357,-0.60204 -0.406073,-0.23445 -0.898577,-0.31505 -1.3582,-0.22226 -0.459624,0.0928 -0.882288,0.35814 -1.1656,0.73177 l 2e-4,0 z"
       id="path4051-8-0-7-8-1-1-6-3"
       inkscape:path-effect="#path-effect4053-8-0-9-4-4-0-2-5"
       inkscape:original-d="m 23.162928,895.55529 c -0.6397,0.97856 -1.5172,-0.061 -0.087,1.21817 1.4304,1.27963 0.5129,1.93993 1.7928,0.96137 1.2798,-0.97845 0.4069,7.78019 1.6106,-1.24815 0.2505,-1.87867 0.6376,-0.76342 -0.7928,-1.4409 -1.4305,-0.67738 -1.8838,-0.46894 -2.5238,0.50951 z"
       inkscape:connector-curvature="0"
       sodipodi:nodetypes="zssssz" />
    <path
       style="fill:none;fill-rule:evenodd;stroke:#000000;stroke-width:3;stroke-linecap:butt;stroke-linejoin:miter;stroke-opacity:1"
       d="m 26.680328,909.07142 c -0.217477,0.36216 -0.250803,0.82879 -0.087,1.21818 0.140223,0.33334 0.415038,0.60196 0.738661,0.76335 0.323624,0.16139 0.693153,0.21964 1.054139,0.19802 0.367286,-0.022 0.734973,-0.128 1.034325,-0.34194 0.299353,-0.21395 0.524689,-0.54189 0.576175,-0.90621 0.04071,-0.28809 -0.02833,-0.58722 -0.174398,-0.83885 -0.146074,-0.25163 -0.366339,-0.45657 -0.618302,-0.60206 -0.406051,-0.23447 -0.898547,-0.31507 -1.358159,-0.22228 -0.459612,0.0928 -0.882261,0.35815 -1.165541,0.73179 l 10e-5,0 z"
       id="path4051-8-0-7-8-1-1-2-4"
       inkscape:path-effect="#path-effect4053-8-0-9-4-4-0-1-7"
       inkscape:original-d="m 26.680328,909.07142 c -0.6398,0.97856 -1.5174,-0.061 -0.087,1.21818 1.4305,1.27962 0.5129,1.93992 1.7928,0.96137 1.2798,-0.97846 0.4068,7.78018 1.6105,-1.24815 0.2505,-1.87868 0.6377,-0.76342 -0.7927,-1.44091 -1.4304,-0.67738 -1.8838,-0.46894 -2.5237,0.50951 z"
       inkscape:connector-curvature="0"
       sodipodi:nodetypes="zssssz" />
    <path
       style="fill:none;fill-rule:evenodd;stroke:#000000;stroke-width:3;stroke-linecap:butt;stroke-linejoin:miter;stroke-opacity:1"
       d="m 39.580528,914.88834 c -0.21748,0.36216 -0.250805,0.82878 -0.087,1.21817 0.140226,0.33334 0.415043,0.60196 0.738666,0.76334 0.323624,0.16138 0.693149,0.21964 1.054134,0.19803 0.367304,-0.022 0.735013,-0.12798 1.034388,-0.34192 0.299376,-0.21393 0.524733,-0.54189 0.576212,-0.90623 0.04071,-0.2881 -0.02835,-0.58724 -0.174443,-0.83886 -0.146094,-0.25163 -0.366379,-0.45656 -0.618357,-0.60204 -0.406073,-0.23445 -0.898577,-0.31505 -1.3582,-0.22226 -0.459624,0.0928 -0.882288,0.35814 -1.1656,0.73177 l 2e-4,0 z"
       id="path4051-8-0-7-8-1-1-1-2"
       inkscape:path-effect="#path-effect4053-8-0-9-4-4-0-9-3"
       inkscape:original-d="m 39.580528,914.88834 c -0.6398,0.97855 -1.5173,-0.061 -0.087,1.21817 1.4306,1.27963 0.513,1.93993 1.7928,0.96137 1.2799,-0.97846 0.4069,7.78018 1.6106,-1.24815 0.2504,-1.87867 0.6376,-0.76342 -0.7928,-1.4409 -1.4303,-0.67739 -1.8837,-0.46895 -2.5238,0.50951 z"
       inkscape:connector-curvature="0"
       sodipodi:nodetypes="zssssz" />
    <path
       style="fill:none;fill-rule:evenodd;stroke:#000000;stroke-width:3;stroke-linecap:butt;stroke-linejoin:miter;stroke-opacity:1"
       d="m 118.01302,898.02828 c 0.21748,0.36216 0.25081,0.82879 0.087,1.21818 -0.14023,0.33335 -0.41507,0.60198 -0.73871,0.76336 -0.32364,0.16138 -0.69319,0.21963 -1.05419,0.19801 -0.3673,-0.022 -0.735,-0.12799 -1.03438,-0.34193 -0.29937,-0.21394 -0.52473,-0.54188 -0.57622,-0.90622 -0.0407,-0.28809 0.0283,-0.58722 0.1744,-0.83885 0.14607,-0.25162 0.36634,-0.45656 0.6183,-0.60206 0.40608,-0.23449 0.89861,-0.31511 1.35826,-0.22232 0.45965,0.0928 0.88233,0.35817 1.16564,0.73183 l -1e-4,0 z"
       id="path4051-8-0-7-8-1-1-6-6"
       inkscape:path-effect="#path-effect4053-8-0-9-4-4-0-2-7"
       inkscape:original-d="m 118.01302,898.02828 c 0.6398,0.97856 1.5172,-0.061 0.087,1.21818 -1.4307,1.27962 -0.513,1.93992 -1.7929,0.96137 -1.2799,-0.97846 -0.4069,7.78018 -1.6106,-1.24815 -0.2504,-1.87868 -0.6376,-0.76342 0.7927,-1.44091 1.4305,-0.67738 1.8838,-0.46894 2.5239,0.50951 z"
       inkscape:connector-curvature="0"
       sodipodi:nodetypes="zssssz" />
    <path
       style="fill:none;fill-rule:evenodd;stroke:#000000;stroke-width:3;stroke-linecap:butt;stroke-linejoin:miter;stroke-opacity:1"
       d="m 118.77932,909.42471 c 0.21748,0.36216 0.2508,0.82878 0.087,1.21817 -0.14023,0.33334 -0.41504,0.60196 -0.73867,0.76334 -0.32362,0.16139 -0.69315,0.21964 -1.05413,0.19803 -0.3673,-0.022 -0.73501,-0.12798 -1.03438,-0.34192 -0.29938,-0.21394 -0.52473,-0.54189 -0.57622,-0.90623 -0.0407,-0.28809 0.0283,-0.58722 0.1744,-0.83884 0.14608,-0.25163 0.36634,-0.45657 0.6183,-0.60206 0.40607,-0.23448 0.89858,-0.31509 1.35821,-0.2223 0.45963,0.0928 0.8823,0.35816 1.16559,0.73181 l -1e-4,0 z"
       id="path4051-8-0-7-8-1-1-2-6"
       inkscape:path-effect="#path-effect4053-8-0-9-4-4-0-1-8"
       inkscape:original-d="m 118.77932,909.42471 c 0.6398,0.97855 1.5173,-0.061 0.087,1.21817 -1.4306,1.27963 -0.513,1.93993 -1.7928,0.96137 -1.2799,-0.97845 -0.4068,7.78018 -1.6106,-1.24815 -0.2505,-1.87867 -0.6376,-0.76342 0.7927,-1.4409 1.4304,-0.67739 1.8838,-0.46895 2.5238,0.50951 z"
       inkscape:connector-curvature="0"
       sodipodi:nodetypes="zssssz" />
    <path
       style="fill:none;fill-rule:evenodd;stroke:#000000;stroke-width:3;stroke-linecap:butt;stroke-linejoin:miter;stroke-opacity:1"
       d="m 104.89822,914.18177 c 0.21748,0.36216 0.2508,0.82878 0.087,1.21817 -0.14022,0.33332 -0.41501,0.60193 -0.73862,0.76332 -0.3236,0.16138 -0.6931,0.21965 -1.05407,0.19805 -0.36731,-0.022 -0.73502,-0.12797 -1.03439,-0.34191 -0.29938,-0.21394 -0.52473,-0.5419 -0.57621,-0.90624 -0.0407,-0.2881 0.0284,-0.58724 0.17444,-0.83886 0.1461,-0.25163 0.36638,-0.45656 0.61836,-0.60204 0.40606,-0.23444 0.89854,-0.31503 1.35815,-0.22224 0.4596,0.0928 0.88224,0.35814 1.16554,0.73175 l -2e-4,0 z"
       id="path4051-8-0-7-8-1-1-1-0"
       inkscape:path-effect="#path-effect4053-8-0-9-4-4-0-9-0"
       inkscape:original-d="m 104.89822,914.18177 c 0.6398,0.97855 1.5173,-0.061 0.087,1.21817 -1.43049,1.27963 -0.51279,1.93993 -1.79269,0.96137 -1.2799,-0.97845 -0.407,7.78018 -1.6106,-1.24815 -0.2505,-1.87867 -0.6376,-0.76342 0.7928,-1.4409 1.4303,-0.67739 1.8838,-0.46895 2.52369,0.50951 z"
       inkscape:connector-curvature="0"
       sodipodi:nodetypes="zssssz" />
    <path
       style="fill:none;fill-rule:evenodd;stroke:#000000;stroke-width:3;stroke-linecap:butt;stroke-linejoin:miter;stroke-opacity:1"
       d="m 56.467228,905.05936 c 4.240622,0.36023 8.496811,0.53715 12.7527,0.53012 4.814651,-0.008 9.628905,-0.2514 14.4198,-0.72915"
       id="path5704"
       inkscape:path-effect="#path-effect5706"
       inkscape:original-d="m 56.467228,905.05936 c 10.397,0 5.4944,2.2e-4 12.7527,0.53012 7.2583,0.53 14.4198,-0.72915 14.4198,-0.72915"
       inkscape:connector-curvature="0"
       sodipodi:nodetypes="ccc" />
    <path
       style="fill:none;fill-rule:evenodd;stroke:#000000;stroke-width:3;stroke-linecap:butt;stroke-linejoin:miter;stroke-opacity:1"
       d="m 46.050728,886.93686 c -0.217477,0.36216 -0.250802,0.82878 -0.087,1.21817 0.14023,0.33335 0.415065,0.60199 0.738708,0.76337 0.323643,0.16138 0.69319,0.21963 1.054192,0.198 0.367286,-0.022 0.734972,-0.12801 1.034326,-0.34195 0.299355,-0.21394 0.524694,-0.54188 0.576174,-0.9062 0.04071,-0.2881 -0.02834,-0.58724 -0.174438,-0.83887 -0.146094,-0.25163 -0.366381,-0.45656 -0.618362,-0.60204 -0.40606,-0.23444 -0.898547,-0.31503 -1.358152,-0.22223 -0.459606,0.0928 -0.882251,0.35813 -1.165548,0.73175 l 10e-5,0 z"
       id="path4051-8-0-7-8-1-1-6-3-7"
       inkscape:path-effect="#path-effect4053-8-0-9-4-4-0-2-5-0"
       inkscape:original-d="m 46.050728,886.93686 c -0.6398,0.97855 -1.5173,-0.061 -0.087,1.21817 1.4304,1.27963 0.5129,1.93992 1.7929,0.96137 1.2797,-0.97846 0.4067,7.78018 1.6105,-1.24815 0.2505,-1.87867 0.6376,-0.76342 -0.7928,-1.44091 -1.4305,-0.67738 -1.8838,-0.46894 -2.5237,0.50952 z"
       inkscape:connector-curvature="0"
       sodipodi:nodetypes="zssssz" />
    <path
       style="fill:none;fill-rule:evenodd;stroke:#000000;stroke-width:3;stroke-linecap:butt;stroke-linejoin:miter;stroke-opacity:1"
       d="m 91.826128,886.56214 c -0.217478,0.36216 -0.250803,0.82878 -0.087,1.21817 0.140231,0.33335 0.415066,0.60198 0.738709,0.76337 0.323643,0.16138 0.69319,0.21962 1.054191,0.198 0.367287,-0.022 0.734976,-0.128 1.034332,-0.34194 0.299357,-0.21394 0.524697,-0.54188 0.576168,-0.90621 0.0407,-0.28811 -0.02837,-0.58726 -0.17448,-0.83888 -0.146113,-0.25163 -0.366421,-0.45655 -0.61842,-0.60202 -0.406054,-0.2344 -0.898511,-0.31496 -1.358091,-0.22217 -0.459579,0.0928 -0.882204,0.3581 -1.165509,0.73168 l 1e-4,0 z"
       id="path4051-8-0-7-8-1-1-6-3-4"
       inkscape:path-effect="#path-effect4053-8-0-9-4-4-0-2-5-03"
       inkscape:original-d="m 91.826128,886.56214 c -0.6399,0.97856 -1.5173,-0.061 -0.087,1.21817 1.4305,1.27963 0.5129,1.93993 1.7929,0.96137 1.2798,-0.97845 0.4067,7.78018 1.6105,-1.24815 0.2504,-1.87867 0.6377,-0.76342 -0.7929,-1.4409 -1.4304,-0.67739 -1.8836,-0.46895 -2.5236,0.50951 z"
       inkscape:connector-curvature="0"
       sodipodi:nodetypes="zssssz" />
    <path
       style="fill:none;fill-rule:evenodd;stroke:#000000;stroke-width:3;stroke-linecap:butt;stroke-linejoin:miter;stroke-opacity:1"
       d="m 61.820428,885.6317 c -0.305341,-0.92709 -0.129126,-1.97309 0.353072,-2.82174 0.482197,-0.84865 1.246902,-1.512 2.094828,-1.99547 1.136681,-0.64811 2.427849,-0.99241 3.727837,-1.14114 1.299988,-0.14872 2.614191,-0.10784 3.920063,-0.0255 0.851306,0.0537 1.704765,0.12542 2.537233,0.31144 0.832467,0.18602 1.647316,0.4903 2.347467,0.97753 0.858004,0.59708 1.529577,1.4774 1.810085,2.48437 0.280509,1.00697 0.150944,2.13527 -0.410585,3.01695 -0.51456,0.80793 -1.353048,1.37084 -2.251269,1.7036 -0.898221,0.33275 -1.859962,0.45376 -2.814731,0.53084 -2.106241,0.17004 -4.229944,0.13754 -6.3273,-0.11988 -1.011224,-0.12411 -2.032178,-0.30545 -2.946767,-0.75435 -0.457294,-0.22444 -0.884455,-0.51548 -1.240575,-0.87972 -0.35612,-0.36425 -0.640003,-0.80312 -0.799358,-1.28696 z"
       id="path4829-7"
       inkscape:path-effect="#path-effect4831-9"
       inkscape:original-d="m 61.820428,885.6317 c 1.078,-2.62353 -1.6234,-3.7562 2.4479,-4.81721 4.0718,-1.06095 2.8236,-1.25361 7.6479,-1.16661 4.8239,0.0869 4.4885,-1.97778 4.8847,1.28897 0.3959,3.26659 0.7362,8.56089 1.3995,5.50132 1.3821,-6.37335 1.0274,1.69715 -5.066,2.23444 -6.0935,0.53724 -1.9632,1.62059 -6.3273,-0.11988 -4.3638,-1.7403 -6.0648,-0.29764 -4.9867,-2.92102 z"
       inkscape:connector-curvature="0"
       sodipodi:nodetypes="zssssssz" />
  </g>
</svg>
