<?xml version="1.0" encoding="UTF-8" standalone="no"?>
<!-- Created with Inkscape (http://www.inkscape.org/) -->

<svg
   xmlns:dc="http://purl.org/dc/elements/1.1/"
   xmlns:cc="http://creativecommons.org/ns#"
   xmlns:rdf="http://www.w3.org/1999/02/22-rdf-syntax-ns#"
   xmlns:svg="http://www.w3.org/2000/svg"
   xmlns="http://www.w3.org/2000/svg"
   xmlns:sodipodi="http://sodipodi.sourceforge.net/DTD/sodipodi-0.dtd"
   xmlns:inkscape="http://www.inkscape.org/namespaces/inkscape"
   width="140"
   height="200"
   viewBox="0 0 140 200"
   id="svg5217"
   version="1.1"
   inkscape:version="0.91 r13725"
   sodipodi:docname="maya-months-05-xul.svg">
  <defs
     id="defs5219">
    <inkscape:path-effect
       effect="spiro"
       id="path-effect5165"
       is_visible="true" />
    <inkscape:path-effect
       effect="spiro"
       id="path-effect5161"
       is_visible="true" />
    <inkscape:path-effect
       effect="spiro"
       id="path-effect5119"
       is_visible="true" />
    <inkscape:path-effect
       effect="spiro"
       id="path-effect5115"
       is_visible="true" />
    <inkscape:path-effect
       effect="spiro"
       id="path-effect5111"
       is_visible="true" />
    <inkscape:path-effect
       effect="spiro"
       id="path-effect5107"
       is_visible="true" />
    <inkscape:path-effect
       effect="spiro"
       id="path-effect5103"
       is_visible="true" />
    <inkscape:path-effect
       effect="spiro"
       id="path-effect5057-7-6"
       is_visible="true" />
    <inkscape:path-effect
       effect="spiro"
       id="path-effect5057-5"
       is_visible="true" />
    <inkscape:path-effect
       effect="spiro"
       id="path-effect5057-7"
       is_visible="true" />
    <inkscape:path-effect
       effect="spiro"
       id="path-effect5057"
       is_visible="true" />
    <inkscape:path-effect
       effect="spiro"
       id="path-effect5053"
       is_visible="true" />
    <inkscape:path-effect
       effect="spiro"
       id="path-effect5049"
       is_visible="true" />
    <inkscape:path-effect
       effect="spiro"
       id="path-effect4921-5"
       is_visible="true" />
    <inkscape:path-effect
       effect="spiro"
       id="path-effect4917-1"
       is_visible="true" />
    <inkscape:path-effect
       effect="spiro"
       id="path-effect4913-6"
       is_visible="true" />
    <inkscape:path-effect
       effect="spiro"
       id="path-effect4857-7"
       is_visible="true" />
    <inkscape:path-effect
       effect="spiro"
       id="path-effect4853-55"
       is_visible="true" />
    <inkscape:path-effect
       effect="spiro"
       id="path-effect4999"
       is_visible="true" />
  </defs>
  <sodipodi:namedview
     id="base"
     pagecolor="#ffffff"
     bordercolor="#666666"
     borderopacity="1.0"
     inkscape:pageopacity="0.0"
     inkscape:pageshadow="2"
     inkscape:zoom="1.979899"
     inkscape:cx="-20.530658"
     inkscape:cy="110.54352"
     inkscape:document-units="px"
     inkscape:current-layer="layer1"
     showgrid="false"
     units="px"
     inkscape:window-width="1366"
     inkscape:window-height="704"
     inkscape:window-x="0"
     inkscape:window-y="27"
     inkscape:window-maximized="1" />
  <metadata
     id="metadata5222">
    <rdf:RDF>
      <cc:Work
         rdf:about="">
        <dc:format>image/svg+xml</dc:format>
        <dc:type
           rdf:resource="http://purl.org/dc/dcmitype/StillImage" />
        <dc:title></dc:title>
      </cc:Work>
    </rdf:RDF>
  </metadata>
  <g
     inkscape:label="Calque 1"
     inkscape:groupmode="layer"
     id="layer1"
     transform="translate(0,-852.36216)">
    <path
       style="fill:none;fill-rule:evenodd;stroke:#000000;stroke-width:4;stroke-linecap:butt;stroke-linejoin:miter;stroke-opacity:1"
       d="m 104.39684,867.06547 c -2.12789,-0.37634 -4.25451,-0.7599 -6.379796,-1.15068 -13.919678,-2.55943 -28.092731,-5.44029 -42.1183,-3.54516 -10.938796,1.47805 -21.57831,5.98196 -29.6872,13.47114 -8.745473,8.07711 -14.189771,19.21258 -17.3210009,30.69815 -4.3759541,16.05131 -4.5504781,32.96074 -3.3793,49.55658 1.2300789,17.43048 3.9129975,34.7582 8.0118009,51.7445 5.58543,-0.5604 11.116483,-1.6614 16.4907,-3.2828 4.227885,-1.2755 8.358705,-2.8727 12.345,-4.77303 -1.125536,-2.89624 -2.374819,-5.74439 -3.7433,-8.53407 -1.594379,-3.25018 -3.393022,-6.58334 -3.417,-10.20344 -0.01661,-2.50733 0.8507,-4.98329 2.271027,-7.04961 1.420326,-2.06631 3.374736,-3.73504 5.544309,-4.992 4.339148,-2.51391 9.415512,-3.37821 14.385264,-4.04868 4.31109,-0.58161 8.790375,-1.03706 12.936001,0.28111 2.072813,0.65908 4.025952,1.77119 5.508173,3.36304 1.482222,1.59184 2.468621,3.68144 2.559426,5.85462 0.05843,1.39835 -0.250075,2.80134 -0.816885,4.081 -0.566811,1.27966 -1.387355,2.43865 -2.348165,3.45631 -1.921619,2.03533 -4.369248,3.4893 -6.83665,4.81109 -4.049178,2.16914 -8.313259,4.10239 -11.690026,7.21663 -1.688383,1.55712 -3.134725,3.40778 -4.041009,5.51821 -0.906285,2.11042 -1.25139,4.49152 -0.771865,6.73772 0.521873,2.4445 2.002106,4.63 3.927431,6.2241 1.925324,1.5941 4.275317,2.6232 6.704134,3.2139 4.857634,1.1815 9.93964,0.6575 14.937935,0.5595 9.36697,-0.1837 18.75269,1.1559 28.086996,0.353 4.86988,-0.4189 9.80807,-1.469 13.9307,-4.0949 5.53636,-3.5263 9.06685,-9.5973 10.8168,-15.92375 1.74994,-6.32644 1.90626,-12.97018 1.9888,-19.53366 0.29074,-23.11784 -0.19634,-46.28741 -2.8896,-69.24967 -0.53783,-4.58547 -1.16342,-9.16064 -1.8763,-13.72217"
       id="path4997"
       inkscape:path-effect="#path-effect4999"
       inkscape:original-d="m 104.39684,867.06547 c -25.830696,-3.73675 10.123,0.5116 -6.379796,-1.15068 -33.0058,-3.32458 -19.1143,-8.76949 -42.1183,-3.54516 -23.004,5.22432 -22.1859,-13.12543 -29.6872,13.47114 -7.5013,26.59656 -18.8213009,-3.49743 -17.3210009,30.69815 1.5002999,34.19558 -5.8797,22.48508 -3.3793,49.55658 2.5004,27.0715 9.0120009,28.47246 8.0118009,51.7445 12.2521,0.4749 12.8973,-2.1842 16.4907,-3.2828 3.5934,-1.0987 12.345,-4.77303 12.345,-4.77303 -0.5405,-4.07608 3.2858,-6.49603 -3.7433,-8.53407 -7.0291,-2.03804 -22.4203,14.0185 -3.417,-10.20344 19.0033,-24.22187 4.6975,-23.21437 22.2006,-16.09029 17.503,7.12408 27.5048,-10.92359 21.0036,9.49877 -6.5011,20.42236 -0.5,-0.94988 -10.0017,12.3484 -9.5017,13.29826 -38.5067,17.09786 -16.5029,19.47256 22.0039,2.3746 16.5394,8.2422 25.5695,9.9975 9.1729,1.7832 18.8201,1.6244 28.086996,0.353 4.8109,-0.66 13.4306,5.6414 13.9307,-4.0949 1.0002,-19.47247 13.8057,-12.66035 12.8056,-35.45741 -1.0002,-22.79705 -1.8895,-55.95138 -2.8896,-69.24967 -1.0002,-13.29828 17.62721,1.95085 -1.8763,-13.72217"
       inkscape:connector-curvature="0"
       sodipodi:nodetypes="cssssscsczsssssaasssc" />
    <path
       style="fill:none;fill-rule:evenodd;stroke:#000000;stroke-width:4;stroke-linecap:butt;stroke-linejoin:miter;stroke-opacity:1"
       d="m 14.295144,1007.6838 c -2.83859,4.0701 -4.5031097,8.9492 -4.7439009,13.9056 -0.302036,6.217 1.6441019,12.4755 5.1873009,17.5929 2.53579,3.6624 5.933841,6.8027 10.013,8.5927 4.795347,2.1043 10.198747,2.2406 15.4346,2.1453 16.587326,-0.3019 33.166398,-2.5879 49.7187,-1.469 7.879906,0.5326 15.788746,1.8352 23.632996,0.9163 6.7851,-0.7948 13.36634,-3.2752 18.9882,-7.1565"
       id="path4851-0"
       inkscape:path-effect="#path-effect4853-55"
       inkscape:original-d="m 14.295144,1007.6838 c -10.1691009,18.0749 -7.0888009,-6.5275 -4.7439009,13.9056 2.3449009,20.433 -17.53,8.5958 5.1873009,17.5929 22.7174,8.9972 -28.4379,14.8269 10.013,8.5927 19.2254,-3.117 8.6451,1.903 15.4346,2.1453 6.7894,0.2421 38.8286,-2.1661 49.7187,-1.469 21.780196,1.3942 22.110496,-13.2639 23.632996,0.9163 5.2804,49.1836 12.5069,-2.8697 18.9882,-7.1565"
       inkscape:connector-curvature="0"
       sodipodi:nodetypes="cssssssc" />
    <path
       style="fill:none;fill-rule:evenodd;stroke:#000000;stroke-width:4;stroke-linecap:butt;stroke-linejoin:miter;stroke-opacity:1"
       d="m 124.89554,1007.3887 c 1.26255,1.777 1.96928,3.9431 1.9977,6.1228 0.028,2.1474 -0.58074,4.2458 -0.8851,6.3717 -0.74038,5.1715 0.34278,10.4776 2.3146,15.3155 1.06749,2.6191 2.39422,5.1324 3.9545,7.4914"
       id="path4855-9"
       inkscape:path-effect="#path-effect4857-7"
       inkscape:original-d="m 124.89554,1007.3887 c 3.2442,0.4706 2.5206,-0.1053 1.9977,6.1228 -0.5895,7.0195 5.9224,-19.55773 -0.8851,6.3717 -3.2553,12.3993 -5.571,9.1485 2.3146,15.3155 7.8857,6.1671 3.9545,7.4914 3.9545,7.4914"
       inkscape:connector-curvature="0"
       sodipodi:nodetypes="csssc" />
    <path
       style="fill:none;fill-rule:evenodd;stroke:#000000;stroke-width:4;stroke-linecap:butt;stroke-linejoin:miter;stroke-opacity:1"
       d="m 38.259844,1001.4676 c -0.970352,2.8561 -1.1043,5.9908 -0.381121,8.9192 0.723179,2.9284 2.300986,5.6404 4.489321,7.7164 2.57825,2.4459 5.924523,3.9668 9.370427,4.836 3.445904,0.8692 7.014,1.1238 10.562773,1.3136 11.785613,0.6304 23.737656,0.5703 35.2129,-2.1896 2.149808,-0.517 4.286996,-1.1294 6.485116,-1.3687 2.19813,-0.2393 4.49588,-0.084 6.48848,0.8746 2.34535,1.1281 4.12397,3.3836 4.6417,5.9341 0.44261,2.1804 0.0709,4.4535 0.40566,6.653 0.16738,1.0998 0.49925,2.1758 1.00157,3.1684 0.50231,0.9926 1.17194,1.8893 1.85367,2.7684 l 5.3383,6.8837"
       id="path4911-8"
       inkscape:path-effect="#path-effect4913-6"
       inkscape:original-d="m 38.259844,1001.4676 c 0.9464,14.2566 -3.3142,10.4679 4.1082,16.6356 7.4223,6.1678 36.0131,5.4647 19.9332,6.1496 -7.7183,0.3288 45.523596,-6.224 35.2129,-2.1896 -8.917,3.489 19.945496,-2.8034 12.973596,-0.4941 -5.4688,1.8115 1.3857,-3.0912 4.6417,5.9341 3.256,9.0254 -0.2599,8.0496 3.2609,12.5898 l 5.3383,6.8837"
       inkscape:connector-curvature="0"
       sodipodi:nodetypes="cssssssc" />
    <path
       style="fill:none;fill-rule:evenodd;stroke:#000000;stroke-width:4;stroke-linecap:butt;stroke-linejoin:miter;stroke-opacity:1"
       d="m 30.532844,1004.378 c -2.026174,4.5971 -2.547991,9.8429 -1.467132,14.7491 1.080858,4.9062 3.758752,9.4471 7.529132,12.7672 4.544904,4.0021 10.480844,6.1402 16.4593,7.1052 8.11365,1.3096 16.415688,0.6083 24.5578,-0.5108 5.514455,-0.7579 11.003375,-1.7062 16.4455,-2.8754 1.67529,-0.3599 3.365684,-0.7428 5.078875,-0.7094 1.713191,0.033 3.482251,0.5289 4.721021,1.7128 1.06844,1.0211 1.64768,2.4534 2.00635,3.8871 0.35866,1.4337 0.52756,2.9121 0.93635,4.3324 0.4912,1.7066 1.32932,3.3125 2.4484,4.6914"
       id="path4915-2"
       inkscape:path-effect="#path-effect4917-1"
       inkscape:original-d="m 30.532844,1004.378 c -2.2959,15.2119 -0.4381,18.0204 6.062,27.5163 6.5002,9.496 3.4838,6.1735 16.4593,7.1052 12.9756,0.9318 12.5129,1.4077 24.5578,-0.5108 12.0449,-1.9185 9.0408,3.789 16.4455,-2.8754 7.404596,-6.6645 7.939296,-4.2218 9.799896,1.0034 0.9304,2.6126 2.0522,5.4158 2.9427,8.2195 0.8902,2.8035 2.4448,2.0774 2.4484,4.6914"
       inkscape:connector-curvature="0"
       sodipodi:nodetypes="cssssssc" />
    <path
       style="fill:none;fill-rule:evenodd;stroke:#000000;stroke-width:4;stroke-linecap:butt;stroke-linejoin:miter;stroke-opacity:1"
       d="m 22.949044,1006.6024 c -2.82059,5.1455 -4.505582,10.9095 -4.9006,16.764 -0.206554,3.0613 -0.06066,6.169 0.724275,9.1352 0.784932,2.9661 2.232031,5.7921 4.396325,7.967 1.893563,1.9028 4.284943,3.2615 6.805807,4.1843 2.520863,0.9229 5.176703,1.4257 7.838193,1.7761 6.12836,0.8069 12.328663,0.8237 18.5062,1.0381 5.317402,0.1846 10.629687,0.5165 15.9287,0.9954"
       id="path4919-0"
       inkscape:path-effect="#path-effect4921-5"
       inkscape:original-d="m 22.949044,1006.6024 c -4.1565,9.9866 -5.8418,6.3095 -4.9006,16.764 0.9411,10.4545 -4.1546,11.4124 5.1206,17.1022 9.2752,5.6898 3.0592,5.5019 14.644,5.9604 5.7923,0.2292 15.9012,1.2071 18.5062,1.0381 2.6051,-0.1688 11.2951,1.0021 15.9287,0.9954"
       inkscape:connector-curvature="0"
       sodipodi:nodetypes="cssssc" />
    <path
       style="fill:none;fill-rule:evenodd;stroke:#000000;stroke-width:4px;stroke-linecap:butt;stroke-linejoin:miter;stroke-opacity:1"
       d="m 26.286444,1005.4462 c -0.912459,-3.0118 -1.6217,-6.08525 -2.1213,-9.19237 -0.399986,-2.4876 -0.665667,-4.99679 -0.7955,-7.51299"
       id="path5047"
       inkscape:path-effect="#path-effect5049"
       inkscape:original-d="m 26.286444,1005.4462 c 0.3536,-24.04161 -2.1213,-2.8285 -2.1213,-9.19237 0,-6.364 -2.9168,-1.50259 -0.7955,-7.51299"
       inkscape:connector-curvature="0"
       sodipodi:nodetypes="csc" />
    <path
       style="fill:none;fill-rule:evenodd;stroke:#000000;stroke-width:4px;stroke-linecap:butt;stroke-linejoin:miter;stroke-opacity:1"
       d="m 40.034544,1000.8727 c -2.370037,-3.46492 -4.656392,-6.98709 -6.8564,-10.56238 -1.001175,-1.62704 -1.987959,-3.27185 -2.734514,-5.03033 -0.746555,-1.75848 -1.249768,-3.6444 -1.240286,-5.55477 0.0094,-1.89785 0.528801,-3.77792 1.397057,-5.46554 0.868256,-1.68763 2.0789,-3.18696 3.471142,-4.47676 2.784484,-2.57962 6.243491,-4.30186 9.715801,-5.8351 5.968448,-2.63544 12.230456,-4.84008 18.7384,-5.3033 2.952551,-0.21016 5.950643,-0.0546 8.811007,0.70698 2.860364,0.7616 5.583062,2.14788 7.717593,4.19861 2.951548,2.83567 4.651651,6.87256 4.8614,10.96019 0.295769,5.76399 -2.409656,11.59329 -6.9827,15.11442 -2.509925,1.93258 -5.477448,3.16838 -8.4412,4.28675 -2.717692,1.02552 -5.545236,2.01816 -7.6896,3.97756 -0.958504,0.87583 -1.769849,1.9067 -2.764408,2.74137 -0.994559,0.8346 -2.17433,1.4139 -3.378692,1.899 l -3.1819,1.2816"
       id="path5051"
       inkscape:path-effect="#path-effect5053"
       inkscape:original-d="m 40.034544,1000.8727 c 0,0 -4.3815,-8.08748 -6.8564,-10.56238 -2.4748,-2.4749 -8.2175,-0.3321 -3.9748,-10.5851 4.2426,-10.2531 6.0988,-11.1812 14.584,-15.7774 8.4853,-4.5961 8.4853,-6.0104 18.7384,-5.3033 10.253,0.7072 10.8718,-0.39771 16.5286,4.90559 5.6569,5.3033 5.922,1.06069 4.8614,10.96019 -1.0607,9.8995 -2.7401,8.39682 -6.9827,15.11442 -4.2427,6.7175 -3.4914,2.16545 -8.4412,4.28675 -4.9497,2.1214 0.088,1.50266 -7.6896,3.97756 -7.7782,2.47477 -4.5034,3.97987 -6.1431,4.64037 l -3.1819,1.2816"
       inkscape:connector-curvature="0"
       sodipodi:nodetypes="cccccsscccsc" />
    <path
       style="fill:none;fill-rule:evenodd;stroke:#000000;stroke-width:4px;stroke-linecap:butt;stroke-linejoin:miter;stroke-opacity:1"
       d="m 130.40154,997.95982 c -6.55717,-0.63021 -13.03702,-2.06083 -19.25,-4.25 -3.20937,-1.13084 -6.46072,-2.5418 -8.72315,-5.08349 -1.13122,-1.27085 -1.98332,-2.81448 -2.30564,-4.48506 -0.322321,-1.67057 -0.0897,-3.46844 0.77879,-4.93145 0.61857,-1.04197 1.53923,-1.88949 2.58793,-2.49658 1.04871,-0.60709 2.22282,-0.98006 3.41841,-1.17727 2.39119,-0.39443 4.83534,-0.097 7.24366,0.17385 5.90131,0.66365 11.821,1.16391 17.75,1.5"
       id="path5055"
       inkscape:path-effect="#path-effect5057"
       inkscape:original-d="m 130.40154,997.95982 c -17,-3.75 -8,9.74998 -19.25,-4.25 -11.249996,-14 -14.999996,-9.5 -10.25,-14.5 4.75,-5 0,-5 13.25,-3.5 13.25,1.5 14.5,1 17.75,1.5"
       inkscape:connector-curvature="0"
       sodipodi:nodetypes="csssc" />
    <path
       style="fill:none;fill-rule:evenodd;stroke:#000000;stroke-width:4;stroke-linecap:butt;stroke-linejoin:miter;stroke-opacity:1"
       d="m 130.70604,993.19385 c -3.66428,-0.35122 -7.29206,-1.08207 -10.8065,-2.17705 -1.72107,-0.53623 -3.47699,-1.1983 -4.73833,-2.48618 -0.63067,-0.64394 -1.12024,-1.44015 -1.32889,-2.317 -0.20864,-0.87686 -0.12226,-1.83522 0.31312,-2.62443 0.32912,-0.5966 0.84533,-1.07994 1.43758,-1.41682 0.59226,-0.33687 1.2586,-0.53172 1.934,-0.62165 1.3508,-0.17985 2.71782,0.0513 4.06662,0.2456 3.2997,0.47527 6.63084,0.73214 9.9644,0.76837"
       id="path5055-5"
       inkscape:path-effect="#path-effect5057-7"
       inkscape:original-d="m 130.70604,993.19385 c -9.5434,-1.92093 -4.491,4.99443 -10.8065,-2.17705 -6.3155,-7.17149 -8.4206,-4.86637 -5.7541,-7.42761 2.6665,-2.56125 0,-2.56125 7.4382,-1.79287 7.4383,0.76837 8.14,0.51224 9.9644,0.76837"
       inkscape:connector-curvature="0"
       sodipodi:nodetypes="csssc" />
    <path
       style="fill:none;fill-rule:evenodd;stroke:#000000;stroke-width:4px;stroke-linecap:butt;stroke-linejoin:miter;stroke-opacity:1"
       d="m 132.43514,977.14347 c -6.58674,0.10084 -13.18545,-0.60575 -19.6015,-2.09893 -3.313,-0.77102 -6.69801,-1.81638 -9.22586,-4.09244 -1.26392,-1.13803 -2.28089,-2.5774 -2.78637,-4.20132 -0.50549,-1.62391 -0.47469,-3.4355 0.22413,-4.98607 0.49816,-1.10532 1.31827,-2.05136 2.29288,-2.77249 0.97461,-0.72113 2.10038,-1.2233 3.2673,-1.55223 2.33384,-0.65784 4.79777,-0.63009 7.22252,-0.61662 6.27008,0.0348 12.54087,-0.0589 18.8071,-0.28116"
       id="path5055-2"
       inkscape:path-effect="#path-effect5057-5"
       inkscape:original-d="m 132.43514,977.14347 c -17.31,-1.85037 -6.8747,10.57356 -19.6015,-2.09893 -12.7267,-12.67249 -15.957096,-7.78602 -11.7881,-13.27983 4.169,-5.49382 -0.5519,-4.96944 12.7827,-4.94134 13.3346,0.0281 15.5217,-0.41933 18.8071,-0.28116"
       inkscape:connector-curvature="0"
       sodipodi:nodetypes="csssc" />
    <path
       style="fill:none;fill-rule:evenodd;stroke:#000000;stroke-width:4;stroke-linecap:butt;stroke-linejoin:miter;stroke-opacity:1"
       d="m 132.21164,972.37299 c -3.6808,0.0626 -7.36809,-0.26336 -10.9808,-0.97082 -1.76658,-0.34594 -3.58048,-0.8143 -4.9735,-1.95449 -0.6965,-0.57009 -1.27023,-1.30585 -1.57578,-2.15247 -0.30555,-0.84662 -0.32931,-1.80651 0.0104,-2.64002 0.2577,-0.63233 0.71445,-1.17422 1.26454,-1.57876 0.55009,-0.40455 1.19102,-0.67585 1.85338,-0.84179 1.32471,-0.33189 2.71293,-0.24864 4.07698,-0.18243 3.46178,0.16803 6.92957,0.21218 10.3945,0.13234"
       id="path5055-5-4"
       inkscape:path-effect="#path-effect5057-7-6"
       inkscape:original-d="m 132.21164,972.37299 c -9.6971,-0.85563 -3.9122,5.45965 -10.9808,-0.97082 -7.0686,-6.43047 -8.9063,-3.90697 -6.5389,-6.74698 2.3675,-2.83991 -0.2827,-2.54555 7.1949,-2.60298 7.4776,-0.0575 8.553,0.0792 10.3945,0.13234"
       inkscape:connector-curvature="0"
       sodipodi:nodetypes="csssc" />
    <path
       style="fill:none;fill-rule:evenodd;stroke:#000000;stroke-width:4px;stroke-linecap:butt;stroke-linejoin:miter;stroke-opacity:1"
       d="m 40.151544,919.58482 3,-1.375 6,-2.75 c 3.137772,1.64829 6.519202,2.83179 10,3.5 2.444258,0.46923 4.950052,0.68515 7.427806,0.44998 2.477754,-0.23516 4.930536,-0.93196 7.072194,-2.19998 2.915904,-1.72643 5.13153,-4.42301 7,-7.25 1.178678,-1.78334 2.245018,-3.64091 3.1906,-5.55806"
       id="path5101"
       inkscape:path-effect="#path-effect5103"
       inkscape:original-d="m 40.151544,919.58482 c 8.25,-3.75 -3.5,1.375 3,-1.375 6.5,-2.75 1,-1 6,-2.75 6.5,2 1.25,3.75 10,3.5 8.75,-0.25 8.75,3 14.5,-1.75 5.75,-4.75 3.5,-1.25 7,-7.25 3.5,-6 2.4406,-3.80806 3.1906,-5.55806"
       inkscape:connector-curvature="0"
       sodipodi:nodetypes="cscsssc" />
    <path
       style="fill:none;fill-rule:evenodd;stroke:#000000;stroke-width:4px;stroke-linecap:butt;stroke-linejoin:miter;stroke-opacity:1"
       d="m 83.561844,904.3853 c 2.530145,-0.2696 5.045105,-0.68165 7.529,-1.23354 1.726752,-0.38366 3.438495,-0.83487 5.13,-1.35225"
       id="path5105"
       inkscape:path-effect="#path-effect5107"
       inkscape:original-d="m 83.561844,904.3853 c 4.75,-1.25 1.279,-0.73354 7.529,-1.23354 6.25,-0.5 3.13,-0.85225 5.13,-1.35225"
       inkscape:connector-curvature="0"
       sodipodi:nodetypes="csc" />
    <path
       style="fill:none;fill-rule:evenodd;stroke:#000000;stroke-width:4px;stroke-linecap:butt;stroke-linejoin:miter;stroke-opacity:1"
       d="m 49.210944,915.57984 c 0.103368,-3.04327 1.079213,-6.052 2.781715,-8.57661 1.702501,-2.52461 4.126187,-4.55698 6.908885,-5.79341 4.706305,-2.09114 10.157771,-1.84133 15.153,-0.58839 3.446165,0.86439 6.777578,2.18511 9.8799,3.91682"
       id="path5109"
       inkscape:path-effect="#path-effect5111"
       inkscape:original-d="m 49.210944,915.57984 c 15.25,-22 4.4406,-12.87002 9.6906,-14.37002 5.25,-1.5 6.903,-0.83839 15.153,-0.58839 8.25,0.25 8.1299,2.66682 9.8799,3.91682"
       inkscape:connector-curvature="0"
       sodipodi:nodetypes="cssc" />
    <path
       style="fill:none;fill-rule:evenodd;stroke:#000000;stroke-width:4px;stroke-linecap:butt;stroke-linejoin:miter;stroke-opacity:1"
       d="m 50.946844,909.14712 c 0.831102,0.85724 1.990067,1.38843 3.182,1.4584 1.199404,0.0704 2.431589,-0.33428 3.3146,-1.14903 0.847796,-0.78226 1.350879,-1.9422 1.2816,-3.09367 -0.04566,-0.7589 -0.33485,-1.50127 -0.814578,-2.09108 -0.479728,-0.58981 -1.147633,-1.02416 -1.881322,-1.22344"
       id="path5113"
       inkscape:path-effect="#path-effect5115"
       inkscape:original-d="m 50.946844,909.14712 c 1.2374,0.3535 0.2652,2.1655 3.182,1.4584 2.9168,-0.7071 1.7236,1.06067 3.3146,-1.14903 1.591,-2.2097 1.4583,-0.44197 1.2816,-3.09367 -0.1768,-2.6516 -1.5468,-2.78422 -2.6959,-3.31452"
       inkscape:connector-curvature="0"
       sodipodi:nodetypes="csscc" />
    <path
       style="fill:none;fill-rule:evenodd;stroke:#000000;stroke-width:4px;stroke-linecap:butt;stroke-linejoin:miter;stroke-opacity:1"
       d="m 113.03534,884.83319 c -1.64035,-1.5391 -3.37778,-2.98015 -4.90164,-4.63466 -1.52387,-1.65452 -2.84439,-3.55672 -3.46616,-5.71843 -0.52676,-1.83138 -0.54005,-3.77121 -0.41962,-5.67303 0.12043,-1.90182 0.35373,-3.7945 0.55402,-5.68958 l 0.7246,-6.85601 c 4.55986,3.7743 9.00834,7.68315 13.3377,11.71976 4.25368,3.96604 8.44123,8.11675 11.4126,13.11617 1.20756,2.03176 2.22481,4.28031 2.21034,6.6438 -0.007,1.18174 -0.28248,2.37269 -0.87843,3.39318 -0.59595,1.0205 -1.52333,1.86109 -2.63251,2.26888 -1.14883,0.42237 -2.43207,0.36679 -3.61342,0.0464 -1.18136,-0.32035 -2.27799,-0.89163 -3.34418,-1.49284 -1.56284,-0.88125 -3.08782,-1.83901 -4.4864,-2.96287 -1.59244,-1.27964 -3.00712,-2.76299 -4.4969,-4.16082 z"
       id="path5117"
       inkscape:path-effect="#path-effect5119"
       inkscape:original-d="m 113.03534,884.83319 c -3.9168,-4.14694 -8.2134,-3.40417 -8.3678,-10.35309 -0.1544,-6.94901 -0.3301,-6.96758 0.1344,-11.36261 l 0.7246,-6.85601 c 0,0 3.969,1.13052 13.3377,11.71976 9.3688,10.58926 9.8718,2.46543 11.4126,13.11617 1.5407,10.65082 4.1134,9.85612 -1.3006,12.30586 -5.414,2.44973 -2.637,-0.27871 -6.9576,-1.44639 -4.3206,-1.16768 -3.33,-1.88054 -4.4864,-2.96287 -1.1564,-1.08233 -0.58,-0.0139 -4.4969,-4.16082 z"
       inkscape:connector-curvature="0"
       sodipodi:nodetypes="zsscscsszz" />
    <path
       style="fill:none;fill-rule:evenodd;stroke:#000000;stroke-width:4px;stroke-linecap:butt;stroke-linejoin:miter;stroke-opacity:1"
       d="m 114.77654,874.58482 c 1.19978,2.63138 2.85699,5.05346 4.875,7.125 1.17834,1.2096 2.47873,2.30024 3.875,3.25"
       id="path5159"
       inkscape:path-effect="#path-effect5161"
       inkscape:original-d="m 114.77654,874.58482 c 0.5,2.25 5.4485,4.67567 4.875,7.125 -1.9816,8.46322 1.875,0.625 3.875,3.25"
       inkscape:connector-curvature="0"
       sodipodi:nodetypes="csc" />
    <path
       style="fill:none;fill-rule:evenodd;stroke:#000000;stroke-width:4px;stroke-linecap:butt;stroke-linejoin:miter;stroke-opacity:1"
       d="m 19.240544,883.80644 c -0.544003,-2.15925 -0.487692,-4.46648 0.161,-6.59662 0.801086,-2.63057 2.47783,-4.94068 4.529305,-6.77182 2.051474,-1.83114 4.46998,-3.20948 6.970695,-4.35318 2.208533,-1.01007 4.573982,-1.86087 7,-1.75 1.638568,0.0749 3.254383,0.59893 4.625,1.5"
       id="path5163"
       inkscape:path-effect="#path-effect5165"
       inkscape:original-d="m 19.240544,883.80644 c -2.375,-5.75 -3.464,-1.59662 0.161,-6.59662 3.625,-5 7,-8.75 11.5,-11.125 4.5,-2.375 5,-3.25 7,-1.75 2,1.5 4.625,1.5 4.625,1.5"
       inkscape:connector-curvature="0"
       sodipodi:nodetypes="csssc" />
  </g>
</svg>
