<?xml version="1.0" encoding="UTF-8" standalone="no"?>
<!-- Created with Inkscape (http://www.inkscape.org/) -->

<svg
   xmlns:dc="http://purl.org/dc/elements/1.1/"
   xmlns:cc="http://creativecommons.org/ns#"
   xmlns:rdf="http://www.w3.org/1999/02/22-rdf-syntax-ns#"
   xmlns:svg="http://www.w3.org/2000/svg"
   xmlns="http://www.w3.org/2000/svg"
   xmlns:sodipodi="http://sodipodi.sourceforge.net/DTD/sodipodi-0.dtd"
   xmlns:inkscape="http://www.inkscape.org/namespaces/inkscape"
   width="140"
   height="200"
   viewBox="0 0 140 200"
   id="svg5919"
   version="1.1"
   inkscape:version="0.91 r13725"
   sodipodi:docname="maya-months-09-yax.svg">
  <defs
     id="defs5921">
    <inkscape:path-effect
       effect="spiro"
       id="path-effect4831-6-4"
       is_visible="true" />
    <inkscape:path-effect
       effect="spiro"
       id="path-effect4831-2"
       is_visible="true" />
    <inkscape:path-effect
       effect="spiro"
       id="path-effect4462"
       is_visible="true" />
    <inkscape:path-effect
       effect="spiro"
       id="path-effect4458"
       is_visible="true" />
    <inkscape:path-effect
       effect="spiro"
       id="path-effect4454"
       is_visible="true" />
    <inkscape:path-effect
       effect="spiro"
       id="path-effect5247-7-5-4-9"
       is_visible="true" />
    <inkscape:path-effect
       effect="spiro"
       id="path-effect5247-7-6-6"
       is_visible="true" />
    <inkscape:path-effect
       effect="spiro"
       id="path-effect5247-8-2"
       is_visible="true" />
    <inkscape:path-effect
       effect="spiro"
       id="path-effect4384"
       is_visible="true" />
    <inkscape:path-effect
       effect="spiro"
       id="path-effect4049-4-1"
       is_visible="true" />
    <inkscape:path-effect
       effect="spiro"
       id="path-effect4091-4"
       is_visible="true" />
    <inkscape:path-effect
       effect="spiro"
       id="path-effect4087-3"
       is_visible="true" />
    <inkscape:path-effect
       effect="spiro"
       id="path-effect4053-8-4"
       is_visible="true" />
    <inkscape:path-effect
       effect="spiro"
       id="path-effect4053-0-1"
       is_visible="true" />
    <inkscape:path-effect
       effect="spiro"
       id="path-effect4053-08"
       is_visible="true" />
    <inkscape:path-effect
       effect="spiro"
       id="path-effect4049-4"
       is_visible="true" />
    <inkscape:path-effect
       effect="spiro"
       id="path-effect4047-6"
       is_visible="true" />
  </defs>
  <sodipodi:namedview
     id="base"
     pagecolor="#ffffff"
     bordercolor="#666666"
     borderopacity="1.0"
     inkscape:pageopacity="0.0"
     inkscape:pageshadow="2"
     inkscape:zoom="1.4"
     inkscape:cx="137.83416"
     inkscape:cy="128.77597"
     inkscape:document-units="px"
     inkscape:current-layer="layer1"
     showgrid="false"
     units="px"
     inkscape:window-width="1024"
     inkscape:window-height="704"
     inkscape:window-x="0"
     inkscape:window-y="27"
     inkscape:window-maximized="1" />
  <metadata
     id="metadata5924">
    <rdf:RDF>
      <cc:Work
         rdf:about="">
        <dc:format>image/svg+xml</dc:format>
        <dc:type
           rdf:resource="http://purl.org/dc/dcmitype/StillImage" />
        <dc:title></dc:title>
      </cc:Work>
    </rdf:RDF>
  </metadata>
  <g
     inkscape:label="Calque 1"
     inkscape:groupmode="layer"
     id="layer1"
     transform="translate(0,-852.36216)">
    <path
       style="fill:none;fill-rule:evenodd;stroke:#000000;stroke-width:4;stroke-linecap:butt;stroke-linejoin:miter;stroke-opacity:1"
       d="m 8.25656,983.26643 c 0.011655,4.4763 0.1154097,8.95496 -0.071,13.4274 -0.1566888,3.75937 -0.5181959,7.50847 -0.6449,11.26897 -0.1424751,4.2286 0.013313,8.4744 0.6335,12.6597 0.9550681,6.4452 3.163943,12.9676 7.786999,17.5589 2.744994,2.7261 6.219102,4.6407 9.86745,5.9276 3.648349,1.287 7.481369,1.9713 11.317151,2.4747 8.66232,1.1369 17.415203,1.3757 26.1503,1.5383 9.887206,0.184 19.852186,0.266 29.5715,-1.5576 7.60339,-1.4266 15.05672,-4.0535 21.4678,-8.383 5.32386,-3.5953 9.89796,-8.3821 12.8804,-14.072 4.61461,-8.8037 5.18501,-19.0989 5.5597,-29.03167 0.6405,-16.97945 0.97746,-34.09732 -1.9037,-50.84279 -0.8006,-4.65316 -1.8558,-9.28873 -3.64693,-13.65733 -1.79114,-4.3686 -4.34833,-8.47971 -7.84277,-11.65488 -5.02999,-4.57042 -11.70993,-6.95153 -18.4063,-8.11261 -9.438045,-1.63645 -19.096076,-1.05735 -28.6749,-1.02907 -9.320249,0.0275 -18.680976,-0.46976 -27.932532,0.66007 -9.251555,1.12982 -18.554149,4.032 -25.662869,10.05976 -5.342928,4.53048 -9.2563565,10.75615 -10.875699,17.57156 -1.1208375,4.71733 -1.1550926,9.6236 -0.9409,14.46752 0.2980887,6.74121 1.0654888,13.45695 1.2852,20.20117 0.055908,1.71614 0.076316,3.43326 0.082,5.1503 0.00593,1.79166 -0.00416,3.58334 5e-4,5.375 z"
       id="path4045-7"
       inkscape:path-effect="#path-effect4047-6"
       inkscape:original-d="m 8.25656,983.26643 c 1.7517,2.0778 6.4438,9.2463 -0.071,13.4274 -6.5148,4.18127 3.2128,-1.0293 -0.6449,11.26897 -3.8578,12.2983 0.4214,11.6544 0.6335,12.6597 1.4065,8.9122 -3.8139,23.6267 7.786999,17.5589 11.6007,-6.0679 8.8387,4.7056 21.184601,8.4023 6.1729,1.8484 16.1225,1.9276 26.1503,1.5383 10.0279,-0.3891 23.0866,-1.5327 29.5715,-1.5576 25.9399,-0.1 37.0613,-30.6273 21.4678,-8.383 -30.6259,43.6887 10.077,-8.5914 12.8804,-14.072 4.5835,-8.9607 -6.393,-17.9947 5.5597,-29.03167 11.9525,-11.0367 53.3309,-23.7937 -1.9037,-50.84279 -21.3616,-10.46113 -20.0055,-20.89319 -11.4897,-25.31221 8.5159,-4.419 15.0039,-5.68537 -18.4063,-8.11261 -66.820301,-4.85436 -5.4732,-56.04447 -28.6749,-1.02907 -11.6005,27.50764 -48.259101,9.7085 -53.595401,10.71983 -2.668,0.50573 -9.802599,6.11844 -10.875699,17.57156 -0.5364,5.72657 -1.9668,7.34725 -0.9409,14.46752 1.0259,7.12028 1.6332,14.74015 1.2852,20.20117 -2.7842,43.68857 -3.6697,5.4476 0.082,5.1503 3.7516,-0.2972 -1.7512,3.2973 5e-4,5.375 z"
       inkscape:connector-curvature="0"
       sodipodi:nodetypes="zzzcsssssassssssssszz" />
    <path
       style="fill:none;fill-rule:evenodd;stroke:#000000;stroke-width:4;stroke-linecap:butt;stroke-linejoin:miter;stroke-opacity:1"
       d="m 8.10546,982.06093 c 3.302991,0.61708 6.736116,0.52809 10.002699,-0.2593 2.056068,-0.4956 4.116736,-1.3116 5.5687,-2.8494 1.112074,-1.17782 1.796793,-2.71676 2.113633,-4.30534 0.31684,-1.58858 0.282042,-3.23001 0.08927,-4.83836 -0.750866,-6.2646 -3.838194,-12.0516 -4.7339,-18.29713 -0.556698,-3.88172 -0.240389,-7.89426 0.987133,-11.61862 1.227523,-3.72436 3.370674,-7.15236 6.231367,-9.83454 4.696371,-4.40331 11.08553,-6.62189 17.462416,-7.50526 6.376885,-0.88338 12.849356,-0.54819 19.286985,-0.50392 11.792256,0.0811 23.723295,-0.80903 35.2727,1.57322 3.73711,0.77084 7.50164,1.93031 10.4998,4.29064 2.23155,1.75681 3.94288,4.11448 5.19301,6.66466 1.25012,2.55018 2.05684,5.29603 2.68189,8.06651 2.48729,11.02464 2.15667,22.4553 2.4608,33.75294 0.19508,7.24661 0.65643,14.49742 0.3283,21.73923 -0.28554,6.30194 -0.9572,12.58044 -1.3127,18.87884 l -0.9843,17.4389"
       id="path4047-0"
       inkscape:path-effect="#path-effect4049-4"
       inkscape:original-d="m 8.10546,982.06093 c 5.25,-2.4313 8.641699,-0.442 10.002699,-0.2593 1.3611,0.1827 3.9415,0.3087 5.5687,-2.8494 1.6272,-3.158 3.639,-5.6068 2.2029,-9.1437 -1.436,-3.53686 -4.5699,-9.2868 -4.7339,-18.29713 -0.328,-18.02066 -7.874899,-10.58356 7.2185,-21.45316 15.093501,-10.8696 10.171801,-5.14876 36.749401,-8.00918 26.5776,-2.86042 14.2731,-7.29408 35.2727,1.57322 20.9996,8.86733 3.2811,-18.30669 10.4998,4.29064 3.6092,11.29866 6.8496,8.1879 7.8749,14.73117 1.0252,6.54316 -0.164,22.74035 2.4608,33.75294 5.2499,22.02533 0,7.4371 0.3283,21.73923 0.328,14.30214 -0.7483,8.87914 -1.3127,18.87884 l -0.9843,17.4389"
       inkscape:connector-curvature="0"
       sodipodi:nodetypes="cssssssssssssc" />
    <path
       style="fill:none;fill-rule:evenodd;stroke:#000000;stroke-width:4;stroke-linecap:butt;stroke-linejoin:miter;stroke-opacity:1"
       d="m 44.26196,924.56389 c -1.427956,1.07535 -2.420333,2.6923 -2.81172,4.43651 -0.391388,1.74421 -0.193543,3.60317 0.48082,5.25867 0.510804,1.25398 1.29627,2.40356 2.324441,3.2846 1.02817,0.88105 2.302278,1.48632 3.645059,1.66044 1.902571,0.24672 3.880283,-0.39853 5.348374,-1.63358 1.468092,-1.23505 2.429932,-3.02656 2.765926,-4.91541 0.254104,-1.42849 0.161032,-2.92199 -0.303904,-4.2964 -0.464936,-1.3744 -1.304612,-2.62515 -2.424496,-3.54765 -1.252237,-1.03153 -2.850053,-1.63899 -4.471717,-1.68753 -1.621665,-0.0486 -3.256784,0.46437 -4.552783,1.44035 z"
       id="path4051-7"
       inkscape:path-effect="#path-effect4053-08"
       inkscape:original-d="m 44.26196,924.56389 c -2.1308,3.21343 -7.0938,5.493 -2.3309,9.69518 4.763,4.2022 1.708,8.15847 5.9695,4.94504 4.2615,-3.21344 4.1062,23.09967 8.1143,-6.54899 0.8341,-6.1695 2.0346,-5.61937 -2.7284,-7.84405 -4.763,-2.22469 -6.8937,-3.46062 -9.0245,-0.24718 z"
       inkscape:connector-curvature="0"
       sodipodi:nodetypes="zssssz" />
    <path
       style="fill:none;fill-rule:evenodd;stroke:#000000;stroke-width:4;stroke-linecap:butt;stroke-linejoin:miter;stroke-opacity:1"
       d="m 59.34216,923.39892 c -1.410104,1.06825 -2.360258,2.69365 -2.714951,4.42678 -0.354693,1.73313 -0.132336,3.56239 0.516751,5.20806 0.479307,1.21522 1.195347,2.34798 2.157529,3.23156 0.962182,0.88357 2.17754,1.50907 3.472271,1.68275 1.834124,0.24603 3.735458,-0.44517 5.106058,-1.68856 1.370599,-1.24338 2.227434,-2.99686 2.546342,-4.81973 0.246925,-1.41141 0.183732,-2.88363 -0.245066,-4.25081 -0.428799,-1.36719 -1.229206,-2.62479 -2.328034,-3.54438 -1.17486,-0.98321 -2.683057,-1.56304 -4.214318,-1.61045 -1.531261,-0.0474 -3.075437,0.43968 -4.296582,1.36478 z"
       id="path4051-2-7"
       inkscape:path-effect="#path-effect4053-0-1"
       inkscape:original-d="m 59.34216,923.39892 c -2.0096,3.19348 -6.6902,5.45877 -2.1982,9.63484 4.4918,4.17607 1.6106,8.10776 5.6298,4.91431 4.019,-3.19348 3.8726,22.95611 7.6524,-6.50829 0.7865,-6.13106 1.9189,-5.58434 -2.5731,-7.79519 -4.4919,-2.21086 -6.5014,-3.43913 -8.5109,-0.24567 z"
       inkscape:connector-curvature="0"
       sodipodi:nodetypes="zssssz" />
    <path
       style="fill:none;fill-rule:evenodd;stroke:#000000;stroke-width:4;stroke-linecap:butt;stroke-linejoin:miter;stroke-opacity:1"
       d="m 53.05506,938.32101 c -1.335055,0.99401 -2.300191,2.46636 -2.706998,4.08034 -0.406807,1.61398 -0.257721,3.35815 0.390598,4.89116 0.509368,1.20445 1.323319,2.28116 2.354938,3.08485 1.031618,0.80368 2.279707,1.33075 3.577562,1.49112 1.839725,0.22732 3.757437,-0.30154 5.234684,-1.42136 1.477248,-1.11983 2.501552,-2.81436 2.829416,-4.63885 0.239717,-1.33397 0.114475,-2.73182 -0.359501,-4.00158 -0.473975,-1.26976 -1.295508,-2.40796 -2.351999,-3.25695 -1.254261,-1.00791 -2.839718,-1.6004 -4.448111,-1.64659 -1.608392,-0.0462 -3.229973,0.45694 -4.520589,1.41786 z"
       id="path4051-8-2"
       inkscape:path-effect="#path-effect4053-8-4"
       inkscape:original-d="m 53.05506,938.32101 c -2.1175,2.9736 -7.0498,5.08294 -2.3164,8.9715 4.7335,3.88857 1.6973,7.54959 5.9325,4.57597 4.2351,-2.9736 4.0808,21.37565 8.0641,-6.06021 0.8287,-5.70897 2.0219,-5.19987 -2.7115,-7.25853 -4.7335,-2.05865 -6.851,-3.20234 -8.9687,-0.22873 z"
       inkscape:connector-curvature="0"
       sodipodi:nodetypes="zssssz" />
    <path
       style="fill:none;fill-rule:evenodd;stroke:#000000;stroke-width:4;stroke-linecap:butt;stroke-linejoin:miter;stroke-opacity:1"
       d="m 120.56586,1007.8617 c -6.69712,-0.1799 -13.4118,0.2999 -20.0153,1.4302 -3.32186,0.5686 -6.620317,1.302 -9.9728,1.6468 -1.783507,0.1835 -3.607009,0.2538 -5.349502,-0.1685 -1.742494,-0.4222 -3.412354,-1.3895 -4.364898,-2.9085 -0.668385,-1.0658 -0.950152,-2.3699 -0.774053,-3.6156 0.176098,-1.2456 0.810125,-2.4226 1.758353,-3.2494 0.916829,-0.7994 2.087724,-1.25742 3.275327,-1.52055 1.187603,-0.26313 2.406457,-0.34516 3.615173,-0.48169 5.215861,-0.58916 10.259349,-2.19601 15.4216,-3.14653 5.72476,-1.05409 11.59852,-1.29562 17.3905,-0.7151"
       id="path4085-6"
       inkscape:path-effect="#path-effect4087-3"
       inkscape:original-d="m 120.56586,1007.8617 c -3.5623,0.125 -15.2412,1.0329 -20.0153,1.4302 -3.2643,0.2717 -7.6177,1.3422 -9.9728,1.6468 -4.3823,0.5668 -8.6804,-0.6718 -9.7144,-3.077 -1.8795,-4.372 0.3876,-4.7516 0.9843,-6.865 1.0594,-3.75214 11.5244,-2.95194 6.8905,-2.00224 -2.9319,0.6008 12.7303,-3.34403 15.4216,-3.14653 6.4739,0.475 14.8747,-1.7995 17.3905,-0.7151"
       inkscape:connector-curvature="0"
       sodipodi:nodetypes="cssssssc" />
    <path
       style="fill:none;fill-rule:evenodd;stroke:#000000;stroke-width:4;stroke-linecap:butt;stroke-linejoin:miter;stroke-opacity:1"
       d="m 120.48966,1012.2158 c -5.39943,-0.701 -10.91265,-0.5177 -16.2536,0.5403 -5.283416,1.0466 -10.442423,2.9471 -15.8259,3.1148 -2.063975,0.064 -4.146985,-0.1321 -6.125883,-0.7221 -1.978899,-0.59 -3.853156,-1.5829 -5.358417,-2.9965 -1.314364,-1.2343 -2.338422,-2.7912 -2.868881,-4.5145 -0.53046,-1.7233 -0.555133,-3.6118 0.01198,-5.3234 0.781389,-2.35829 2.631247,-4.25369 4.770358,-5.51713 2.13911,-1.26345 4.563458,-1.95664 6.985542,-2.50944 4.536407,-1.03536 9.161529,-1.62191 13.7413,-2.4445 4.69216,-0.84278 9.355,-1.93603 14.1092,-2.2884 2.52494,-0.18714 5.06545,-0.1637 7.5865,0.07"
       id="path4089-44"
       inkscape:path-effect="#path-effect4091-4"
       inkscape:original-d="m 120.48966,1012.2158 c -7.5468,-0.572 -11.3317,-1.462 -16.2536,0.5403 -4.9216,2.0023 -9.5917,3.9729 -15.8259,3.1148 -6.2342,-0.8581 -6.8905,4.2906 -11.4843,-3.7186 -4.5936,-8.0091 -5.1537,-4.1171 -2.8569,-9.8379 2.2967,-5.72097 3.8811,-7.16847 11.7559,-8.02657 7.875,-0.8581 5.8665,-0.1562 13.7413,-2.4445 7.8748,-2.2884 9.1874,-2.0023 14.1092,-2.2884 4.9218,-0.286 5.6178,0.3556 7.5865,0.07"
       inkscape:connector-curvature="0"
       sodipodi:nodetypes="csssssssc" />
    <ellipse
       style="opacity:1;fill:#000000;fill-opacity:1;stroke:#000000;stroke-width:4;stroke-linecap:round;stroke-linejoin:round;stroke-miterlimit:4;stroke-dasharray:none;stroke-dashoffset:0;stroke-opacity:1"
       id="path4093-70"
       cx="110.17197"
       cy="1017.4798"
       rx="0.65915275"
       ry="0.57462525" />
    <ellipse
       style="opacity:1;fill:#000000;fill-opacity:1;stroke:#000000;stroke-width:4;stroke-linecap:round;stroke-linejoin:round;stroke-miterlimit:4;stroke-dasharray:none;stroke-dashoffset:0;stroke-opacity:1"
       id="path4093-6-0"
       cx="101.48508"
       cy="986.26215"
       rx="0.65915275"
       ry="0.57462525" />
    <ellipse
       style="opacity:1;fill:#000000;fill-opacity:1;stroke:#000000;stroke-width:4;stroke-linecap:round;stroke-linejoin:round;stroke-miterlimit:4;stroke-dasharray:none;stroke-dashoffset:0;stroke-opacity:1"
       id="path4093-8-0"
       cx="93.733124"
       cy="987.91199"
       rx="0.65915275"
       ry="0.57462525" />
    <ellipse
       style="opacity:1;fill:#000000;fill-opacity:1;stroke:#000000;stroke-width:4;stroke-linecap:round;stroke-linejoin:round;stroke-miterlimit:4;stroke-dasharray:none;stroke-dashoffset:0;stroke-opacity:1"
       id="path4093-2-1"
       cx="86.938438"
       cy="989.3595"
       rx="0.65915275"
       ry="0.57462525" />
    <ellipse
       style="opacity:1;fill:#000000;fill-opacity:1;stroke:#000000;stroke-width:4;stroke-linecap:round;stroke-linejoin:round;stroke-miterlimit:4;stroke-dasharray:none;stroke-dashoffset:0;stroke-opacity:1"
       id="path4093-1-0"
       cx="79.375084"
       cy="991.27509"
       rx="0.65915275"
       ry="0.57462525" />
    <ellipse
       style="opacity:1;fill:#000000;fill-opacity:1;stroke:#000000;stroke-width:4;stroke-linecap:round;stroke-linejoin:round;stroke-miterlimit:4;stroke-dasharray:none;stroke-dashoffset:0;stroke-opacity:1"
       id="path4093-7-0"
       cx="72.696739"
       cy="995.01105"
       rx="0.65915275"
       ry="0.57462525" />
    <ellipse
       style="opacity:1;fill:#000000;fill-opacity:1;stroke:#000000;stroke-width:4;stroke-linecap:round;stroke-linejoin:round;stroke-miterlimit:4;stroke-dasharray:none;stroke-dashoffset:0;stroke-opacity:1"
       id="path4093-9-1"
       cx="68.606895"
       cy="1000.9343"
       rx="0.65915275"
       ry="0.57462525" />
    <ellipse
       style="opacity:1;fill:#000000;fill-opacity:1;stroke:#000000;stroke-width:4;stroke-linecap:round;stroke-linejoin:round;stroke-miterlimit:4;stroke-dasharray:none;stroke-dashoffset:0;stroke-opacity:1"
       id="path4093-4-8"
       cx="81.715782"
       cy="1021.5091"
       rx="0.65915275"
       ry="0.57462525" />
    <ellipse
       style="opacity:1;fill:#000000;fill-opacity:1;stroke:#000000;stroke-width:4;stroke-linecap:round;stroke-linejoin:round;stroke-miterlimit:4;stroke-dasharray:none;stroke-dashoffset:0;stroke-opacity:1"
       id="path4093-47-5"
       cx="88.808311"
       cy="1021.6678"
       rx="0.65915275"
       ry="0.57462525" />
    <ellipse
       style="opacity:1;fill:#000000;fill-opacity:1;stroke:#000000;stroke-width:4;stroke-linecap:round;stroke-linejoin:round;stroke-miterlimit:4;stroke-dasharray:none;stroke-dashoffset:0;stroke-opacity:1"
       id="path4093-44-0"
       cx="96.407928"
       cy="1020.5555"
       rx="0.65915275"
       ry="0.57462525" />
    <ellipse
       style="opacity:1;fill:#000000;fill-opacity:1;stroke:#000000;stroke-width:4;stroke-linecap:round;stroke-linejoin:round;stroke-miterlimit:4;stroke-dasharray:none;stroke-dashoffset:0;stroke-opacity:1"
       id="path4093-19-7"
       cx="103.65976"
       cy="1018.8739"
       rx="0.65915275"
       ry="0.57462525" />
    <ellipse
       style="opacity:1;fill:#000000;fill-opacity:1;stroke:#000000;stroke-width:4;stroke-linecap:round;stroke-linejoin:round;stroke-miterlimit:4;stroke-dasharray:none;stroke-dashoffset:0;stroke-opacity:1"
       id="path4093-5-3"
       cx="116.09518"
       cy="1017.8626"
       rx="0.65915275"
       ry="0.57462525" />
    <ellipse
       style="opacity:1;fill:#000000;fill-opacity:1;stroke:#000000;stroke-width:4;stroke-linecap:round;stroke-linejoin:round;stroke-miterlimit:4;stroke-dasharray:none;stroke-dashoffset:0;stroke-opacity:1"
       id="path4093-61-4"
       cx="75.633385"
       cy="1019.4431"
       rx="0.65915275"
       ry="0.57462525" />
    <ellipse
       style="opacity:1;fill:#000000;fill-opacity:1;stroke:#000000;stroke-width:4;stroke-linecap:round;stroke-linejoin:round;stroke-miterlimit:4;stroke-dasharray:none;stroke-dashoffset:0;stroke-opacity:1"
       id="path4093-69-2"
       cx="70.383507"
       cy="1014.8983"
       rx="0.65915275"
       ry="0.57462525" />
    <ellipse
       style="opacity:1;fill:#000000;fill-opacity:1;stroke:#000000;stroke-width:4;stroke-linecap:round;stroke-linejoin:round;stroke-miterlimit:4;stroke-dasharray:none;stroke-dashoffset:0;stroke-opacity:1"
       id="path4093-475-9"
       cx="67.990685"
       cy="1007.831"
       rx="0.65915275"
       ry="0.57462525" />
    <ellipse
       style="opacity:1;fill:#000000;fill-opacity:1;stroke:#000000;stroke-width:4;stroke-linecap:round;stroke-linejoin:round;stroke-miterlimit:4;stroke-dasharray:none;stroke-dashoffset:0;stroke-opacity:1"
       id="path4093-86-8"
       cx="109.22115"
       cy="984.94769"
       rx="0.65915275"
       ry="0.57462525" />
    <ellipse
       style="opacity:1;fill:#000000;fill-opacity:1;stroke:#000000;stroke-width:4;stroke-linecap:round;stroke-linejoin:round;stroke-miterlimit:4;stroke-dasharray:none;stroke-dashoffset:0;stroke-opacity:1"
       id="path4093-447-6"
       cx="116.03207"
       cy="984.61249"
       rx="0.65915275"
       ry="0.57462525" />
    <path
       style="fill:none;fill-rule:evenodd;stroke:#000000;stroke-width:4;stroke-linecap:butt;stroke-linejoin:miter;stroke-opacity:1"
       d="m 23.426859,978.82723 c -2.26678,-3.84801 -4.050824,-7.98006 -5.2971,-12.26868 -1.39591,-4.80354 -2.115607,-9.79625 -2.2339,-14.7971 -0.114718,-4.84971 0.34154,-9.74672 1.783738,-14.37845 1.442197,-4.63172 3.903936,-8.99818 7.434762,-12.32475 4.550682,-4.28743 10.640442,-6.64465 16.796469,-7.73739 6.156026,-1.09274 12.450677,-1.0151 18.702932,-1.02181 13.805712,-0.0148 27.747454,-0.44548 41.2727,2.3232 2.69234,0.55113 5.37071,1.23163 7.90443,2.29592 2.53371,1.06429 4.92803,2.52596 6.84537,4.49478 3.38142,3.47222 5.05212,8.25474 6.1249,12.9812 2.37285,10.45434 2.28965,21.284 2.4608,32.00288 0.12903,8.08103 0.40914,16.15891 0.5783,24.2392 0.13534,6.46487 -0.0368,12.93397 -0.5627,19.37887 l -1.2343,15.1265"
       id="path4047-0-8"
       inkscape:path-effect="#path-effect4049-4-1"
       inkscape:original-d="m 23.426859,978.82723 c 1.6272,-3.158 -3.861,-8.7318 -5.2971,-12.26868 -1.436,-3.5369 -2.0699,-5.7868 -2.2339,-14.7971 -0.328,-18.0207 -5.874899,-15.8336 9.2185,-26.7032 15.093501,-10.8696 8.9218,-5.8988 35.499401,-8.7592 26.5776,-2.8604 20.2731,-6.5441 41.2727,2.3232 20.9996,8.8674 -8.3897,1.56449 14.7498,6.7907 7.4551,1.68379 5.0996,6.4379 6.1249,12.9812 1.0253,6.54309 -0.164,20.9903 2.4608,32.00288 5.2499,22.0253 0.25,9.9371 0.5783,24.2392 0.328,14.30217 0.2518,9.39657 -0.5627,19.37887 l -1.2343,15.1265"
       inkscape:connector-curvature="0"
       sodipodi:nodetypes="cssssssssssc" />
    <path
       style="fill:none;fill-rule:evenodd;stroke:#000000;stroke-width:4px;stroke-linecap:butt;stroke-linejoin:miter;stroke-opacity:1"
       d="m 59.95006,951.49899 c 0.722226,0.30621 1.35843,0.81246 1.819033,1.44745 0.460602,0.635 0.744293,1.39694 0.811128,2.17855 0.06683,0.7816 -0.08338,1.58065 -0.429483,2.28463 -0.346106,0.70398 -0.887125,1.31089 -1.546878,1.73527 -0.895532,0.57605 -1.963458,0.80149 -2.973897,1.13738 -0.505219,0.16795 -1.003665,0.36711 -1.454861,0.64974 -0.451195,0.28262 -0.855457,0.65298 -1.124542,1.11238 -0.352727,0.6022 -0.454645,1.33064 -0.368671,2.02322 0.08597,0.69258 0.350085,1.35311 0.68687,1.96437 0.67357,1.22251 1.639833,2.27295 2.239301,3.53345 0.513762,1.08029 0.740127,2.29567 0.649731,3.48848 -0.0904,1.19281 -0.497335,2.3602 -1.168031,3.35072"
       id="path4382"
       inkscape:path-effect="#path-effect4384"
       inkscape:original-d="m 59.95006,951.49899 c 0,12.0209 2.991,0.71252 0.6538,7.6459 -3.5874,10.64214 -6.9675,-4.8787 -5.5533,2.8995 0.7071,3.88905 -0.1267,7.82844 2.5575,7.52104 5.8906,-0.6745 -0.3415,5.0714 -0.5183,6.8392"
       inkscape:connector-curvature="0"
       sodipodi:nodetypes="csssc" />
    <path
       style="fill:none;fill-rule:evenodd;stroke:#000000;stroke-width:4;stroke-linecap:butt;stroke-linejoin:miter;stroke-opacity:1"
       d="m 26.419459,915.49618 c -6.181958,-0.88472 -11.861979,-4.77712 -14.918199,-10.22311 -2.2158469,-3.9485 -3.0650113,-8.59297 -2.7323784,-13.1085 0.3326328,-4.51553 1.8109074,-8.90465 3.9745784,-12.88198 1.791064,-3.2924 4.0603,-6.33349 6.781599,-8.91076 6.508031,-6.16358 15.31657,-9.41303 24.163123,-10.85618 8.846553,-1.44314 17.865387,-1.23092 26.827878,-1.36479 8.8433,-0.13209 17.729129,-0.60282 26.501865,0.51991 8.772735,1.12272 17.564805,3.97298 24.283035,9.72509 3.97225,3.40102 7.13185,7.77499 8.9581,12.67505 3.37805,9.06375 1.85894,19.77132 -3.8321,27.59275 -2.46697,3.39045 -5.65942,6.25028 -9.2998,8.33084"
       id="path5245-8-17"
       inkscape:path-effect="#path-effect5247-8-2"
       inkscape:original-d="M 26.419459,915.49618 C -10.33574,874.90154 -0.49174001,930.10891 11.50126,905.27307 c 11.309299,-23.41987 -24.20379,-7.2547 1.2422,-25.99048 25.4459,-18.73607 -52.5923,-5.78816 6.781599,-8.91076 29.687001,-1.5613 32.113301,-14.24312 50.991001,-12.22097 18.8775,2.02215 55.3299,-1.12771 50.7849,10.245 -10.3551,25.91105 6.6608,5.84425 8.9581,12.67505 2.2972,6.83081 -1.0048,4.95344 -3.8321,27.59275 -5.6547,45.27854 10.4916,-10.40513 -9.2998,8.33084"
       inkscape:connector-curvature="0"
       sodipodi:nodetypes="csssssssc" />
    <path
       style="fill:none;fill-rule:evenodd;stroke:#000000;stroke-width:4;stroke-linecap:butt;stroke-linejoin:miter;stroke-opacity:1"
       d="m 36.91666,911.52919 c -0.586869,-0.94589 -1.109086,-1.93189 -1.5618,-2.94883 -2.497945,-5.6112 -2.75416,-12.27496 -0.2731,-17.89364 1.030712,-2.33418 2.508626,-4.4668 4.31,-6.27396 4.054079,-4.0671 9.607082,-6.36585 15.243491,-7.46481 5.636408,-1.09897 11.421171,-1.09104 17.163509,-1.13995 6.28499,-0.0535 12.619774,-0.1758 18.798893,0.97418 6.179118,1.14998 12.279547,3.68763 16.622907,8.23066 2.10026,2.19682 3.74838,4.82629 4.7945,7.67984 1.12665,3.07321 1.55071,6.41078 1.1527,9.65972 -0.398,3.24893 -1.62486,6.40237 -3.5882,9.02139 -0.34834,0.46468 -0.71919,0.91248 -1.1108,1.34133"
       id="path5245-4-38-4"
       inkscape:path-effect="#path-effect5247-7-6-6"
       inkscape:original-d="m 36.91666,911.52919 c -23.3595,-28.58233 -9.184001,14.53793 -1.5618,-2.94883 7.1875,-16.49002 -16.445101,-4.70174 -0.2731,-17.89364 16.1721,-13.1919 -33.4247,-4.07534 4.31,-6.27396 18.8674,-1.09931 20.4095,-10.02854 32.407,-8.60476 11.9976,1.42368 38.3103,1.1974 35.4218,9.20484 -6.5811,18.2438 3.3345,2.87031 4.7945,7.67984 1.46,4.80961 -2.0818,17.79943 -2.4355,18.68111 -2.4863,6.19843 1.016,-2.83355 -1.1108,1.34133"
       inkscape:connector-curvature="0"
       sodipodi:nodetypes="csssssssc" />
    <path
       style="fill:none;fill-rule:evenodd;stroke:#000000;stroke-width:4;stroke-linecap:butt;stroke-linejoin:miter;stroke-opacity:1"
       d="m 34.798359,912.34501 c -1.395858,-1.51078 -2.546573,-3.24757 -3.3936,-5.12198 -1.380907,-3.05586 -1.941191,-6.46063 -1.747876,-9.80843 0.193316,-3.3478 1.129429,-6.63714 2.605676,-9.6481 1.201255,-2.45008 2.764675,-4.73022 4.683501,-6.67033 4.384838,-4.43347 10.43838,-6.90294 16.567724,-8.04907 6.129344,-1.14614 12.410939,-1.07576 18.646476,-1.09968 6.81184,-0.0261 13.67426,-0.16547 20.378074,1.04313 6.703814,1.2086 13.335946,3.88655 18.112026,8.7436 2.28109,2.31976 4.09896,5.1073 5.2099,8.16516 2.36927,6.52142 1.2942,14.15105 -2.6465,19.86185 -0.8919,1.29253 -1.91952,2.49134 -3.0605,3.57035"
       id="path5245-4-3-1-27"
       inkscape:path-effect="#path-effect5247-7-5-4-9"
       inkscape:original-d="m 34.798359,912.34501 c -25.383099,-30.38896 -11.6759,13.46999 -3.3936,-5.12198 7.810201,-17.5321 -16.715099,-5.43084 0.8578,-19.45653 17.573001,-14.0256 -36.319999,-4.33286 4.683501,-6.67033 20.5016,-1.16883 22.1773,-10.66253 35.2142,-9.14875 13.0368,1.51377 41.6289,1.27311 38.4901,9.78673 -7.1511,19.39692 3.6234,3.05165 5.2099,8.16516 1.5864,5.1136 -0.6939,2.91422 -2.6465,19.86185 -3.9051,33.89536 10.6074,-10.45534 -3.0605,3.57035"
       inkscape:connector-curvature="0"
       sodipodi:nodetypes="csssssssc" />
    <path
       style="fill:none;fill-rule:evenodd;stroke:#000000;stroke-width:4px;stroke-linecap:butt;stroke-linejoin:miter;stroke-opacity:1"
       d="m 68.06656,858.29069 -2.2981,13.435"
       id="path4452"
       inkscape:path-effect="#path-effect4454"
       inkscape:original-d="m 68.06656,858.29069 -2.2981,13.435"
       inkscape:connector-curvature="0" />
    <path
       style="fill:none;fill-rule:evenodd;stroke:#000000;stroke-width:4px;stroke-linecap:butt;stroke-linejoin:miter;stroke-opacity:1"
       d="m 74.68056,858.25849 -2.5222,13.6396"
       id="path4456"
       inkscape:path-effect="#path-effect4458"
       inkscape:original-d="m 74.68056,858.25849 -2.5222,13.6396"
       inkscape:connector-curvature="0"
       sodipodi:nodetypes="cc" />
    <path
       style="fill:none;fill-rule:evenodd;stroke:#000000;stroke-width:4px;stroke-linecap:butt;stroke-linejoin:miter;stroke-opacity:1"
       d="m 81.14806,858.29068 -2.2097,13.3467"
       id="path4460"
       inkscape:path-effect="#path-effect4462"
       inkscape:original-d="m 81.14806,858.29068 -2.2097,13.3467"
       inkscape:connector-curvature="0"
       sodipodi:nodetypes="cc" />
    <path
       style="fill:none;fill-rule:evenodd;stroke:#000000;stroke-width:4px;stroke-linecap:butt;stroke-linejoin:miter;stroke-opacity:1"
       d="m 53.90596,899.10211 c -0.729638,-0.56693 -1.156365,-1.47146 -1.245197,-2.39118 -0.08883,-0.91972 0.138143,-1.85096 0.534097,-2.68582 0.960556,-2.02532 2.841341,-3.45827 4.7875,-4.5705 0.627844,-0.35881 1.272604,-0.69426 1.955513,-0.9321 0.682909,-0.23785 1.40756,-0.37648 2.129387,-0.3329 0.982325,0.0593 1.9456,0.46963 2.644993,1.16196 0.699392,0.69234 1.122011,1.66524 1.116507,2.64934 -0.0047,0.83652 -0.308776,1.65246 -0.760446,2.35657 -0.45167,0.70412 -1.046333,1.30554 -1.672954,1.85973 -1.344028,1.18868 -2.861485,2.18776 -4.5088,2.8989 -0.800732,0.34567 -1.643185,0.62551 -2.514003,0.67385 -0.870819,0.0484 -1.777895,-0.15273 -2.466597,-0.68785 z"
       id="path4829-95"
       inkscape:path-effect="#path-effect4831-2"
       inkscape:original-d="m 53.90596,899.10211 c -0.5666,-2.6442 -3.0377,-2.286 -0.7111,-5.077 2.3267,-2.791 1.3521,-2.3567 4.7875,-4.5705 3.4353,-2.2138 2.1571,-3.7341 4.0849,-1.265 1.9276,2.4691 4.8398,6.6137 3.7615,3.8113 -2.2461,-5.8378 1.5791,0.8937 -2.4334,4.2163 -4.0127,3.3226 -0.5621,2.2477 -4.5088,2.8989 -3.9465,0.6512 -4.414,2.6301 -4.9806,-0.014 z"
       inkscape:connector-curvature="0"
       sodipodi:nodetypes="zssssssz" />
    <path
       style="fill:none;fill-rule:evenodd;stroke:#000000;stroke-width:4px;stroke-linecap:butt;stroke-linejoin:miter;stroke-opacity:1"
       d="m 80.48906,899.29241 c -0.650911,-0.6485 -0.975008,-1.58331 -0.976872,-2.50213 -0.0019,-0.91881 0.298419,-1.82078 0.752472,-2.61957 1.141691,-2.00852 3.174304,-3.33817 5.2219,-4.4082 0.825486,-0.43138 1.675842,-0.83707 2.585542,-1.03698 0.909701,-0.1999 1.892557,-0.18054 2.735858,0.21488 0.800876,0.37553 1.432126,1.07905 1.765894,1.89821 0.333769,0.81916 0.376935,1.74532 0.170306,2.60539 -0.307337,1.27926 -1.135643,2.37622 -2.0824,3.2898 -1.365541,1.31768 -3.015246,2.33257 -4.7911,3.0014 -0.891313,0.33569 -1.830282,0.58764 -2.782491,0.56706 -0.952208,-0.0206 -1.924388,-0.33764 -2.599109,-1.00986 z"
       id="path4829-9-1"
       inkscape:path-effect="#path-effect4831-6-4"
       inkscape:original-d="m 80.48906,899.29241 c -0.3123,-2.6861 -2.8062,-2.5649 -0.2244,-5.1217 2.5819,-2.5568 1.5913,-2.5315 5.2219,-4.4082 3.6306,-1.8766 3.6375,-3.4635 5.3214,-0.8221 1.6838,2.6415 2.7427,7.3959 1.9362,4.5036 -1.68,-6.0252 2.2284,0.3643 -2.0824,3.2898 -4.3107,2.9254 -0.8004,2.729 -4.7911,3.0014 -3.9907,0.2725 -5.0693,2.2432 -5.3816,-0.4428 z"
       inkscape:connector-curvature="0"
       sodipodi:nodetypes="zssssssz" />
  </g>
</svg>
