<?xml version="1.0" encoding="UTF-8" standalone="no"?>
<!-- Created with Inkscape (http://www.inkscape.org/) -->

<svg
   xmlns:dc="http://purl.org/dc/elements/1.1/"
   xmlns:cc="http://creativecommons.org/ns#"
   xmlns:rdf="http://www.w3.org/1999/02/22-rdf-syntax-ns#"
   xmlns:svg="http://www.w3.org/2000/svg"
   xmlns="http://www.w3.org/2000/svg"
   xmlns:sodipodi="http://sodipodi.sourceforge.net/DTD/sodipodi-0.dtd"
   xmlns:inkscape="http://www.inkscape.org/namespaces/inkscape"
   width="140"
   height="200"
   viewBox="0 0 140 200"
   id="svg7117"
   version="1.1"
   inkscape:version="0.91 r13725"
   sodipodi:docname="maya-months-02-sip.svg">
  <defs
     id="defs7119">
    <inkscape:path-effect
       effect="spiro"
       id="path-effect4158-3"
       is_visible="true" />
    <inkscape:path-effect
       effect="spiro"
       id="path-effect4158"
       is_visible="true" />
    <inkscape:path-effect
       effect="spiro"
       id="path-effect4110-0-0"
       is_visible="true" />
    <inkscape:path-effect
       effect="spiro"
       id="path-effect4110-0"
       is_visible="true" />
    <inkscape:path-effect
       effect="spiro"
       id="path-effect4110-2"
       is_visible="true" />
    <inkscape:path-effect
       effect="spiro"
       id="path-effect4110"
       is_visible="true" />
    <inkscape:path-effect
       effect="spiro"
       id="path-effect5273-0-2-4-9"
       is_visible="true" />
    <inkscape:path-effect
       effect="spiro"
       id="path-effect5273-0-1-9-3"
       is_visible="true" />
    <inkscape:path-effect
       effect="spiro"
       id="path-effect5273-8-1-1"
       is_visible="true" />
    <inkscape:path-effect
       effect="spiro"
       id="path-effect5247-7-5-4"
       is_visible="true" />
    <inkscape:path-effect
       effect="spiro"
       id="path-effect5247-7-6"
       is_visible="true" />
    <inkscape:path-effect
       effect="spiro"
       id="path-effect5273-0-2-5-0"
       is_visible="true" />
    <inkscape:path-effect
       effect="spiro"
       id="path-effect5273-0-1-0"
       is_visible="true" />
    <inkscape:path-effect
       effect="spiro"
       id="path-effect5273-0-2-6"
       is_visible="true" />
    <inkscape:path-effect
       effect="spiro"
       id="path-effect5273-0-8"
       is_visible="true" />
    <inkscape:path-effect
       effect="spiro"
       id="path-effect5273-8-6"
       is_visible="true" />
    <inkscape:path-effect
       effect="spiro"
       id="path-effect5273-88"
       is_visible="true" />
    <inkscape:path-effect
       effect="spiro"
       id="path-effect5251-6-5"
       is_visible="true" />
    <inkscape:path-effect
       effect="spiro"
       id="path-effect5251-9"
       is_visible="true" />
    <inkscape:path-effect
       effect="spiro"
       id="path-effect5247-8"
       is_visible="true" />
    <inkscape:path-effect
       effect="spiro"
       id="path-effect4464-0-7-0-0"
       is_visible="true" />
  </defs>
  <sodipodi:namedview
     id="base"
     pagecolor="#ffffff"
     bordercolor="#666666"
     borderopacity="1.0"
     inkscape:pageopacity="0.0"
     inkscape:pageshadow="2"
     inkscape:zoom="1.979899"
     inkscape:cx="143.78211"
     inkscape:cy="82.628711"
     inkscape:document-units="px"
     inkscape:current-layer="layer1"
     showgrid="false"
     units="px"
     inkscape:window-width="1024"
     inkscape:window-height="704"
     inkscape:window-x="0"
     inkscape:window-y="27"
     inkscape:window-maximized="1" />
  <metadata
     id="metadata7122">
    <rdf:RDF>
      <cc:Work
         rdf:about="">
        <dc:format>image/svg+xml</dc:format>
        <dc:type
           rdf:resource="http://purl.org/dc/dcmitype/StillImage" />
        <dc:title></dc:title>
      </cc:Work>
    </rdf:RDF>
  </metadata>
  <g
     inkscape:label="Calque 1"
     inkscape:groupmode="layer"
     id="layer1"
     transform="translate(0,-852.36216)">
    <path
       style="fill:none;fill-rule:evenodd;stroke:#000000;stroke-width:4;stroke-linecap:butt;stroke-linejoin:miter;stroke-opacity:1"
       d="m 22.762373,917.94657 c 6.994607,-5.19177 15.69883,-7.64956 24.363567,-8.54475 8.664737,-0.89519 17.403418,-0.32974 26.109393,-0.0381 7.20791,0.24143 14.445511,0.29635 21.581208,1.34234 7.135699,1.04598 14.234689,3.13474 20.242219,7.12496 5.05631,3.35842 9.20854,7.99076 12.32927,13.19714 3.12072,5.20637 5.23187,10.97942 6.58604,16.89647 2.70835,11.8341 2.41603,24.11893 2.21642,36.25735 -0.17888,10.87788 -0.28864,21.88715 -3.04718,32.41105 -1.37926,5.2619 -3.42569,10.3747 -6.35234,14.96 -2.92665,4.5853 -6.75239,8.6362 -11.35211,11.5401 -5.91358,3.7334 -12.90041,5.4613 -19.85983,6.1504 -6.959416,0.6892 -13.972713,0.3958 -20.966167,0.3963 -9.272567,6e-4 -18.582082,0.5176 -27.792693,-0.5525 -9.210611,-1.0702 -18.478027,-3.8635 -25.651167,-9.7394 -8.057801,-6.6006 -12.7888065,-16.557 -15.0436162,-26.7262 C 3.8705771,1002.4526 3.8584654,991.94053 3.7290327,981.52518 3.5859516,970.01156 3.2981304,958.3764 5.7008814,947.11538 8.1036325,935.85435 13.516503,924.80935 22.762373,917.94657 Z"
       id="path4462-4-4-5-5"
       inkscape:path-effect="#path-effect4464-0-7-0-0"
       inkscape:original-d="m 22.762373,917.94657 c 9.82716,-4.9419 31.01884,-7.92314 50.47296,-8.58288 24.817636,-0.84161 46.040757,14.10927 41.823427,8.4673 -4.2173,-5.64185 21.69551,40.80788 21.13173,66.35096 -0.56717,25.69765 -12.01984,47.64315 -20.75163,58.91115 -8.73188,11.2681 -19.615097,7.396 -40.825997,6.5467 -20.39359,-0.8166 -49.51484,-15.1032 -53.44386,-10.2919 -7.85806,9.6228 -21.02586026,-49.09465 -17.4399703,-57.82272 3.5858,-8.72813 -0.62109,-53.69494 19.0333403,-63.57861 z"
       inkscape:connector-curvature="0"
       sodipodi:nodetypes="ssssssszs" />
    <path
       style="fill:none;fill-rule:evenodd;stroke:#000000;stroke-width:4;stroke-linecap:butt;stroke-linejoin:miter;stroke-opacity:1"
       d="M 26.558753,915.26904 C 20.33322,914.1253 14.70491,910.07467 11.643363,904.5346 9.3486952,900.38225 8.485675,895.51562 8.8311163,890.784 c 0.3454412,-4.73161 1.8610767,-9.33318 4.0541667,-13.54006 1.787561,-3.42898 4.03693,-6.63121 6.78036,-9.35644 6.389312,-6.34692 15.171999,-9.81829 24.039049,-11.39378 8.86705,-1.5755 17.936436,-1.41036 26.942321,-1.43856 9.837192,-0.0308 19.743167,-0.29318 29.439397,1.36647 9.69623,1.65965 19.31693,5.41679 26.28473,12.36093 3.26158,3.2505 5.88468,7.15698 7.54248,11.45295 1.7659,4.57609 2.421,9.58954 1.78701,14.4534 -0.63398,4.86385 -2.56682,9.56573 -5.61843,13.40587 -3.85035,4.84527 -9.47724,8.24585 -15.55716,9.40188"
       id="path5245-8"
       inkscape:path-effect="#path-effect5247-8"
       inkscape:original-d="m 26.558753,915.26904 c -36.74836,-42.62524 -26.90617026,15.34375 -14.91539,-10.73444 11.30719,-24.59145 -24.19925,-7.61756 1.24192,-27.29066 25.44118,-19.6732 -52.58238,-6.07761 6.78036,-9.35644 29.68137,-1.63941 32.10732,-14.95563 50.98137,-12.83234 18.87405,2.12329 60.268267,1.78583 55.724127,13.7274 -10.35312,27.20719 5.24572,4.28043 7.54248,11.45295 2.29677,7.17253 -1.00462,4.08752 -3.83142,27.85927 -5.65359,47.54348 4.23042,-10.27133 -15.55716,9.40188"
       inkscape:connector-curvature="0"
       sodipodi:nodetypes="csssssssc" />
    <path
       style="fill:none;fill-rule:evenodd;stroke:#000000;stroke-width:4;stroke-linecap:butt;stroke-linejoin:miter;stroke-opacity:1"
       d="m 29.903243,1044.5508 c -1.577151,-11.3218 -2.799952,-22.6929 -3.66601,-34.0911 -1.24504,-16.38602 -1.595793,-33.61542 5.6536,-48.36324 3.302875,-6.71921 8.192108,-12.75104 14.48733,-16.80406 9.053412,-5.82881 20.378657,-7.19867 31.09477,-6.14786 5.459583,0.53536 10.891471,1.66636 15.957512,3.77085 5.066042,2.10449 9.765155,5.20995 13.370505,9.34458 4.2787,4.90683 6.88524,11.10354 8.27836,17.46306 1.39311,6.35951 1.63128,12.91382 1.61543,19.42412 -0.0466,19.13875 -2.25134,38.27135 -6.55905,56.91905"
       id="path5249-7"
       inkscape:path-effect="#path-effect5251-9"
       inkscape:original-d="m 29.903243,1044.5508 c -3.18015,-61.47875 -6.49281,-13.5982 -3.66601,-34.0911 2.82679,-20.49285 0,-37.29702 5.6536,-48.36324 5.65359,-11.06611 37.49715,-12.93505 14.48733,-16.80406 -22.82677,-3.83828 20.84764,-12.29572 31.09477,-6.14786 10.24714,6.14786 23.674427,-4.91836 29.328017,13.11543 5.6536,18.03368 10.95384,9.01678 9.89379,36.88718 -1.06005,27.87035 -6.2057,54.04995 -6.55905,56.91905"
       inkscape:connector-curvature="0"
       sodipodi:nodetypes="cssssssc" />
    <path
       style="fill:none;fill-rule:evenodd;stroke:#000000;stroke-width:4;stroke-linecap:butt;stroke-linejoin:miter;stroke-opacity:1"
       d="m 23.641303,1040.9762 c -1.640658,-11.2435 -2.915261,-22.5405 -3.82111,-33.8669 -0.701177,-8.76728 -1.181048,-17.58855 -0.423391,-26.35113 0.757657,-8.76257 2.790843,-17.50583 6.880801,-25.29229 3.830553,-7.29261 9.496412,-13.68438 16.54711,-17.94383 10.479284,-6.33072 23.318583,-7.62437 35.51574,-6.56473 6.174145,0.53639 12.336611,1.64437 18.126952,3.85339 5.790345,2.20901 11.212105,5.55669 15.370845,10.15154 4.68932,5.18107 7.62094,11.77409 9.24252,18.57142 1.62157,6.79734 1.99528,13.82958 2.05794,20.81738 0.17517,19.53495 -2.03985,39.09015 -6.57996,58.09105"
       id="path5249-6-7"
       inkscape:path-effect="#path-effect5251-6-5"
       inkscape:original-d="m 23.641303,1040.9762 c -3.63231,-65.64832 -7.04982,-11.9842 -3.82111,-33.8669 3.2287,-21.88285 0,-39.82669 6.45741,-51.64342 6.45742,-11.8166 42.8284,-13.81237 16.54711,-17.94383 -26.07224,-4.09853 23.8117,-13.12957 35.51574,-6.56473 11.70404,6.56473 27.040377,-5.25187 33.497797,14.00493 6.45742,19.2568 12.51123,9.6284 11.30046,39.3888 -1.21076,29.76065 -6.17638,55.02745 -6.57996,58.09105"
       inkscape:connector-curvature="0"
       sodipodi:nodetypes="cssssssc" />
    <path
       style="fill:none;fill-rule:evenodd;stroke:#000000;stroke-width:4;stroke-linecap:butt;stroke-linejoin:miter;stroke-opacity:1"
       d="m 43.926373,1048.7364 c 11.290892,-8.6746 21.819969,-18.3404 31.42646,-28.8499 15.24833,-16.6816 28.161397,-35.49477 38.245847,-55.72077"
       id="path5271-1"
       inkscape:path-effect="#path-effect5273-88"
       inkscape:original-d="m 43.926373,1048.7364 c 16.96078,-18.4436 1.74509,1.0697 31.42646,-28.8499 29.681357,-29.91965 28.352047,-27.03065 38.245847,-55.72077"
       inkscape:connector-curvature="0"
       sodipodi:nodetypes="csc" />
    <path
       style="fill:none;fill-rule:evenodd;stroke:#000000;stroke-width:4;stroke-linecap:butt;stroke-linejoin:miter;stroke-opacity:1"
       d="m 27.678423,1029.0129 c 11.233303,-8.6466 21.710053,-18.2756 31.27144,-28.7413 15.230648,-16.67109 28.127794,-35.47102 38.19882,-55.68171"
       id="path5271-5-3"
       inkscape:path-effect="#path-effect5273-8-6"
       inkscape:original-d="m 27.678423,1029.0129 c 16.96078,-18.4436 1.59006,1.1783 31.27144,-28.7413 29.68136,-29.91964 28.30503,-26.99172 38.19882,-55.68171"
       inkscape:connector-curvature="0"
       sodipodi:nodetypes="csc" />
    <path
       style="fill:none;fill-rule:evenodd;stroke:#000000;stroke-width:4;stroke-linecap:butt;stroke-linejoin:miter;stroke-opacity:1"
       d="M 57.928783,1001.1215 C 54.397624,995.81312 51.002515,990.41424 47.747913,984.93195 42.640394,976.32847 37.879026,967.5195 33.479193,958.5335"
       id="path5271-3-6"
       inkscape:path-effect="#path-effect5273-0-8"
       inkscape:original-d="m 57.928783,1001.1215 c -16.96078,-18.44365 1.83302,-8.81205 -10.18087,-16.18955 -34.75367,-21.34133 -4.37493,2.2915 -14.26872,-26.39845"
       inkscape:connector-curvature="0"
       sodipodi:nodetypes="csc" />
    <path
       style="fill:none;fill-rule:evenodd;stroke:#000000;stroke-width:4;stroke-linecap:butt;stroke-linejoin:miter;stroke-opacity:1"
       d="m 114.48032,1022.784 c -4.17012,-2.6353 -8.22811,-5.4481 -12.15933,-8.4281 -4.509687,-3.4185 -8.852501,-7.0571 -13.007807,-10.8986"
       id="path5271-3-1-68"
       inkscape:path-effect="#path-effect5273-0-2-6"
       inkscape:original-d="m 114.48032,1022.784 c 16.21915,-35.93725 -0.14544,-1.0508 -12.15933,-8.4281 -34.753667,-21.34165 -3.114021,17.7913 -13.007807,-10.8986"
       inkscape:connector-curvature="0"
       sodipodi:nodetypes="csc" />
    <path
       style="fill:none;fill-rule:evenodd;stroke:#000000;stroke-width:4;stroke-linecap:butt;stroke-linejoin:miter;stroke-opacity:1"
       d="m 73.492193,983.23435 c -3.436695,-5.10164 -6.736208,-10.29568 -9.89377,-15.57464 -4.845957,-8.10169 -9.357459,-16.40343 -13.51916,-24.87697"
       id="path5271-3-16-1"
       inkscape:path-effect="#path-effect5273-0-1-0"
       inkscape:original-d="m 73.492193,983.23435 c -16.96078,-18.44356 2.12012,-8.19716 -9.89377,-15.57464 -34.75367,-21.34137 -3.62536,3.81313 -13.51916,-24.87697"
       inkscape:connector-curvature="0"
       sodipodi:nodetypes="csc" />
    <path
       style="fill:none;fill-rule:evenodd;stroke:#000000;stroke-width:4;stroke-linecap:butt;stroke-linejoin:miter;stroke-opacity:1"
       d="m 106.93224,1046.9175 c -7.18151,-4.1902 -14.069734,-8.8829 -20.597617,-14.0325 -4.5149,-3.5616 -8.857548,-7.3416 -13.00769,-11.3223"
       id="path5271-3-1-6-2"
       inkscape:path-effect="#path-effect5273-0-2-5-0"
       inkscape:original-d="m 106.93224,1046.9175 c 16.21914,-35.9372 -8.583731,-6.655 -20.597617,-14.0325 -34.75367,-21.3414 -3.1139,17.3677 -13.00769,-11.3223"
       inkscape:connector-curvature="0"
       sodipodi:nodetypes="csc" />
    <path
       style="fill:none;fill-rule:evenodd;stroke:#000000;stroke-width:4;stroke-linecap:butt;stroke-linejoin:miter;stroke-opacity:1"
       d="m 36.366673,911.16934 c -0.746784,-0.83418 -1.397908,-1.75394 -1.93654,-2.73548 -1.601867,-2.91906 -2.171297,-6.34094 -1.924281,-9.66146 0.247016,-3.32053 1.280576,-6.54827 2.713571,-9.55384 1.133476,-2.37735 2.529216,-4.64662 4.30922,-6.5878 3.906487,-4.2602 9.468421,-6.71078 15.130442,-7.87333 5.66202,-1.16254 11.490328,-1.14454 17.270438,-1.16188 6.309592,-0.0189 12.671812,-0.0807 18.859926,1.15156 6.188114,1.2323 12.275871,3.87714 16.555191,8.51382 2.13624,2.31464 3.77635,5.083 4.79359,8.06399 2.2033,6.4567 1.3169,13.91764 -2.43503,19.61559 -0.66507,1.01002 -1.41358,1.96507 -2.23542,2.85222"
       id="path5245-4-38"
       inkscape:path-effect="#path-effect5247-7-6"
       inkscape:original-d="m 36.366673,911.16934 c -23.35519,-30.01212 -9.55722,15.62604 -1.93654,-2.73548 7.1862,-17.31482 -15.37969,-5.36351 0.78929,-19.2153 16.16899,-13.85179 -33.4184103,-4.27915 4.30922,-6.5878 18.8638,-1.15427 20.4056,-10.53019 32.40088,-9.03521 11.9953,1.49497 38.303127,1.25732 35.415117,9.66538 -6.57984,19.15641 3.3339,3.01382 4.79359,8.06399 1.4597,5.05016 -0.63847,2.87796 -2.43503,19.61559 -3.59311,33.47515 10.34045,-10.99957 -2.23542,2.85222"
       inkscape:connector-curvature="0"
       sodipodi:nodetypes="csssssssc" />
    <path
       style="fill:none;fill-rule:evenodd;stroke:#000000;stroke-width:4;stroke-linecap:butt;stroke-linejoin:miter;stroke-opacity:1"
       d="m 34.936063,911.96028 c -1.397343,-1.60497 -2.546127,-3.42593 -3.39294,-5.37821 -1.397534,-3.22194 -1.959756,-6.78453 -1.764601,-10.29108 0.195156,-3.50655 1.137258,-6.95609 2.622251,-10.13866 1.192643,-2.55602 2.742122,-4.957 4.68251,-7.00408 4.308465,-4.54537 10.350429,-7.1364 16.491433,-8.36575 6.141004,-1.22935 12.453428,-1.20795 18.716187,-1.24063 6.844064,-0.0357 13.743936,-0.13678 20.464218,1.15949 6.720281,1.29627 13.343649,4.1182 18.018719,9.11682 2.30027,2.45947 4.08044,5.40075 5.20884,8.5736 1.22101,3.43326 1.67701,7.14547 1.24453,10.76363 -0.43248,3.61816 -1.76009,7.13552 -3.8905,10.09178 -1.35677,1.88272 -3.03268,3.53484 -4.93459,4.86457"
       id="path5245-4-3-1"
       inkscape:path-effect="#path-effect5247-7-5-4"
       inkscape:original-d="m 34.936063,911.96028 c -25.3783504,-31.90912 -11.67377,14.14383 -3.39294,-5.37821 7.8087,-18.40904 -16.71196,-5.70248 0.85765,-20.42974 17.56964,-14.72725 -36.3132703,-4.5496 4.68251,-7.00408 20.49788,-1.2273 22.17323,-11.19583 35.20762,-9.60638 13.03438,1.58957 41.621117,1.33685 38.482937,10.27631 -7.14982,20.36725 3.62271,3.20429 5.20884,8.5736 1.58614,5.36942 -0.69378,3.05996 -2.64597,20.85541 -3.90436,35.5909 8.73067,-9.86269 -4.93459,4.86457"
       inkscape:connector-curvature="0"
       sodipodi:nodetypes="csssssssc" />
    <path
       style="fill:none;fill-rule:evenodd;stroke:#000000;stroke-width:4;stroke-linecap:butt;stroke-linejoin:miter;stroke-opacity:1"
       d="m 36.971223,1047.2403 c 11.908309,-9.4429 23.030062,-19.8775 33.21233,-31.1601 15.919159,-17.63951 29.532886,-37.35719 40.386327,-58.49424"
       id="path5271-5-7-9"
       inkscape:path-effect="#path-effect5273-8-1-1"
       inkscape:original-d="m 36.971223,1047.2403 c 16.96078,-18.4435 3.53096,-1.2405 33.21233,-31.1601 29.681366,-29.91965 30.492527,-29.80425 40.386327,-58.49424"
       inkscape:connector-curvature="0"
       sodipodi:nodetypes="csc" />
    <path
       style="fill:none;fill-rule:evenodd;stroke:#000000;stroke-width:4;stroke-linecap:butt;stroke-linejoin:miter;stroke-opacity:1"
       d="m 62.534283,995.97105 c -4.704698,-6.25346 -9.103289,-12.73719 -13.17476,-19.42023 -4.465894,-7.33046 -8.538138,-14.90071 -12.19333,-22.66727"
       id="path5271-3-16-6-9"
       inkscape:path-effect="#path-effect5273-0-1-9-3"
       inkscape:original-d="m 62.534283,995.97105 c -16.96078,-18.44356 -1.16086,-12.0428 -13.17476,-19.42023 -34.75367,-21.34137 -2.29954,6.02283 -12.19333,-22.66727"
       inkscape:connector-curvature="0"
       sodipodi:nodetypes="csc" />
    <path
       style="fill:none;fill-rule:evenodd;stroke:#000000;stroke-width:4;stroke-linecap:butt;stroke-linejoin:miter;stroke-opacity:1"
       d="m 110.65984,1042.4247 c -5.5962,-3.8199 -11.069729,-7.8195 -16.409327,-11.9906 -5.506195,-4.3012 -10.869961,-8.7848 -16.07955,-13.4408"
       id="path5271-3-1-4-6"
       inkscape:path-effect="#path-effect5273-0-2-4-9"
       inkscape:original-d="m 110.65984,1042.4247 c 16.21915,-35.9371 -4.39544,-4.6133 -16.409327,-11.9906 -34.75367,-21.3415 -6.18576,15.2493 -16.07955,-13.4408"
       inkscape:connector-curvature="0"
       sodipodi:nodetypes="csc" />
    <path
       style="fill:none;fill-rule:evenodd;stroke:#000000;stroke-width:4px;stroke-linecap:butt;stroke-linejoin:miter;stroke-opacity:1"
       d="m 61.106813,874.25545 c 0.0094,4.33333 0.0094,8.66667 0,13 -0.01567,7.18762 -0.05734,14.37518 -0.125,21.5625"
       id="path4108"
       inkscape:path-effect="#path-effect4110"
       inkscape:original-d="m 61.106813,874.25545 c 0,13 -0.25,0.25 0,13 0.25,12.75 -0.875,13.3125 -0.125,21.5625"
       inkscape:connector-curvature="0"
       sodipodi:nodetypes="csc" />
    <path
       style="fill:none;fill-rule:evenodd;stroke:#000000;stroke-width:4px;stroke-linecap:butt;stroke-linejoin:miter;stroke-opacity:1"
       d="m 68.149703,873.44297 c -0.004,5.60421 -0.02479,11.20841 -0.0625,16.8125 -0.04178,6.20852 -0.104282,12.4169 -0.1875,18.625"
       id="path4108-7"
       inkscape:path-effect="#path-effect4110-2"
       inkscape:original-d="m 68.149703,873.44297 c 0,13 -11.90778,12.08869 -0.0625,16.8125 50.424547,20.10893 -0.90226,10.38016 -0.1875,18.625"
       inkscape:connector-curvature="0"
       sodipodi:nodetypes="csc" />
    <path
       style="fill:none;fill-rule:evenodd;stroke:#000000;stroke-width:4px;stroke-linecap:butt;stroke-linejoin:miter;stroke-opacity:1"
       d="m 85.606813,874.25547 c 0.107808,4.72825 0.128646,9.45848 0.0625,14.1875 -0.09858,7.0479 -0.390394,14.09309 -0.875,21.125"
       id="path4108-5"
       inkscape:path-effect="#path-effect4110-0"
       inkscape:original-d="m 85.606813,874.25547 c 0,13 -12.66021,15.05793 0.0625,14.1875 4.86803,-0.33305 -1.625,12.875 -0.875,21.125"
       inkscape:connector-curvature="0"
       sodipodi:nodetypes="csc" />
    <path
       style="fill:none;fill-rule:evenodd;stroke:#000000;stroke-width:4px;stroke-linecap:butt;stroke-linejoin:miter;stroke-opacity:1"
       d="m 78.522863,873.75547 c 0.227827,5.79503 0.324876,11.59519 0.29105,17.3946 -0.03558,6.10077 -0.216002,12.20069 -0.54105,18.2929"
       id="path4108-5-4"
       inkscape:path-effect="#path-effect4110-0-0"
       inkscape:original-d="m 78.522863,873.75547 c 0,13 0.041,4.6446 0.29105,17.3946 0.25,12.75 -1.29105,10.0429 -0.54105,18.2929"
       inkscape:connector-curvature="0"
       sodipodi:nodetypes="csc" />
    <path
       style="fill:none;fill-rule:evenodd;stroke:#000000;stroke-width:4px;stroke-linecap:butt;stroke-linejoin:miter;stroke-opacity:1"
       d="m 35.544313,889.13045 c 1.325352,-0.12772 2.658009,-0.17961 3.98928,-0.15533 1.063167,0.0194 2.147576,0.0921 3.133428,0.49061 0.492927,0.19925 0.956279,0.48017 1.336849,0.85144 0.38057,0.37127 0.676317,0.8351 0.818933,1.34729 0.233266,0.83775 0.037,1.76409 -0.436557,2.49346 -0.473556,0.72937 -1.204023,1.27006 -2.005474,1.60757 -1.602903,0.67503 -3.411175,0.56109 -5.148959,0.48996 -1.499072,-0.0614 -2.999802,-0.0822 -4.5,-0.0625"
       id="path4156"
       inkscape:path-effect="#path-effect4158"
       inkscape:original-d="m 35.544313,889.13045 c 14,2 -1.24692,-3.12723 3.98928,-0.15533 4.625,2.625 7.5294,-6.32393 5.28921,2.68934 -2.24019,9.01328 -5.89447,4.68078 -7.59099,4.59099 -9.5,-0.5 -3.75,-0.0625 -4.5,-0.0625"
       inkscape:connector-curvature="0"
       sodipodi:nodetypes="cszcc" />
    <path
       style="fill:none;fill-rule:evenodd;stroke:#000000;stroke-width:4px;stroke-linecap:butt;stroke-linejoin:miter;stroke-opacity:1"
       d="m 112.23503,891.7824 c -1.85177,-0.21921 -3.73023,-0.21197 -5.58026,0.0215 -0.72561,0.0916 -1.45616,0.22058 -2.12214,0.52286 -0.66598,0.30227 -1.26854,0.7958 -1.57608,1.45936 -0.32116,0.69296 -0.28925,1.52218 0.01,2.22503 0.2989,0.70285 0.8469,1.28297 1.48859,1.69717 1.28339,0.82841 2.8682,0.99962 4.38749,1.15808 1.5391,0.16053 3.07723,0.33032 4.61428,0.50938"
       id="path4156-8"
       inkscape:path-effect="#path-effect4158-3"
       inkscape:original-d="m 112.23503,891.7824 c -14.000001,2 -0.34406,-2.95045 -5.58026,0.0215 -4.625,2.625 -5.93841,-7.03108 -3.69822,1.98222 2.24019,9.0133 4.1892,5.17008 5.88572,5.08028 9.5,-0.5 3.86428,0.50938 4.61428,0.50938"
       inkscape:connector-curvature="0"
       sodipodi:nodetypes="cszcc" />
  </g>
</svg>
