<?xml version="1.0" standalone="no"?>
<!DOCTYPE svg PUBLIC "-//W3C//DTD SVG 20010904//EN"
 "http://www.w3.org/TR/2001/REC-SVG-20010904/DTD/svg10.dtd">
<svg version="1.0" xmlns="http://www.w3.org/2000/svg"
 width="255.000000pt" height="239.000000pt" viewBox="0 0 255.000000 239.000000"
 preserveAspectRatio="xMidYMid meet">
<metadata>
Created by potrace 1.13, written by Peter Selinger 2001-2015
</metadata>
<g transform="translate(0.000000,239.000000) scale(0.100000,-0.100000)"
fill="#000000" stroke="none">
<path d="M1340 2365 c-47 -7 -141 -17 -210 -20 -92 -5 -145 -14 -200 -32 -86
-29 -285 -129 -391 -198 -260 -168 -381 -415 -433 -882 -22 -198 -27 -373 -18
-678 9 -282 15 -327 49 -339 22 -9 38 3 90 68 120 148 213 138 632 -69 240
-119 292 -134 491 -142 217 -9 502 40 628 108 171 91 313 205 353 281 28 55
56 186 68 318 18 189 14 837 -4 950 -18 110 -64 253 -99 308 -75 120 -280 236
-541 308 -112 31 -289 39 -415 19z m262 -150 c216 -30 380 -87 469 -163 78
-67 161 -213 193 -343 17 -67 36 -295 36 -431 0 -89 4 -86 -92 -67 l-55 11 -7
197 c-6 208 -12 252 -46 380 -55 201 -155 276 -403 302 -121 12 -381 -3 -547
-33 -63 -11 -122 -19 -130 -18 -130 18 -194 -14 -351 -170 -131 -131 -189
-224 -189 -306 0 -53 11 -56 33 -10 71 150 215 329 315 393 73 47 182 87 196
73 14 -14 12 -149 -4 -227 -15 -74 -68 -186 -113 -238 -49 -58 -126 -96 -201
-102 -77 -7 -166 11 -196 39 -27 25 -28 24 -71 -92 -18 -51 -33 -114 -36 -157
-6 -69 -7 -72 -37 -85 -31 -12 -139 -18 -150 -7 -8 8 37 189 70 279 80 223
220 429 377 556 141 113 345 199 529 223 106 14 291 12 410 -4z m-38 -237 c3
-29 6 -90 6 -134 0 -98 24 -242 49 -300 26 -57 84 -119 136 -144 62 -30 171
-37 259 -16 38 9 70 15 72 13 2 -2 -1 -41 -8 -88 -7 -56 -17 -89 -29 -100 -28
-25 -182 -43 -322 -36 -179 8 -220 20 -277 76 -74 74 -86 120 -82 326 2 150
-14 351 -34 416 -6 23 48 37 147 38 l76 1 7 -52z m229 36 c49 -6 124 -44 159
-81 59 -61 118 -234 118 -342 0 -102 -23 -127 -131 -146 -87 -16 -205 36 -249
108 -32 51 -38 91 -43 289 l-4 188 56 -5 c31 -3 73 -8 94 -11z m-540 -54 c5
-19 7 -150 4 -290 -5 -304 -14 -350 -81 -404 -97 -79 -198 -108 -376 -109
-114 0 -180 8 -282 34 -35 9 -38 13 -38 46 0 20 5 65 11 100 9 51 14 63 28 59
134 -39 135 -39 196 -27 85 18 148 55 227 134 113 114 157 232 158 419 0 76 1
77 89 75 54 -2 55 -3 64 -37z m97 -679 c22 -46 40 -84 40 -86 0 -3 -9 -9 -21
-15 -15 -9 -30 -7 -65 6 -24 9 -44 20 -44 23 0 4 9 32 20 64 11 31 20 66 20
78 0 30 5 24 50 -70z m890 -144 c56 -19 75 -64 74 -172 -1 -73 -6 -104 -29
-165 -28 -76 -32 -105 -20 -173 23 -126 -148 -278 -395 -353 -160 -48 -412
-72 -580 -54 -225 23 -349 62 -619 190 -181 86 -200 88 -360 31 l-110 -40 -5
52 c-27 263 -37 449 -26 502 14 66 59 118 117 135 65 19 225 32 301 25 83 -8
116 -28 164 -104 36 -57 37 -105 3 -151 -24 -33 -33 -74 -17 -84 16 -9 73 37
92 75 24 46 25 76 5 149 -8 30 -15 60 -15 65 0 6 37 21 83 32 75 20 96 21 242
14 88 -4 170 -13 182 -19 30 -17 33 -40 11 -123 -30 -110 -29 -114 11 -112 56
2 76 32 76 111 0 37 -3 82 -7 100 l-7 32 117 -1 c210 -2 319 -12 339 -31 16
-17 16 -22 -5 -110 -12 -51 -22 -105 -22 -120 0 -25 2 -26 29 -17 41 14 68 47
82 101 12 45 7 97 -15 150 -6 13 4 20 51 38 105 39 190 48 253 27z"/>
</g>
</svg>
