<?xml version="1.0" standalone="no"?>
<!DOCTYPE svg PUBLIC "-//W3C//DTD SVG 20010904//EN"
 "http://www.w3.org/TR/2001/REC-SVG-20010904/DTD/svg10.dtd">
<svg version="1.0" xmlns="http://www.w3.org/2000/svg"
 width="255.000000pt" height="239.000000pt" viewBox="0 0 255.000000 239.000000"
 preserveAspectRatio="xMidYMid meet">
<metadata>
Created by potrace 1.16, written by Peter Selinger 2001-2019
</metadata>
<g transform="translate(0.000000,239.000000) scale(0.100000,-0.100000)"
fill="#000000" stroke="none">
<path d="M1465 2349 c-510 -19 -856 -104 -1020 -252 -137 -122 -280 -388 -332
-612 -30 -131 -2 -672 53 -1018 15 -94 11 -178 -10 -229 -5 -11 0 -24 13 -37
27 -27 51 -18 142 54 81 63 106 70 233 63 67 -4 114 -13 181 -37 137 -48 211
-67 346 -90 438 -71 631 -71 859 1 165 52 259 116 334 226 40 59 51 89 90 240
l45 172 -15 113 c-12 79 -18 237 -24 542 -6 369 -9 438 -24 485 -59 184 -189
304 -381 354 -54 14 -96 19 -250 29 -22 2 -130 0 -240 -4z m340 -124 c142 -30
257 -108 312 -212 94 -177 59 -370 -95 -514 -37 -35 -111 -95 -165 -133 -88
-62 -111 -89 -92 -108 10 -9 98 11 140 33 67 35 142 117 233 258 l87 135 7
-50 c14 -107 9 -203 -13 -246 -33 -65 -107 -136 -209 -203 -103 -67 -116 -79
-122 -110 -10 -59 169 24 279 129 83 81 89 80 80 -14 -6 -65 -40 -148 -80
-196 -38 -44 -135 -93 -204 -102 -53 -6 -58 -9 -58 -32 0 -24 2 -25 60 -24 71
1 142 33 213 97 26 23 58 50 71 62 l24 20 -7 -75 c-19 -216 -87 -299 -258
-316 -67 -7 -68 -7 -68 -36 l0 -29 53 7 c45 5 118 26 180 49 44 18 -2 -86 -68
-149 -120 -117 -413 -206 -678 -206 -89 0 -129 6 -249 36 -79 20 -149 40 -156
43 -9 5 24 43 104 120 137 132 144 147 144 323 0 128 -20 192 -81 262 -48 54
-143 104 -215 112 l-52 6 -5 50 c-14 119 -110 198 -190 157 -12 -6 -32 -21
-44 -32 -19 -17 -30 -19 -82 -13 -54 6 -61 5 -71 -14 -7 -13 -10 -59 -9 -116
l3 -95 -77 -50 c-42 -27 -105 -82 -141 -121 l-66 -70 0 140 c0 312 61 575 174
745 57 85 159 200 236 265 103 86 173 121 267 132 43 5 105 16 138 24 76 20
129 20 149 0 17 -16 21 -50 10 -79 -8 -21 -70 -52 -130 -65 -120 -27 -175 -78
-209 -193 -38 -130 23 -252 154 -310 39 -17 59 -19 165 -14 252 11 426 97 493
243 22 49 25 65 21 149 -3 81 -6 97 -26 118 -31 32 -91 47 -194 47 -46 0 -89
4 -97 9 -8 5 -13 27 -13 60 0 54 17 85 57 102 35 14 294 10 370 -6z m-469
-221 c21 -44 14 -43 181 -28 82 7 82 6 113 -24 65 -66 21 -177 -108 -269 -92
-66 -164 -93 -277 -105 -146 -16 -225 3 -285 67 -20 21 -25 39 -28 95 -9 153
30 187 248 214 l95 12 7 92 c9 140 20 165 28 66 4 -47 15 -98 26 -120z m-505
-723 c56 -56 30 -121 -48 -121 l-43 0 0 68 c0 38 3 72 7 75 15 16 57 5 84 -22z
m79 -200 c143 -17 244 -73 281 -156 23 -49 25 -167 5 -241 -32 -120 -90 -188
-229 -272 l-68 -41 -67 26 c-107 41 -122 44 -217 44 -94 1 -186 -16 -276 -50
-29 -11 -55 -18 -58 -16 -7 7 -40 252 -41 298 0 48 8 62 85 162 125 160 204
213 375 250 55 12 71 12 210 -4z"/>
<path d="M665 855 c-41 -40 -28 -144 25 -197 38 -37 65 -36 90 5 46 74 50 157
9 198 -28 28 -93 26 -124 -6z"/>
</g>
</svg>
