<?xml version="1.0" standalone="no"?>
<!DOCTYPE svg PUBLIC "-//W3C//DTD SVG 20010904//EN"
 "http://www.w3.org/TR/2001/REC-SVG-20010904/DTD/svg10.dtd">
<svg version="1.0" xmlns="http://www.w3.org/2000/svg"
 width="255.000000pt" height="239.000000pt" viewBox="0 0 255.000000 239.000000"
 preserveAspectRatio="xMidYMid meet">
<metadata>
Created by potrace 1.16, written by Peter Selinger 2001-2019
</metadata>
<g transform="translate(0.000000,239.000000) scale(0.100000,-0.100000)"
fill="#000000" stroke="none">
<path d="M1430 2300 c-69 -11 -213 -24 -320 -29 -318 -17 -466 -67 -605 -206
-116 -115 -237 -312 -299 -485 -45 -123 -65 -224 -101 -514 -54 -430 -47 -615
28 -670 24 -18 31 -19 63 -7 20 7 58 27 85 43 46 29 53 31 123 25 92 -7 204
-51 422 -169 142 -77 178 -92 339 -138 274 -79 329 -78 640 6 164 45 261 85
349 142 112 74 149 153 205 443 45 237 54 334 48 503 -9 251 -52 437 -142 621
-92 188 -200 307 -343 379 -146 74 -280 89 -492 56z m165 -149 c168 -41 356
-120 424 -177 25 -21 81 -109 81 -127 0 -9 -255 -19 -654 -27 -454 -9 -464
-10 -696 -85 -142 -46 -268 -108 -343 -170 -31 -25 -57 -42 -57 -38 0 4 27 63
60 131 68 141 146 258 204 309 54 46 279 156 386 188 83 25 91 25 300 21 167
-4 233 -10 295 -25z m303 -379 c258 -8 241 -1 286 -120 53 -137 65 -201 72
-351 5 -116 2 -182 -15 -321 -46 -374 -66 -458 -126 -527 -18 -21 -36 -35 -40
-32 -3 4 3 88 14 186 25 216 26 251 5 345 -9 40 -22 100 -28 133 -11 54 -15
60 -37 60 -21 0 -24 -4 -21 -35 1 -19 12 -75 23 -125 26 -108 27 -265 4 -401
-31 -177 -96 -265 -212 -287 -40 -8 -40 -4 -14 108 35 150 45 230 45 375 -1
153 -20 247 -60 291 -17 19 -44 26 -44 12 0 -5 7 -126 15 -270 17 -295 12
-373 -31 -461 -16 -32 -39 -61 -57 -73 -35 -21 -85 -34 -94 -25 -4 3 11 92 31
197 45 226 46 317 3 459 -24 79 -56 128 -77 115 -9 -5 7 -70 35 -145 9 -25 19
-81 21 -125 5 -73 1 -97 -46 -280 -59 -230 -64 -239 -155 -250 -70 -9 -218 9
-299 36 -34 11 -135 66 -226 122 -153 94 -301 166 -342 167 -10 0 -18 4 -18 9
0 12 71 58 101 65 24 5 27 2 42 -54 10 -33 21 -60 26 -60 5 0 31 9 58 21 42
18 59 20 146 14 115 -8 126 -3 153 77 20 62 64 92 188 132 124 39 130 37 136
-49 4 -63 7 -70 25 -67 35 5 68 51 62 86 -10 60 -26 87 -61 101 -49 21 -110
10 -241 -41 -134 -51 -182 -61 -350 -68 -187 -9 -238 -23 -334 -95 -79 -58
-160 -93 -246 -107 l-40 -6 3 194 c5 374 53 566 174 694 68 72 115 100 321
194 260 119 356 148 519 160 114 8 261 21 373 33 17 2 48 2 70 0 22 -3 141 -7
263 -11z"/>
<path d="M830 1417 c-41 -13 -102 -37 -135 -55 -69 -37 -165 -121 -165 -145 0
-24 60 -88 97 -103 45 -19 158 -3 293 42 165 55 264 133 264 210 0 60 -19 69
-157 71 -103 3 -134 -1 -197 -20z m213 -54 l70 -17 -39 -34 c-53 -46 -206
-119 -279 -133 -72 -14 -145 -5 -177 22 l-23 19 53 50 c29 28 59 50 66 50 7 0
22 -13 34 -30 42 -56 131 -30 172 50 23 46 27 46 123 23z"/>
<path d="M332 1028 c-14 -14 -16 -54 -4 -62 15 -9 52 6 52 20 0 16 16 19 25 3
12 -19 -42 -85 -87 -107 -24 -11 -50 -27 -57 -36 -12 -14 -9 -16 20 -16 110 1
196 113 143 188 -17 25 -71 31 -92 10z"/>
</g>
</svg>
