<?xml version="1.0" encoding="UTF-8" standalone="no"?>
<!-- Created with Inkscape (http://www.inkscape.org/) -->

<svg
   xmlns:dc="http://purl.org/dc/elements/1.1/"
   xmlns:cc="http://creativecommons.org/ns#"
   xmlns:rdf="http://www.w3.org/1999/02/22-rdf-syntax-ns#"
   xmlns:svg="http://www.w3.org/2000/svg"
   xmlns="http://www.w3.org/2000/svg"
   xmlns:sodipodi="http://sodipodi.sourceforge.net/DTD/sodipodi-0.dtd"
   xmlns:inkscape="http://www.inkscape.org/namespaces/inkscape"
   width="140"
   height="200"
   viewBox="0 0 140 200"
   id="svg4930"
   version="1.1"
   inkscape:version="0.91 r13725"
   sodipodi:docname="maya-months-17-kumk'u.svg">
  <defs
     id="defs4932">
    <inkscape:path-effect
       effect="spiro"
       id="path-effect4924"
       is_visible="true" />
    <inkscape:path-effect
       effect="spiro"
       id="path-effect4886-2"
       is_visible="true" />
    <inkscape:path-effect
       effect="spiro"
       id="path-effect4886-3"
       is_visible="true" />
    <inkscape:path-effect
       effect="spiro"
       id="path-effect4886-7"
       is_visible="true" />
    <inkscape:path-effect
       effect="spiro"
       id="path-effect4886"
       is_visible="true" />
    <inkscape:path-effect
       effect="spiro"
       id="path-effect4882"
       is_visible="true" />
    <inkscape:path-effect
       effect="spiro"
       id="path-effect4878"
       is_visible="true" />
    <inkscape:path-effect
       effect="spiro"
       id="path-effect4874"
       is_visible="true" />
    <inkscape:path-effect
       effect="spiro"
       id="path-effect4870"
       is_visible="true" />
    <inkscape:path-effect
       effect="spiro"
       id="path-effect4053-8-0-9-4-4-0-9"
       is_visible="true" />
    <inkscape:path-effect
       effect="spiro"
       id="path-effect4053-8-0-9-4-4-0-1"
       is_visible="true" />
    <inkscape:path-effect
       effect="spiro"
       id="path-effect4053-8-0-9-4-4-0-2"
       is_visible="true" />
    <inkscape:path-effect
       effect="spiro"
       id="path-effect4053-8-0-9-4-4-0"
       is_visible="true" />
    <inkscape:path-effect
       effect="spiro"
       id="path-effect7471"
       is_visible="true" />
    <inkscape:path-effect
       effect="spiro"
       id="path-effect5937-1"
       is_visible="true" />
    <inkscape:path-effect
       effect="spiro"
       id="path-effect5077-2-6-9-4"
       is_visible="true" />
    <inkscape:path-effect
       effect="spiro"
       id="path-effect4464-0-7-0-8"
       is_visible="true" />
  </defs>
  <sodipodi:namedview
     id="base"
     pagecolor="#ffffff"
     bordercolor="#666666"
     borderopacity="1.0"
     inkscape:pageopacity="0.0"
     inkscape:pageshadow="2"
     inkscape:zoom="1.979899"
     inkscape:cx="108.13315"
     inkscape:cy="79.014482"
     inkscape:document-units="px"
     inkscape:current-layer="layer1"
     showgrid="false"
     units="px"
     inkscape:window-width="1366"
     inkscape:window-height="704"
     inkscape:window-x="0"
     inkscape:window-y="27"
     inkscape:window-maximized="1" />
  <metadata
     id="metadata4935">
    <rdf:RDF>
      <cc:Work
         rdf:about="">
        <dc:format>image/svg+xml</dc:format>
        <dc:type
           rdf:resource="http://purl.org/dc/dcmitype/StillImage" />
        <dc:title></dc:title>
      </cc:Work>
    </rdf:RDF>
  </metadata>
  <g
     inkscape:label="Calque 1"
     inkscape:groupmode="layer"
     id="layer1"
     transform="translate(0,-852.36216)">
    <path
       style="fill:none;fill-rule:evenodd;stroke:#000000;stroke-width:4;stroke-linecap:butt;stroke-linejoin:miter;stroke-opacity:1"
       d="m 23.450585,920.31607 c 7.161134,-4.85354 15.950538,-6.77308 24.588648,-7.24398 8.63811,-0.47091 17.286325,0.40281 25.934252,0.63097 7.147531,0.18858 14.316117,-0.0634 21.435826,0.59423 7.119709,0.65765 14.282229,2.2773 20.428979,5.92973 8.32279,4.94545 14.22106,13.35717 17.45096,22.48374 3.22989,9.12656 3.97909,18.96177 3.70174,28.63903 -0.24933,8.69969 -1.3332,17.48449 -4.53555,25.57718 -3.20236,8.09273 -8.68304,15.49003 -16.23665,19.81323 -6.03505,3.454 -13.0683,4.7975 -20.011243,5.182 -6.94294,0.3846 -13.901583,-0.1349 -20.855162,-0.1379 -9.196453,-0 -18.399323,0.8956 -27.577957,0.3233 -9.178634,-0.5722 -18.547292,-2.7544 -25.918843,-8.253 -6.6262,-4.9427 -11.204639,-12.2843 -13.8483432,-20.11677 C 5.3635372,985.90539 4.5401692,977.56816 4.398385,969.30279 4.2416157,960.16386 4.9181297,950.90227 7.7897301,942.2248 10.66133,933.54732 15.884382,925.44415 23.450585,920.31607 Z"
       id="path4462-4-4-5-8"
       inkscape:path-effect="#path-effect4464-0-7-0-8"
       inkscape:original-d="m 23.450585,920.31607 c 9.8369,-3.80768 31.0495,-6.1047 50.5229,-6.61301 24.8422,-0.64846 46.086405,10.87104 41.864805,6.52396 -4.2214,-4.34699 21.717,31.44206 21.1527,51.12277 -0.5678,19.7997 -12.0317,36.70851 -20.7722,45.39041 -8.7405,8.6819 -19.634505,5.6985 -40.866405,5.0441 -20.4138,-0.6291 -49.5638,-11.6368 -53.4968,-7.9297 -7.8658,7.4142 -21.04659998,-37.82691 -17.4572,-44.55181 3.5893,-6.72498 -0.6217,-41.37145 19.0522,-48.98672 z"
       inkscape:connector-curvature="0"
       sodipodi:nodetypes="ssssssszs" />
    <path
       style="fill:none;fill-rule:evenodd;stroke:#000000;stroke-width:4;stroke-linecap:butt;stroke-linejoin:miter;stroke-opacity:1"
       d="m 23.709985,1015.0997 c -4.247108,-0.054 -8.485254,1.748 -11.3938,4.8433 -2.7354277,2.9111 -4.2631033,6.9056 -4.2497555,10.9002 0.013348,3.9946 1.5496607,7.9519 4.1737555,10.9638 1.809469,2.0768 4.124588,3.7143 6.6956,4.7029 3.918464,1.5068 8.228936,1.4766 12.424,1.6382 3.405528,0.1312 6.866041,0.3969 10.1816,-0.3917 5.23515,-1.2452 9.730289,-5.2488 11.570706,-10.3055 1.840416,-5.0567 0.970267,-11.013 -2.239806,-15.3319"
       id="path5075-3-3-0-6"
       inkscape:path-effect="#path-effect5077-2-6-9-4"
       inkscape:original-d="m 23.709985,1015.0997 c -6.2038,5.6657 -9.4235,1.4999 -11.3938,4.8433 -1.9702,3.3433 -0.505,7.5925 -0.076,21.864 0.4288,14.2714 -5.9154,4.5578 6.6956,4.7029 5.5652,0 9.8076,1.0251 12.424,1.6382 2.6164,0.6131 5.1096,0.9026 10.1816,-0.3917 10.1441,-2.5886 13.447,-24.9749 9.3309,-25.6374"
       inkscape:connector-curvature="0"
       sodipodi:nodetypes="czzcssc" />
    <path
       style="fill:none;fill-rule:evenodd;stroke:#000000;stroke-width:4;stroke-linecap:butt;stroke-linejoin:miter;stroke-opacity:1"
       d="m 93.802485,1022.0165 c -1.876493,2.7263 -2.89224,6.0359 -2.8682,9.3455 0.02694,3.7089 1.33862,7.3419 3.3695,10.4455 1.013045,1.5481 2.219807,2.9935 3.7169,4.0806 1.965197,1.427 4.353135,2.1785 6.755555,2.5343 2.40242,0.3558 4.84211,0.3375 7.27065,0.3581 2.30451,0.019 4.61998,0.074 6.90281,-0.2418 2.28284,-0.3159 4.55598,-1.0249 6.40789,-2.3966 1.41256,-1.0463 2.54055,-2.4525 3.35691,-4.0092 0.81637,-1.5568 1.32785,-3.2624 1.61629,-4.9964 0.9447,-5.6793 -0.60006,-11.7518 -4.2407,-16.2119 -2.0103,-2.4628 -4.62384,-4.4295 -7.547,-5.6792"
       id="path5935-6"
       inkscape:original-d="m 93.802485,1022.0165 c -1.249,5.928 -0.745,6.8003 -2.8682,9.3455 -2.1231,2.5452 -5.1234,5.3258 3.3695,10.4455 8.492805,5.1196 -1.7447,-6.032 3.7169,4.0806 1.3661,2.5294 7.281905,6.6648 14.026205,2.8924 6.7443,-3.7723 12.1841,-1.7135 13.3107,-2.6384 1.1265,-0.9248 2.2396,0.034 4.9732,-9.0056 2.4135,-7.9813 0.2492,-12.6341 -4.2407,-16.2119 -4.7073,-3.7511 -1.9267,-5.7612 -7.547,-5.6792"
       inkscape:connector-curvature="0"
       sodipodi:nodetypes="csssssssc"
       inkscape:path-effect="#path-effect5937-1" />
    <path
       style="fill:none;fill-rule:evenodd;stroke:#000000;stroke-width:4;stroke-linecap:butt;stroke-linejoin:miter;stroke-opacity:1"
       d="m 53.454585,1036.3805 c -0.4635,4.0713 0.2313,5.1623 1.5717,7.2342 1.2742,1.9696 3.4746,3.3302 5.6604,4.1819 3.4441,1.342 7.8942,1.1277 11.0258,1.1822 3.0085,0.052 7.0535,0.1192 10.4363,-0.7275 2.297,-0.575 5.0063,-1.4877 6.4834,-2.9026 1.4772,-1.415 2.1539,-2.0689 2.4093,-4.3219 0.2553,-2.253 0.3835,-4.4689 0.1806,-6.7272"
       id="path5978-2"
       inkscape:connector-curvature="0"
       sodipodi:nodetypes="caacazcc" />
    <path
       style="fill:none;fill-rule:evenodd;stroke:#000000;stroke-width:4;stroke-linecap:butt;stroke-linejoin:miter;stroke-opacity:1"
       d="m 58.003285,1022.0396 c -3.6525,3.2275 -3.9797,4.6398 -4.2435,6.5435"
       id="path5969-5"
       inkscape:connector-curvature="0"
       sodipodi:nodetypes="cc" />
    <path
       style="fill:none;fill-rule:evenodd;stroke:#000000;stroke-width:4;stroke-linecap:butt;stroke-linejoin:miter;stroke-opacity:1"
       d="m 115.89319,913.26557 c -11.14153,1.01346 -22.356593,0.7352 -33.538205,0.37141 -11.924899,-0.38798 -23.862857,-0.87219 -35.7823,-0.34245 -8.223803,0.3655 -16.427253,1.21333 -24.6587,1.30164 -1.999406,0.0214 -4.008199,-0.003 -5.982747,-0.3177 -1.974547,-0.31504 -3.924324,-0.93174 -5.601953,-2.0197 -1.8343392,-1.18958 -3.2958463,-2.92264 -4.2481593,-4.89063 -0.9523129,-1.968 -1.4031272,-4.16407 -1.4027407,-6.35037 5.397e-4,-3.05311 0.8829789,-6.09843 2.4982874,-8.68923 1.6153085,-2.5908 3.9565986,-4.72057 6.6795126,-6.10159 2.535863,-1.28615 5.345441,-1.91662 8.011832,-2.90411 1.333195,-0.49375 2.639271,-1.08143 3.823333,-1.86832 1.184061,-0.78689 2.246359,-1.78043 3.001035,-2.98528 1.283772,-2.04955 1.595248,-4.54245 1.847324,-6.94769 0.252076,-2.40525 0.499545,-4.89326 1.683776,-7.0019 0.842493,-1.50014 2.128535,-2.72824 3.60205,-3.61648 1.473515,-0.88824 3.130623,-1.44641 4.821555,-1.76415 3.381863,-0.63548 6.858424,-0.32482 10.295495,-0.15935 12.115696,0.5833 24.264438,-0.66911 36.3798,-0.0789 2.650873,0.12914 5.321908,0.35091 7.861953,1.12031 2.540045,0.7694 4.964212,2.1287 6.619252,4.20346 1.82995,2.29403 2.57631,5.23974 3.34542,8.07166 0.7691,2.83192 1.6751,5.76515 3.71928,7.87053 1.28888,1.32747 2.96048,2.23852 4.71186,2.8352 1.75138,0.59669 3.58963,0.89408 5.4251,1.12739 3.67093,0.46662 7.51442,0.73133 10.70314,2.60897 2.8624,1.6855 4.93678,4.61642 5.68249,7.85342 0.74572,3.23699 0.18073,6.73703 -1.44889,9.63161 -1.9692,3.49774 -5.40056,6.04323 -9.183,7.38678 -2.84064,1.00902 -5.86367,1.38239 -8.8658,1.65547 z"
       id="path7469"
       inkscape:path-effect="#path-effect7471"
       inkscape:original-d="m 115.89319,913.26557 c -12.0797,-9.84266 -5.9895,-2.39859 -33.538205,0.37141 -27.5488,2.76999 -6.1144,-0.34245 -35.7823,-0.34245 -14.8339,0 -19.2621,-1.2193 -24.6587,1.30164 -5.3966,2.52095 -11.5847,9.66604 -11.5847,-2.3374 0,-24.00689 -19.7785,18.30587 -5.6509,-11.241 14.1275,-29.54688 3.8854,-18.7005 9.1778,-14.79082 9.2962,6.86747 12.0106,11.63239 14.8362,-7.75771 2.8255,-19.39022 -14.1284,-6.56281 3.5311,-13.94959 17.6595,-7.38666 -5.2978,-4.61664 18.7191,-5.53998 24.0168,-0.92333 18.0141,-0.0789 36.3798,-0.0789 18.365905,0 10.9493,-11.29633 14.481205,5.32377 3.5319,16.6201 7.9828,11.17273 7.0647,15.94219 -1.3768,7.15256 64.00149,100.94156 20.8401,6.57156 -7.2493,-15.85018 7.0641,7.02284 4.2336,17.48503 -1.1984,4.42925 -5.5889,7.40031 -9.183,7.38678 -2.0951,-0.008 3.2137,11.49815 -8.8658,1.65548 z"
       inkscape:connector-curvature="0"
       sodipodi:nodetypes="zzssssssssssssssz" />
    <path
       style="fill:none;fill-rule:evenodd;stroke:#000000;stroke-width:4;stroke-linecap:butt;stroke-linejoin:miter;stroke-opacity:1"
       d="m 39.111185,883.70837 c -0.203925,0.36804 -0.233358,0.82805 -0.078,1.21908 0.12375,0.31148 0.359328,0.57517 0.649273,0.74328 0.289945,0.16812 0.631933,0.24149 0.966327,0.21887 0.3444,-0.0233 0.683781,-0.14921 0.94915,-0.36997 0.265368,-0.22076 0.452996,-0.53749 0.50215,-0.87916 0.04042,-0.28095 -0.01281,-0.57323 -0.14157,-0.82619 -0.128762,-0.25296 -0.331515,-0.46632 -0.57283,-0.61577 -0.365776,-0.22653 -0.821333,-0.30331 -1.241152,-0.20919 -0.41982,0.0941 -0.798994,0.35804 -1.033048,0.71905 l -3e-4,0 z"
       id="path4051-8-0-7-8-1-1"
       inkscape:path-effect="#path-effect4053-8-0-9-4-4-0"
       inkscape:original-d="m 39.111185,883.70837 c -0.5766,0.97928 -1.3673,-0.0615 -0.078,1.21908 1.2891,1.2806 0.4622,1.94144 1.6156,0.96215 1.1533,-0.97925 0.3666,7.78606 1.4513,-1.24913 0.2257,-1.88007 0.5746,-0.76402 -0.7144,-1.44196 -1.289,-0.67791 -1.6975,-0.46939 -2.2742,0.50986 z"
       inkscape:connector-curvature="0"
       sodipodi:nodetypes="zssssz" />
    <path
       style="fill:none;fill-rule:evenodd;stroke:#000000;stroke-width:4;stroke-linecap:butt;stroke-linejoin:miter;stroke-opacity:1"
       d="m 90.359985,882.56713 c -0.203937,0.36805 -0.23337,0.82807 -0.078,1.2191 0.123755,0.31147 0.359338,0.57515 0.649283,0.74325 0.289945,0.16811 0.631928,0.24147 0.966317,0.21885 0.344395,-0.0233 0.683771,-0.14921 0.949138,-0.36996 0.265367,-0.22075 0.452999,-0.53748 0.502162,-0.87914 0.04043,-0.28096 -0.01279,-0.57325 -0.141557,-0.82621 -0.128763,-0.25297 -0.331521,-0.46634 -0.572843,-0.61579 -0.365779,-0.22653 -0.821342,-0.30331 -1.241162,-0.20918 -0.419821,0.0941 -0.798992,0.35806 -1.033038,0.71908 l -3e-4,0 z"
       id="path4051-8-0-7-8-1-1-6"
       inkscape:path-effect="#path-effect4053-8-0-9-4-4-0-2"
       inkscape:original-d="m 90.359985,882.56713 c -0.5766,0.9793 -1.3673,-0.061 -0.078,1.2191 1.2891,1.2806 0.4622,1.9414 1.6156,0.9621 1.1533,-0.9792 0.3666,7.7861 1.4513,-1.2491 0.2257,-1.8801 0.5746,-0.764 -0.7144,-1.442 -1.289,-0.6779 -1.6975,-0.4693 -2.2742,0.5099 z"
       inkscape:connector-curvature="0"
       sodipodi:nodetypes="zssssz" />
    <path
       style="fill:none;fill-rule:evenodd;stroke:#000000;stroke-width:4;stroke-linecap:butt;stroke-linejoin:miter;stroke-opacity:1"
       d="m 97.875085,889.37595 c -0.203937,0.36805 -0.23337,0.82807 -0.078,1.2191 0.123755,0.31147 0.359338,0.57515 0.649283,0.74325 0.289945,0.16811 0.631928,0.24147 0.966317,0.21885 0.344395,-0.0233 0.683775,-0.14921 0.949145,-0.36996 0.26536,-0.22075 0.453,-0.53748 0.50216,-0.87914 0.0404,-0.28096 -0.0128,-0.57325 -0.14156,-0.82621 -0.12876,-0.25297 -0.33152,-0.46634 -0.57284,-0.61579 -0.36578,-0.22653 -0.821343,-0.30331 -1.241165,-0.20918 -0.419821,0.0941 -0.798993,0.35806 -1.03304,0.71908 l -3e-4,0 z"
       id="path4051-8-0-7-8-1-1-2"
       inkscape:path-effect="#path-effect4053-8-0-9-4-4-0-1"
       inkscape:original-d="m 97.875085,889.37595 c -0.5766,0.9793 -1.3673,-0.061 -0.078,1.2191 1.2891,1.2806 0.4622,1.9414 1.6156,0.9621 1.153305,-0.9792 0.3666,7.7861 1.451305,-1.2491 0.2257,-1.8801 0.5746,-0.764 -0.7144,-1.442 -1.289005,-0.6779 -1.697505,-0.4693 -2.274205,0.5099 z"
       inkscape:connector-curvature="0"
       sodipodi:nodetypes="zssssz" />
    <path
       style="fill:none;fill-rule:evenodd;stroke:#000000;stroke-width:4;stroke-linecap:butt;stroke-linejoin:miter;stroke-opacity:1"
       d="m 105.08059,896.25799 c -0.20394,0.36805 -0.23337,0.82807 -0.078,1.2191 0.12376,0.31147 0.35934,0.57515 0.64928,0.74325 0.28995,0.16811 0.63193,0.24147 0.96632,0.21885 0.34439,-0.0233 0.68377,-0.14921 0.94914,-0.36996 0.26537,-0.22075 0.453,-0.53748 0.50216,-0.87914 0.0404,-0.28096 -0.0128,-0.57325 -0.14156,-0.82621 -0.12876,-0.25297 -0.33152,-0.46634 -0.57284,-0.61579 -0.36578,-0.22653 -0.82134,-0.30331 -1.24116,-0.20918 -0.41982,0.0941 -0.79899,0.35806 -1.03304,0.71908 l -3e-4,0 z"
       id="path4051-8-0-7-8-1-1-1"
       inkscape:path-effect="#path-effect4053-8-0-9-4-4-0-9"
       inkscape:original-d="m 105.08059,896.25799 c -0.5766,0.9793 -1.3673,-0.061 -0.078,1.2191 1.2891,1.2806 0.4622,1.9414 1.6156,0.9621 1.1533,-0.9792 0.3666,7.7861 1.4513,-1.2491 0.2257,-1.8801 0.5746,-0.764 -0.7144,-1.442 -1.289,-0.6779 -1.6975,-0.4693 -2.2742,0.5099 z"
       inkscape:connector-curvature="0"
       sodipodi:nodetypes="zssssz" />
    <path
       style="fill:none;fill-rule:evenodd;stroke:#000000;stroke-width:4px;stroke-linecap:butt;stroke-linejoin:miter;stroke-opacity:1"
       d="m 62.765685,913.28701 c -0.178499,-1.56617 -0.09565,-3.16181 0.2441,-4.70107 0.256772,-1.16334 0.67517,-2.32169 1.449,-3.22749 1.049194,-1.22812 2.691745,-1.87543 4.307,-1.86874 1.533226,0.006 3.092425,0.60256 4.1043,1.75449 0.798117,0.90858 1.214569,2.09186 1.466,3.27478 0.318842,1.50007 0.400461,3.05031 0.2409,4.57556"
       id="path4868"
       inkscape:path-effect="#path-effect4870"
       inkscape:original-d="m 62.765685,913.28701 c -0.1767,-7.6014 0.4205,-1.16557 0.2441,-4.70107 -0.1768,-3.5355 0.3877,-1.63649 1.449,-3.22749 1.0606,-1.591 3.0696,-2.04544 4.307,-1.86874 1.2375,0.1768 2.5133,0.69379 4.1043,1.75449 1.591,1.0606 0.4054,-0.79102 1.466,3.27478 1.0607,4.0659 0.064,1.39356 0.2409,4.57556"
       inkscape:connector-curvature="0"
       sodipodi:nodetypes="csccccc" />
    <path
       style="fill:none;fill-rule:evenodd;stroke:#000000;stroke-width:4px;stroke-linecap:butt;stroke-linejoin:miter;stroke-opacity:1"
       d="m 49.124785,913.11839 c -1.563601,5.28889 -1.541759,11.03565 0.062,16.3125 0.92856,3.05525 2.393108,5.97547 4.5,8.375 2.795138,3.18338 6.655746,5.35071 10.761,6.39645 5.679925,1.44686 11.990939,0.71653 16.9106,-2.46967 4.03368,-2.6124 6.955338,-6.70958 8.7803,-11.15533 2.11502,-5.15235 2.849014,-10.86418 2.1054,-16.38388"
       id="path4872"
       inkscape:path-effect="#path-effect4874"
       inkscape:original-d="m 49.124785,913.11839 c 0.25,10.25 -2.9375,7.8125 0.062,16.3125 3,8.5 -5.75,4.875 4.5,8.375 5.125,1.75 6.011,6.1152 10.761,6.39645 4.75,0.28125 12.7856,0.0303 16.9106,-2.46967 8.25,-5 7.2803,-1.15533 8.7803,-11.15533 1.5,-10 3.3554,-14.38388 2.1054,-16.38388"
       inkscape:connector-curvature="0"
       sodipodi:nodetypes="csssssc" />
    <path
       style="fill:none;fill-rule:evenodd;stroke:#000000;stroke-width:4px;stroke-linecap:butt;stroke-linejoin:miter;stroke-opacity:1"
       d="m 72.762385,913.44162 c -1.885117,4.52604 -3.544429,9.14612 -4.9697,13.83731 -1.656933,5.45369 -2.997461,11.0035 -4.0126,16.61221"
       id="path4876"
       inkscape:path-effect="#path-effect4878"
       inkscape:original-d="m 72.762385,913.44162 c -2.5,7 -4.9697,7.08731 -4.9697,13.83731 0,6.75 -4.0126,5.61221 -4.0126,16.61221"
       inkscape:connector-curvature="0"
       sodipodi:nodetypes="csc" />
    <path
       style="fill:none;fill-rule:evenodd;stroke:#000000;stroke-width:4px;stroke-linecap:butt;stroke-linejoin:miter;stroke-opacity:1"
       d="m 4.793685,965.02269 c 2.8821209,-0.38011 5.894394,0.32487 8.3085,1.9445 2.359866,1.58324 4.099335,3.96658 5.3033,6.5407 1.527181,3.26516 2.245481,6.83723 3.103656,10.33824 0.858175,3.50102 1.901382,7.03729 3.967344,9.99116 1.732951,2.47774 4.129181,4.44686 6.766013,5.92654 2.636832,1.47967 5.515058,2.48757 8.436787,3.26587 12.02474,3.2034 24.679224,2.575 37.1231,2.6516 8.889431,0.055 18.070029,0.4329 26.339805,-2.8284 5.09122,-2.0078 9.76998,-5.52489 12.1976,-10.42981 1.57855,-3.1894 2.13356,-6.774 2.61875,-10.29943 0.4852,-3.52544 0.93462,-7.11019 2.33095,-10.38347 0.92522,-2.1689 2.34671,-4.18826 4.34777,-5.43562 1.00053,-0.62367 2.11978,-1.04777 3.27369,-1.28967 1.15392,-0.24191 2.33731,-0.30049 3.51544,-0.34581 l 4.5962,-0.1768"
       id="path4880"
       inkscape:path-effect="#path-effect4882"
       inkscape:original-d="m 4.793685,965.02269 c 6.0104,0.3535 3.5355,-1.591 8.3085,1.9445 4.773,3.5355 0.5303,-8.3085 5.3033,6.5407 4.773,14.8493 -2.6517,12.728 7.071,20.3294 9.7228,7.60141 -0.8838,7.24781 15.2028,9.19241 16.0867,1.9445 25.2791,4.5961 37.1231,2.6516 11.8441,-1.9445 17.6777,1.591 26.339805,-2.8284 8.662,-4.41941 9.8995,4.4194 12.1976,-10.42981 2.2981,-14.8493 -0.1768,-14.1422 4.9497,-20.6829 5.1265,-6.5408 6.5408,-6.8943 11.1369,-7.0711 4.5962,-0.1768 4.5962,-0.1768 4.5962,-0.1768"
       inkscape:connector-curvature="0" />
    <path
       style="fill:none;fill-rule:evenodd;stroke:#000000;stroke-width:4px;stroke-linecap:butt;stroke-linejoin:miter;stroke-opacity:1"
       d="m 61.004985,1005.4831 c -0.803573,2.9689 -1.452937,5.9795 -1.9446,9.0156 -0.398534,2.461 -0.693482,4.9389 -0.8838,7.4247"
       id="path4884"
       inkscape:path-effect="#path-effect4886"
       inkscape:original-d="m 61.004985,1005.4831 c -1.4142,4.4194 -1.7678,5.6568 -1.9446,9.0156 -0.1767,3.3587 -1.0606,6.0104 -0.8838,7.4247"
       inkscape:connector-curvature="0"
       sodipodi:nodetypes="ccc" />
    <path
       style="fill:none;fill-rule:evenodd;stroke:#000000;stroke-width:4px;stroke-linecap:butt;stroke-linejoin:miter;stroke-opacity:1"
       d="m 67.316685,1005.3847 c -0.803572,2.9689 -1.452936,5.9795 -1.9446,9.0157 -0.398531,2.461 -0.693478,4.9389 -0.8838,7.4247"
       id="path4884-2"
       inkscape:path-effect="#path-effect4886-7"
       inkscape:original-d="m 67.316685,1005.3847 c -1.4142,4.4195 -1.7678,5.6569 -1.9446,9.0157 -0.1767,3.3587 -1.0606,6.0104 -0.8838,7.4247"
       inkscape:connector-curvature="0"
       sodipodi:nodetypes="ccc" />
    <path
       style="fill:none;fill-rule:evenodd;stroke:#000000;stroke-width:4px;stroke-linecap:butt;stroke-linejoin:miter;stroke-opacity:1"
       d="m 78.087085,1005.5741 c -0.803573,2.9689 -1.452937,5.9795 -1.9446,9.0156 -0.398534,2.461 -0.693482,4.9389 -0.8838,7.4247"
       id="path4884-1"
       inkscape:path-effect="#path-effect4886-3"
       inkscape:original-d="m 78.087085,1005.5741 c -1.4142,4.4194 -1.7678,5.6568 -1.9446,9.0156 -0.1767,3.3587 -1.0606,6.0104 -0.8838,7.4247"
       inkscape:connector-curvature="0"
       sodipodi:nodetypes="ccc" />
    <path
       style="fill:none;fill-rule:evenodd;stroke:#000000;stroke-width:4px;stroke-linecap:butt;stroke-linejoin:miter;stroke-opacity:1"
       d="m 84.218385,1005.3607 c -0.803573,2.9689 -1.452937,5.9795 -1.9446,9.0156 -0.398534,2.461 -0.693482,4.9389 -0.8838,7.4247"
       id="path4884-29"
       inkscape:path-effect="#path-effect4886-2"
       inkscape:original-d="m 84.218385,1005.3607 c -1.4142,4.4194 -1.7678,5.6568 -1.9446,9.0156 -0.1767,3.3587 -1.0606,6.0104 -0.8838,7.4247"
       inkscape:connector-curvature="0"
       sodipodi:nodetypes="ccc" />
    <path
       style="fill:none;fill-rule:evenodd;stroke:#000000;stroke-width:4px;stroke-linecap:butt;stroke-linejoin:miter;stroke-opacity:1"
       d="m 88.062285,1022.0247 c 0.427237,0.7168 0.813508,1.4579 1.1563,2.2187 0.87197,1.9352 1.460846,3.9977 1.7421,6.1015"
       id="path4922"
       inkscape:path-effect="#path-effect4924"
       inkscape:original-d="m 88.062285,1022.0247 c 0.7813,1.3125 0.5625,-0.2813 1.1563,2.2187 0.5937,2.5 1.3983,4.5078 1.7421,6.1015"
       inkscape:connector-curvature="0"
       sodipodi:nodetypes="ccc" />
  </g>
</svg>
