<?xml version="1.0" encoding="UTF-8" standalone="no"?>
<!-- Created with Inkscape (http://www.inkscape.org/) -->

<svg
   xmlns:dc="http://purl.org/dc/elements/1.1/"
   xmlns:cc="http://creativecommons.org/ns#"
   xmlns:rdf="http://www.w3.org/1999/02/22-rdf-syntax-ns#"
   xmlns:svg="http://www.w3.org/2000/svg"
   xmlns="http://www.w3.org/2000/svg"
   xmlns:sodipodi="http://sodipodi.sourceforge.net/DTD/sodipodi-0.dtd"
   xmlns:inkscape="http://www.inkscape.org/namespaces/inkscape"
   width="140"
   height="200"
   viewBox="0 0 140 200"
   id="svg7562"
   version="1.1"
   inkscape:version="0.91 r13725"
   sodipodi:docname="maya-months-07-mol.svg">
  <defs
     id="defs7564">
    <inkscape:path-effect
       effect="spiro"
       id="path-effect4667"
       is_visible="true" />
    <inkscape:path-effect
       effect="spiro"
       id="path-effect4659"
       is_visible="true" />
    <inkscape:path-effect
       effect="spiro"
       id="path-effect4319-2-0-7"
       is_visible="true" />
    <inkscape:path-effect
       effect="spiro"
       id="path-effect4637"
       is_visible="true" />
    <inkscape:path-effect
       effect="spiro"
       id="path-effect4319-2-89"
       is_visible="true" />
    <inkscape:path-effect
       effect="spiro"
       id="path-effect4319-2-2"
       is_visible="true" />
    <inkscape:path-effect
       effect="spiro"
       id="path-effect4319-2-39"
       is_visible="true" />
    <inkscape:path-effect
       effect="spiro"
       id="path-effect4319-2-86"
       is_visible="true" />
    <inkscape:path-effect
       effect="spiro"
       id="path-effect4319-2-06"
       is_visible="true" />
    <inkscape:path-effect
       effect="spiro"
       id="path-effect4319-2-52"
       is_visible="true" />
    <inkscape:path-effect
       effect="spiro"
       id="path-effect4319-2-09"
       is_visible="true" />
    <inkscape:path-effect
       effect="spiro"
       id="path-effect4319-2-75"
       is_visible="true" />
    <inkscape:path-effect
       effect="spiro"
       id="path-effect4319-2-961"
       is_visible="true" />
    <inkscape:path-effect
       effect="spiro"
       id="path-effect4319-2-1"
       is_visible="true" />
    <inkscape:path-effect
       effect="spiro"
       id="path-effect4319-2-96"
       is_visible="true" />
    <inkscape:path-effect
       effect="spiro"
       id="path-effect4319-2-46"
       is_visible="true" />
    <inkscape:path-effect
       effect="spiro"
       id="path-effect4319-2-6"
       is_visible="true" />
    <inkscape:path-effect
       effect="spiro"
       id="path-effect4319-2-5"
       is_visible="true" />
    <inkscape:path-effect
       effect="spiro"
       id="path-effect4319-2-84"
       is_visible="true" />
    <inkscape:path-effect
       effect="spiro"
       id="path-effect4319-2-77"
       is_visible="true" />
    <inkscape:path-effect
       effect="spiro"
       id="path-effect4319-2-4"
       is_visible="true" />
    <inkscape:path-effect
       effect="spiro"
       id="path-effect4319-2-7"
       is_visible="true" />
    <inkscape:path-effect
       effect="spiro"
       id="path-effect4319-2-9"
       is_visible="true" />
    <inkscape:path-effect
       effect="spiro"
       id="path-effect4319-2-83"
       is_visible="true" />
    <inkscape:path-effect
       effect="spiro"
       id="path-effect4319-2-3"
       is_visible="true" />
    <inkscape:path-effect
       effect="spiro"
       id="path-effect4319-2-0"
       is_visible="true" />
    <inkscape:path-effect
       effect="spiro"
       id="path-effect4319-2"
       is_visible="true" />
    <inkscape:path-effect
       effect="spiro"
       id="path-effect4464-0-7-0-0-6-2-9-4"
       is_visible="true" />
    <inkscape:path-effect
       effect="spiro"
       id="path-effect4464-0-7-0-0-6-2-9"
       is_visible="true" />
    <inkscape:path-effect
       effect="spiro"
       id="path-effect4464-0-7-0-0-6-2"
       is_visible="true" />
  </defs>
  <sodipodi:namedview
     id="base"
     pagecolor="#ffffff"
     bordercolor="#666666"
     borderopacity="1.0"
     inkscape:pageopacity="0.0"
     inkscape:pageshadow="2"
     inkscape:zoom="1.979899"
     inkscape:cx="125.73498"
     inkscape:cy="103.94344"
     inkscape:document-units="px"
     inkscape:current-layer="layer1"
     showgrid="false"
     units="px"
     inkscape:window-width="1024"
     inkscape:window-height="704"
     inkscape:window-x="0"
     inkscape:window-y="27"
     inkscape:window-maximized="1" />
  <metadata
     id="metadata7567">
    <rdf:RDF>
      <cc:Work
         rdf:about="">
        <dc:format>image/svg+xml</dc:format>
        <dc:type
           rdf:resource="http://purl.org/dc/dcmitype/StillImage" />
        <dc:title></dc:title>
      </cc:Work>
    </rdf:RDF>
  </metadata>
  <g
     inkscape:label="Calque 1"
     inkscape:groupmode="layer"
     id="layer1"
     transform="translate(0,-852.36216)">
    <path
       style="fill:none;fill-rule:evenodd;stroke:#000000;stroke-width:4;stroke-linecap:butt;stroke-linejoin:miter;stroke-opacity:1"
       d="m 30.167037,865.55816 c 10.810362,-6.21655 23.683801,-7.82732 36.1534,-7.69121 14.435887,0.15757 28.90607,2.51115 42.410193,7.61589 4.1824,1.581 8.34133,3.46998 11.6641,6.46184 5.33398,4.80278 7.94091,11.89992 9.7593,18.84336 5.67171,21.65715 5.5216,44.35571 5.2846,66.74196 -0.23142,21.85915 -0.59058,44.1854 -7.9237,64.7791 -1.73202,4.8641 -3.89906,9.6811 -7.3544,13.5177 -4.92364,5.4669 -12.05767,8.4747 -19.23849,10.0763 -11.82928,2.6384 -24.106413,1.8832 -36.226003,1.7892 -12.064883,-0.093 -24.533842,0.4136 -35.7279,-4.0879 -5.428999,-2.1832 -10.462722,-5.5803 -13.9771,-10.2589 -3.893248,-5.183 -5.7213778,-11.6077 -7.0497006,-17.9525 -4.0974348,-19.57156 -4.166267,-39.73657 -4.0312999,-59.73199 0.1097812,-16.26412 0.3473337,-32.58063 2.6319999,-48.68385 1.3804043,-9.72963 3.6086256,-19.60423 9.0130006,-27.81179 3.693633,-5.60947 8.789707,-10.25907 14.612,-13.60721 z"
       id="path4462-4-4-5-5-1-0"
       inkscape:path-effect="#path-effect4464-0-7-0-0-6-2"
       inkscape:original-d="m 30.167037,865.55816 c 9.3724,-6.16694 16.7261,-6.79261 36.1534,-7.69121 12.3917,-0.57316 32.0881,4.43003 42.410193,7.61589 10.3221,3.18585 13.907,11.56278 11.6641,6.46184 -2.2429,-5.10094 7.1064,5.73948 9.7593,18.84336 2.6529,13.10389 5.4261,58.01734 5.2846,66.74196 -0.1415,8.72462 -3.2888,47.6516 -7.9237,64.7791 -4.6349,17.1275 1.3824,15.7968 -7.3544,13.5177 -8.7368,-2.2791 -17.05849,6.2392 -19.23849,10.0763 -8.719803,15.3487 -14.247103,1.9581 -36.226003,1.7892 -21.9789,-0.1688 -23.4121,-15.7461 -35.7279,-4.0879 -12.3159,11.6581 -32.1640006,-0.6645 -13.9771,-10.2589 4.5772,-2.4147 -4.662001,-5.5506 -7.0497006,-17.9525 -2.3878,-12.4018 -5.8216999,-53.78755 -4.0312999,-59.73199 0.8951999,-2.97221 1.5097999,-35.54444 2.6319999,-48.68385 1.1222,-13.13941 6.7885006,-13.593 9.0130006,-27.81179 2.2245,-14.21879 5.2396,-7.44026 14.612,-13.60721 z"
       inkscape:connector-curvature="0"
       sodipodi:nodetypes="zsszzzzzszzszsszz" />
    <path
       style="fill:none;fill-rule:evenodd;stroke:#000000;stroke-width:4;stroke-linecap:butt;stroke-linejoin:miter;stroke-opacity:1"
       d="m 68.787237,899.05894 c 5.854726,-0.0358 11.732178,1.28733 16.934586,3.97323 5.202408,2.68589 9.711664,6.74438 12.793414,11.72252 2.740743,4.4273 4.323853,9.49352 5.209813,14.62457 0.88596,5.13105 1.09834,10.35205 1.26578,15.55634 0.36487,11.34062 0.51976,22.76394 -1.3574,33.95407 -1.37108,8.17325 -3.996546,16.46952 -9.673093,22.50763 -6.016899,6.4001 -14.954274,9.5601 -23.7363,9.7622 -8.433279,0.1941 -17.148905,-2.3255 -23.3189,-8.0778 -3.465096,-3.23052 -6.020067,-7.35877 -7.77462,-11.7593 -1.754553,-4.40053 -2.733827,-9.07739 -3.33198,-13.7769 -1.454525,-11.42777 -0.693166,-23.00426 -0.184,-34.51296 0.248112,-5.60809 0.438418,-11.24338 1.471258,-16.76112 1.032839,-5.51774 2.95492,-10.96368 6.355142,-15.4303 2.922603,-3.83921 6.879672,-6.8535 11.281968,-8.82857 4.402296,-1.97507 9.239371,-2.92414 14.064332,-2.95361 z"
       id="path4462-4-4-5-5-1-0-3"
       inkscape:path-effect="#path-effect4464-0-7-0-0-6-2-9"
       inkscape:original-d="m 68.787237,899.05894 c 7.9633,-0.43068 24.5616,13.83111 29.728,15.69575 17.394893,6.21073 5.810893,23.44173 6.475593,30.18091 0.9651,9.16998 -2.22239,20.39882 -1.3574,33.95407 0.865,13.55524 -2.60669,7.53422 -9.673093,22.50763 -2.7446,5.4323 -11.9933,8.6089 -23.7363,9.7622 -11.743,1.1532 -17.6213,-4.5792 -23.3189,-8.0778 -5.6976,-3.49872 -11.1399,-15.76254 -11.1066,-25.5362 0.033,-9.77366 -0.049,-22.12785 -0.184,-34.51296 -0.135,-12.3851 -0.082,-25.04326 7.8264,-32.19142 7.9087,-7.14816 10.875,-10.98657 25.3463,-11.78218 z"
       inkscape:connector-curvature="0"
       sodipodi:nodetypes="ccczczzzzzc" />
    <path
       style="fill:none;fill-rule:evenodd;stroke:#000000;stroke-width:4;stroke-linecap:butt;stroke-linejoin:miter;stroke-opacity:1"
       d="m 68.556937,887.18131 c 7.365655,-0.0361 14.769915,1.48935 21.388403,4.72196 6.618488,3.23261 12.42729,8.19671 16.39159,14.40465 3.42304,5.36033 5.42568,11.53004 6.56151,17.78786 1.13583,6.25781 1.43485,12.63425 1.66789,18.99004 0.50678,13.8219 0.70551,27.75973 -1.725,41.37569 -1.78721,10.01212 -5.20681,20.13189 -12.29299,27.42729 -7.725075,7.9532 -19.080808,11.6487 -30.165403,11.8961 -10.660717,0.2379 -21.725631,-2.6915 -29.6349,-9.8435 -4.312805,-3.8999 -7.540094,-8.9073 -9.785375,-14.27085 -2.245281,-5.36358 -3.537867,-11.08645 -4.329225,-16.84692 -1.911052,-13.91098 -0.945022,-28.03329 -0.234,-42.05691 0.347348,-6.8508 0.636572,-13.73562 1.965171,-20.46533 1.328599,-6.72971 3.754963,-13.35924 7.980929,-18.76251 3.747319,-4.79128 8.825482,-8.48026 14.423933,-10.85852 5.598452,-2.37826 11.704877,-3.46925 17.787467,-3.49905 z"
       id="path4462-4-4-5-5-1-0-3-4"
       inkscape:path-effect="#path-effect4464-0-7-0-0-6-2-9-4"
       inkscape:original-d="m 68.556937,887.18131 c 10.1203,-0.52484 31.2142,16.85433 37.779993,19.12661 22.1063,7.56825 7.3847,28.56562 8.2294,36.7779 1.2265,11.17425 -2.8243,24.8576 -1.725,41.37569 1.0993,16.51829 -3.3128,9.18117 -12.29299,27.42729 -3.488103,6.6199 -15.241703,10.4909 -30.165403,11.8961 -14.9234,1.4054 -22.3941,-5.5801 -29.6349,-9.8435 -7.2408,-4.2635 -14.1571,-19.20785 -14.1146,-31.11777 0.042,-11.91005 -0.062,-26.96466 -0.234,-42.05691 -0.1717,-15.09225 -0.1048,-30.51729 9.9461,-39.22784 10.0508,-8.71066 13.8207,-13.38806 32.2114,-14.35757 z"
       inkscape:connector-curvature="0"
       sodipodi:nodetypes="ccczczzzzzc" />
    <path
       style="fill:none;fill-opacity:1;fill-rule:evenodd;stroke:#000000;stroke-width:4;stroke-linecap:butt;stroke-linejoin:miter;stroke-opacity:1"
       d="m 27.845837,881.63949 c -1.331954,0.17641 -2.581604,0.86643 -3.475097,1.86987 -0.893493,1.00344 -1.43146,2.30822 -1.551103,3.64647 -0.104045,1.16379 0.10486,2.35844 0.627676,3.40337 0.522815,1.04493 1.361775,1.93444 2.390424,2.48861 0.934415,0.5034 2.016366,0.72561 3.07446,0.64206 1.058094,-0.0836 2.089008,-0.4712 2.946468,-1.09674 0.85746,-0.62555 1.539846,-1.48621 1.963437,-2.45941 0.423591,-0.9732 0.58848,-2.05616 0.484635,-3.11246 -0.153016,-1.55646 -0.906893,-3.05488 -2.098089,-4.06831 -1.191197,-1.01343 -2.812386,-1.5188 -4.362811,-1.31346 z"
       id="path4317-29"
       inkscape:path-effect="#path-effect4319-2"
       inkscape:original-d="m 27.845837,881.63949 c -2.5934,3.16484 -6.6692,-1.12737 -5.0262,5.51634 1.643,6.64346 -5.2033,6.96872 3.0181,5.89198 8.2212,-1.07675 13.3788,2.18974 8.469,-6.02655 -4.9095,-8.21594 -3.8676,-8.54675 -6.4609,-5.38177 z"
       inkscape:connector-curvature="0"
       sodipodi:nodetypes="zsssz" />
    <path
       style="fill:none;fill-opacity:1;fill-rule:evenodd;stroke:#000000;stroke-width:4;stroke-linecap:butt;stroke-linejoin:miter;stroke-opacity:1"
       d="m 52.466537,873.62843 c 0.14195,1.12144 0.611179,2.20385 1.356163,3.05402 0.744985,0.85016 1.765873,1.46093 2.873737,1.68548 1.020854,0.20691 2.101738,0.0847 3.061845,-0.31927 0.960107,-0.40392 1.797796,-1.08478 2.412555,-1.92563 0.980235,-1.34074 1.376302,-3.10526 1.013081,-4.72591 -0.363221,-1.62065 -1.494423,-3.06219 -3.003881,-3.75499 -0.899808,-0.41299 -1.917304,-0.56272 -2.899105,-0.43512 -0.9818,0.12759 -1.925112,0.53107 -2.700991,1.14606 -0.775879,0.615 -1.38293,1.43914 -1.748382,2.35928 -0.365451,0.92014 -0.48935,1.93386 -0.365022,2.91608 z"
       id="path4317-29-21"
       inkscape:path-effect="#path-effect4319-2-0"
       inkscape:original-d="m 52.466537,873.62843 c 2.4599,2.4663 -1.7421,5.7374 4.2299,4.7395 5.972,-0.9978 5.4744,4.9888 5.4744,-2.2449 0,-7.2338 5.7231,-12.2225 -1.9908,-8.4809 -7.7135,3.7414 -10.1735,3.5201 -7.7135,5.9863 z"
       inkscape:connector-curvature="0"
       sodipodi:nodetypes="zsssz" />
    <path
       style="fill:none;fill-opacity:1;fill-rule:evenodd;stroke:#000000;stroke-width:4;stroke-linecap:butt;stroke-linejoin:miter;stroke-opacity:1"
       d="m 69.898537,873.27057 c 0.14195,1.12144 0.611179,2.20385 1.356163,3.05402 0.744985,0.85016 1.765873,1.46093 2.873737,1.68548 1.020854,0.20691 2.101738,0.0847 3.061845,-0.31927 0.960107,-0.40392 1.797796,-1.08478 2.412555,-1.92563 0.980235,-1.34074 1.376302,-3.10526 1.013081,-4.72591 -0.363221,-1.62065 -1.494423,-3.06219 -3.003881,-3.75499 -0.899808,-0.41299 -1.917304,-0.56272 -2.899105,-0.43512 -0.9818,0.12759 -1.925112,0.53107 -2.700991,1.14606 -0.775879,0.615 -1.38293,1.43914 -1.748382,2.35928 -0.365451,0.92014 -0.48935,1.93386 -0.365022,2.91608 z"
       id="path4317-29-1"
       inkscape:path-effect="#path-effect4319-2-3"
       inkscape:original-d="m 69.898537,873.27057 c 2.4599,2.4663 -1.7421,5.7374 4.2299,4.7395 5.972,-0.9978 5.4744,4.9888 5.4744,-2.2449 0,-7.2338 5.7231,-12.2225 -1.9908,-8.4809 -7.7135,3.7414 -10.1735,3.5201 -7.7135,5.9863 z"
       inkscape:connector-curvature="0"
       sodipodi:nodetypes="zsssz" />
    <path
       style="fill:none;fill-opacity:1;fill-rule:evenodd;stroke:#000000;stroke-width:4;stroke-linecap:butt;stroke-linejoin:miter;stroke-opacity:1"
       d="m 87.567037,876.95255 c 0.14195,1.12144 0.611179,2.20385 1.356163,3.05402 0.744985,0.85016 1.765873,1.46093 2.873737,1.68548 1.020854,0.20691 2.101738,0.0847 3.061845,-0.31927 0.960107,-0.40392 1.797796,-1.08478 2.412555,-1.92563 0.980235,-1.34074 1.376302,-3.10526 1.013081,-4.72591 -0.363221,-1.62065 -1.494423,-3.06219 -3.003881,-3.75499 -0.899808,-0.41299 -1.917304,-0.56272 -2.899105,-0.43512 -0.9818,0.12759 -1.925112,0.53107 -2.700991,1.14606 -0.775879,0.615 -1.38293,1.43914 -1.748382,2.35928 -0.365451,0.92014 -0.48935,1.93386 -0.365022,2.91608 z"
       id="path4317-29-5"
       inkscape:path-effect="#path-effect4319-2-83"
       inkscape:original-d="m 87.567037,876.95255 c 2.4599,2.4663 -1.7421,5.7374 4.2299,4.7395 5.972,-0.9978 5.4744,4.9888 5.4744,-2.2449 0,-7.2338 5.723103,-12.2225 -1.9908,-8.4809 -7.7135,3.7414 -10.1735,3.5201 -7.7135,5.9863 z"
       inkscape:connector-curvature="0"
       sodipodi:nodetypes="zsssz" />
    <path
       style="fill:none;fill-opacity:1;fill-rule:evenodd;stroke:#000000;stroke-width:4;stroke-linecap:butt;stroke-linejoin:miter;stroke-opacity:1"
       d="m 103.48863,887.06346 c 0.14195,1.12144 0.61118,2.20385 1.35616,3.05402 0.74499,0.85016 1.76588,1.46093 2.87374,1.68548 1.02085,0.20691 2.10174,0.0847 3.06184,-0.31927 0.96011,-0.40392 1.7978,-1.08478 2.41256,-1.92563 0.98023,-1.34074 1.3763,-3.10526 1.01308,-4.72591 -0.36322,-1.62065 -1.49442,-3.06219 -3.00388,-3.75499 -0.89981,-0.41299 -1.9173,-0.56272 -2.8991,-0.43512 -0.98181,0.12759 -1.92512,0.53107 -2.701,1.14606 -0.77587,0.615 -1.38293,1.43914 -1.74838,2.35928 -0.36545,0.92014 -0.48935,1.93386 -0.36502,2.91608 z"
       id="path4317-29-53"
       inkscape:path-effect="#path-effect4319-2-9"
       inkscape:original-d="m 103.48863,887.06346 c 2.4599,2.4663 -1.74209,5.7374 4.2299,4.7395 5.972,-0.9978 5.4744,4.9888 5.4744,-2.2449 0,-7.2338 5.7231,-12.2225 -1.9908,-8.4809 -7.7135,3.7414 -10.17349,3.5201 -7.7135,5.9863 z"
       inkscape:connector-curvature="0"
       sodipodi:nodetypes="zsssz" />
    <path
       style="fill:none;fill-opacity:1;fill-rule:evenodd;stroke:#000000;stroke-width:4;stroke-linecap:butt;stroke-linejoin:miter;stroke-opacity:1"
       d="m 115.23863,905.81346 c 0.14195,1.12144 0.61118,2.20385 1.35616,3.05402 0.74499,0.85016 1.76588,1.46093 2.87374,1.68548 1.02085,0.20691 2.10174,0.0847 3.06184,-0.31927 0.96011,-0.40392 1.7978,-1.08478 2.41256,-1.92563 0.98023,-1.34074 1.3763,-3.10526 1.01308,-4.72591 -0.36322,-1.62065 -1.49442,-3.06219 -3.00388,-3.75499 -0.89981,-0.41299 -1.9173,-0.56272 -2.8991,-0.43512 -0.98181,0.12759 -1.92512,0.53107 -2.701,1.14606 -0.77587,0.615 -1.38293,1.43914 -1.74838,2.35928 -0.36545,0.92014 -0.48935,1.93386 -0.36502,2.91608 z"
       id="path4317-29-0"
       inkscape:path-effect="#path-effect4319-2-7"
       inkscape:original-d="m 115.23863,905.81346 c 2.4599,2.4663 -1.7421,5.7374 4.2299,4.7395 5.972,-0.9978 5.4744,4.9888 5.4744,-2.2449 0,-7.2338 5.7231,-12.2225 -1.9908,-8.4809 -7.7135,3.7414 -10.1735,3.5201 -7.7135,5.9863 z"
       inkscape:connector-curvature="0"
       sodipodi:nodetypes="zsssz" />
    <path
       style="fill:none;fill-opacity:1;fill-rule:evenodd;stroke:#000000;stroke-width:4;stroke-linecap:butt;stroke-linejoin:miter;stroke-opacity:1"
       d="m 118.73863,927.06346 c 0.14619,1.11628 0.63076,2.18706 1.37851,3.02867 0.74775,0.84162 1.75628,1.4497 2.85139,1.71083 0.97804,0.23322 2.01958,0.19 2.97691,-0.11737 0.95732,-0.30737 1.82803,-0.87735 2.49749,-1.62753 1.19336,-1.33726 1.70462,-3.25728 1.32107,-5.00806 -0.38355,-1.75079 -1.65671,-3.28523 -3.31187,-3.97284 -0.90866,-0.37749 -1.91864,-0.507 -2.89342,-0.37306 -0.97479,0.13394 -1.91192,0.53076 -2.68776,1.13593 -0.77584,0.60517 -1.3886,1.417 -1.75983,2.32823 -0.37123,0.91123 -0.50026,1.91958 -0.37249,2.8952 z"
       id="path4317-29-533"
       inkscape:path-effect="#path-effect4319-2-4"
       inkscape:original-d="m 118.73863,927.06346 c 2.4599,2.4663 -1.7421,5.7374 4.2299,4.7395 5.972,-0.9978 5.4744,5.4888 5.4744,-1.7449 0,-7.2338 5.7231,-12.7225 -1.9908,-8.9809 -7.7135,3.7414 -10.1735,3.5201 -7.7135,5.9863 z"
       inkscape:connector-curvature="0"
       sodipodi:nodetypes="zsssz" />
    <path
       style="fill:none;fill-opacity:1;fill-rule:evenodd;stroke:#000000;stroke-width:4;stroke-linecap:butt;stroke-linejoin:miter;stroke-opacity:1"
       d="m 120.64993,948.38504 c 0.13885,1.10677 0.44599,2.2062 1.02616,3.15889 0.58016,0.9527 1.44964,1.75173 2.50094,2.12454 0.97969,0.34741 2.0812,0.30751 3.0548,-0.0566 0.97361,-0.36413 1.81835,-1.04182 2.43325,-1.8799 0.6149,-0.83809 1.00442,-1.83165 1.18212,-2.85581 0.1777,-1.02417 0.14755,-2.07865 -0.029,-3.10302 -0.1896,-1.10026 -0.55434,-2.18456 -1.18932,-3.10288 -0.63498,-0.91833 -1.55643,-1.66208 -2.63218,-1.96089 -0.94678,-0.26298 -1.97942,-0.16944 -2.88575,0.21018 -0.90633,0.37962 -1.68636,1.03642 -2.26038,1.83394 -1.14804,1.59505 -1.4453,3.6816 -1.20067,5.63156 z"
       id="path4317-29-7"
       inkscape:path-effect="#path-effect4319-2-77"
       inkscape:original-d="m 120.64993,948.38504 c 2.0916,2.78546 -2.5258,5.43813 3.5271,5.28343 6.0528,-0.15461 5.6317,-0.73242 6.6412,-7.89534 1.0095,-7.16301 4.3391,-7.69223 -3.8215,-5.06377 -8.1602,2.62832 -8.4386,4.8903 -6.3468,7.67568 z"
       inkscape:connector-curvature="0"
       sodipodi:nodetypes="zsssz" />
    <path
       style="fill:none;fill-opacity:1;fill-rule:evenodd;stroke:#000000;stroke-width:4;stroke-linecap:butt;stroke-linejoin:miter;stroke-opacity:1"
       d="m 126.03843,962.88598 c -0.85802,-0.14413 -1.75603,-0.0168 -2.55081,0.33712 -0.79479,0.35395 -1.48539,0.93068 -1.99627,1.63493 -1.02176,1.40849 -1.28726,3.29072 -0.87812,4.98201 0.24737,1.02257 0.73461,1.99724 1.46748,2.75205 0.73286,0.75482 1.71873,1.2787 2.76572,1.38188 0.68296,0.0673 1.38052,-0.0436 2.01618,-0.30229 0.63566,-0.25864 1.20929,-0.66323 1.68014,-1.1625 0.9417,-0.99853 1.45354,-2.35905 1.54798,-3.72834 0.09,-1.30467 -0.19339,-2.65027 -0.90251,-3.74909 -0.70912,-1.09883 -1.86009,-1.92912 -3.14979,-2.14577 z"
       id="path4317-29-23"
       inkscape:path-effect="#path-effect4319-2-84"
       inkscape:original-d="m 126.03843,962.88598 c 10.1905,-14.15962 -8.7113,1.86857 -5.4252,6.95406 3.2861,5.08552 -2.4064,7.00471 4.2332,4.13393 6.6397,-2.87088 11.7399,0.40236 5.2443,-5.19313 -6.4954,-5.59516 -14.2428,8.2648 -4.0523,-5.89486 z"
       inkscape:connector-curvature="0"
       sodipodi:nodetypes="zsssz" />
    <path
       style="fill:none;fill-opacity:1;fill-rule:evenodd;stroke:#000000;stroke-width:4;stroke-linecap:butt;stroke-linejoin:miter;stroke-opacity:1"
       d="m 118.53153,986.44214 c -0.73952,1.61678 -0.93859,3.52896 -0.28519,5.18242 0.3267,0.82673 0.86204,1.57497 1.56195,2.123 0.69992,0.54803 1.56527,0.89045 2.45314,0.93408 1.04139,0.0512 2.08076,-0.30857 2.93361,-0.90837 0.85285,-0.5998 1.52762,-1.42892 2.04079,-2.33653 0.81243,-1.43689 1.23669,-3.13682 0.93973,-4.76055 -0.14848,-0.81186 -0.47663,-1.59419 -0.9786,-2.24932 -0.50196,-0.65513 -1.1797,-1.17978 -1.95193,-1.47103 -0.64964,-0.24501 -1.35887,-0.32306 -2.04893,-0.24644 -0.69007,0.0766 -1.36056,0.3062 -1.96375,0.65004 -1.2064,0.68766 -2.12322,1.81991 -2.70082,3.0827 z"
       id="path4317-29-3"
       inkscape:path-effect="#path-effect4319-2-5"
       inkscape:original-d="m 118.53153,986.44214 c 2.4599,2.4663 -2.2421,9.2374 3.7299,8.2395 5.972,-0.9978 4.9744,3.9888 4.9744,-3.2449 0,-7.2338 5.7231,-12.2225 -1.9908,-8.4809 -7.7135,3.7414 -9.1735,1.0201 -6.7135,3.4863 z"
       inkscape:connector-curvature="0"
       sodipodi:nodetypes="zsssz" />
    <path
       style="fill:none;fill-opacity:1;fill-rule:evenodd;stroke:#000000;stroke-width:4;stroke-linecap:butt;stroke-linejoin:miter;stroke-opacity:1"
       d="m 113.03153,1011.3563 c 0.27245,1.0833 0.73227,2.1326 1.44485,2.9928 0.71258,0.8603 1.69083,1.5221 2.78505,1.7467 1.01133,0.2076 2.08056,0.034 3.02186,-0.3897 0.9413,-0.4241 1.76067,-1.0889 2.45254,-1.8552 0.82944,-0.9187 1.48985,-1.9958 1.88711,-3.168 0.39726,-1.1722 0.52739,-2.4399 0.3294,-3.6617 -0.19798,-1.2218 -0.72894,-2.3943 -1.55229,-3.3184 -0.82335,-0.9242 -1.94104,-1.5916 -3.15502,-1.8328 -1.16142,-0.2308 -2.39099,-0.068 -3.471,0.4172 -1.08001,0.4855 -2.00937,1.2871 -2.68439,2.26 -0.67502,0.9728 -1.09829,2.1128 -1.26549,3.2851 -0.1672,1.1723 -0.0814,2.3756 0.20738,3.524 z"
       id="path4317-29-32"
       inkscape:path-effect="#path-effect4319-2-6"
       inkscape:original-d="m 113.03153,1011.3563 c 2.4599,2.4663 -1.7421,5.7374 4.2299,4.7395 5.972,-0.9978 5.4744,4.9888 5.4744,-2.2449 0,-7.2338 5.2231,-15.72245 -2.4908,-11.9809 -7.7135,3.7414 -9.6735,7.0201 -7.2135,9.4863 z"
       inkscape:connector-curvature="0"
       sodipodi:nodetypes="zsssz" />
    <path
       style="fill:none;fill-opacity:1;fill-rule:evenodd;stroke:#000000;stroke-width:4;stroke-linecap:butt;stroke-linejoin:miter;stroke-opacity:1"
       d="m 101.56704,1028.8312 c 0.14195,1.1214 0.61118,2.2039 1.35616,3.054 0.74498,0.8502 1.76587,1.461 2.87373,1.6855 1.02085,0.2069 2.10174,0.085 3.06185,-0.3193 0.9601,-0.4039 1.79779,-1.0848 2.41255,-1.9256 0.98023,-1.3407 1.3763,-3.1053 1.01308,-4.7259 -0.36322,-1.6207 -1.49442,-3.0622 -3.00388,-3.755 -0.89981,-0.413 -1.9173,-0.5627 -2.8991,-0.4351 -0.9818,0.1276 -1.92511,0.5311 -2.70099,1.146 -0.77588,0.615 -1.38293,1.4392 -1.74838,2.3593 -0.36545,0.9202 -0.48935,1.9339 -0.36502,2.9161 z"
       id="path4317-29-28"
       inkscape:path-effect="#path-effect4319-2-46"
       inkscape:original-d="m 101.56704,1028.8312 c 2.45989,2.4663 -1.742103,5.7374 4.22989,4.7395 5.972,-0.9978 5.4744,4.9888 5.4744,-2.2449 0,-7.2338 5.7231,-12.2225 -1.9908,-8.4809 -7.71349,3.7414 -10.173493,3.5201 -7.71349,5.9863 z"
       inkscape:connector-curvature="0"
       sodipodi:nodetypes="zsssz" />
    <path
       style="fill:none;fill-opacity:1;fill-rule:evenodd;stroke:#000000;stroke-width:4;stroke-linecap:butt;stroke-linejoin:miter;stroke-opacity:1"
       d="m 83.738637,1035.8134 c 0.14195,1.1214 0.611179,2.2039 1.356163,3.054 0.744985,0.8502 1.765873,1.461 2.873737,1.6855 1.020854,0.2069 2.101738,0.085 3.061845,-0.3193 0.960107,-0.4039 1.797796,-1.0848 2.412555,-1.9256 0.980235,-1.3407 1.376302,-3.1053 1.013081,-4.7259 -0.363221,-1.6207 -1.494423,-3.0622 -3.003881,-3.755 -0.899808,-0.413 -1.917304,-0.5627 -2.899105,-0.4351 -0.9818,0.1276 -1.925112,0.531 -2.700991,1.146 -0.775879,0.615 -1.38293,1.4392 -1.748382,2.3593 -0.365451,0.9202 -0.48935,1.9339 -0.365022,2.9161 z"
       id="path4317-29-19"
       inkscape:path-effect="#path-effect4319-2-96"
       inkscape:original-d="m 83.738637,1035.8134 c 2.4599,2.4663 -1.7421,5.7374 4.2299,4.7395 5.972,-0.9978 5.4744,4.9888 5.4744,-2.2449 0,-7.2338 5.7231,-12.2225 -1.9908,-8.4809 -7.7135,3.7414 -10.1735,3.5201 -7.7135,5.9863 z"
       inkscape:connector-curvature="0"
       sodipodi:nodetypes="zsssz" />
    <path
       style="fill:none;fill-opacity:1;fill-rule:evenodd;stroke:#000000;stroke-width:4;stroke-linecap:butt;stroke-linejoin:miter;stroke-opacity:1"
       d="m 64.738637,1038.0634 c 0.14195,1.1214 0.611179,2.2039 1.356163,3.054 0.744985,0.8502 1.765873,1.461 2.873737,1.6855 1.020854,0.2069 2.101738,0.085 3.061845,-0.3193 0.960107,-0.4039 1.797796,-1.0848 2.412555,-1.9256 0.980235,-1.3407 1.376302,-3.1053 1.013081,-4.7259 -0.363221,-1.6207 -1.494423,-3.0622 -3.003881,-3.755 -0.899808,-0.413 -1.917304,-0.5627 -2.899105,-0.4351 -0.9818,0.1276 -1.925112,0.531 -2.700991,1.146 -0.775879,0.615 -1.38293,1.4392 -1.748382,2.3593 -0.365451,0.9202 -0.48935,1.9339 -0.365022,2.9161 z"
       id="path4317-29-8"
       inkscape:path-effect="#path-effect4319-2-1"
       inkscape:original-d="m 64.738637,1038.0634 c 2.4599,2.4663 -1.7421,5.7374 4.2299,4.7395 5.972,-0.9978 5.4744,4.9888 5.4744,-2.2449 0,-7.2338 5.7231,-12.2225 -1.9908,-8.4809 -7.7135,3.7414 -10.1735,3.5201 -7.7135,5.9863 z"
       inkscape:connector-curvature="0"
       sodipodi:nodetypes="zsssz" />
    <path
       style="fill:none;fill-opacity:1;fill-rule:evenodd;stroke:#000000;stroke-width:4;stroke-linecap:butt;stroke-linejoin:miter;stroke-opacity:1"
       d="m 45.152837,1036.0027 c 0.14195,1.1214 0.611179,2.2039 1.356163,3.054 0.744985,0.8502 1.765873,1.461 2.873737,1.6855 1.020854,0.2069 2.101738,0.085 3.061845,-0.3193 0.960107,-0.4039 1.797796,-1.0848 2.412555,-1.9256 0.980235,-1.3407 1.376302,-3.1053 1.013081,-4.7259 -0.363221,-1.6207 -1.494423,-3.0622 -3.003881,-3.755 -0.899808,-0.413 -1.917304,-0.5627 -2.899105,-0.4351 -0.9818,0.1276 -1.925112,0.531 -2.700991,1.146 -0.775879,0.615 -1.38293,1.4392 -1.748382,2.3593 -0.365451,0.9202 -0.48935,1.9339 -0.365022,2.9161 z"
       id="path4317-29-6"
       inkscape:path-effect="#path-effect4319-2-961"
       inkscape:original-d="m 45.152837,1036.0027 c 2.4599,2.4663 -1.7421,5.7374 4.2299,4.7395 5.972,-0.9978 5.4744,4.9888 5.4744,-2.2449 0,-7.2338 5.7231,-12.2225 -1.9908,-8.4809 -7.7135,3.7414 -10.1735,3.5201 -7.7135,5.9863 z"
       inkscape:connector-curvature="0"
       sodipodi:nodetypes="zsssz" />
    <path
       style="fill:none;fill-opacity:1;fill-rule:evenodd;stroke:#000000;stroke-width:4;stroke-linecap:butt;stroke-linejoin:miter;stroke-opacity:1"
       d="m 25.584537,1028.6198 c 0.136583,1.2959 0.626865,2.5621 1.452425,3.5703 0.825559,1.0082 1.99126,1.7469 3.269975,1.9977 1.149045,0.2254 2.363444,0.054 3.430645,-0.4276 1.067202,-0.4819 1.987665,-1.2663 2.681155,-2.2098 1.157753,-1.5751 1.675475,-3.6329 1.286715,-5.5487 -0.194379,-0.9579 -0.608597,-1.8723 -1.212767,-2.6406 -0.604169,-0.7683 -1.398406,-1.3884 -2.296548,-1.774 -1.027153,-0.441 -2.183087,-0.5702 -3.28544,-0.3849 -1.102354,0.1853 -2.14818,0.6822 -3.000176,1.4058 -0.851996,0.7236 -1.509499,1.6707 -1.907046,2.7155 -0.397547,1.0447 -0.536103,2.1846 -0.418938,3.2963 z"
       id="path4317-29-320"
       inkscape:path-effect="#path-effect4319-2-75"
       inkscape:original-d="m 25.584537,1028.6198 c 2.7463,2.8974 -1.945,6.7403 4.7224,5.568 6.6674,-1.1723 6.1118,5.8608 6.1118,-2.6374 0,-8.4982 6.3895,-14.359 -2.2226,-9.9633 -8.6116,4.3954 -11.358,4.1354 -8.6116,7.0327 z"
       inkscape:connector-curvature="0"
       sodipodi:nodetypes="zsssz" />
    <path
       style="fill:none;fill-opacity:1;fill-rule:evenodd;stroke:#000000;stroke-width:4;stroke-linecap:butt;stroke-linejoin:miter;stroke-opacity:1"
       d="m 14.092237,1010.9525 c 0.14195,1.1214 0.611179,2.2039 1.356163,3.054 0.744985,0.8502 1.765873,1.461 2.873737,1.6855 1.020854,0.2069 2.101738,0.085 3.061845,-0.3193 0.960107,-0.4039 1.797796,-1.0848 2.412555,-1.9256 0.980235,-1.3407 1.376302,-3.1053 1.013081,-4.7259 -0.363221,-1.6207 -1.494423,-3.0622 -3.003881,-3.755 -0.899808,-0.413 -1.917304,-0.5627 -2.899105,-0.4351 -0.9818,0.1276 -1.925112,0.531 -2.700991,1.146 -0.775879,0.615 -1.38293,1.4392 -1.748382,2.3593 -0.365451,0.9202 -0.48935,1.9339 -0.365022,2.9161 z"
       id="path4317-29-88"
       inkscape:path-effect="#path-effect4319-2-09"
       inkscape:original-d="m 14.092237,1010.9525 c 2.4599,2.4663 -1.7421,5.7374 4.2299,4.7395 5.972,-0.9978 5.4744,4.9888 5.4744,-2.2449 0,-7.2338 5.7231,-12.2225 -1.9908,-8.4809 -7.7135,3.7414 -10.1735,3.5201 -7.7135,5.9863 z"
       inkscape:connector-curvature="0"
       sodipodi:nodetypes="zsssz" />
    <path
       style="fill:none;fill-opacity:1;fill-rule:evenodd;stroke:#000000;stroke-width:4;stroke-linecap:butt;stroke-linejoin:miter;stroke-opacity:1"
       d="m 9.4457364,989.89189 c 0.1419505,1.12144 0.6111786,2.20385 1.3561636,3.05402 0.744984,0.85016 1.765873,1.46093 2.873737,1.68548 1.020854,0.20691 2.101738,0.0847 3.061845,-0.31927 0.960107,-0.40392 1.797796,-1.08478 2.412555,-1.92563 0.980235,-1.34074 1.376302,-3.10526 1.013081,-4.72591 -0.363221,-1.62065 -1.494423,-3.06219 -3.003881,-3.75499 -0.899808,-0.41299 -1.917304,-0.56272 -2.899105,-0.43512 -0.9818,0.12759 -1.925112,0.53107 -2.700991,1.14606 -0.775879,0.615 -1.38293,1.43914 -1.7483822,2.35928 -0.3654519,0.92014 -0.4893503,1.93386 -0.3650224,2.91608 z"
       id="path4317-29-4"
       inkscape:path-effect="#path-effect4319-2-52"
       inkscape:original-d="m 9.4457364,989.89189 c 2.4599006,2.4663 -1.7421,5.7374 4.2299006,4.7395 5.972,-0.9978 5.4744,4.9888 5.4744,-2.2449 0,-7.2338 5.7231,-12.2225 -1.9908,-8.4809 -7.7135006,3.7414 -10.1735006,3.5201 -7.7135006,5.9863 z"
       inkscape:connector-curvature="0"
       sodipodi:nodetypes="zsssz" />
    <path
       style="fill:none;fill-opacity:1;fill-rule:evenodd;stroke:#000000;stroke-width:4;stroke-linecap:butt;stroke-linejoin:miter;stroke-opacity:1"
       d="m 8.7386364,967.06346 c 0.1419505,1.12144 0.6111789,2.20385 1.3561636,3.05402 0.744984,0.85016 1.765873,1.46093 2.873737,1.68548 1.020854,0.20691 2.101738,0.0847 3.061845,-0.31927 0.960107,-0.40392 1.797796,-1.08478 2.412555,-1.92563 0.980235,-1.34074 1.376302,-3.10526 1.013081,-4.72591 -0.363221,-1.62065 -1.494423,-3.06219 -3.003881,-3.75499 -0.899808,-0.41299 -1.917304,-0.56272 -2.899105,-0.43512 -0.9818,0.12759 -1.925112,0.53107 -2.700991,1.14606 -0.775879,0.615 -1.3829303,1.43914 -1.7483822,2.35928 -0.3654519,0.92014 -0.4893503,1.93386 -0.3650224,2.91608 z"
       id="path4317-29-24"
       inkscape:path-effect="#path-effect4319-2-06"
       inkscape:original-d="m 8.7386364,967.06346 c 2.4598996,2.4663 -1.7421,5.7374 4.2299006,4.7395 5.972,-0.9978 5.4744,4.9888 5.4744,-2.2449 0,-7.2338 5.7231,-12.2225 -1.9908,-8.4809 -7.7135006,3.7414 -10.1735006,3.5201 -7.7135006,5.9863 z"
       inkscape:connector-curvature="0"
       sodipodi:nodetypes="zsssz" />
    <path
       style="fill:none;fill-opacity:1;fill-rule:evenodd;stroke:#000000;stroke-width:4;stroke-linecap:butt;stroke-linejoin:miter;stroke-opacity:1"
       d="m 8.7386364,947.06346 c 0.1419505,1.12144 0.6111789,2.20385 1.3561636,3.05402 0.744984,0.85016 1.765873,1.46093 2.873737,1.68548 1.020854,0.20691 2.101738,0.0847 3.061845,-0.31927 0.960107,-0.40392 1.797796,-1.08478 2.412555,-1.92563 0.980235,-1.34074 1.376302,-3.10526 1.013081,-4.72591 -0.363221,-1.62065 -1.494423,-3.06219 -3.003881,-3.75499 -0.899808,-0.41299 -1.917304,-0.56272 -2.899105,-0.43512 -0.9818,0.12759 -1.925112,0.53107 -2.700991,1.14606 -0.775879,0.615 -1.3829303,1.43914 -1.7483822,2.35928 -0.3654519,0.92014 -0.4893503,1.93386 -0.3650224,2.91608 z"
       id="path4317-29-216"
       inkscape:path-effect="#path-effect4319-2-86"
       inkscape:original-d="m 8.7386364,947.06346 c 2.4598996,2.4663 -1.7421,5.7374 4.2299006,4.7395 5.972,-0.9978 5.4744,4.9888 5.4744,-2.2449 0,-7.2338 5.7231,-12.2225 -1.9908,-8.4809 -7.7135006,3.7414 -10.1735006,3.5201 -7.7135006,5.9863 z"
       inkscape:connector-curvature="0"
       sodipodi:nodetypes="zsssz" />
    <path
       style="fill:none;fill-opacity:1;fill-rule:evenodd;stroke:#000000;stroke-width:4;stroke-linecap:butt;stroke-linejoin:miter;stroke-opacity:1"
       d="m 9.8336364,925.898 c 0.083401,1.23333 0.4569296,2.46229 1.1788636,3.46572 0.721934,1.00344 1.807828,1.76538 3.024137,1.98598 1.041058,0.18881 2.135025,-0.0233 3.076685,-0.50575 0.941661,-0.48242 1.736216,-1.2241 2.363015,-2.07649 1.138807,-1.54868 1.739263,-3.53394 1.427536,-5.43081 -0.155864,-0.94843 -0.536519,-1.86269 -1.123454,-2.62383 -0.586934,-0.76114 -1.381462,-1.36549 -2.282282,-1.70067 -0.955981,-0.35571 -2.019534,-0.40274 -3.010873,-0.16258 -0.991339,0.24015 -1.908454,0.76295 -2.642109,1.4716 -1.467309,1.41729 -2.149155,3.54145 -2.0115186,5.57683 z"
       id="path4317-29-73"
       inkscape:path-effect="#path-effect4319-2-39"
       inkscape:original-d="m 9.8336364,925.898 c 2.4443006,2.83691 -1.7311,6.59955 4.2030006,5.4517 5.9341,-1.14774 5.4397,5.73845 5.4397,-2.58224 0,-8.32081 5.6868,-14.05915 -1.9782,-9.75531 -7.6645006,4.30362 -10.1089006,4.04906 -7.6645006,6.88585 z"
       inkscape:connector-curvature="0"
       sodipodi:nodetypes="zsssz" />
    <path
       style="fill:none;fill-opacity:1;fill-rule:evenodd;stroke:#000000;stroke-width:4;stroke-linecap:butt;stroke-linejoin:miter;stroke-opacity:1"
       d="m 16.500237,910.09044 c 1.261131,0.66649 2.77312,0.82646 4.156836,0.48007 1.383715,-0.34639 2.630863,-1.18827 3.504264,-2.31602 0.934706,-1.20691 1.442621,-2.74726 1.361866,-4.27166 -0.08075,-1.5244 -0.759956,-3.01745 -1.887966,-4.04599 -1.325986,-1.20906 -3.236595,-1.72577 -5.002287,-1.40577 -1.765692,0.32001 -3.355714,1.45263 -4.285213,2.98759 -0.854419,1.41097 -1.154719,3.15826 -0.769624,4.76219 0.385095,1.60393 1.463748,3.03886 2.922124,3.80959 z"
       id="path4317-29-64"
       inkscape:path-effect="#path-effect4319-2-2"
       inkscape:original-d="m 16.500237,910.09044 c 3.5902,-0.39775 5.7725,4.00449 7.6611,-1.83595 1.8886,-5.84045 6.5445,-3.26949 -0.5261,-8.31765 -7.0709,-5.04823 -9.2455,-7.67381 -9.2875,1.58182 -0.042,9.25514 -1.438,8.9696 2.1525,8.57178 z"
       inkscape:connector-curvature="0"
       sodipodi:nodetypes="zsssz" />
    <path
       style="fill:none;fill-opacity:1;fill-rule:evenodd;stroke:#000000;stroke-width:4;stroke-linecap:butt;stroke-linejoin:miter;stroke-opacity:1"
       d="m 36.256437,878.61371 c 0.14195,1.12144 0.611179,2.20385 1.356163,3.05402 0.744985,0.85016 1.765873,1.46093 2.873737,1.68548 1.020854,0.20691 2.101738,0.0847 3.061845,-0.31927 0.960107,-0.40392 1.797796,-1.08478 2.412555,-1.92563 0.980235,-1.34074 1.376302,-3.10526 1.013081,-4.72591 -0.363221,-1.62065 -1.494423,-3.06219 -3.003881,-3.75499 -0.899808,-0.41299 -1.917304,-0.56272 -2.899105,-0.43512 -0.9818,0.12759 -1.925112,0.53107 -2.700991,1.14606 -0.775879,0.615 -1.38293,1.43914 -1.748382,2.35928 -0.365451,0.92014 -0.48935,1.93386 -0.365022,2.91608 z"
       id="path4317-29-27"
       inkscape:path-effect="#path-effect4319-2-89"
       inkscape:original-d="m 36.256437,878.61371 c 2.4599,2.4663 -1.7421,5.7374 4.2299,4.7395 5.972,-0.9978 5.4744,4.9888 5.4744,-2.2449 0,-7.2338 5.7231,-12.2225 -1.9908,-8.4809 -7.7135,3.7414 -10.1735,3.5201 -7.7135,5.9863 z"
       inkscape:connector-curvature="0"
       sodipodi:nodetypes="zsssz" />
    <path
       style="fill:none;fill-rule:evenodd;stroke:#000000;stroke-width:4px;stroke-linecap:butt;stroke-linejoin:miter;stroke-opacity:1"
       d="m 35.353337,953.76139 69.765193,-0.0884"
       id="path4635"
       inkscape:path-effect="#path-effect4637"
       inkscape:original-d="m 35.353337,953.76139 69.765193,-0.0884"
       inkscape:connector-curvature="0"
       sodipodi:nodetypes="cc" />
    <path
       style="fill:none;fill-opacity:1;fill-rule:evenodd;stroke:#000000;stroke-width:4;stroke-linecap:butt;stroke-linejoin:miter;stroke-opacity:1"
       d="m 59.941337,979.33556 c -0.01519,1.07282 0.385928,2.13219 1.039596,2.983 0.653669,0.85081 1.549169,1.4995 2.527284,1.94047 1.956229,0.88195 4.175001,0.93974 6.31992,0.87669 1.685135,-0.0495 3.404547,-0.17252 4.961159,-0.8199 0.778306,-0.32368 1.507742,-0.77892 2.099902,-1.37882 0.592159,-0.5999 1.043386,-1.34824 1.241739,-2.1675 0.259819,-1.07314 0.07175,-2.23206 -0.434903,-3.21309 -0.506656,-0.98103 -1.317416,-1.78832 -2.254293,-2.3726 -1.873755,-1.16857 -4.164787,-1.44084 -6.372704,-1.481 -1.994261,-0.0363 -4.053518,0.10909 -5.842075,0.99196 -0.894279,0.44143 -1.706315,1.0673 -2.302603,1.8667 -0.596288,0.7994 -0.968904,1.77689 -0.983022,2.77409 z"
       id="path4317-29-21-6"
       inkscape:path-effect="#path-effect4319-2-0-7"
       inkscape:original-d="m 59.941337,979.33556 c 2.4599,2.4663 3.9148,6.79806 9.8868,5.80016 5.972,-0.9978 8.3028,2.86748 8.3028,-4.36622 0,-7.2338 -1.348,-10.80829 -9.0619,-7.06669 -7.7135,3.7414 -11.5877,3.16655 -9.1277,5.63275 z"
       inkscape:connector-curvature="0"
       sodipodi:nodetypes="zsssz" />
    <path
       style="fill:none;fill-rule:evenodd;stroke:#000000;stroke-width:4px;stroke-linecap:butt;stroke-linejoin:miter;stroke-opacity:1"
       d="m 51.259237,953.42958 c -0.325687,-4.23091 0.430945,-8.54072 2.1783,-12.40769 1.309209,-2.89733 3.219559,-5.5954 5.8525,-7.37759 3.119184,-2.11132 7.01843,-2.78546 10.7844,-2.71888 4.267434,0.0754 8.689195,1.12881 11.9152,3.92337 1.833141,1.58798 3.193102,3.66199 4.2371,5.85109 1.924066,4.03446 2.833909,8.54782 2.6232,13.01262"
       id="path4657"
       inkscape:path-effect="#path-effect4659"
       inkscape:original-d="m 51.259237,953.42958 c 6.0105,-20.50603 -1.7108,-4.27599 2.1783,-12.40769 3.889,-8.13179 -0.865,-8.79179 5.8525,-7.37759 3.3588,0.7071 9.3933,-2.06028 10.7844,-2.71888 0.5414,-0.25628 -0.4469,-3.80462 11.9152,3.92337 12.3621,7.72799 7.0641,9.90506 4.2371,5.85109 -2.827,-4.05396 1.5901,-8.6821 2.6232,13.01262"
       inkscape:connector-curvature="0"
       sodipodi:nodetypes="ccssssc" />
    <path
       style="fill:none;fill-rule:evenodd;stroke:#000000;stroke-width:4px;stroke-linecap:butt;stroke-linejoin:miter;stroke-opacity:1"
       d="m 59.984637,953.22478 c -0.0084,-1.93868 0.244578,-3.87834 0.75,-5.75 0.344454,-1.27557 0.825603,-2.55327 1.710959,-3.53402 0.442678,-0.49037 0.983813,-0.89816 1.596013,-1.14644 0.6122,-0.24828 1.29689,-0.33215 1.943028,-0.19454 0.898267,0.19131 1.668926,0.79685 2.215315,1.53505 0.546389,0.7382 0.891252,1.60476 1.180685,2.47637 0.734991,2.21339 1.150284,4.53267 1.229,6.86358 -0.150532,-2.18916 0.08744,-4.40447 0.6995,-6.51171 0.240461,-0.82788 0.541513,-1.64606 1.001595,-2.37512 0.460083,-0.72906 1.089566,-1.36856 1.868405,-1.73817 0.600676,-0.28506 1.279067,-0.40199 1.941202,-0.34161 0.662136,0.0604 1.306487,0.29715 1.854298,0.67394 0.804258,0.55318 1.382821,1.39003 1.760161,2.29028 0.37734,0.90025 0.566915,1.86721 0.714539,2.83212 0.261688,1.71046 0.398936,3.43995 0.4103,5.17027"
       id="path4665"
       inkscape:path-effect="#path-effect4667"
       inkscape:original-d="m 59.984637,953.22478 c 0.625,-11.75 -5.25,-1.75 0.75,-5.75 6,-4 2.125,-14.625 5.25,-4.875 1.5625,4.875 2.6304,2.51142 3.396,4.01142 0.7656,1.5 1.229,6.86358 1.229,6.86358 0,0 0.5745,2.61329 0.6995,-6.51171 0.125,-9.125 29.086703,-15.99328 2.87,-4.11329 -5.0534,2.28995 -0.6938,5.24901 3.7955,0.33233 1.3976,-1.53062 1.2247,-2.1276 2.4747,5.1224 1.25,7.25 0.4103,5.17027 0.4103,5.17027"
       inkscape:connector-curvature="0"
       sodipodi:nodetypes="cssscssssc" />
  </g>
</svg>
