<?xml version="1.0" standalone="no"?>
<!DOCTYPE svg PUBLIC "-//W3C//DTD SVG 20010904//EN"
 "http://www.w3.org/TR/2001/REC-SVG-20010904/DTD/svg10.dtd">
<svg version="1.0" xmlns="http://www.w3.org/2000/svg"
 width="255.000000pt" height="239.000000pt" viewBox="0 0 255.000000 239.000000"
 preserveAspectRatio="xMidYMid meet">
<metadata>
Created by potrace 1.16, written by Peter Selinger 2001-2019
</metadata>
<g transform="translate(0.000000,239.000000) scale(0.100000,-0.100000)"
fill="#000000" stroke="none">
<path d="M1355 2304 c-438 -66 -720 -175 -876 -341 -54 -58 -70 -83 -98 -158
-19 -50 -53 -128 -76 -175 -83 -167 -151 -405 -161 -565 -8 -123 12 -483 31
-575 19 -85 56 -174 88 -208 57 -61 118 -66 268 -20 99 30 107 31 179 20 41
-6 196 -47 344 -92 291 -87 352 -99 493 -100 153 0 291 34 452 113 153 74 272
219 330 402 31 94 82 404 101 601 16 175 -8 357 -69 508 -113 281 -355 495
-642 566 -82 21 -294 34 -364 24z m370 -168 c212 -59 398 -164 464 -261 23
-35 69 -209 107 -415 28 -146 26 -463 -4 -631 -30 -166 -62 -269 -107 -336
-37 -55 -163 -189 -171 -180 -2 2 2 22 10 45 8 23 20 78 27 123 30 209 -38
429 -182 583 -82 88 -157 130 -269 153 -45 9 -92 25 -106 35 -39 31 -71 96
-99 198 -27 102 -30 161 -15 255 7 41 6 87 -1 148 -10 73 -14 87 -30 87 -14 0
-19 -11 -24 -47 -29 -215 -70 -383 -122 -498 -20 -44 -38 -99 -40 -123 -5 -42
-6 -43 -82 -81 -42 -22 -97 -58 -123 -81 -89 -78 -230 -320 -278 -475 -19 -62
-29 -174 -19 -214 3 -10 -33 -26 -126 -57 -72 -24 -138 -44 -147 -44 -39 0
-88 33 -99 69 -16 49 -5 548 16 701 47 345 183 652 364 822 169 161 507 263
831 253 104 -3 155 -9 225 -29z m-386 -681 c12 -49 31 -110 42 -134 10 -24 17
-46 15 -48 -5 -5 -170 -22 -174 -18 -1 1 13 56 31 121 19 65 38 134 42 152 10
46 19 32 44 -73z m179 -284 c128 -37 281 -127 350 -206 105 -119 137 -302 97
-551 -16 -101 -34 -148 -63 -162 -32 -17 -255 -43 -365 -43 -171 0 -207 7
-515 102 -106 32 -218 62 -249 65 l-56 7 6 101 c18 330 215 632 456 702 66 19
246 11 339 -15z"/>
<path d="M775 1786 c-38 -16 -116 -102 -140 -153 -44 -92 -26 -179 46 -229 34
-23 45 -26 90 -21 117 14 191 102 193 230 1 80 -9 129 -35 161 -17 22 -28 26
-72 26 -29 -1 -66 -7 -82 -14z m120 -81 c32 -31 33 -83 1 -151 -30 -66 -70
-94 -130 -94 -66 0 -90 26 -83 90 8 63 48 140 84 162 42 26 99 23 128 -7z"/>
<path d="M1755 1784 c-39 -20 -83 -62 -101 -97 -8 -15 -18 -58 -23 -96 -17
-131 19 -204 105 -217 55 -8 120 15 170 58 82 72 78 247 -8 335 -26 27 -40 33
-72 33 -23 0 -54 -7 -71 -16z m83 -74 c64 -39 89 -118 57 -179 -18 -35 -69
-79 -101 -87 -66 -17 -104 28 -104 123 0 67 30 130 70 150 33 17 39 16 78 -7z"/>
<path d="M1325 829 c-92 -49 -142 -127 -131 -204 9 -54 46 -91 109 -105 41 -9
55 -8 92 9 93 41 145 105 145 177 0 106 -119 174 -215 123z m135 -54 c61 -31
44 -110 -34 -167 -45 -32 -100 -37 -146 -13 -59 30 -46 104 29 166 41 34 102
39 151 14z"/>
</g>
</svg>
