<?xml version="1.0" standalone="no"?>
<!DOCTYPE svg PUBLIC "-//W3C//DTD SVG 20010904//EN"
 "http://www.w3.org/TR/2001/REC-SVG-20010904/DTD/svg10.dtd">
<svg version="1.0" xmlns="http://www.w3.org/2000/svg"
 width="255.000000pt" height="239.000000pt" viewBox="0 0 255.000000 239.000000"
 preserveAspectRatio="xMidYMid meet">
<metadata>
Created by potrace 1.16, written by Peter Selinger 2001-2019
</metadata>
<g transform="translate(0.000000,239.000000) scale(0.100000,-0.100000)"
fill="#000000" stroke="none">
<path d="M1340 2304 c-14 -2 -59 -9 -100 -15 -47 -7 -118 -29 -190 -59 -63
-26 -133 -53 -155 -60 -65 -20 -212 -96 -278 -144 -264 -188 -395 -465 -427
-896 -16 -222 -29 -617 -23 -691 4 -52 1 -79 -16 -129 -16 -46 -19 -66 -11
-75 13 -16 35 -9 170 51 75 33 96 38 185 42 159 7 360 -39 627 -145 182 -71
323 -93 493 -75 135 14 247 42 341 87 138 66 255 225 358 485 104 263 124 409
108 760 -8 185 -15 248 -30 298 -24 73 -201 358 -259 414 -69 67 -220 123
-398 148 -66 9 -340 12 -395 4z m290 -166 c0 -18 -7 -78 -16 -133 -27 -161 -3
-223 92 -232 44 -5 54 -2 82 22 42 35 75 101 107 211 14 48 27 90 30 92 3 3
26 -3 52 -13 72 -28 169 -130 217 -230 32 -65 47 -121 83 -298 25 -120 43
-220 41 -222 -1 -1 -68 10 -148 25 -341 68 -584 68 -1132 0 -149 -18 -288 -29
-572 -47 l-89 -6 6 54 c7 59 17 79 156 337 106 196 116 207 265 283 l101 51
11 -74 c6 -41 19 -89 28 -107 18 -34 66 -61 108 -61 65 0 127 85 149 205 13
72 41 130 72 146 19 11 132 20 315 27 41 2 42 1 42 -30z m166 3 c44 -27 60
-71 45 -124 -26 -87 -109 -189 -137 -167 -21 18 -37 108 -31 176 7 76 28 121
59 127 13 2 25 5 28 6 3 0 19 -8 36 -18z m-650 -83 c-16 -106 -61 -198 -97
-198 -7 0 -29 18 -51 40 -43 46 -50 88 -22 129 20 28 107 70 148 70 28 1 28 0
22 -41z m932 -742 c129 -26 242 -92 242 -142 0 -17 -3 -17 -65 1 -202 62 -708
98 -1060 76 -172 -11 -396 -45 -693 -104 -153 -31 -162 -32 -162 -15 0 45 52
108 105 128 16 6 92 16 170 22 77 6 221 21 320 34 172 23 200 24 625 19 336
-4 463 -8 518 -19z m-531 -130 c-3 -8 -16 -72 -28 -142 -25 -147 -29 -313 -15
-621 l9 -193 -44 0 c-41 0 -144 13 -196 25 l-23 5 0 465 0 464 88 4 c214 8
214 8 209 -7z m226 3 c91 -25 98 -55 99 -428 1 -309 -5 -378 -43 -453 -27 -54
-59 -70 -143 -76 -65 -4 -74 -2 -98 19 -23 22 -27 36 -37 140 -15 157 -14 287
4 470 16 159 27 231 45 300 l11 39 62 0 c34 0 79 -5 100 -11z m-588 -16 c14
-37 17 -379 6 -628 -7 -143 -13 -261 -15 -262 -1 -1 -38 4 -81 11 -90 16 -105
28 -131 109 -21 67 -30 329 -15 452 21 173 42 300 50 308 14 14 70 25 127 26
41 1 53 -3 59 -16z m904 -33 c68 -12 136 -27 152 -35 43 -23 69 -63 69 -108 0
-52 -46 -259 -73 -322 -42 -102 -113 -210 -187 -286 -69 -70 -135 -118 -147
-106 -2 3 1 31 6 64 23 127 30 260 21 423 -5 91 -11 218 -13 283 l-3 118 25
-5 c14 -3 82 -15 150 -26z m-1174 1 c3 -11 -4 -83 -15 -162 -19 -132 -20 -161
-11 -373 5 -127 8 -232 6 -234 -2 -2 -72 19 -155 48 -200 69 -241 69 -393 2
-31 -14 -60 -23 -63 -20 -2 3 -9 30 -13 59 -9 55 -3 140 24 325 8 56 15 125
15 153 0 29 5 61 10 72 14 24 91 64 167 84 45 13 339 58 410 64 6 1 14 -8 18
-18z"/>
</g>
</svg>
