<?xml version="1.0" standalone="no"?>
<!DOCTYPE svg PUBLIC "-//W3C//DTD SVG 20010904//EN"
 "http://www.w3.org/TR/2001/REC-SVG-20010904/DTD/svg10.dtd">
<svg version="1.0" xmlns="http://www.w3.org/2000/svg"
 width="255.000000pt" height="239.000000pt" viewBox="0 0 255.000000 239.000000"
 preserveAspectRatio="xMidYMid meet">
<metadata>
Created by potrace 1.16, written by Peter Selinger 2001-2019
</metadata>
<g transform="translate(0.000000,239.000000) scale(0.100000,-0.100000)"
fill="#000000" stroke="none">
<path d="M1385 2246 c-143 -29 -296 -63 -340 -76 -460 -130 -735 -343 -841
-651 -73 -216 -89 -585 -35 -844 29 -138 98 -337 129 -374 40 -48 81 -53 215
-28 186 35 278 25 673 -78 279 -72 423 -76 630 -17 222 65 362 138 469 246 79
80 123 155 155 266 48 168 49 835 1 1050 -60 271 -198 443 -421 525 -67 25
-91 28 -225 31 -149 4 -153 3 -410 -50z m165 -112 c0 -14 3 -14 15 -4 12 10
18 10 31 -1 22 -18 94 -125 94 -140 0 -20 -84 -118 -112 -131 -26 -12 -28 -17
-28 -73 0 -83 26 -232 51 -301 24 -65 83 -134 133 -158 54 -25 144 -19 361 24
110 22 210 40 221 40 18 0 23 -7 26 -37 3 -21 3 -55 0 -75 -4 -35 -7 -37 -51
-47 -109 -23 -232 -33 -374 -29 -142 3 -156 6 -215 32 -76 35 -127 90 -147
161 -25 86 -45 312 -45 515 0 107 3 205 6 218 7 25 34 30 34 6z m-101 -81 c1
-36 -2 -43 -21 -47 -101 -21 -133 -31 -156 -51 -24 -21 -27 -30 -27 -85 1 -55
4 -65 28 -86 34 -29 75 -31 127 -4 l40 20 1 -47 c1 -27 4 -59 8 -73 12 -43 2
-60 -35 -60 -51 0 -85 -21 -104 -64 -21 -45 -13 -85 22 -123 26 -28 52 -29
101 -4 27 14 39 16 42 8 2 -7 11 -39 20 -72 9 -33 25 -69 36 -81 19 -21 19
-21 -8 -80 -46 -101 -33 -147 52 -180 55 -21 72 -12 116 61 l33 55 81 0 c98 0
123 -12 104 -52 -10 -23 -9 -32 8 -60 10 -18 32 -39 47 -47 25 -11 33 -11 61
2 36 17 65 69 65 116 0 36 22 49 103 58 48 6 48 6 43 -21 -3 -14 -8 -37 -11
-50 -6 -28 10 -37 42 -25 28 10 46 45 39 74 -4 17 -1 24 14 28 29 7 34 -23 34
-188 l1 -140 -46 -111 c-73 -175 -156 -284 -277 -361 -134 -86 -245 -114 -452
-115 -157 -1 -179 2 -500 77 -295 69 -380 76 -574 45 l-50 -8 44 39 c25 22 88
68 140 104 194 130 358 193 447 169 21 -6 21 -6 1 -26 -47 -47 6 -87 71 -53
39 20 55 49 47 88 -15 77 -100 113 -239 103 -143 -10 -252 -63 -405 -197 -48
-42 -112 -106 -142 -142 -47 -57 -56 -63 -66 -49 -19 29 -33 84 -47 185 -16
115 -27 102 113 141 116 33 167 60 198 106 43 64 7 144 -71 157 -32 5 -37 3
-37 -14 0 -11 11 -41 24 -67 l24 -47 -22 -14 c-42 -28 -92 -43 -167 -49 l-76
-7 14 113 c23 200 52 363 78 448 91 285 239 466 480 587 63 32 221 86 440 151
145 43 143 43 144 -35z m413 -43 c-11 -17 -10 -20 7 -20 27 0 91 -85 91 -121
0 -15 -7 -34 -15 -43 -21 -21 -19 -28 4 -14 16 10 25 7 55 -16 41 -31 54 -67
38 -109 -19 -50 -75 -137 -89 -137 -20 0 -35 76 -31 161 l3 78 -26 -24 c-30
-30 -39 -31 -39 -7 0 9 -10 33 -21 52 -17 28 -20 44 -16 90 4 41 3 50 -5 37
-9 -18 -11 -18 -34 4 -32 30 -30 46 7 98 l32 43 26 -26 c22 -23 24 -29 13 -46z
m-17 -280 c28 0 32 -107 5 -134 -12 -12 -110 79 -110 103 0 8 15 39 33 69 l32
54 13 -46 c8 -27 19 -46 27 -46z m266 -98 c63 -64 64 -114 2 -183 -42 -47 -69
-63 -86 -52 -6 4 -26 6 -44 4 -36 -3 -39 3 -22 46 10 27 11 27 25 9 13 -18 14
-13 14 47 0 83 32 167 62 167 6 0 28 -17 49 -38z m-361 -18 c36 -42 35 -60 -8
-130 l-28 -44 -31 32 c-47 51 -49 70 -12 128 18 28 36 50 40 50 4 0 21 -16 39
-36z m575 -9 c38 -39 51 -84 35 -114 -9 -17 -20 -21 -65 -21 -64 0 -71 12 -55
85 13 56 27 85 42 85 6 0 25 -16 43 -35z"/>
</g>
</svg>
