<?xml version="1.0" standalone="no"?>
<!DOCTYPE svg PUBLIC "-//W3C//DTD SVG 20010904//EN"
 "http://www.w3.org/TR/2001/REC-SVG-20010904/DTD/svg10.dtd">
<svg version="1.0" xmlns="http://www.w3.org/2000/svg"
 width="255.000000pt" height="239.000000pt" viewBox="0 0 255.000000 239.000000"
 preserveAspectRatio="xMidYMid meet">
<metadata>
Created by potrace 1.16, written by Peter Selinger 2001-2019
</metadata>
<g transform="translate(0.000000,239.000000) scale(0.100000,-0.100000)"
fill="#000000" stroke="none">
<path d="M1355 2275 c-373 -60 -617 -146 -801 -283 -240 -178 -357 -400 -415
-787 -19 -125 -20 -167 -15 -395 7 -276 19 -407 42 -451 33 -64 97 -63 181 3
131 103 122 98 167 91 76 -12 180 -53 296 -118 179 -99 252 -125 420 -147 184
-25 394 -20 515 11 108 28 221 86 335 171 119 90 161 129 216 206 93 130 121
235 134 514 20 398 9 554 -49 691 -87 206 -313 401 -556 479 -91 29 -332 37
-470 15z m182 -149 c9 -8 18 -127 11 -148 -10 -29 -45 -48 -92 -48 -27 0 -35
6 -49 35 -9 20 -20 60 -23 90 -9 78 1 88 85 79 36 -3 67 -7 68 -8z m-197 -50
c13 -65 5 -123 -21 -136 -10 -6 -59 -10 -110 -10 l-92 0 6 76 c3 42 11 82 17
88 6 6 41 16 78 22 115 19 109 21 122 -40z m504 14 c182 -46 337 -171 414
-330 44 -92 72 -206 72 -294 0 -50 -2 -56 -22 -60 -13 -3 -70 -17 -129 -30
-89 -22 -114 -24 -163 -16 -64 10 -140 49 -150 77 -4 10 -12 69 -18 131 -8 73
-16 116 -24 119 -7 2 -33 -4 -58 -15 -85 -38 -149 -162 -150 -292 -1 -87 19
-152 63 -202 33 -37 43 -41 91 -45 30 -3 111 0 180 6 69 6 173 14 233 18 l107
6 0 -74 c-1 -231 -73 -445 -186 -548 -31 -28 -88 -67 -128 -86 -68 -33 -216
-75 -263 -75 -22 0 -22 1 -8 48 29 95 11 231 -41 299 -25 33 -58 47 -135 58
-26 3 -53 11 -61 18 -9 7 -28 47 -43 90 -35 98 -59 117 -143 117 -45 0 -67 -5
-93 -23 -45 -29 -81 -100 -77 -152 l3 -40 -105 -35 -105 -35 -28 -55 c-15 -31
-33 -85 -41 -120 -9 -47 -18 -66 -30 -68 -9 -2 -82 13 -162 33 -80 20 -155 34
-167 31 -12 -3 -67 -35 -121 -71 -102 -68 -101 -67 -125 -25 -19 33 -22 130
-7 255 8 72 18 169 22 218 l7 87 106 0 c362 0 498 73 509 274 4 56 0 80 -22
135 -45 116 -116 171 -158 124 -19 -22 -38 -86 -38 -131 0 -45 -24 -89 -61
-107 -26 -14 -205 -44 -261 -45 -23 0 -23 28 -2 119 28 126 125 288 252 423
80 84 137 127 238 177 63 31 221 91 240 91 2 0 4 -36 4 -80 0 -74 2 -83 26
-107 l26 -26 191 5 c171 4 196 7 234 26 22 12 51 34 63 49 19 24 20 34 14 107
l-7 79 81 -7 c44 -3 114 -15 156 -26z m-34 -672 c14 -48 58 -84 127 -104 75
-22 128 -21 260 7 62 13 115 20 119 17 3 -4 3 -29 -1 -56 l-6 -49 -118 -6
c-65 -4 -169 -14 -232 -23 -223 -31 -287 3 -277 146 3 46 15 82 53 157 l49 98
8 -75 c4 -41 12 -92 18 -112z m-1000 -34 c43 -88 15 -192 -65 -243 -63 -40
-224 -72 -356 -72 -56 0 -107 5 -112 10 -16 16 2 79 28 99 16 13 68 26 161 40
77 12 157 31 181 43 47 23 54 38 74 159 l12 75 29 -35 c16 -19 37 -53 48 -76z
m527 -453 c11 -11 23 -38 27 -61 15 -93 54 -125 184 -151 76 -14 94 -34 111
-119 26 -129 -10 -221 -92 -240 -57 -12 -450 6 -520 24 -153 42 -200 105 -147
204 41 79 58 90 167 117 40 9 76 22 81 28 6 7 20 48 32 92 11 44 31 90 42 103
27 28 86 30 115 3z"/>
</g>
</svg>
