<?xml version="1.0" standalone="no"?>
<!DOCTYPE svg PUBLIC "-//W3C//DTD SVG 20010904//EN"
 "http://www.w3.org/TR/2001/REC-SVG-20010904/DTD/svg10.dtd">
<svg version="1.0" xmlns="http://www.w3.org/2000/svg"
 width="255.000000pt" height="239.000000pt" viewBox="0 0 255.000000 239.000000"
 preserveAspectRatio="xMidYMid meet">
<metadata>
Created by potrace 1.16, written by Peter Selinger 2001-2019
</metadata>
<g transform="translate(0.000000,239.000000) scale(0.100000,-0.100000)"
fill="#000000" stroke="none">
<path d="M1295 2303 c-57 -8 -300 -64 -458 -105 -174 -45 -231 -73 -344 -169
-222 -187 -322 -414 -393 -889 -19 -130 -21 -177 -18 -465 4 -331 11 -388 46
-397 38 -10 145 22 206 61 67 44 134 71 175 71 14 0 85 -21 156 -46 382 -134
546 -186 635 -199 226 -35 594 -5 737 60 90 41 143 101 237 269 161 287 191
368 202 551 15 239 -66 691 -160 892 -38 79 -79 124 -200 215 -99 75 -161 104
-261 123 -138 27 -457 42 -560 28z m582 -166 c77 -22 135 -53 186 -98 42 -36
95 -106 86 -113 -2 -1 -56 -28 -119 -58 -63 -31 -134 -72 -156 -92 -61 -53
-191 -260 -220 -352 -33 -104 -42 -210 -20 -251 37 -72 119 -96 170 -50 25 22
35 52 66 199 12 60 84 184 143 246 47 49 160 77 208 52 60 -33 91 -193 91
-475 1 -433 -64 -622 -253 -745 -117 -76 -326 -121 -569 -122 -164 -1 -203 7
-553 111 -273 82 -386 107 -443 98 -31 -5 -33 -4 -24 13 6 11 38 42 72 70 l62
50 56 -60 c31 -33 59 -60 63 -60 4 0 23 7 42 15 54 22 64 73 38 182 -4 20 3
27 63 54 115 51 216 69 270 49 l28 -11 -31 -31 c-22 -22 -43 -32 -77 -35 -36
-4 -46 -10 -46 -24 0 -28 42 -51 76 -43 82 19 144 72 144 121 0 46 -24 78 -73
98 -58 23 -107 14 -267 -52 -265 -109 -375 -178 -537 -336 -123 -120 -142
-127 -169 -61 -16 38 -19 347 -5 424 13 67 32 78 183 109 77 16 108 46 108
104 0 65 -25 70 -175 38 -49 -11 -91 -18 -94 -16 -7 7 59 252 91 340 112 306
259 475 531 610 147 73 165 77 417 104 223 24 550 23 637 -2z m311 -296 c12
-7 45 -111 38 -118 -2 -2 -32 -8 -66 -14 -35 -5 -79 -17 -99 -25 -70 -29 -216
-194 -255 -289 -9 -21 -21 -77 -25 -123 -11 -105 -31 -124 -85 -81 -23 18 -26
28 -26 78 0 202 197 487 389 562 49 19 108 24 129 10z"/>
<path d="M883 1767 c-245 -224 -293 -283 -293 -356 0 -58 70 -94 131 -68 38
16 113 92 154 157 50 79 192 406 181 417 -2 3 -80 -65 -173 -150z m2 -114 c-3
-16 -20 -56 -37 -91 -34 -68 -126 -162 -159 -162 -10 0 -19 2 -19 5 0 2 14 34
32 69 31 63 32 64 65 59 50 -8 66 11 59 67 -6 42 -4 47 21 62 39 24 46 22 38
-9z"/>
</g>
</svg>
