<?xml version="1.0" standalone="no"?>
<!DOCTYPE svg PUBLIC "-//W3C//DTD SVG 20010904//EN"
 "http://www.w3.org/TR/2001/REC-SVG-20010904/DTD/svg10.dtd">
<svg version="1.0" xmlns="http://www.w3.org/2000/svg"
 width="255.000000pt" height="239.000000pt" viewBox="0 0 255.000000 239.000000"
 preserveAspectRatio="xMidYMid meet">
<metadata>
Created by potrace 1.16, written by Peter Selinger 2001-2019
</metadata>
<g transform="translate(0.000000,239.000000) scale(0.100000,-0.100000)"
fill="#000000" stroke="none">
<path d="M1490 2299 c-41 -5 -145 -22 -230 -38 -85 -17 -198 -35 -250 -42
-177 -21 -265 -51 -382 -130 -239 -163 -376 -404 -437 -772 -30 -177 -60 -420
-73 -589 -12 -152 -11 -167 26 -443 12 -88 17 -102 42 -123 40 -35 95 -26 238
36 l117 51 90 -10 c51 -6 153 -29 236 -55 290 -88 446 -104 923 -93 l236 5 75
36 c164 78 303 269 354 488 17 76 20 416 5 620 -14 185 -85 637 -115 726 -74
221 -207 306 -522 333 -135 12 -225 12 -333 0z m408 -104 c28 -9 73 -33 99
-54 50 -39 201 -227 191 -237 -3 -3 -111 14 -239 38 -324 58 -411 59 -679 1
-107 -23 -231 -49 -275 -57 -105 -20 -191 -65 -262 -137 -89 -89 -116 -143
-192 -385 -77 -244 -83 -282 -107 -608 -13 -182 -14 -245 -5 -308 13 -96 3
-122 -58 -156 -31 -18 -53 -22 -93 -20 l-53 3 -7 55 c-3 30 -10 138 -13 240
-23 582 120 999 446 1303 129 121 263 195 429 237 65 16 452 80 570 93 87 10
200 6 248 -8z m-63 -287 c29 -10 44 -22 56 -48 27 -56 31 -104 13 -150 -19
-46 -55 -74 -180 -139 -140 -72 -163 -111 -164 -273 0 -48 -5 -98 -11 -111
-14 -32 -49 -47 -103 -47 -60 0 -110 23 -143 66 -22 29 -64 54 -202 122 -263
129 -331 204 -303 341 21 102 57 130 195 156 51 9 148 30 217 46 69 16 170 35
225 43 118 17 341 14 400 -6z m290 -67 c108 -50 160 -123 192 -272 15 -72 18
-133 18 -434 -1 -220 -5 -371 -12 -405 -8 -37 -37 -100 -88 -188 -43 -73 -80
-132 -84 -132 -4 0 -29 17 -57 38 -27 21 -82 60 -120 88 -67 49 -72 55 -108
142 -42 100 -93 168 -141 188 -18 7 -72 18 -121 24 -121 14 -183 29 -223 53
-40 24 -71 72 -71 109 l0 27 98 -2 c86 -2 101 1 135 22 56 34 67 58 73 152 3
46 7 99 10 117 8 53 68 110 161 153 144 67 186 125 185 251 -1 37 -6 77 -13
89 -11 21 -10 21 47 15 33 -4 86 -20 119 -35z m-1346 -268 c37 -187 69 -222
256 -282 141 -46 172 -60 198 -89 24 -27 15 -43 -56 -96 -95 -71 -102 -86
-100 -194 4 -134 -2 -142 -128 -184 -109 -35 -160 -70 -200 -135 -20 -31 -22
-48 -20 -118 3 -108 -11 -127 -96 -133 -34 -2 -77 1 -98 8 l-38 12 6 372 c6
441 14 498 96 661 66 131 152 288 156 283 1 -2 12 -49 24 -105z m480 -600 c18
-62 31 -85 65 -120 38 -38 49 -43 89 -43 25 0 79 7 119 15 141 30 184 5 248
-144 54 -127 81 -159 177 -210 91 -48 106 -58 121 -88 18 -33 15 -49 -19 -87
-42 -48 -153 -102 -226 -110 -32 -4 -186 0 -343 8 -237 12 -302 19 -385 40
-94 23 -314 92 -323 100 -2 3 2 15 9 28 7 14 12 54 10 102 -1 68 2 84 24 121
26 45 62 65 119 65 98 0 176 59 195 148 6 29 11 67 11 85 0 50 18 103 46 137
14 16 29 30 33 30 4 0 17 -35 30 -77z"/>
</g>
</svg>
