<?xml version="1.0" standalone="no"?>
<!DOCTYPE svg PUBLIC "-//W3C//DTD SVG 20010904//EN"
 "http://www.w3.org/TR/2001/REC-SVG-20010904/DTD/svg10.dtd">
<svg version="1.0" xmlns="http://www.w3.org/2000/svg"
 width="255.000000pt" height="239.000000pt" viewBox="0 0 255.000000 239.000000"
 preserveAspectRatio="xMidYMid meet">
<metadata>
Created by potrace 1.16, written by Peter Selinger 2001-2019
</metadata>
<g transform="translate(0.000000,239.000000) scale(0.100000,-0.100000)"
fill="#000000" stroke="none">
<path d="M1585 2303 c-196 -22 -662 -87 -710 -99 -33 -8 -102 -35 -153 -60
-250 -121 -440 -430 -503 -819 -7 -43 -13 -279 -16 -607 -5 -519 -4 -538 13
-538 24 0 57 23 116 82 72 71 94 80 212 80 121 0 144 -8 315 -102 139 -76 197
-99 346 -136 208 -50 490 -22 740 75 223 86 381 241 440 431 36 115 30 538
-11 910 -12 112 -24 163 -69 298 -30 90 -70 189 -89 220 -104 170 -267 260
-485 267 -58 2 -124 1 -146 -2z m297 -154 c64 -14 133 -48 172 -85 33 -32 86
-112 86 -132 0 -11 -50 -12 -302 -6 -410 9 -576 -12 -779 -100 -356 -154 -507
-363 -575 -794 -13 -80 -17 -166 -16 -344 l1 -237 -37 -12 c-20 -7 -59 -27
-87 -46 -27 -18 -53 -33 -57 -33 -11 0 -10 337 2 524 17 269 57 422 165 641
112 226 170 312 250 373 82 61 236 140 350 177 182 60 683 104 827 74z m141
-306 l166 -6 20 -56 c55 -149 70 -301 73 -746 3 -337 3 -341 -20 -398 -56
-137 -200 -269 -407 -372 -137 -69 -237 -95 -362 -95 -141 0 -223 22 -476 126
-224 93 -371 146 -438 159 l-34 6 7 292 c6 304 19 423 59 552 65 217 183 354
339 395 25 7 103 36 173 66 112 47 166 62 267 78 45 6 462 6 633 -1z"/>
<path d="M1737 1492 c6 -104 5 -109 -18 -135 -33 -38 -270 -127 -337 -127 -67
0 -130 21 -212 69 -132 79 -157 73 -66 -15 59 -57 124 -84 202 -84 50 0 50 0
57 -150 5 -103 24 -153 67 -175 42 -22 66 -12 93 38 19 37 22 57 22 167 0 69
4 130 8 137 4 6 37 20 74 32 77 23 139 69 159 117 19 44 18 148 -1 184 -8 16
-24 34 -35 40 -19 10 -19 8 -13 -98z"/>
</g>
</svg>
