<?xml version="1.0" standalone="no"?>
<!DOCTYPE svg PUBLIC "-//W3C//DTD SVG 20010904//EN"
 "http://www.w3.org/TR/2001/REC-SVG-20010904/DTD/svg10.dtd">
<svg version="1.0" xmlns="http://www.w3.org/2000/svg"
 width="255.000000pt" height="239.000000pt" viewBox="0 0 255.000000 239.000000"
 preserveAspectRatio="xMidYMid meet">
<metadata>
Created by potrace 1.13, written by Peter Selinger 2001-2015
</metadata>
<g transform="translate(0.000000,239.000000) scale(0.100000,-0.100000)"
fill="#000000" stroke="none">
<path d="M1073 2335 c-204 -37 -283 -60 -395 -115 -313 -155 -449 -366 -502
-780 -41 -317 -59 -568 -60 -825 -1 -143 3 -277 7 -298 l8 -39 98 95 c124 120
145 128 272 98 48 -11 123 -38 166 -59 240 -121 650 -236 884 -249 296 -16
529 128 712 443 69 118 89 198 98 394 4 96 11 240 15 320 7 159 -1 252 -42
465 -29 154 -49 206 -108 289 -60 84 -185 202 -238 226 -62 27 -149 38 -413
50 -126 6 -250 12 -275 15 -26 2 -122 -10 -227 -30z m760 -135 c49 -6 105 -19
125 -29 58 -30 144 -129 191 -220 l13 -23 -74 7 c-40 3 -136 15 -214 26 -325
45 -437 43 -663 -7 -160 -36 -385 -101 -430 -124 -51 -25 -132 -116 -178 -198
-88 -157 -177 -471 -188 -662 -10 -180 -25 -332 -36 -366 -8 -25 -17 -33 -43
-38 -18 -3 -54 -20 -80 -36 -25 -17 -49 -30 -51 -30 -11 0 -4 264 10 393 19
183 71 481 102 586 50 175 162 369 275 477 74 71 141 108 299 162 138 48 234
70 354 81 130 12 485 13 588 1z m7 -289 c265 -3 367 -59 405 -224 26 -114 55
-657 38 -729 l-8 -38 -74 63 c-46 38 -83 78 -95 104 l-21 42 -87 1 c-49 0 -88
-3 -88 -7 1 -22 22 -36 65 -44 100 -19 189 -101 256 -235 l30 -61 -21 -53
c-33 -85 -67 -135 -129 -193 -56 -51 -217 -154 -226 -145 -3 3 -20 101 -38
220 -22 145 -39 224 -51 242 -10 16 -41 38 -69 51 -56 25 -167 43 -167 27 0
-5 37 -29 82 -53 102 -54 124 -84 133 -177 7 -72 33 -268 42 -313 5 -25 1 -28
-49 -47 -61 -23 -227 -42 -364 -42 l-92 0 5 62 c12 174 17 349 12 398 -11 105
-51 149 -141 158 l-53 5 53 -60 c79 -92 86 -116 73 -243 -6 -58 -14 -149 -17
-203 -5 -81 -9 -97 -22 -97 -26 0 -230 56 -295 80 -32 12 -76 39 -98 59 -50
49 -50 69 -2 264 l37 149 -19 36 c-23 41 -85 77 -152 87 -34 5 -43 4 -43 -7 0
-21 40 -54 81 -67 47 -15 73 -44 66 -73 -3 -13 -19 -77 -37 -143 -50 -193 -61
-201 -203 -155 l-97 31 0 77 c0 284 81 695 175 887 60 125 89 149 282 239 90
42 165 76 167 76 2 0 -12 -48 -30 -107 -19 -58 -34 -119 -34 -135 0 -41 24
-83 84 -146 83 -88 161 -117 272 -101 228 32 364 248 295 466 -12 37 -24 73
-27 79 -3 7 12 8 48 3 29 -4 96 -8 148 -8z"/>
<path d="M1842 1668 c-5 -7 -13 -35 -17 -63 -6 -45 -5 -48 9 -32 15 19 32 94
23 103 -2 2 -9 -1 -15 -8z"/>
<path d="M701 1646 c-48 -58 9 -174 67 -138 19 13 26 75 12 116 -10 30 -16 36
-40 36 -15 0 -33 -6 -39 -14z"/>
<path d="M860 1401 c-5 -11 -10 -34 -10 -51 0 -66 29 -83 99 -59 33 12 38 27
20 62 -33 63 -88 87 -109 48z"/>
<path d="M1582 1387 c-43 -46 -41 -132 3 -143 31 -8 99 30 114 63 16 36 14 51
-14 78 -31 32 -74 33 -103 2z"/>
<path d="M1240 1266 c0 -7 92 -68 96 -63 6 6 -53 51 -78 60 -10 4 -18 5 -18 3z"/>
</g>
</svg>
