<?xml version="1.0" standalone="no"?>
<!DOCTYPE svg PUBLIC "-//W3C//DTD SVG 20010904//EN"
 "http://www.w3.org/TR/2001/REC-SVG-20010904/DTD/svg10.dtd">
<svg version="1.0" xmlns="http://www.w3.org/2000/svg"
 width="255.000000pt" height="239.000000pt" viewBox="0 0 255.000000 239.000000"
 preserveAspectRatio="xMidYMid meet">
<metadata>
Created by potrace 1.16, written by Peter Selinger 2001-2019
</metadata>
<g transform="translate(0.000000,239.000000) scale(0.100000,-0.100000)"
fill="#000000" stroke="none">
<path d="M1378 2290 c-144 -18 -437 -73 -508 -96 -88 -27 -160 -69 -308 -179
-148 -110 -210 -174 -259 -270 -80 -156 -129 -332 -173 -630 -16 -104 -36
-233 -45 -285 -9 -57 -16 -172 -18 -290 -2 -178 0 -199 18 -235 13 -26 33 -46
57 -58 50 -25 82 -14 172 58 58 47 75 55 110 55 56 0 143 -24 246 -67 87 -36
408 -150 560 -198 115 -37 313 -46 440 -20 155 31 435 148 537 223 59 44 118
121 143 189 55 146 75 440 61 923 -10 353 -21 432 -77 541 -57 114 -175 197
-379 269 -180 63 -411 91 -577 70z m432 -204 c41 -10 47 -16 74 -69 26 -51 29
-69 30 -157 0 -54 -2 -102 -6 -105 -4 -4 -21 4 -38 19 -22 18 -43 26 -68 26
l-37 0 48 -44 c55 -51 60 -81 26 -149 -49 -95 -142 -187 -166 -164 -3 3 1 37
7 75 17 93 7 157 -31 194 -16 16 -33 27 -38 24 -5 -3 -4 -28 1 -58 22 -120 -4
-264 -56 -307 -20 -17 -101 -27 -109 -14 -3 5 5 36 18 69 40 97 29 201 -27
261 -23 25 -53 31 -45 11 23 -63 39 -159 33 -200 -14 -96 -83 -158 -175 -158
-31 0 -61 4 -68 8 -9 6 2 35 37 107 56 113 79 199 64 242 -9 27 -78 72 -91 59
-3 -3 5 -41 17 -85 29 -100 22 -130 -53 -221 -76 -93 -91 -99 -162 -66 l-57
26 22 27 c74 96 120 194 120 255 0 44 -28 88 -65 104 -19 8 -36 14 -39 14 -2
0 2 -24 10 -52 21 -80 17 -126 -15 -195 -48 -100 -114 -123 -156 -53 -18 31
-20 50 -18 157 3 139 23 241 57 294 16 23 48 48 92 71 87 46 138 60 244 68
117 10 565 0 620 -14z m227 -51 c55 -28 79 -58 136 -171 86 -172 112 -289 112
-509 0 -224 -15 -619 -26 -685 -35 -210 -267 -408 -555 -476 -91 -21 -284 -21
-389 1 -86 18 -267 86 -488 184 -157 69 -235 93 -365 112 -105 15 -136 7 -153
-38 -22 -58 -92 -109 -135 -99 -21 6 -24 12 -24 59 0 93 29 346 49 425 24 95
54 248 81 412 46 276 99 364 364 599 62 56 116 101 120 101 3 0 3 -12 1 -27
-61 -360 -60 -389 16 -484 78 -99 211 -151 430 -169 406 -33 656 99 745 395
23 77 24 255 2 338 -16 57 -16 57 6 57 12 0 45 -11 73 -25z"/>
<path d="M1895 1281 c-74 -34 -105 -85 -105 -175 0 -76 28 -110 83 -103 48 7
93 47 133 120 31 57 38 133 15 160 -18 22 -76 21 -126 -2z"/>
<path d="M562 1203 c-77 -38 -111 -131 -77 -218 9 -25 25 -50 35 -55 50 -27
168 1 216 51 58 61 23 174 -68 218 -53 25 -63 26 -106 4z"/>
<path d="M1292 729 c-109 -55 -123 -212 -22 -251 60 -23 169 42 194 116 16 48
7 82 -33 120 -39 37 -86 42 -139 15z"/>
</g>
</svg>
