<?xml version="1.0" standalone="no"?>
<!DOCTYPE svg PUBLIC "-//W3C//DTD SVG 20010904//EN"
 "http://www.w3.org/TR/2001/REC-SVG-20010904/DTD/svg10.dtd">
<svg version="1.0" xmlns="http://www.w3.org/2000/svg"
 width="255.000000pt" height="239.000000pt" viewBox="0 0 255.000000 239.000000"
 preserveAspectRatio="xMidYMid meet">
<metadata>
Created by potrace 1.16, written by Peter Selinger 2001-2019
</metadata>
<g transform="translate(0.000000,239.000000) scale(0.100000,-0.100000)"
fill="#000000" stroke="none">
<path d="M1210 2255 c-509 -108 -676 -193 -803 -410 -143 -244 -258 -770 -257
-1178 1 -200 36 -326 102 -367 42 -26 62 -25 183 5 117 29 170 31 291 10 118
-21 230 -55 392 -121 239 -97 554 -137 770 -99 110 19 184 59 270 149 137 142
217 331 258 610 21 140 15 545 -10 701 -65 402 -218 579 -593 681 -236 64
-372 68 -603 19z m418 -126 c172 -21 429 -165 536 -299 32 -39 75 -145 64
-155 -2 -3 -45 13 -94 35 -133 57 -313 115 -449 145 -207 46 -401 44 -590 -6
-244 -64 -447 -252 -585 -542 -102 -215 -164 -527 -102 -515 12 2 19 24 28 79
6 42 19 102 29 135 16 57 97 278 130 358 l16 39 42 -41 c49 -48 82 -62 143
-62 102 0 207 101 243 236 8 29 8 64 0 124 -16 129 12 171 89 133 57 -28 67
-68 54 -221 -17 -199 -56 -257 -201 -307 -119 -40 -182 -90 -220 -175 -43 -95
-21 -193 69 -305 47 -57 47 -72 9 -172 -13 -34 -21 -65 -17 -68 12 -13 88 36
104 67 33 63 18 122 -65 263 -34 57 -41 79 -41 121 0 74 27 108 133 165 164
89 232 152 284 265 23 50 28 75 31 164 2 69 -2 123 -11 158 -10 38 -11 54 -3
60 27 17 224 13 351 -7 147 -23 514 -140 584 -186 78 -52 96 -147 96 -515 0
-267 -1 -278 -28 -394 -51 -215 -103 -321 -201 -414 -100 -94 -207 -132 -378
-132 -130 0 -280 27 -421 76 -211 74 -306 104 -443 138 -167 43 -292 48 -409
17 -38 -10 -76 -16 -82 -14 -10 4 -13 59 -13 231 0 488 33 651 212 1050 89
198 92 204 157 264 50 45 98 76 196 124 183 89 260 104 500 98 99 -3 213 -10
253 -15z"/>
</g>
</svg>
