<?xml version="1.0" standalone="no"?>
<!DOCTYPE svg PUBLIC "-//W3C//DTD SVG 20010904//EN"
 "http://www.w3.org/TR/2001/REC-SVG-20010904/DTD/svg10.dtd">
<svg version="1.0" xmlns="http://www.w3.org/2000/svg"
 width="255.000000pt" height="239.000000pt" viewBox="0 0 255.000000 239.000000"
 preserveAspectRatio="xMidYMid meet">
<metadata>
Created by potrace 1.16, written by Peter Selinger 2001-2019
</metadata>
<g transform="translate(0.000000,239.000000) scale(0.100000,-0.100000)"
fill="#000000" stroke="none">
<path d="M1023 2330 c-303 -43 -396 -74 -524 -174 -154 -121 -248 -301 -334
-643 -56 -225 -75 -377 -74 -611 1 -521 20 -564 212 -485 81 33 102 38 172 38
75 -1 90 -5 246 -67 200 -80 331 -135 459 -193 91 -41 101 -44 245 -55 341
-26 627 45 754 187 91 102 167 282 207 488 20 105 21 222 5 610 -10 249 -13
279 -41 383 -71 270 -208 413 -460 481 -148 40 -309 62 -490 66 -153 4 -200 1
-377 -25z m470 -85 c349 -46 584 -189 702 -428 48 -98 71 -189 77 -301 l3 -69
-98 -29 c-209 -60 -257 -112 -278 -295 -19 -169 -62 -232 -208 -302 -73 -34
-80 -36 -176 -35 -79 1 -151 13 -340 53 -275 59 -316 71 -377 111 -55 36 -73
70 -99 185 -39 173 -81 201 -284 193 -69 -3 -125 -2 -125 2 0 24 77 258 112
340 198 468 539 647 1091 575z m792 -1027 c-22 -445 -81 -656 -224 -799 -66
-66 -156 -119 -230 -134 l-33 -7 6 38 c3 22 9 91 12 155 6 108 -2 187 -32 295
-4 17 2 26 33 44 51 31 101 79 120 114 9 17 17 67 19 125 3 53 7 111 10 129
13 84 151 170 277 171 l48 1 -6 -132z m-1720 26 c40 -19 59 -56 75 -144 16
-88 31 -121 81 -175 42 -46 107 -86 160 -99 l27 -6 -5 -187 c-3 -104 -7 -190
-9 -191 -1 -2 -49 14 -106 36 -223 86 -306 92 -473 38 -60 -19 -113 -32 -117
-28 -14 14 -28 114 -28 201 0 47 9 166 19 264 17 152 23 184 45 221 30 51 37
55 131 71 99 18 162 18 200 -1z m566 -480 c35 -18 49 -61 49 -148 0 -123 -39
-240 -85 -256 -36 -13 -82 8 -106 47 -19 30 -24 55 -27 132 -4 82 10 219 25
245 7 11 112 -3 144 -20z m592 -51 c36 -85 49 -191 36 -300 -19 -171 -71 -197
-176 -87 -72 75 -87 121 -80 234 6 102 21 142 57 152 14 3 48 13 75 21 70 21
70 21 88 -20z m-316 1 c28 -4 33 -10 39 -40 3 -19 2 -82 -2 -139 -5 -58 -6
-116 -3 -129 4 -14 28 -51 54 -83 l47 -58 -29 -6 c-47 -9 -169 8 -255 37 -65
21 -78 29 -72 43 45 108 47 118 52 251 l4 136 67 -3 c36 -2 80 -6 98 -9z"/>
<path d="M1172 2018 c-19 -6 -55 -31 -82 -55 -78 -70 -101 -168 -57 -253 31
-63 92 -92 203 -98 71 -4 89 -1 136 20 113 52 167 127 168 230 0 50 -4 62 -30
92 -17 18 -49 42 -73 51 -51 21 -217 29 -265 13z m202 -76 c3 -5 -8 -22 -25
-38 -28 -26 -76 -104 -65 -104 3 0 24 27 47 60 44 64 67 77 98 60 53 -28 69
-115 30 -164 -27 -34 -90 -66 -133 -68 -50 -2 -59 8 -53 61 l5 46 -21 -30
c-12 -16 -31 -40 -42 -52 -19 -22 -21 -22 -43 -5 l-23 18 52 87 c48 81 79 115
119 130 23 8 48 8 54 -1z"/>
</g>
</svg>
