<?xml version="1.0" standalone="no"?>
<!DOCTYPE svg PUBLIC "-//W3C//DTD SVG 20010904//EN"
 "http://www.w3.org/TR/2001/REC-SVG-20010904/DTD/svg10.dtd">
<svg version="1.0" xmlns="http://www.w3.org/2000/svg"
 width="255.000000pt" height="239.000000pt" viewBox="0 0 255.000000 239.000000"
 preserveAspectRatio="xMidYMid meet">
<metadata>
Created by potrace 1.16, written by Peter Selinger 2001-2019
</metadata>
<g transform="translate(0.000000,239.000000) scale(0.100000,-0.100000)"
fill="#000000" stroke="none">
<path d="M1615 2323 c-324 -21 -823 -143 -1009 -247 -273 -153 -405 -426 -461
-956 -37 -354 -37 -489 1 -790 30 -240 34 -244 160 -163 49 31 112 65 139 76
91 35 278 21 416 -33 50 -20 328 -95 464 -126 90 -20 190 -17 337 11 227 44
362 97 479 189 215 169 325 643 250 1080 -23 133 -79 344 -126 476 -65 180
-168 325 -286 400 -90 58 -235 91 -364 83z m230 -215 c28 -15 73 -50 102 -80
51 -53 133 -164 133 -180 0 -11 -99 -10 -287 4 -269 20 -543 -8 -808 -82 -131
-37 -217 -76 -356 -162 -108 -67 -248 -142 -255 -136 -1 2 12 40 30 85 114
277 298 453 548 523 95 27 535 60 743 56 86 -2 107 -6 150 -28z m-14 -332
c192 -1 194 -1 241 -28 25 -15 55 -42 66 -60 36 -59 112 -478 112 -620 l0 -68
-135 0 c-214 0 -246 -26 -220 -177 5 -35 3 -40 -20 -53 -63 -34 -83 -125 -45
-209 11 -23 52 -76 91 -116 l71 -74 -72 -47 c-293 -189 -520 -199 -956 -44
-260 93 -323 110 -415 110 -107 0 -162 -21 -231 -90 l-57 -57 -17 41 c-16 36
-17 74 -15 336 l3 295 45 155 c57 197 106 304 170 368 48 48 154 109 171 98 5
-3 12 -32 16 -64 4 -31 16 -73 27 -91 19 -31 23 -33 64 -29 52 6 55 2 55 -83
0 -70 20 -116 55 -125 36 -9 87 12 109 45 17 25 23 27 45 20 14 -5 48 -13 75
-18 65 -12 81 4 91 94 12 116 28 154 101 235 75 83 94 120 94 184 0 25 5 48
12 52 30 19 128 32 199 27 42 -3 163 -6 270 -7z m-542 -30 c28 -33 -19 -154
-72 -186 -33 -21 -82 -26 -106 -11 -11 7 -11 15 -1 46 12 35 10 80 -5 116 -4
12 7 19 57 31 82 20 113 21 127 4z m-249 -38 c11 -18 20 -44 20 -59 0 -37 -47
-126 -80 -149 -31 -22 -80 -26 -98 -8 -33 33 4 176 59 227 35 32 75 28 99 -11z
m-220 -116 c0 -20 -4 -53 -10 -71 -10 -37 -66 -101 -87 -101 -18 0 -36 38 -29
65 3 12 1 37 -5 54 -14 38 0 53 71 75 62 20 60 21 60 -22z m299 -149 c29 -36
35 -66 21 -107 -19 -59 -86 -94 -127 -68 -16 10 7 161 31 197 19 29 40 24 75
-22z m-150 -39 c9 -8 -31 -131 -55 -166 -29 -46 -48 -48 -69 -8 -20 39 -31
141 -17 167 9 17 19 19 74 15 35 -2 65 -6 67 -8z m1218 -450 c13 -8 28 -26 33
-40 6 -14 14 -22 20 -19 13 8 13 -98 -1 -150 -14 -56 -30 -95 -39 -95 -3 0
-52 27 -108 61 -118 70 -156 109 -147 148 17 71 99 126 174 117 25 -4 55 -13
68 -22z m-172 -257 c17 -12 58 -46 90 -75 l57 -52 -37 -55 c-21 -30 -48 -64
-61 -76 l-23 -22 -45 27 c-51 30 -120 125 -130 180 -18 93 63 132 149 73z"/>
<path d="M712 845 c-12 -9 -33 -35 -47 -59 -13 -23 -35 -52 -48 -64 -22 -21
-24 -21 -55 -4 -17 9 -58 40 -91 69 -47 42 -61 50 -70 39 -12 -15 -1 -27 92
-94 78 -58 77 -78 -15 -183 -47 -55 -59 -79 -37 -79 13 0 90 77 129 129 l25
33 40 -57 c37 -55 85 -95 113 -95 24 0 11 27 -29 60 -23 18 -54 53 -70 78
l-28 45 31 43 c17 24 53 68 80 99 46 50 48 55 26 55 -13 0 -33 -7 -46 -15z"/>
</g>
</svg>
