<?xml version="1.0" standalone="no"?>
<!DOCTYPE svg PUBLIC "-//W3C//DTD SVG 20010904//EN"
 "http://www.w3.org/TR/2001/REC-SVG-20010904/DTD/svg10.dtd">
<svg version="1.0" xmlns="http://www.w3.org/2000/svg"
 width="255.000000pt" height="239.000000pt" viewBox="0 0 255.000000 239.000000"
 preserveAspectRatio="xMidYMid meet">
<metadata>
Created by potrace 1.16, written by Peter Selinger 2001-2019
</metadata>
<g transform="translate(0.000000,239.000000) scale(0.100000,-0.100000)"
fill="#000000" stroke="none">
<path d="M1430 2294 c-14 -2 -79 -11 -145 -20 -248 -33 -439 -84 -570 -152
-128 -67 -284 -240 -368 -407 -45 -90 -86 -224 -143 -459 -119 -498 -137 -615
-114 -742 43 -234 86 -269 247 -203 104 44 140 39 414 -61 234 -85 340 -110
468 -110 42 0 144 -9 226 -20 248 -33 392 -24 565 35 88 30 150 68 212 132
165 169 216 419 221 1076 2 218 0 261 -16 317 -44 154 -140 325 -227 403 -125
113 -386 198 -645 211 -55 2 -111 3 -125 0z m104 -232 c-2 -125 -10 -136 -110
-150 -84 -11 -116 -5 -133 27 -17 32 -13 108 9 150 35 69 42 72 144 69 l91 -3
-1 -93z m354 47 c198 -50 325 -187 382 -412 20 -81 44 -316 38 -377 -3 -31 -6
-35 -53 -47 -76 -19 -104 -17 -109 10 -3 12 -7 90 -9 172 -4 175 -23 239 -90
313 -62 66 -120 91 -271 114 -72 11 -132 21 -133 22 -2 2 5 55 14 120 l16 117
71 -7 c39 -4 104 -15 144 -25z m-691 -50 c-7 -82 -36 -150 -77 -179 -15 -11
-63 -27 -106 -35 -197 -38 -248 -72 -390 -262 -86 -113 -133 -153 -183 -153
-20 0 -19 3 10 88 126 356 366 572 669 602 41 4 77 8 79 9 2 0 1 -31 -2 -70z
m565 -252 c138 -36 212 -72 257 -124 62 -69 65 -95 58 -427 -7 -301 -35 -596
-73 -775 -3 -15 24 29 59 96 93 173 190 313 219 313 13 0 9 -113 -8 -201 -33
-176 -110 -318 -203 -378 -58 -38 -92 -38 -102 -1 -4 14 -7 20 -8 13 -2 -24
-62 -81 -102 -97 -100 -40 -306 -39 -497 3 -48 11 -253 73 -457 140 -391 127
-438 140 -497 141 -21 0 -38 3 -38 8 0 93 93 504 153 677 50 143 115 303 142
351 61 105 219 204 397 249 145 36 224 44 423 41 156 -3 193 -7 277 -29z
m-1278 -514 c-15 -66 -43 -114 -74 -127 -40 -17 -82 -10 -76 13 2 9 12 42 21
74 l16 59 37 -6 c20 -4 44 -2 52 4 25 16 31 12 24 -17z m1826 -223 l0 -120
-85 0 -85 0 0 103 0 103 83 16 c45 8 83 16 85 17 1 0 2 -53 2 -119z m-1920
-92 c-7 -51 -21 -131 -32 -178 -10 -47 -27 -130 -37 -185 -20 -112 -31 -141
-62 -150 -38 -13 -42 5 -36 197 5 200 16 253 66 328 26 39 99 95 110 85 2 -3
-2 -46 -9 -97z"/>
<path d="M1217 1606 c-131 -38 -209 -102 -247 -203 -24 -63 -25 -101 -6 -147
21 -50 60 -76 116 -76 47 0 155 29 197 53 38 21 8 43 -69 50 -80 7 -123 27
-132 61 -19 76 79 142 229 153 125 10 242 -42 285 -126 30 -60 28 -150 -5
-189 -30 -36 -54 -46 -175 -72 -120 -26 -186 -58 -243 -119 -56 -60 -68 -105
-40 -153 16 -28 30 -36 105 -58 47 -14 97 -32 109 -41 24 -16 23 -17 -66 -44
-116 -35 -141 -49 -160 -85 -21 -41 -19 -62 12 -106 15 -21 39 -61 54 -88 l27
-49 31 31 c42 42 41 77 -5 130 -19 23 -33 46 -30 51 4 5 21 12 39 16 79 16
127 38 157 71 63 72 25 130 -105 164 -85 22 -120 74 -76 114 10 9 74 34 142
55 68 21 140 45 159 53 63 28 117 75 140 123 62 128 -40 349 -193 416 -64 27
-181 34 -250 15z"/>
</g>
</svg>
