<?xml version="1.0" standalone="no"?>
<!DOCTYPE svg PUBLIC "-//W3C//DTD SVG 20010904//EN"
 "http://www.w3.org/TR/2001/REC-SVG-20010904/DTD/svg10.dtd">
<svg version="1.0" xmlns="http://www.w3.org/2000/svg"
 width="255.000000pt" height="239.000000pt" viewBox="0 0 255.000000 239.000000"
 preserveAspectRatio="xMidYMid meet">
<metadata>
Created by potrace 1.16, written by Peter Selinger 2001-2019
</metadata>
<g transform="translate(0.000000,239.000000) scale(0.100000,-0.100000)"
fill="#000000" stroke="none">
<path d="M1485 2338 c-376 -15 -667 -92 -869 -229 -160 -108 -210 -152 -260
-227 -100 -151 -208 -403 -242 -567 -24 -113 -29 -403 -10 -603 9 -95 16 -204
16 -242 0 -88 15 -161 48 -228 30 -62 68 -97 119 -111 56 -16 100 1 217 79 56
39 111 70 121 70 23 0 128 -31 290 -85 162 -55 258 -75 405 -84 280 -17 521
33 696 144 174 110 279 248 350 457 l38 113 -1 170 c0 94 -6 215 -12 270 -16
133 -86 486 -112 566 -82 251 -265 440 -475 492 -82 21 -134 23 -319 15z m195
-148 c11 -6 31 -30 44 -53 70 -118 74 -314 12 -495 -67 -195 -61 -227 46 -257
35 -9 74 -23 88 -30 24 -12 23 -13 -40 -45 -122 -60 -133 -89 -79 -203 39 -85
53 -176 46 -312 -9 -183 -64 -318 -177 -438 l-58 -62 5 103 6 103 -46 44 c-53
50 -56 45 59 103 83 42 109 75 124 159 21 118 -13 184 -113 217 -118 39 -171
16 -305 -136 -78 -89 -108 -117 -133 -122 -17 -3 -164 -6 -326 -6 -248 0 -315
-3 -430 -21 -158 -24 -178 -21 -189 36 -11 58 1 247 16 272 15 23 34 32 107
52 41 11 83 50 83 77 0 7 -10 25 -23 40 -18 21 -35 28 -75 32 -49 4 -52 6 -52
32 0 55 41 186 85 267 43 82 149 227 195 268 l23 20 -7 -20 c-14 -48 -26 -133
-26 -192 0 -73 18 -121 60 -156 l27 -23 -18 -45 c-40 -99 -16 -226 53 -284
134 -113 304 -103 439 27 72 69 104 142 104 241 l0 78 57 50 c74 64 133 154
159 241 32 103 24 232 -21 346 -17 46 -30 85 -28 87 1 2 48 8 103 13 108 11
175 8 205 -8z m136 -15 c154 -68 286 -191 353 -327 71 -145 97 -282 107 -578
13 -340 -38 -578 -160 -762 -100 -151 -285 -258 -447 -258 l-41 0 44 48 c119
133 194 418 168 639 -10 83 -30 173 -55 248 -5 18 2 24 57 43 72 26 90 38 107
70 27 51 -15 103 -108 133 -36 12 -70 25 -74 29 -9 8 22 199 54 328 l20 83
-25 77 c-14 42 -33 109 -41 147 -9 39 -18 78 -21 88 -7 22 -5 22 62 -8z m-510
-21 c98 -104 98 -366 -1 -515 -57 -88 -147 -128 -353 -159 l-140 -21 -71 21
c-84 25 -127 58 -134 102 -6 44 29 241 54 298 35 78 54 91 279 185 69 29 152
68 185 88 83 51 134 51 181 1z m-143 -770 c5 -47 2 -65 -16 -100 l-22 -44 -55
37 c-66 45 -100 47 -163 10 -68 -40 -83 -67 -70 -125 5 -26 14 -55 18 -65 7
-16 4 -17 -21 -11 -37 9 -104 42 -128 63 -29 26 -56 87 -56 128 0 54 43 141
72 148 26 6 127 10 309 13 l126 2 6 -56z m-118 -140 c32 -32 -7 -103 -72 -130
-54 -23 -61 -19 -73 43 -12 56 -12 58 14 80 33 28 106 32 131 7z m580 -307
c33 -28 43 -88 23 -137 -11 -27 -34 -46 -108 -91 -78 -46 -98 -64 -119 -103
l-26 -47 32 -27 c17 -15 41 -34 53 -42 18 -13 22 -26 23 -75 2 -78 -22 -122
-83 -152 -84 -43 -218 -29 -516 56 -211 60 -295 73 -384 61 -86 -11 -91 -13
-140 -71 -49 -59 -76 -63 -114 -18 -37 43 -56 93 -56 144 l0 43 56 4 c43 4 61
11 81 31 26 25 27 26 52 8 97 -67 183 -38 239 82 17 34 33 70 36 80 5 15 13
17 58 10 29 -4 134 -8 233 -8 234 0 250 6 367 143 102 118 124 132 205 132 50
0 67 -4 88 -23z m-1005 -249 c0 -26 -43 -99 -70 -118 -39 -28 -85 -26 -115 5
-40 39 -28 86 28 110 40 18 157 20 157 3z m-260 -53 c-17 -75 -58 -107 -113
-86 -28 11 -47 45 -47 86 0 30 10 33 96 34 l72 1 -8 -35z"/>
<path d="M1005 1877 c-179 -142 -225 -189 -225 -233 0 -63 59 -26 231 145 144
144 214 232 182 231 -5 -1 -89 -65 -188 -143z"/>
</g>
</svg>
