<?xml version="1.0" standalone="no"?>
<!DOCTYPE svg PUBLIC "-//W3C//DTD SVG 20010904//EN"
 "http://www.w3.org/TR/2001/REC-SVG-20010904/DTD/svg10.dtd">
<svg version="1.0" xmlns="http://www.w3.org/2000/svg"
 width="255.000000pt" height="239.000000pt" viewBox="0 0 255.000000 239.000000"
 preserveAspectRatio="xMidYMid meet">
<metadata>
Created by potrace 1.16, written by Peter Selinger 2001-2019
</metadata>
<g transform="translate(0.000000,239.000000) scale(0.100000,-0.100000)"
fill="#000000" stroke="none">
<path d="M1205 2333 c-166 -19 -321 -60 -442 -114 -260 -117 -485 -376 -576
-664 -68 -215 -98 -596 -89 -1133 l2 -163 23 6 c12 4 69 27 126 52 172 76 249
72 466 -22 145 -63 252 -98 371 -121 73 -14 126 -15 299 -11 234 7 317 17 444
53 191 55 323 142 429 284 91 120 145 245 182 420 18 87 24 313 11 445 -13
137 -82 495 -111 579 -82 238 -265 353 -615 386 -102 9 -451 12 -520 3z m460
-173 c193 -22 340 -73 420 -144 36 -32 37 -36 15 -31 -193 39 -489 56 -655 36
-123 -14 -425 -75 -499 -101 -123 -42 -189 -83 -277 -170 -64 -64 -95 -105
-126 -165 -37 -72 -157 -427 -197 -580 -19 -76 -36 -250 -36 -380 0 -116 -10
-162 -45 -199 -46 -50 -105 -24 -105 48 0 23 11 97 24 166 14 69 29 177 36
240 36 376 84 569 195 791 131 261 328 401 650 463 174 34 431 45 600 26z
m247 -205 c98 -20 225 -84 287 -144 61 -59 107 -149 120 -233 5 -34 13 -187
16 -338 8 -313 3 -356 -61 -482 -114 -228 -213 -315 -417 -368 -107 -27 -202
-38 -407 -46 -197 -7 -205 -6 -503 80 -227 65 -338 82 -440 69 -45 -6 -90 -14
-100 -18 -19 -8 -19 -1 4 305 24 318 84 584 172 755 59 116 173 228 287 283
106 52 154 62 470 106 140 19 266 37 280 39 62 10 225 6 292 -8z"/>
<path d="M1516 1803 c-13 -59 -25 -181 -26 -249 -1 -193 -98 -297 -343 -368
-128 -37 -189 -44 -304 -36 -57 4 -120 4 -140 0 -43 -7 -83 -27 -83 -39 0 -17
185 -23 306 -9 65 7 164 13 219 13 114 0 165 -19 208 -77 56 -74 62 -112 59
-368 -2 -235 -2 -235 17 -210 36 45 41 94 29 236 -14 161 -4 219 50 293 59 81
70 83 316 79 178 -2 216 -1 231 12 16 13 0 16 -166 20 -184 5 -185 5 -251 38
-75 37 -122 84 -139 141 -10 33 -7 61 16 186 26 143 47 342 38 358 -10 17 -32
5 -37 -20z m-47 -583 c8 -26 24 -49 49 -67 20 -15 39 -29 42 -31 3 -2 -4 -10
-15 -18 -11 -8 -41 -35 -66 -60 l-46 -45 -48 66 c-30 42 -58 71 -76 77 l-29
10 46 42 c91 80 125 87 143 26z"/>
<path d="M1005 1713 c-66 -14 -95 -44 -95 -97 0 -39 37 -76 75 -76 51 0 82 16
101 51 22 43 5 105 -32 119 -14 6 -26 9 -27 9 -1 -1 -11 -3 -22 -6z"/>
<path d="M1812 1650 c-48 -20 -52 -107 -6 -167 47 -62 120 -50 151 25 19 45
11 88 -24 124 -28 30 -74 36 -121 18z"/>
<path d="M815 847 c-51 -51 -59 -152 -15 -192 43 -39 181 20 204 88 14 40 -14
91 -63 117 -57 29 -87 26 -126 -13z"/>
<path d="M1739 762 c-78 -79 -77 -137 4 -165 60 -20 87 -7 104 52 21 73 -8
161 -53 161 -4 0 -28 -22 -55 -48z"/>
</g>
</svg>
