<?xml version="1.0" standalone="no"?>
<!DOCTYPE svg PUBLIC "-//W3C//DTD SVG 20010904//EN"
 "http://www.w3.org/TR/2001/REC-SVG-20010904/DTD/svg10.dtd">
<svg version="1.0" xmlns="http://www.w3.org/2000/svg"
 width="255.000000pt" height="239.000000pt" viewBox="0 0 255.000000 239.000000"
 preserveAspectRatio="xMidYMid meet">
<metadata>
Created by potrace 1.16, written by Peter Selinger 2001-2019
</metadata>
<g transform="translate(0.000000,239.000000) scale(0.100000,-0.100000)"
fill="#000000" stroke="none">
<path d="M1395 2335 c-49 -7 -144 -16 -210 -20 -147 -9 -243 -38 -431 -130
-168 -83 -236 -129 -316 -213 -103 -109 -133 -180 -231 -537 -98 -358 -105
-386 -117 -519 -22 -222 44 -711 102 -759 29 -24 55 -17 148 40 145 89 193
113 235 113 60 0 281 -36 392 -64 264 -66 311 -71 658 -69 193 2 340 7 370 14
201 46 375 257 447 546 31 123 31 334 -1 523 -34 205 -110 567 -133 635 -41
126 -124 244 -208 297 -25 16 -87 42 -138 58 -89 29 -429 101 -462 99 -8 -1
-55 -7 -105 -14z m364 -171 c151 -31 285 -101 354 -185 35 -44 97 -162 97
-187 0 -8 -13 -4 -37 12 -89 58 -285 93 -568 103 -273 9 -492 -21 -694 -93
-114 -40 -177 -81 -265 -170 -131 -132 -189 -260 -246 -544 -34 -169 -35 -200
-4 -470 18 -160 18 -234 -1 -270 -15 -30 -128 -105 -144 -96 -16 10 -22 248
-12 496 9 230 12 259 56 479 25 129 57 262 69 297 88 243 333 494 552 566 242
80 619 108 843 62z m151 -320 c168 -35 314 -139 357 -254 44 -118 54 -563 18
-788 -29 -174 -84 -303 -158 -368 -51 -45 -214 -118 -327 -146 -109 -28 -332
-34 -485 -14 -66 9 -235 41 -375 72 -159 35 -290 58 -346 61 l-92 6 -26 164
c-15 91 -30 209 -33 263 -23 378 170 764 450 900 143 69 187 77 632 111 83 6
152 13 155 16 8 7 150 -7 230 -23z"/>
<path d="M1267 1315 c-83 -21 -174 -112 -184 -183 -8 -60 4 -108 38 -147 71
-81 245 -79 333 3 82 77 72 184 -26 279 -53 51 -97 64 -161 48z m121 -65 c91
-56 99 -204 13 -250 -35 -18 -144 -30 -183 -19 -86 23 -105 146 -35 226 56 64
141 82 205 43z"/>
</g>
</svg>
