<?xml version="1.0" standalone="no"?>
<!DOCTYPE svg PUBLIC "-//W3C//DTD SVG 20010904//EN"
 "http://www.w3.org/TR/2001/REC-SVG-20010904/DTD/svg10.dtd">
<svg version="1.0" xmlns="http://www.w3.org/2000/svg"
 width="255.000000pt" height="239.000000pt" viewBox="0 0 255.000000 239.000000"
 preserveAspectRatio="xMidYMid meet">
<metadata>
Created by potrace 1.16, written by Peter Selinger 2001-2019
</metadata>
<g transform="translate(0.000000,239.000000) scale(0.100000,-0.100000)"
fill="#000000" stroke="none">
<path d="M1400 2304 c-420 -41 -772 -158 -927 -307 -130 -124 -256 -377 -329
-655 -31 -121 -48 -422 -41 -737 5 -229 16 -292 61 -334 33 -31 65 -26 195 34
89 41 109 46 144 41 23 -4 175 -42 337 -85 208 -56 320 -80 382 -85 47 -3 164
-18 260 -32 268 -40 405 -22 600 77 167 86 239 173 304 366 22 64 28 106 34
233 5 85 15 195 24 244 43 238 -5 553 -116 768 -72 139 -311 345 -487 419
-136 57 -256 72 -441 53z m400 -195 c67 -31 263 -163 337 -226 43 -37 93 -104
93 -125 0 -2 -253 -3 -562 -3 -498 0 -574 -2 -658 -18 -169 -32 -322 -68 -468
-112 -163 -48 -158 -51 -96 62 120 217 318 361 574 417 134 30 201 34 465 33
257 -2 261 -3 315 -28z m292 -429 c98 -15 184 -33 193 -40 8 -7 23 -38 33 -69
24 -78 24 -449 -1 -741 -18 -207 -20 -218 -53 -287 -48 -101 -109 -152 -285
-244 l-144 -74 -115 0 c-242 0 -523 45 -815 131 -322 94 -375 106 -439 100
-35 -4 -90 -20 -136 -41 -43 -19 -82 -35 -88 -35 -20 0 -24 86 -19 372 3 230
8 305 26 401 48 266 67 301 186 346 54 20 553 140 676 162 65 12 174 6 184
-11 3 -4 -20 -61 -50 -125 -50 -107 -57 -117 -78 -111 -12 4 -49 9 -82 12 -50
5 -67 2 -104 -18 -64 -33 -84 -66 -89 -142 -5 -80 10 -127 53 -164 42 -38 94
-47 165 -28 62 16 64 15 80 -49 6 -22 21 -72 34 -112 l23 -72 -77 -64 c-90
-76 -112 -113 -98 -166 17 -63 89 -121 151 -121 54 0 126 31 176 76 l51 46 48
-12 c26 -7 106 -15 177 -17 111 -5 142 -3 214 16 174 43 284 147 342 319 29
86 30 214 2 284 -44 111 -145 202 -254 228 -78 19 -187 8 -253 -24 -60 -29
-132 -102 -162 -163 -37 -78 -26 -244 14 -211 8 7 39 63 69 124 81 168 132
204 258 184 154 -25 236 -145 222 -329 -11 -146 -61 -247 -151 -306 -71 -47
-128 -59 -249 -52 -222 12 -365 111 -429 295 -20 60 -23 85 -22 227 1 169 18
264 64 360 50 102 149 159 315 179 67 8 271 -8 437 -34z"/>
</g>
</svg>
